<?xml version="1.0" encoding="UTF-8"?>
<svg width="16px" height="20px" viewBox="0 0 16 20" version="1.1" xmlns="http://www.w3.org/2000/svg" xmlns:xlink="http://www.w3.org/1999/xlink">
    <title>Group 78</title>
    <g id="最終版" stroke="none" stroke-width="1" fill="none" fill-rule="evenodd">
        <g id="Desktop_1440" transform="translate(-567.000000, -5856.000000)">
            <g id="Group-43" transform="translate(135.000000, 5445.000000)">
                <g id="Group-82" transform="translate(100.000000, 128.000000)">
                    <g id="Group-158" transform="translate(0.000000, 280.000000)">
                        <g id="Group-78" transform="translate(333.000000, 3.000000)">
                            <path d="M0.441904561,8.1976193 L6.21913119,0.976086012 C6.56414074,0.544824077 7.19343311,0.474902702 7.62469505,0.81991225 C7.68235975,0.866044012 7.73473705,0.918421309 7.78086881,0.976086012 L13.5580954,8.1976193 C13.8229179,8.52864737 13.8502424,8.99068181 13.6262832,9.35061623 L7.8490566,18.6354447 C7.55728353,19.1043658 6.94061913,19.2479725 6.47169811,18.9561995 C6.34162139,18.8752628 6.23188002,18.7655215 6.1509434,18.6354447 L0.373716767,9.35061623 C0.149757568,8.99068181 0.177082107,8.52864737 0.441904561,8.1976193 Z" id="Path-8" stroke="#FF5036"></path>
                            <rect id="Rectangle" fill="#FF5036" x="5" y="6" width="4" height="4" rx="2"></rect>
                        </g>
                    </g>
                </g>
            </g>
        </g>
    </g>
</svg>