<?xml version="1.0" encoding="UTF-8"?>
<svg width="107px" height="113px" viewBox="0 0 107 113" version="1.1" xmlns="http://www.w3.org/2000/svg" xmlns:xlink="http://www.w3.org/1999/xlink">
    <title>Group 45</title>
    <g id="最終版" stroke="none" stroke-width="1" fill="none" fill-rule="evenodd">
        <g id="Desktop_1440" transform="translate(-666.000000, -2926.000000)">
            <g id="Group-45" transform="translate(667.000000, 2927.000000)">
                <path d="M0.466092449,12.0173383 L51.2876251,64.5439288 C51.9587884,65.294147 53.0901206,65.294147 53.7602792,64.5428997 L104.534589,12.0163092 C105.555401,10.8750308 104.786778,9 103.29776,9 L85.1009946,9 C84.1545337,9 83.2512765,9.41575875 82.6082458,10.147453 L52.5244545,42.461376 L22.3371755,10.1433366 C21.6941447,9.41472965 20.7918922,9 19.8484456,9 L1.70191715,9 C0.212899095,9 -0.555723586,10.8750308 0.466092449,12.0173383" id="Fill-13" stroke="#FF5036" transform="translate(52.500000, 37.053232) rotate(-360.000000) translate(-52.500000, -37.053232) "></path>
                <path d="M0.466092449,3.01733829 L51.2876251,55.5439288 C51.9587884,56.294147 53.0901206,56.294147 53.7602792,55.5428997 L104.534589,3.01630918 C105.555401,1.87503082 104.786778,0 103.29776,0 L85.1009946,0 C84.1545337,0 83.2512765,0.415758754 82.6082458,1.147453 L52.5244545,33.461376 L22.3371755,1.14333657 C21.6941447,0.414729649 20.7918922,0 19.8484456,0 L1.70191715,0 C0.212899095,0 -0.555723586,1.87503082 0.466092449,3.01733829" id="Fill-13-Copy-2" stroke="#FF5036" transform="translate(52.500000, 28.053232) rotate(-360.000000) translate(-52.500000, -28.053232) "></path>
                <path d="M0.466092449,59.0116128 L51.2876251,111.438532 C51.9587884,112.187327 53.0901206,112.187327 53.7602792,111.437505 L104.534589,59.0105856 C105.555401,57.8714729 104.786778,56 103.29776,56 L85.1009946,56 C84.1545337,56 83.2512765,56.4149698 82.6082458,57.1452757 L52.5244545,89.3978819 L22.3371755,57.1411671 C21.6941447,56.4139427 20.7918922,56 19.8484456,56 L1.70191715,56 C0.212899095,56 -0.555723586,57.8714729 0.466092449,59.0116128" id="Fill-13-Copy" fill="#FF5036" transform="translate(52.500000, 84.000000) rotate(-360.000000) translate(-52.500000, -84.000000) "></path>
            </g>
        </g>
    </g>
</svg>