<?xml version="1.0" encoding="UTF-8"?>
<svg width="273px" height="93px" viewBox="0 0 273 93" version="1.1" xmlns="http://www.w3.org/2000/svg" xmlns:xlink="http://www.w3.org/1999/xlink">
    <title>Group 79</title>
    <defs>
        <polygon id="path-1" points="0 0 38 0 38 63 0 63"></polygon>
        <polygon id="path-3" points="0 0 11 0 11 10 0 10"></polygon>
        <polygon id="path-5" points="0 0 11 0 11 10 0 10"></polygon>
    </defs>
    <g id="最終版" stroke="none" stroke-width="1" fill="none" fill-rule="evenodd">
        <g id="Desktop_1440" transform="translate(-235.000000, -5610.000000)">
            <g id="Group-43" transform="translate(135.000000, 5445.000000)">
                <g id="Group-82" transform="translate(100.000000, 128.000000)">
                    <g id="Group-79" transform="translate(0.000000, 37.000000)">
                        <path d="M0.919813761,2 C0.411795137,2 0,2.40680636 0,2.90867048 L0,41.9774127 C0,56.9960288 11.4687015,63 23.50388,63 C28.2141749,63 31.4185204,61.852663 32.9549922,61.1402408 C33.5959648,60.842802 34,60.2009065 34,59.5012609 L34,53.8565672 C34,53.1993398 33.317641,52.7577811 32.7097775,53.0255783 C31.1433006,53.7155137 28.123642,54.6829565 23.50388,54.6829565 C15.2524573,54.6829565 8.77340921,50.2612371 8.77340921,38.5241582 L8.77340921,2.90867048 C8.77340921,2.40680636 8.36161407,2 7.85307812,2 L0.919813761,2 Z" id="Fill-1" fill="#FFFFFF"></path>
                        <path d="M49.8878802,62 L43.1115994,62 C42.4975136,62 42,61.5110641 42,60.9075659 L42,3.09243411 C42,2.4894473 42.4975136,2 43.1115994,2 L49.8878802,2 C50.501966,2 51,2.4894473 51,3.09243411 L51,60.9075659 C51,61.5110641 50.501966,62 49.8878802,62" id="Fill-3" fill="#FFFFFF"></path>
                        <path d="M68.8883363,62 L62.1116637,62 C61.4975424,62 61,61.5110641 61,60.9075659 L61,3.09243411 C61,2.4894473 61.4975424,2 62.1116637,2 L68.8883363,2 C69.5024576,2 70,2.4894473 70,3.09243411 L70,60.9075659 C70,61.5110641 69.5024576,62 68.8883363,62" id="Fill-5" fill="#FFFFFF"></path>
                        <path d="M130.888336,62 L124.111664,62 C123.497542,62 123,61.5110641 123,60.9075659 L123,3.09243411 C123,2.4894473 123.497542,2 124.111664,2 L130.888336,2 C131.502458,2 132,2.4894473 132,3.09243411 L132,60.9075659 C132,61.5110641 131.502458,62 130.888336,62" id="Fill-7" fill="#FFFFFF"></path>
                        <path d="M112.080186,62 C112.588205,62 113,61.5931936 113,61.0913295 L113,22.0225873 C113,7.00397121 101.531298,1 89.49612,1 C84.5100879,1 81.4671495,2.10440771 80.0196586,2.81836309 C79.3947232,3.12755636 79,3.75565311 79,4.44609958 L79,10.1434328 C79,10.8006602 79.682359,11.2422189 80.2902225,10.9744217 C81.8566994,10.2844863 84.876358,9.3175546 89.49612,9.3175546 C97.7475427,9.3175546 104.226591,13.7387629 104.226591,25.4758418 L104.226591,61.0913295 C104.226591,61.5931936 104.638386,62 105.146922,62 L112.080186,62 Z" id="Fill-9" fill="#FFFFFF"></path>
                        <path d="M208.888401,62 L202.11212,62 C201.498034,62 201,61.51106 201,60.9075566 L201,3.09193198 C201,2.48894003 201.498034,2 202.11212,2 L208.888401,2 C209.502486,2 210,2.48894003 210,3.09193198 L210,60.9075566 C210,61.51106 209.502486,62 208.888401,62" id="Fill-11" fill="#FFFFFF"></path>
                        <path d="M140.235089,2.50543197 L165.888051,28.7190895 C166.226746,29.0936368 166.797879,29.0936368 167.136063,28.7190895 L192.765015,2.50491464 C193.280465,1.93481635 192.892217,1 192.140753,1 L182.955628,1 C182.477981,1 182.022301,1.20693223 181.697399,1.57216762 L166.512313,17.6989136 L151.274609,1.57009829 C150.950217,1.2064149 150.495048,1 150.017912,1 L140.859351,1 C140.107376,1 139.719639,1.93533368 140.235089,2.50543197" id="Fill-13" fill="#FFFFFF"></path>
                        <path d="M140.235089,59.4945924 L165.888051,33.2808413 C166.226746,32.9063 166.797879,32.9063 167.136063,33.2813587 L192.765015,59.4945924 C193.280465,60.0646814 192.892217,61 192.140753,61 L182.955628,61 C182.477981,61 182.022301,60.7925538 181.697399,60.4278416 L166.512313,44.3013564 L151.274609,60.4299109 C150.950217,60.7935884 150.495048,61 150.017912,61 L140.859351,61 C140.107376,61 139.719639,60.0646814 140.235089,59.4945924" id="Fill-15" fill="#FFFFFF"></path>
                        <g id="Group-19" transform="translate(218.000000, 0.000000)">
                            <mask id="mask-2" fill="white">
                                <use xlink:href="#path-1"></use>
                            </mask>
                            <g id="Clip-18"></g>
                            <path d="M9.06911898,15.0266466 C9.06911898,7.39209142 22.2523557,5.61681804 32.7046784,11.1087305 C33.2830142,11.412457 33.9787918,11.0078333 33.9787918,10.3595041 L33.9787918,3.82033037 C33.9787918,3.48141925 33.7778358,3.1756231 33.4646576,3.03850639 C30.1585396,1.5845518 25.3700448,-0.000310452938 20.2031263,-0.000310452938 C10.663718,-0.000310452938 0.6237466,3.40898023 0.6237466,15.0266466 C0.6237466,32.2552324 29.7420126,32.8999397 29.7420126,46.0967766 C29.7420126,56.8751852 12.2029889,56.5885337 1.27411335,50.5455672 C0.70308508,50.2299401 0,50.645947 0,51.2947936 L0,58.4305544 C0,58.7280718 0.15450125,59.0038575 0.410785418,59.1596014 C6.31210681,62.7375715 38,69.8345257 38,46.0967766 C38,26.9604575 9.06911898,26.1367224 9.06911898,15.0266466" id="Fill-17" fill="#FFFFFF" mask="url(#mask-2)"></path>
                        </g>
                        <g id="Group-22" transform="translate(262.000000, 52.000000)">
                            <mask id="mask-4" fill="white">
                                <use xlink:href="#path-3"></use>
                            </mask>
                            <g id="Clip-21"></g>
                            <path d="M6.33621865,10 L4.66355914,10 C2.08818568,10 0,8.04493681 0,5.63322411 L0,4.36677589 C0,1.95506319 2.08818568,0 4.66355914,0 L6.33621865,0 C8.91214763,0 11.0003333,1.95506319 11.0003333,4.36677589 L11.0003333,5.63322411 C11.0003333,8.04493681 8.91214763,10 6.33621865,10" id="Fill-20" fill="#FFFFFF" mask="url(#mask-4)"></path>
                        </g>
                        <g id="Group-25" transform="translate(262.000000, 36.000000)">
                            <mask id="mask-6" fill="white">
                                <use xlink:href="#path-5"></use>
                            </mask>
                            <g id="Clip-24"></g>
                            <path d="M6.33621865,10 L4.66355914,10 C2.08818568,10 0,8.04493681 0,5.63322411 L0,4.36677589 C0,1.95506319 2.08818568,0 4.66355914,0 L6.33621865,0 C8.91214763,0 11.0003333,1.95506319 11.0003333,4.36677589 L11.0003333,5.63322411 C11.0003333,8.04493681 8.91214763,10 6.33621865,10" id="Fill-23" fill="#FFFFFF" mask="url(#mask-6)"></path>
                        </g>
                        <path d="M71.3405175,78 C71.1529398,78 71,77.8380818 71,77.6394922 L71,76.3599436 C71,76.161354 71.1529398,76 71.3405175,76 L79.6594825,76 C79.8475931,76 80,76.161354 80,76.3599436 L80,77.6394922 C80,77.8380818 79.8475931,78 79.6594825,78 L71.3405175,78 Z" id="Fill-26" fill="#FFFFFF"></path>
                        <path d="M83.4466635,93 C83.2615825,93 83.1116301,92.8509369 83.1116301,92.6674745 L83.1116301,81.8020223 L79.3339847,81.8020223 C79.1499523,81.8020223 79,81.6529591 79,81.4694968 L79,79.9319574 C79,79.7479738 79.1499523,79.5989107 79.3339847,79.5989107 L83.1116301,79.5989107 L83.1116301,73.3325255 C83.1116301,73.1490631 83.2615825,73 83.4466635,73 L85.306387,73 C85.4904194,73 85.6408961,73.1490631 85.6408961,73.3325255 L85.6408961,79.5989107 L89.6649666,79.5989107 C89.8500477,79.5989107 90,79.7479738 90,79.9319574 L90,81.4694968 C90,81.6529591 89.8500477,81.8020223 89.6649666,81.8020223 L85.6408961,81.8020223 L85.6408961,92.6674745 C85.6408961,92.8509369 85.4904194,93 85.306387,93 L83.4466635,93 Z" id="Fill-28" fill="#FFFFFF"></path>
                        <path d="M72.3432744,75 C72.1538816,75 72,74.8441841 72,74.6524108 L72,73.3475892 C72,73.1558159 72.1538816,73 72.3432744,73 L78.6567256,73 C78.8461184,73 79,73.1558159 79,73.3475892 L79,74.6524108 C79,74.8441841 78.8461184,75 78.6567256,75 L72.3432744,75 Z" id="Fill-30" fill="#FFFFFF"></path>
                        <path d="M72.3432744,82 C72.1538816,82 72,81.8405353 72,81.6437134 L72,80.355729 C72,80.1594647 72.1538816,80 72.3432744,80 L78.6567256,80 C78.8461184,80 79,80.1594647 79,80.355729 L79,81.6437134 C79,81.8405353 78.8461184,82 78.6567256,82 L72.3432744,82 Z" id="Fill-32" fill="#FFFFFF"></path>
                        <path d="M74.1216836,90.2445307 L76.8783164,90.2445307 L76.8783164,87.7772641 L74.1216836,87.7772641 L74.1216836,90.2445307 Z M72.3202352,92 C72.1435537,92 72,91.858334 72,91.6844712 L72,86.3165194 C72,86.1421613 72.1435537,86 72.3202352,86 L78.6792629,86 C78.8564463,86 79,86.1421613 79,86.3165194 L79,91.6844712 C79,91.858334 78.8564463,92 78.6792629,92 L72.3202352,92 Z" id="Fill-34" fill="#FFFFFF"></path>
                        <path d="M72.3432744,85 C72.1538816,85 72,84.8405353 72,84.644271 L72,83.3562866 C72,83.1594647 72.1538816,83 72.3432744,83 L78.6567256,83 C78.8461184,83 79,83.1594647 79,83.3562866 L79,84.644271 C79,84.8405353 78.8461184,85 78.6567256,85 L72.3432744,85 Z" id="Fill-36" fill="#FFFFFF"></path>
                        <path d="M11.0476391,80.359835 L13.9942718,80.359835 L13.9942718,78.0626183 L11.0476391,78.0626183 L11.0476391,80.359835 Z M11.0476391,84.7384504 L13.9942718,84.7384504 L13.9942718,82.3302119 L11.0476391,82.3302119 L11.0476391,84.7384504 Z M2.22087921,86.3389277 L4.21157737,86.3389277 L4.21157737,76.7448834 L2.22087921,76.7448834 L2.22087921,86.3389277 Z M11.0476391,89.18399 L13.9942718,89.18399 L13.9942718,86.7103836 L11.0476391,86.7103836 L11.0476391,89.18399 Z M8.96182043,92 C8.77683475,92 8.62653388,91.8516251 8.62653388,91.6695287 L8.62548283,79.8467485 L8.46309483,80.0926565 C8.29965578,80.3421961 8.13253804,80.5798034 7.96226713,80.8070348 L7.75100507,81.0731758 L7.75310718,81.0757698 L7.2144415,81.7517574 C7.15032714,81.8326892 7.05415561,81.878343 6.95062669,81.878343 C6.87495073,81.878343 6.80347899,81.8539597 6.74409438,81.8077871 L6.45400321,81.582112 L6.45557979,88.1235766 C6.45557979,88.305673 6.3047534,88.4540479 6.11976772,88.4540479 L0.335286544,88.4540479 C0.150826392,88.4540479 0,88.305673 0,88.1235766 L0,74.9182122 C0,74.735597 0.150826392,74.5872221 0.335286544,74.5872221 L6.11976772,74.5872221 C6.3047534,74.5872221 6.45557979,74.735597 6.45557979,74.9182122 L6.45557979,79.1583098 L6.61586568,78.9284843 C7.07675329,78.2675417 7.53816643,77.5095847 7.98801797,76.6753651 C8.43524187,75.8427019 8.84357674,74.9918809 9.20146097,74.1467666 C9.49050109,73.4604031 9.72015661,72.820731 9.88359566,72.2448704 C9.92563786,72.0985707 10.0538666,72 10.2041674,72 C10.2320204,72 10.2603989,72.0036316 10.2887774,72.0108947 L11.8711407,72.4124407 C11.9652101,72.4363052 12.0450903,72.4980416 12.0897601,72.5820861 C12.1323278,72.6630178 12.1391597,72.755363 12.1081536,72.8414827 C11.954174,73.2559985 11.7854797,73.6881534 11.6031216,74.135872 C11.3645321,74.7226272 11.0975642,75.3306529 10.8101006,75.9454229 L10.7522926,76.068377 L13.9942718,76.068377 L13.9942718,73.1366761 C13.9942718,72.9540609 14.1450981,72.805686 14.3300838,72.805686 L15.997057,72.805686 C16.1825683,72.805686 16.3328691,72.9540609 16.3328691,73.1366761 L16.3328691,76.068377 L19.5307039,76.068377 C19.7156896,76.068377 19.8659905,76.2172706 19.8659905,76.3998859 L19.8659905,77.7316282 C19.8659905,77.9142435 19.7156896,78.0626183 19.5307039,78.0626183 L16.3286649,78.0626183 L16.3286649,80.359835 L18.7902357,80.359835 C18.9757469,80.359835 19.1265733,80.5082099 19.1265733,80.6903063 L19.1265733,81.9997406 C19.1265733,82.181837 18.9757469,82.3307307 18.7902357,82.3307307 L16.3286649,82.3307307 L16.3286649,84.7384504 L18.7902357,84.7384504 C18.9757469,84.7384504 19.1265733,84.8868252 19.1265733,85.0694405 L19.1265733,86.3788747 C19.1265733,86.56149 18.9757469,86.7103836 18.7902357,86.7103836 L16.3286649,86.7103836 L16.3286649,89.18399 L19.6641879,89.18399 C19.8496991,89.18399 20,89.3328837 20,89.5149802 L20,90.9572255 C20,91.1398407 19.8496991,91.2882156 19.6641879,91.2882156 L11.0476391,91.2882156 L11.0476391,91.6695287 C11.0476391,91.8516251 10.8973382,92 10.7123525,92 L8.96182043,92 Z" id="Fill-37" fill="#FFFFFF"></path>
                        <path d="M48.3182309,75 C48.1426552,75 48,74.8441841 48,74.6524108 L48,73.3475892 C48,73.1558159 48.1426552,73 48.3182309,73 L53.6812703,73 C53.856846,73 54,73.1558159 54,73.3475892 L54,74.6524108 C54,74.8441841 53.856846,75 53.6812703,75 L48.3182309,75 Z" id="Fill-38" fill="#FFFFFF"></path>
                        <path d="M48.3175944,82 C48.1421471,82 48,81.8405353 48,81.6437134 L48,80.355729 C48,80.1594647 48.1421471,80 48.3175944,80 L53.6824056,80 C53.8573559,80 54,80.1594647 54,80.355729 L54,81.6437134 C54,81.8405353 53.8573559,82 53.6824056,82 L48.3175944,82 Z" id="Fill-39" fill="#FFFFFF"></path>
                        <path d="M48.3175944,85 C48.1421471,85 48,84.8405353 48,84.644271 L48,83.3562866 C48,83.1594647 48.1421471,83 48.3175944,83 L53.6824056,83 C53.8573559,83 54,83.1594647 54,83.3562866 L54,84.644271 C54,84.8405353 53.8573559,85 53.6824056,85 L48.3175944,85 Z" id="Fill-40" fill="#FFFFFF"></path>
                        <path d="M47.3234269,78 C47.1449845,78 47,77.8380818 47,77.6394922 L47,76.3599436 C47,76.161354 47.1449845,76 47.3234269,76 L54.6760662,76 C54.8545086,76 55,76.161354 55,76.3599436 L55,77.6394922 C55,77.8380818 54.8545086,78 54.6760662,78 L47.3234269,78 Z" id="Fill-41" fill="#FFFFFF"></path>
                        <path d="M50.2185823,90.1984426 L52.7819703,90.1984426 L52.7819703,87.8025622 L50.2185823,87.8025622 L50.2185823,90.1984426 Z M48.3530944,92 C48.1585886,92 48,91.8558151 48,91.6794775 L48,86.3205225 C48,86.1436825 48.1585886,86 48.3530944,86 L54.6474582,86 C54.841964,86 55,86.1436825 55,86.3205225 L55,91.6794775 C55,91.8558151 54.841964,92 54.6474582,92 L48.3530944,92 Z" id="Fill-42" fill="#FFFFFF"></path>
                        <path d="M59.1676355,84.2328117 C59.4981162,85.2021027 60.0305573,86.122445 60.7507954,86.9680196 L60.8163669,87.0449389 L60.8824631,86.9690954 C61.6294544,86.1100733 62.2143527,85.1913447 62.6182736,84.2387286 L62.67178,84.1123227 L59.1272434,84.1123227 L59.1676355,84.2328117 Z M66.0736329,93 C66.0316671,93 65.9907504,92.9919315 65.9514075,92.9763325 L65.8753445,92.9456724 C64.8697389,92.6971638 63.9601301,92.3679707 63.1580587,91.9640098 C62.288842,91.5266993 61.4899181,90.9979462 60.7833189,90.3938875 L60.7292879,90.3470905 L60.6731586,90.3917359 C59.9340359,90.9828851 59.1219977,91.5116381 58.2606496,91.9650856 C57.851483,92.1802445 57.4045472,92.3824939 56.8547952,92.6008802 L56.0411832,92.9284597 C56.0070859,92.9419071 55.9687921,92.9451345 55.9336458,92.9467482 L55.9320721,92.9467482 C55.7783723,92.9467482 55.6571961,92.8633741 55.6073617,92.7337408 L55.0229879,91.2066504 C54.9558426,91.0307579 55.0408233,90.831198 55.2123586,90.7618093 L56.021774,90.4363814 L56.021774,90.4234719 C56.311338,90.302445 56.5993283,90.1803423 56.8757781,90.0388753 C57.6495225,89.642445 58.3760555,89.1836186 59.0354432,88.6779951 L59.1073096,88.6225917 L59.0522295,88.5499756 C58.5491644,87.8840587 58.1085235,87.17511 57.7413227,86.4430318 C57.3730728,85.7114914 57.0740665,84.949291 56.8532214,84.1768704 L56.8348614,84.1123227 L55.5585764,84.1123227 C55.3744515,84.1123227 55.2238991,83.9584841 55.2238991,83.7696822 L55.2238991,82.3426406 C55.2238991,82.1538386 55.3744515,82 55.5585764,82 L65.5490603,82 C65.6786298,82 65.8842622,82.1161858 65.8842622,82.4287042 C65.8842622,82.4319315 65.8900325,82.6121271 65.8837376,82.7003423 C65.8769182,82.790709 65.8365261,82.9994132 65.8155432,83.0618093 C65.228022,84.8374083 63.9202626,87.04978 62.5631935,88.5677262 L62.4970973,88.6414181 L62.5752586,88.7016626 C63.2509081,89.2088998 63.9984239,89.647824 64.7957742,90.0066015 C65.1335989,90.1593643 65.4971277,90.2981418 65.9073434,90.4320782 L65.9398669,90.449291 L66.7875761,90.7903178 C66.9596359,90.8597066 67.0440921,91.0592665 66.9769468,91.2362347 L66.3857535,92.7821516 C66.3343454,92.9144743 66.2126446,93 66.0736329,93 L66.0736329,93 Z" id="Fill-43" fill="#FFFFFF"></path>
                        <path d="M56.3233573,81 C56.1872638,81 56.0934417,80.9543774 56.0341585,80.8756659 L55.0634609,79.5721627 C55.0113948,79.5029768 54.9902591,79.4187504 55.0041777,79.3340227 C55.0180964,79.2497963 55.0655229,79.1755969 55.1356317,79.1254622 L55.8568245,78.7083412 C57.2327097,77.6284389 57.4219004,76.3855988 57.4219004,75.2029203 L57.4219004,73.320361 C57.4219004,73.1433853 57.5693351,73 57.7507932,73 L64.3255554,73 C64.5070135,73 64.6544482,73.1433853 64.6544482,73.320361 L64.6544482,77.5752961 C64.6544482,78.2004763 64.6544482,78.4596729 65.0488102,78.4596729 L66.7314214,78.4606756 C66.8798871,78.4606756 67,78.5774895 67,78.7213762 L67,80.1472081 C67,80.2910948 66.8798871,80.4079088 66.7314214,80.4079088 L64.8070379,80.4064047 C62.7625415,80.4064047 62.4326177,79.5661465 62.4326177,77.5537382 L62.4326177,75.1828665 L59.6215641,75.1828665 L59.6215641,75.2665915 C59.6215641,77.8570533 58.6781883,79.5902112 56.7378241,80.7758977 L56.4945053,80.9468572 C56.4620284,80.9694178 56.42285,80.9859623 56.3754234,80.9959892 C56.3754234,80.9959892 56.3259349,81 56.3233573,81" id="Fill-44" fill="#FFFFFF"></path>
                        <path d="M34.0879415,77.5242242 L37.7244443,77.5242242 L37.7244443,75.9173203 L34.0879415,75.9173203 L34.0879415,77.5242242 Z M34.0879415,80.9242714 L37.7244443,80.9242714 L37.7244443,79.4506204 L34.0879415,79.4506204 L34.0879415,80.9242714 Z M24.8968862,92 C24.8429844,92 24.7912173,91.9879338 24.743186,91.9638014 L23.1875057,91.1899903 C23.1058525,91.1495947 23.0455465,91.0803452 23.0172614,90.9953571 C22.9889763,90.9108937 22.9953805,90.8201348 23.0370076,90.7403929 C23.0370076,90.7403929 24.0131103,88.8171445 24.1844219,88.3827611 C24.5585324,87.4394985 24.8355128,86.3378013 25.0094929,85.1080975 C25.1834729,83.8757705 25.2720639,82.4162841 25.2720639,80.7689846 L25.2720639,74.2364452 C25.2720639,74.0512551 25.4252304,73.9012145 25.6130861,73.9012145 L32.9848227,73.9012145 L32.9848227,72.3347061 C32.9848227,72.1500407 33.1374555,72 33.3258449,72 L35.4226779,72 C35.6105336,72 35.7631664,72.1500407 35.7631664,72.3347061 L35.7631664,73.9012145 L43.6589778,73.9012145 C43.8468335,73.9012145 44,74.0512551 44,74.2364452 L44,75.5820896 C44,75.766755 43.8468335,75.9173203 43.6589778,75.9173203 L40.2076623,75.9173203 L40.2076623,77.5242242 L43.2864684,77.5242242 C43.4737905,77.5242242 43.6269569,77.6747895 43.6269569,77.8589303 L43.6269569,79.1159143 C43.6269569,79.3005797 43.4737905,79.4506204 43.2864684,79.4506204 L40.2076623,79.4506204 L40.2076623,82.2919497 C40.2076623,82.4766152 40.0550295,82.6266558 39.8677075,82.6266558 L31.945212,82.6266558 C31.7573563,82.6266558 31.6047235,82.4766152 31.6047235,82.2919497 L31.6047235,79.4506204 L28.6657419,79.4506204 L28.6385241,79.4396034 C28.5136428,79.4123233 28.4266527,79.3094982 28.4266527,79.1888361 L28.4266527,77.7860084 C28.4266527,77.665871 28.5136428,77.5630459 28.6385241,77.5357658 L28.6950943,77.523175 L31.6047235,77.5242242 L31.6047235,75.9173203 L27.7093854,75.9173203 L27.7093854,80.6346825 C27.7093854,82.9875928 27.4510837,85.1542638 27.0630976,87.1016447 C26.4392244,90.2341369 25.200017,91.8169084 25.200017,91.8169084 C25.1423794,91.9297012 25.026037,92 24.8968862,92 L24.8968862,92 Z" id="Fill-45" fill="#FFFFFF"></path>
                        <path d="M33.5296893,86.0733238 C34.0761855,86.825744 34.7355001,87.4802797 35.4910725,88.0191825 L35.5371314,88.05199 L35.5847428,88.0224095 C36.0246309,87.7481176 36.451581,87.4415561 36.8516204,87.1102546 C37.2475196,86.78218 37.6211657,86.4368949 37.9622083,86.0830047 L38.1102177,85.9286483 L33.4251512,85.9286483 L33.5296893,86.0733238 Z M28.5216932,93 C28.3555708,93 28.2148066,92.869308 28.1946235,92.6961276 L28.0021078,91.0003586 C27.992275,90.9094658 28.0171158,90.8196486 28.0709374,90.7475798 C28.125794,90.6760488 28.2034213,90.6303335 28.2913989,90.6195769 L28.9641689,90.5367515 L28.9641689,90.5163141 C30.5068821,90.2527788 31.9435048,89.8321979 33.2352231,89.2664037 L33.3568392,89.2131588 L33.2610989,89.1179634 C32.3461317,88.2122625 31.5952169,87.1559699 31.0285376,85.9786662 L31.0047319,85.9286483 L29.3383325,85.9286483 C29.1561671,85.9286483 29.0081577,85.7748297 29.0081577,85.5860523 L29.0081577,84.3431337 C29.0081577,84.1538186 29.1561671,84 29.3383325,84 L41.2303178,84 C41.5190914,84 41.6313922,84.1199355 41.6313922,84.4286483 L41.6313922,84.9116171 C41.6313922,85.0068125 41.5434146,85.2429186 41.5035659,85.30692 C41.0564327,86.0222302 40.5430574,86.6998924 39.9779307,87.3210828 C39.3517371,88.0105773 38.6655117,88.6511294 37.9368501,89.2260667 L37.8131639,89.3239512 L37.9585857,89.3814987 C38.8714828,89.7493725 39.8485518,90.0322696 40.8633994,90.2237361 C41.4259386,90.3291502 42.0159061,90.4028326 42.7150694,90.4533883 L42.7150694,90.4555396 L42.7978718,90.4743636 L43.6843756,90.5238437 C43.7723532,90.5281463 43.8536031,90.5674077 43.9131174,90.6351739 C43.9731492,90.7029401 44.0042001,90.790606 43.9995425,90.8814987 L43.9265728,92.6122266 C43.9193276,92.7967013 43.7749408,92.940839 43.597433,92.940839 L42.7119643,92.8913589 L42.6726331,92.8859806 C41.2551585,92.7601291 39.9505023,92.5261743 38.7959256,92.1916458 C37.5942549,91.8436716 36.5059201,91.3838293 35.5609371,90.8244891 L35.5195359,90.8002868 L35.4781346,90.8228756 C34.4136056,91.3978128 33.2766243,91.8743277 32.0966893,92.2378989 C31.2546918,92.4965938 30.3485224,92.7041951 29.3243596,92.8714593 L29.2425921,92.8843672 L29.2456972,92.9134098 L28.5610244,92.9973109 L28.5216932,93 Z" id="Fill-46" fill="#FFFFFF"></path>
                    </g>
                </g>
            </g>
        </g>
    </g>
</svg>