<svg id="Layer_1" data-name="Layer 1" xmlns="http://www.w3.org/2000/svg" viewBox="0 0 1024 360"><defs><style>.cls-1{fill:#fff;}.cls-2{fill:#ef5234;}</style></defs><path class="cls-1" d="M7.89,11.59A3.42,3.42,0,0,0,4.47,15V161.76c0,56.42,42.56,79,87.23,79,17.48,0,29.37-4.31,35.07-7a6.8,6.8,0,0,0,3.88-6.16V206.38a3.41,3.41,0,0,0-4.79-3.12c-5.81,2.6-17,6.23-34.16,6.23-30.62,0-54.67-16.61-54.67-60.7V15a3.41,3.41,0,0,0-3.41-3.41Z"/><rect class="cls-1" x="161.62" y="11.59" width="33.2" height="225.22" rx="4.1"/><rect class="cls-1" x="231.92" y="11.59" width="33.2" height="225.22" rx="4.1"/><rect class="cls-1" x="460.25" y="11.59" width="33.2" height="225.22" rx="4.1"/><path class="cls-1" d="M419.73,236.81a3.41,3.41,0,0,0,3.41-3.41V86.64c0-56.42-42.56-79-87.22-79-18.5,0-29.79,4.14-35.17,6.83A6.82,6.82,0,0,0,297,20.61V42a3.41,3.41,0,0,0,4.79,3.13c5.81-2.6,17-6.23,34.16-6.23,30.62,0,54.67,16.61,54.67,60.7V233.4a3.41,3.41,0,0,0,3.41,3.41Z"/><rect class="cls-1" x="751.96" y="12.22" width="33.2" height="225.22" rx="4.1"/><path class="cls-1" d="M524,17.81l96.41,97.28a3.16,3.16,0,0,0,4.69,0l96.31-97.28a3.33,3.33,0,0,0-2.35-5.59H684.55a6.35,6.35,0,0,0-4.73,2.13L622.75,74.19,565.49,14.34a6.37,6.37,0,0,0-4.72-2.12H526.35A3.33,3.33,0,0,0,524,17.81Z"/><path class="cls-1" d="M524,231.22l96.41-97.28a3.17,3.17,0,0,1,4.69,0l96.31,97.27a3.33,3.33,0,0,1-2.35,5.59H684.55a6.37,6.37,0,0,1-4.73-2.12l-57.07-59.85-57.26,59.85a6.37,6.37,0,0,1-4.72,2.12H526.35A3.33,3.33,0,0,1,524,231.22Z"/><path class="cls-1" d="M852.8,61.75c0-28.32,48.49-34.91,86.93-14.53a3.18,3.18,0,0,0,4.69-2.78V20.17a3.18,3.18,0,0,0-1.89-2.9C930.37,11.88,912.75,6,893.75,6c-35.09,0-72,12.65-72,55.75,0,63.93,107.09,66.32,107.09,115.28,0,40-64.5,38.93-104.7,16.51a3.17,3.17,0,0,0-4.69,2.78v26.47A3.18,3.18,0,0,0,821,225.5c21.71,13.27,138.26,39.61,138.26-48.47C959.21,106,852.8,103,852.8,61.75Z"/><rect class="cls-2" x="981.98" y="199.11" width="38.02" height="36.91" rx="16.12"/><rect class="cls-2" x="981.98" y="143.74" width="38.02" height="36.91" rx="16.12"/><path class="cls-1" d="M268.86,292.17h30a1.22,1.22,0,0,1,1.22,1.22v4.35a1.23,1.23,0,0,1-1.23,1.23h-30a1.22,1.22,0,0,1-1.22-1.22v-4.35A1.23,1.23,0,0,1,268.86,292.17Z"/><path class="cls-1" d="M317.55,351.51a1.22,1.22,0,0,1-1.22-1.22v-40H302.5a1.23,1.23,0,0,1-1.23-1.22v-5.66a1.23,1.23,0,0,1,1.23-1.23h13.83V279.07a1.23,1.23,0,0,1,1.22-1.23h6.81a1.23,1.23,0,0,1,1.23,1.23v23.08h14.73a1.23,1.23,0,0,1,1.23,1.23V309a1.23,1.23,0,0,1-1.23,1.22H325.59v40a1.23,1.23,0,0,1-1.23,1.22Z"/><path class="cls-1" d="M272.78,280.46h22.53a1.22,1.22,0,0,1,1.22,1.22v4.6a1.23,1.23,0,0,1-1.23,1.23H272.78a1.23,1.23,0,0,1-1.23-1.23v-4.6A1.23,1.23,0,0,1,272.78,280.46Z"/><path class="cls-1" d="M272.78,303.62h22.53a1.22,1.22,0,0,1,1.22,1.22v4.44a1.23,1.23,0,0,1-1.23,1.23H272.78a1.22,1.22,0,0,1-1.22-1.22v-4.44A1.23,1.23,0,0,1,272.78,303.62Z"/><path class="cls-1" d="M272,350.12a1.23,1.23,0,0,1-1.23-1.22V328.09a1.23,1.23,0,0,1,1.23-1.22h24.32a1.23,1.23,0,0,1,1.23,1.22V348.9a1.23,1.23,0,0,1-1.23,1.22Zm6.89-6.8H289.4v-9.57H278.86Z"/><path class="cls-1" d="M272.78,315.16h22.53a1.22,1.22,0,0,1,1.22,1.22v4.44a1.23,1.23,0,0,1-1.23,1.23H272.78a1.22,1.22,0,0,1-1.22-1.22v-4.44A1.23,1.23,0,0,1,272.78,315.16Z"/><path class="cls-1" d="M36.74,351a1.23,1.23,0,0,1-1.23-1.22V306l-.59.91q-.9,1.38-1.83,2.64l-.78,1h0l-2,2.5a1.23,1.23,0,0,1-1,.47,1.13,1.13,0,0,1-.75-.27l-1.06-.83v24.21a1.22,1.22,0,0,1-1.22,1.22H5.23A1.23,1.23,0,0,1,4,336.67V287.8a1.23,1.23,0,0,1,1.23-1.23H26.36a1.23,1.23,0,0,1,1.22,1.23v15.69l.59-.85a86.64,86.64,0,0,0,5-8.34c1.64-3.08,3.13-6.23,4.43-9.36a61.86,61.86,0,0,0,2.5-7,1.22,1.22,0,0,1,1.17-.91,1.54,1.54,0,0,1,.3,0l5.79,1.49a1.24,1.24,0,0,1,.79.62,1.15,1.15,0,0,1,.07,1c-.56,1.54-1.18,3.14-1.84,4.79-.88,2.17-1.85,4.43-2.9,6.7l-.21.46H55.12V281.21A1.23,1.23,0,0,1,56.35,280h6.09a1.23,1.23,0,0,1,1.22,1.23v10.85H75.35a1.22,1.22,0,0,1,1.22,1.22v4.93a1.23,1.23,0,0,1-1.22,1.23H63.65v8.5h9a1.22,1.22,0,0,1,1.23,1.22V314a1.23,1.23,0,0,1-1.23,1.23h-9v8.91h9a1.23,1.23,0,0,1,1.23,1.22v4.85a1.23,1.23,0,0,1-1.23,1.23h-9v9.15H75.84a1.22,1.22,0,0,1,1.22,1.22v5.34a1.23,1.23,0,0,1-1.22,1.23H44.36v1.41A1.23,1.23,0,0,1,43.13,351Zm7.62-10.42H55.12v-9.15H44.36ZM12.11,330.06h7.28v-35.5H12.11Zm32.25-5.92H55.12v-8.91H44.36Zm0-16.2H55.12v-8.5H44.36Z"/><path class="cls-1" d="M186.26,280.46H206.9a1.22,1.22,0,0,1,1.22,1.22v4.6a1.23,1.23,0,0,1-1.23,1.23H186.26a1.22,1.22,0,0,1-1.22-1.22v-4.6A1.22,1.22,0,0,1,186.26,280.46Z"/><path class="cls-1" d="M186.18,303.62H206.9a1.22,1.22,0,0,1,1.22,1.22v4.44a1.23,1.23,0,0,1-1.23,1.23H186.18a1.22,1.22,0,0,1-1.22-1.22v-4.44A1.23,1.23,0,0,1,186.18,303.62Z"/><path class="cls-1" d="M186.18,315.16H206.9a1.22,1.22,0,0,1,1.22,1.22v4.44A1.23,1.23,0,0,1,206.9,322H186.18a1.22,1.22,0,0,1-1.22-1.22v-4.44A1.23,1.23,0,0,1,186.18,315.16Z"/><path class="cls-1" d="M182.25,292.17h27.84a1.22,1.22,0,0,1,1.22,1.22v4.35a1.23,1.23,0,0,1-1.23,1.23H182.25a1.22,1.22,0,0,1-1.22-1.22v-4.35A1.23,1.23,0,0,1,182.25,292.17Z"/><path class="cls-1" d="M185.85,349.79a1.23,1.23,0,0,1-1.23-1.22V328.09a1.23,1.23,0,0,1,1.23-1.22h21.87a1.22,1.22,0,0,1,1.22,1.22v20.48a1.22,1.22,0,0,1-1.22,1.22Zm6.48-6.88h8.91v-9.16h-8.91Z"/><path class="cls-1" d="M252.16,351.31a1.33,1.33,0,0,1-.45-.08l-.28-.11a48.29,48.29,0,0,1-9.94-3.5A43.58,43.58,0,0,1,232.8,342l-.2-.16-.21.15a55.42,55.42,0,0,1-8.83,5.62,52.2,52.2,0,0,1-5.14,2.27l-3,1.17a1,1,0,0,1-.39.06h0a1.23,1.23,0,0,1-1.19-.76l-2.13-5.45a1.22,1.22,0,0,1,.69-1.59l3-1.16v0c1.06-.43,2.11-.87,3.12-1.37a52.44,52.44,0,0,0,7.91-4.86l.26-.2-.2-.26a49.52,49.52,0,0,1-4.8-7.52,46.36,46.36,0,0,1-3.25-8.09l-.06-.23h-4.67a1.23,1.23,0,0,1-1.23-1.22v-5.09a1.23,1.23,0,0,1,1.23-1.23h36.56a1.36,1.36,0,0,1,1.22,1.53s0,.66,0,1a7.2,7.2,0,0,1-.25,1.29,61.3,61.3,0,0,1-11.9,19.65l-.24.27.29.21a42,42,0,0,0,12.19,6.18l.12.06,3.1,1.22a1.22,1.22,0,0,1,.69,1.59l-2.16,5.52a1.23,1.23,0,0,1-1.14.77ZM226.88,320a29.85,29.85,0,0,0,5.8,9.77l.24.27.24-.27a37,37,0,0,0,6.35-9.75l.2-.45h-13Z"/><path class="cls-1" d="M215.6,311.06a1.24,1.24,0,0,1-1.07-.47l-3.62-5a1.23,1.23,0,0,1,.27-1.72l2.68-1.59c5.13-4.14,5.83-8.9,5.83-13.43v-7.21a1.23,1.23,0,0,1,1.23-1.22H245.4a1.23,1.23,0,0,1,1.23,1.22V298c0,2.39,0,3.38,1.47,3.38h6.26a1,1,0,0,1,1,1v5.46a1,1,0,0,1-1,1H247.2c-7.62,0-8.85-3.22-8.85-10.92v-9.08H227.89v.32c0,9.92-3.52,16.56-10.74,21.09l-.91.66a1.18,1.18,0,0,1-.44.19Z"/><path class="cls-1" d="M98.13,350.38a1.18,1.18,0,0,1-.55-.14L92,347.41a1.22,1.22,0,0,1-.61-.71,1.2,1.2,0,0,1,.07-.93s3.51-7,4.13-8.63a53.54,53.54,0,0,0,3-12,118.68,118.68,0,0,0,.94-15.88V285.37a1.22,1.22,0,0,1,1.23-1.22h26.52v-5.74a1.22,1.22,0,0,1,1.22-1.22H136a1.22,1.22,0,0,1,1.22,1.22v5.74h28.4a1.22,1.22,0,0,1,1.23,1.22v4.93a1.23,1.23,0,0,1-1.23,1.22H153.21v5.88h11.07a1.23,1.23,0,0,1,1.23,1.23v4.6a1.23,1.23,0,0,1-1.23,1.22H153.21v10.4a1.22,1.22,0,0,1-1.22,1.22h-28.5a1.23,1.23,0,0,1-1.23-1.22v-10.4H111.69l-.1,0a.94.94,0,0,1-.76-.92v-5.13a1,1,0,0,1,.76-.92l.21,0h10.46v-5.88h-14v17.27a123.38,123.38,0,0,1-2.32,23.66c-2.25,11.46-6.71,17.25-6.71,17.25A1.2,1.2,0,0,1,98.13,350.38Zm33.07-40.54h13.08v-5.39H131.2Zm0-12.44h13.08v-5.88H131.2Z"/><path class="cls-1" d="M110.36,352a1.23,1.23,0,0,1-1.21-1.08l-.71-6.05a1.23,1.23,0,0,1,.25-.91,1.19,1.19,0,0,1,.82-.45l2.49-.3v-.07a70,70,0,0,0,15.85-4.46l.45-.19-.35-.34a40.4,40.4,0,0,1-8.29-11.21l-.09-.18h-6.18a1.22,1.22,0,0,1-1.22-1.22v-4.44a1.22,1.22,0,0,1,1.22-1.22h44.12c1.07,0,1.49.43,1.49,1.53v1.72a4.2,4.2,0,0,1-.48,1.41,49.75,49.75,0,0,1-5.66,7.19,61.85,61.85,0,0,1-7.57,6.8l-.46.35.54.21a59,59,0,0,0,10.78,3,61.28,61.28,0,0,0,6.86.82h0l.31.07,3.29.18a1.21,1.21,0,0,1,1.17,1.27l-.27,6.18a1.21,1.21,0,0,1-1.22,1.17l-3.29-.17-.14,0a79.26,79.26,0,0,1-14.38-2.48,52.63,52.63,0,0,1-12-4.88l-.16-.09-.15.08a69.89,69.89,0,0,1-12.55,5.05,77.2,77.2,0,0,1-10.28,2.26l-.3.05v.11l-2.54.29Zm18.58-24.72a31.23,31.23,0,0,0,7.28,6.95l.17.11.17-.1a42.73,42.73,0,0,0,4.7-3.26,47.37,47.37,0,0,0,4.12-3.67l.55-.55H128.55Z"/></svg>