<?xml version="1.0" encoding="UTF-8"?>
<svg width="72px" height="71px" viewBox="0 0 72 71" version="1.1" xmlns="http://www.w3.org/2000/svg" xmlns:xlink="http://www.w3.org/1999/xlink">
    <title>Group 8</title>
    <defs>
        <polygon id="path-1" points="0 37.8666667 28.4210526 37.8666667 28.4210526 53.0133333 0 53.0133333"></polygon>
        <polygon id="path-3" points="0 0 28.4210526 0 28.4210526 15.1466667 0 15.1466667"></polygon>
        <polygon id="path-5" points="0 0 28.4210526 0 28.4210526 15.1466667 0 15.1466667"></polygon>
        <polygon id="path-7" points="0 0 28.4210526 0 28.4210526 15.1466667 0 15.1466667"></polygon>
        <polygon id="path-9" points="0 0 19.8947368 0 19.8947368 34.08 0 34.08"></polygon>
        <polygon id="path-11" points="0 0 5.68421053 0 5.68421053 5.68 0 5.68"></polygon>
        <polygon id="path-13" points="0 0 5.68421053 0 5.68421053 5.68 0 5.68"></polygon>
    </defs>
    <g id="最終版" stroke="none" stroke-width="1" fill="none" fill-rule="evenodd">
        <g id="Desktop_1440" transform="translate(-32.000000, -33.000000)">
            <g id="Group-54" transform="translate(31.999947, 33.000000)">
                <g id="Group-93" transform="translate(0.000053, 0.000000)">
                    <g id="Group-4">
                        <g id="Group-3" fill="#FFFFFF">
                            <g id="Group-19" transform="translate(0.000000, 0.946667)">
                                <path d="M0.48696414,0 C0.218059877,0 0,0.220743747 0,0.493573098 L0,21.7141849 C0,29.8723336 6.07168968,33.1333333 12.4432797,33.1333333 C14.9371016,33.1333333 16.6334552,32.5102352 17.4464216,32.123038 C17.7860185,31.9615451 18,31.6129298 18,31.2328978 L18,28.1670124 C18,27.809854 17.6386514,27.5700948 17.3167276,27.7156038 C16.4877194,28.0903997 14.8889762,28.6156651 12.4432797,28.6156651 C8.07501284,28.6156651 4.64478415,26.2139401 4.64478415,19.8388276 L4.64478415,0.493573098 C4.64478415,0.220743747 4.42672427,0 4.15754811,0 L0.48696414,0 Z" id="Fill-1"></path>
                                <path d="M26.8887512,32.1866667 L23.3217751,32.1866667 C22.9987159,32.1866667 22.7368421,31.9243708 22.7368421,31.6007909 L22.7368421,0.585875722 C22.7368421,0.262295826 22.9987159,0 23.322047,0 L26.8887512,0 C27.2118105,0 27.4736842,0.262295826 27.4736842,0.585875722 L27.4736842,31.6007909 C27.4736842,31.9243708 27.2118105,32.1866667 26.8887512,32.1866667" id="Fill-3"></path>
                            </g>
                            <path d="M37.3098375,33.1333333 L33.743066,33.1333333 C33.4200254,33.1333333 33.1578947,32.8710375 33.1578947,32.5474576 L33.1578947,1.53254239 C33.1578947,1.20896249 33.4200254,0.946666667 33.743066,0.946666667 L37.3098375,0.946666667 C37.6326062,0.946666667 37.8947368,1.20896249 37.8947368,1.53254239 L37.8947368,32.5474576 C37.8947368,32.8710375 37.6326062,33.1333333 37.3098375,33.1333333" id="Fill-5"></path>
                            <path d="M69.5203302,33.1333333 L65.953626,33.1333333 C65.6302948,33.1333333 65.3684211,32.8710375 65.3684211,32.5474576 L65.3684211,1.53254239 C65.3684211,1.20896249 65.6302948,0.946666667 65.953626,0.946666667 L69.5203302,0.946666667 C69.8433894,0.946666667 70.1052632,1.20896249 70.1052632,1.53254239 L70.1052632,32.5474576 C70.1052632,32.8710375 69.8433894,33.1333333 69.5203302,33.1333333" id="Fill-7"></path>
                            <path d="M60.1446075,33.1333333 C60.4135158,33.1333333 60.6315789,32.912314 60.6315789,32.6397602 L60.6315789,11.4188729 C60.6315789,3.2609997 54.5600695,0 48.1881113,0 C45.5485137,0 43.9377828,0.599673401 43.1712989,0.987697366 C42.8403975,1.15525317 42.6315789,1.49670324 42.6315789,1.87149911 L42.6315789,4.96632094 C42.6315789,5.32320378 42.992933,5.56323849 43.3145898,5.4177295 C44.1438824,5.04293362 45.7423779,4.51766823 48.1881113,4.51766823 C52.556716,4.51766823 55.9869965,6.91939327 55.9869965,13.2945058 L55.9869965,32.6397602 C55.9869965,32.912314 56.2050597,33.1333333 56.473968,33.1333333 L60.1446075,33.1333333 Z" id="Fill-9"></path>
                        </g>
                        <mask id="mask-2" fill="white">
                            <use xlink:href="#path-1"></use>
                        </mask>
                        <g id="Clip-14"></g>
                        <g id="Group-18" mask="url(#mask-2)">
                            <g transform="translate(0.000000, 54.906667)">
                                <mask id="mask-4" fill="white">
                                    <use xlink:href="#path-3"></use>
                                </mask>
                                <g id="Clip-17" stroke="none" fill="none"></g>
                                <path d="M0.126107388,14.3321102 L13.8823375,0.152104254 C14.0640061,-0.0507014181 14.3702319,-0.0507014181 14.5516286,0.152104254 L28.2950766,14.3321102 C28.5713869,14.6404859 28.3633383,15.1466667 27.960295,15.1466667 L23.0348456,15.1466667 C22.7786602,15.1466667 22.5341691,15.0341512 22.3601153,14.836624 L14.217119,6.11347976 L6.04611087,14.8377353 C5.87205711,15.034429 5.62783793,15.1466667 5.37246843,15.1466667 L0.460616956,15.1466667 C0.05757372,15.1466667 -0.150474914,14.6402081 0.126107388,14.3321102" id="Fill-16" stroke="none" fill="#FFFFFF" fill-rule="evenodd" mask="url(#mask-4)"></path>
                            </g>
                        </g>
                    </g>
                    <path d="M37.3098375,70.0533333 L33.743066,70.0533333 C33.4200254,70.0533333 33.1578947,69.7907674 33.1578947,69.4671902 L33.1578947,38.4525374 C33.1578947,38.1292326 33.4200254,37.8666667 33.743066,37.8666667 L37.3098375,37.8666667 C37.6326062,37.8666667 37.8947368,38.1292326 37.8947368,38.4525374 L37.8947368,69.4671902 C37.8947368,69.7907674 37.6326062,70.0533333 37.3098375,70.0533333" id="Fill-11" fill="#FFFFFF"></path>
                    <g id="Group-52" transform="translate(0.000000, 37.866667)">
                        <g id="Group-18" transform="translate(0.000000, 17.040000)">
                            <mask id="mask-6" fill="white">
                                <use xlink:href="#path-5"></use>
                            </mask>
                            <g id="Clip-17"></g>
                            <path d="M0.126107388,14.3321102 L13.8823375,0.152104254 C14.0640061,-0.0507014181 14.3702319,-0.0507014181 14.5516286,0.152104254 L28.2950766,14.3321102 C28.5713869,14.6404859 28.3633383,15.1466667 27.960295,15.1466667 L23.0348456,15.1466667 C22.7786602,15.1466667 22.5341691,15.0341512 22.3601153,14.836624 L14.217119,6.11347976 L6.04611087,14.8377353 C5.87205711,15.034429 5.62783793,15.1466667 5.37246843,15.1466667 L0.460616956,15.1466667 C0.05757372,15.1466667 -0.150474914,14.6402081 0.126107388,14.3321102" id="Fill-16" fill="#FFFFFF" mask="url(#mask-6)"></path>
                        </g>
                        <mask id="mask-8" fill="white">
                            <use xlink:href="#path-7"></use>
                        </mask>
                        <g id="Clip-14"></g>
                    </g>
                    <g id="Group-21" transform="translate(42.631579, 36.920000)">
                        <mask id="mask-10" fill="white">
                            <use xlink:href="#path-9"></use>
                        </mask>
                        <g id="Clip-20"></g>
                        <path d="M4.74817182,8.12864916 C4.74817182,3.99888524 11.6501396,3.03855258 17.122664,6.00930389 C17.4254271,6.17352744 17.7895024,5.95484058 17.7895024,5.60416354 L17.7895024,2.06682707 C17.7895024,1.88315234 17.6842407,1.71809516 17.5206509,1.64362492 C15.7895297,0.857519273 13.2825101,0 10.5771754,0 C5.58294069,0 0.326636891,1.8439721 0.326636891,8.12864916 C0.326636891,17.4485443 15.5716813,17.7972762 15.5716813,24.9361381 C15.5716813,30.7667689 6.38895249,30.6117152 0.667381024,27.3428051 C0.367873442,27.1719125 0,27.3969905 0,27.7479454 L0,31.6078936 C0,31.7690606 0.0811166367,31.9182789 0.215135428,32.0024748 C3.30462124,33.9381453 19.8947368,37.777253 19.8947368,24.9361381 C19.8947368,14.5842187 4.74817182,14.1387867 4.74817182,8.12864916" id="Fill-19" fill="#FFFFFF" mask="url(#mask-10)"></path>
                    </g>
                    <g id="Group-9" transform="translate(66.315789, 56.800000)">
                        <g id="Group-24" transform="translate(0.000000, 8.520000)">
                            <mask id="mask-12" fill="white">
                                <use xlink:href="#path-11"></use>
                            </mask>
                            <g id="Clip-23"></g>
                            <path d="M3.27421698,5.68 L2.40985105,5.68 C1.07896122,5.68 0,4.5693396 0,3.19971085 L0,2.48028915 C0,1.11036712 1.07896122,0 2.40985105,0 L3.27421698,0 C4.60510681,0 5.68435302,1.11036712 5.68435302,2.48028915 L5.68435302,3.19971085 C5.68435302,4.5693396 4.60510681,5.68 3.27421698,5.68" id="Fill-22" fill="#FF5036" mask="url(#mask-12)"></path>
                        </g>
                        <g id="Group-27">
                            <mask id="mask-14" fill="white">
                                <use xlink:href="#path-13"></use>
                            </mask>
                            <g id="Clip-26"></g>
                            <path d="M3.27421698,5.68 L2.40985105,5.68 C1.07896122,5.68 0,4.56963288 0,3.19971085 L0,2.48028915 C0,1.11036712 1.07896122,0 2.40985105,0 L3.27421698,0 C4.60510681,0 5.68435302,1.11036712 5.68435302,2.48028915 L5.68435302,3.19971085 C5.68435302,4.56963288 4.60510681,5.68 3.27421698,5.68" id="Fill-25" fill="#EF5234" mask="url(#mask-14)"></path>
                        </g>
                    </g>
                </g>
                <g id="Group-15" transform="translate(0.000000, 37.866667)" fill="#FFFFFF">
                    <path d="M0.126160598,0.814569554 L13.8823907,14.994803 C14.0640593,15.1973342 14.3702851,15.1973342 14.5516818,14.9945252 L28.2951298,0.814291733 C28.5714401,0.506188856 28.3633915,0 27.9603482,0 L23.0348988,0 C22.7787134,0 22.5342223,0.112239461 22.3601685,0.3097698 L14.2171722,9.03333187 L6.04616408,0.308658518 C5.87211032,0.111961641 5.62789114,0 5.37252164,0 L0.460670167,0 C0.0576269307,0 -0.150421703,0.506188856 0.126160598,0.814569554" id="Fill-13"></path>
                </g>
            </g>
        </g>
    </g>
</svg>