<?xml version="1.0" encoding="UTF-8"?>
<svg width="130px" height="130px" viewBox="0 0 130 130" version="1.1" xmlns="http://www.w3.org/2000/svg" xmlns:xlink="http://www.w3.org/1999/xlink">
    <title>Group 172</title>
    <g id="0215_官網字級調整" stroke="none" stroke-width="1" fill="none" fill-rule="evenodd">
        <g transform="translate(-656.000000, -258.000000)" id="Group-172">
            <g transform="translate(656.000000, 258.000000)">
                <g id="Group-171-Copy" transform="translate(9.069767, 3.023256)" stroke="#FF5036">
                    <g id="Group-170" transform="translate(9.069767, 0.000000)">
                        <path d="M40.2574093,105.513392 L31.0479171,108.893787 C30.2148004,109.199588 29.293438,108.771144 28.9919279,107.93573 L0.0959739591,27.8717623 C-0.205536183,27.0363478 0.22718525,26.1108806 1.060302,25.8050805 L10.2697942,22.4246852 C11.1039873,22.1184899 12.0242733,22.5473282 12.3257834,23.3827427 L41.2217373,103.44671 C41.5232475,104.282125 41.0916024,105.207197 40.2574093,105.513392" id="Fill-5-Copy-4"></path>
                        <path d="M84.6251673,95.0889862 C85.3558891,95.0889862 85.9463485,94.4937021 85.9463485,93.7570095 L85.9463485,36.477451 C85.9463485,14.4587819 69.4723053,5.65610383 52.180442,5.65610383 C45.0180113,5.65610383 40.6461233,7.27545903 38.5670728,8.32233796 C37.6689411,8.77507318 37.1022358,9.6965091 37.1022358,10.7091763 L37.1022358,19.0613999 C37.1022358,20.0261707 38.0829413,20.6727723 38.9561878,20.2793375 C41.2060416,19.268951 45.5439952,17.851445 52.180442,17.851445 C64.0348757,17.851445 73.3430946,24.3334274 73.3430946,41.540787 L73.3430946,93.7570095 C73.3430946,94.4937021 73.9346852,95.0889862 74.6642758,95.0889862 L84.6251673,95.0889862 Z" id="Fill-9-Copy-4" transform="translate(61.524292, 50.372545) rotate(-20.000000) translate(-61.524292, -50.372545) "></path>
                    </g>
                    <g id="Group-170-Copy" transform="translate(6.046512, 5.038760)">
                        <path d="M40.2574093,105.513392 L31.0479171,108.893787 C30.2148004,109.199588 29.293438,108.771144 28.9919279,107.93573 L0.0959739591,27.8717623 C-0.205536183,27.0363478 0.22718525,26.1108806 1.060302,25.8050805 L10.2697942,22.4246852 C11.1039873,22.1184899 12.0242733,22.5473282 12.3257834,23.3827427 L41.2217373,103.44671 C41.5232475,104.282125 41.0916024,105.207197 40.2574093,105.513392" id="Fill-5-Copy-4"></path>
                        <path d="M84.6251673,95.0889862 C85.3558891,95.0889862 85.9463485,94.4937021 85.9463485,93.7570095 L85.9463485,36.477451 C85.9463485,14.4587819 69.4723053,5.65610383 52.180442,5.65610383 C45.0180113,5.65610383 40.6461233,7.27545903 38.5670728,8.32233796 C37.6689411,8.77507318 37.1022358,9.6965091 37.1022358,10.7091763 L37.1022358,19.0613999 C37.1022358,20.0261707 38.0829413,20.6727723 38.9561878,20.2793375 C41.2060416,19.268951 45.5439952,17.851445 52.180442,17.851445 C64.0348757,17.851445 73.3430946,24.3334274 73.3430946,41.540787 L73.3430946,93.7570095 C73.3430946,94.4937021 73.9346852,95.0889862 74.6642758,95.0889862 L84.6251673,95.0889862 Z" id="Fill-9-Copy-4" transform="translate(61.524292, 50.372545) rotate(-20.000000) translate(-61.524292, -50.372545) "></path>
                    </g>
                    <g id="Group-170-Copy-2" transform="translate(3.023256, 10.077519)">
                        <path d="M40.2574093,105.513392 L31.0479171,108.893787 C30.2148004,109.199588 29.293438,108.771144 28.9919279,107.93573 L0.0959739591,27.8717623 C-0.205536183,27.0363478 0.22718525,26.1108806 1.060302,25.8050805 L10.2697942,22.4246852 C11.1039873,22.1184899 12.0242733,22.5473282 12.3257834,23.3827427 L41.2217373,103.44671 C41.5232475,104.282125 41.0916024,105.207197 40.2574093,105.513392" id="Fill-5-Copy-4"></path>
                        <path d="M84.6251673,95.0889862 C85.3558891,95.0889862 85.9463485,94.4937021 85.9463485,93.7570095 L85.9463485,36.477451 C85.9463485,14.4587819 69.4723053,5.65610383 52.180442,5.65610383 C45.0180113,5.65610383 40.6461233,7.27545903 38.5670728,8.32233796 C37.6689411,8.77507318 37.1022358,9.6965091 37.1022358,10.7091763 L37.1022358,19.0613999 C37.1022358,20.0261707 38.0829413,20.6727723 38.9561878,20.2793375 C41.2060416,19.268951 45.5439952,17.851445 52.180442,17.851445 C64.0348757,17.851445 73.3430946,24.3334274 73.3430946,41.540787 L73.3430946,93.7570095 C73.3430946,94.4937021 73.9346852,95.0889862 74.6642758,95.0889862 L84.6251673,95.0889862 Z" id="Fill-9-Copy-4" transform="translate(61.524292, 50.372545) rotate(-20.000000) translate(-61.524292, -50.372545) "></path>
                    </g>
                    <g id="Group-170-Copy-3" transform="translate(0.000000, 15.116279)">
                        <path d="M40.2574093,105.513392 L31.0479171,108.893787 C30.2148004,109.199588 29.293438,108.771144 28.9919279,107.93573 L0.0959739591,27.8717623 C-0.205536183,27.0363478 0.22718525,26.1108806 1.060302,25.8050805 L10.2697942,22.4246852 C11.1039873,22.1184899 12.0242733,22.5473282 12.3257834,23.3827427 L41.2217373,103.44671 C41.5232475,104.282125 41.0916024,105.207197 40.2574093,105.513392" id="Fill-5-Copy-4"></path>
                        <path d="M84.6251673,95.0889862 C85.3558891,95.0889862 85.9463485,94.4937021 85.9463485,93.7570095 L85.9463485,36.477451 C85.9463485,14.4587819 69.4723053,5.65610383 52.180442,5.65610383 C45.0180113,5.65610383 40.6461233,7.27545903 38.5670728,8.32233796 C37.6689411,8.77507318 37.1022358,9.6965091 37.1022358,10.7091763 L37.1022358,19.0613999 C37.1022358,20.0261707 38.0829413,20.6727723 38.9561878,20.2793375 C41.2060416,19.268951 45.5439952,17.851445 52.180442,17.851445 C64.0348757,17.851445 73.3430946,24.3334274 73.3430946,41.540787 L73.3430946,93.7570095 C73.3430946,94.4937021 73.9346852,95.0889862 74.6642758,95.0889862 L84.6251673,95.0889862 Z" id="Fill-9-Copy-4" transform="translate(61.524292, 50.372545) rotate(-20.000000) translate(-61.524292, -50.372545) "></path>
                    </g>
                </g>
                <rect id="Rectangle" x="0" y="0" width="130" height="130"></rect>
            </g>
        </g>
    </g>
</svg>