<?xml version="1.0" encoding="UTF-8"?>
<svg width="156px" height="121px" viewBox="0 0 156 121" version="1.1" xmlns="http://www.w3.org/2000/svg" xmlns:xlink="http://www.w3.org/1999/xlink">
    <title>Group 60</title>
    <defs>
        <path d="M53.2737166,92.479942 L39.2133087,92.479942 C17.552489,92.479942 0,74.395397 0,52.1015813 L0,40.3783607 C0,18.0845449 17.552489,0 39.2133087,0 L53.2737166,0 C74.927453,0 92.479942,18.0845449 92.479942,40.3783607 L92.479942,52.1015813 C92.479942,74.395397 74.927453,92.479942 53.2737166,92.479942" id="path-1"></path>
        <path d="M53.2737166,92.479942 L39.2133087,92.479942 C17.552489,92.479942 0,74.395397 0,52.1015813 L0,40.3783607 C0,18.0845449 17.552489,0 39.2133087,0 L53.2737166,0 C74.927453,0 92.479942,18.0845449 92.479942,40.3783607 L92.479942,52.1015813 C92.479942,74.395397 74.927453,92.479942 53.2737166,92.479942" id="path-3"></path>
        <path d="M53.2737166,92.479942 L39.2133087,92.479942 C17.552489,92.479942 0,74.395397 0,52.1015813 L0,40.3783607 C0,18.0845449 17.552489,0 39.2133087,0 L53.2737166,0 C74.927453,0 92.479942,18.0845449 92.479942,40.3783607 L92.479942,52.1015813 C92.479942,74.395397 74.927453,92.479942 53.2737166,92.479942" id="path-5"></path>
        <path d="M53.2737166,92.479942 L39.2133087,92.479942 C17.552489,92.479942 0,74.395397 0,52.1015813 L0,40.3783607 C0,18.0845449 17.552489,0 39.2133087,0 L53.2737166,0 C74.927453,0 92.479942,18.0845449 92.479942,40.3783607 L92.479942,52.1015813 C92.479942,74.395397 74.927453,92.479942 53.2737166,92.479942" id="path-7"></path>
        <path d="M53.2737166,92.479942 L39.2133087,92.479942 C17.552489,92.479942 0,74.395397 0,52.1015813 L0,40.3783607 C0,18.0845449 17.552489,0 39.2133087,0 L53.2737166,0 C74.927453,0 92.479942,18.0845449 92.479942,40.3783607 L92.479942,52.1015813 C92.479942,74.395397 74.927453,92.479942 53.2737166,92.479942" id="path-9"></path>
        <path d="M53.2737166,92.479942 L39.2133087,92.479942 C17.552489,92.479942 0,74.395397 0,52.1015813 L0,40.3783607 C0,18.0845449 17.552489,0 39.2133087,0 L53.2737166,0 C74.927453,0 92.479942,18.0845449 92.479942,40.3783607 L92.479942,52.1015813 C92.479942,74.395397 74.927453,92.479942 53.2737166,92.479942" id="path-11"></path>
        <path d="M53.2737166,92.479942 L39.2133087,92.479942 C17.552489,92.479942 0,74.395397 0,52.1015813 L0,40.3783607 C0,18.0845449 17.552489,0 39.2133087,0 L53.2737166,0 C74.927453,0 92.479942,18.0845449 92.479942,40.3783607 L92.479942,52.1015813 C92.479942,74.395397 74.927453,92.479942 53.2737166,92.479942" id="path-13"></path>
        <path d="M53.2737166,92.479942 L39.2133087,92.479942 C17.552489,92.479942 0,74.395397 0,52.1015813 L0,40.3783607 C0,18.0845449 17.552489,0 39.2133087,0 L53.2737166,0 C74.927453,0 92.479942,18.0845449 92.479942,40.3783607 L92.479942,52.1015813 C92.479942,74.395397 74.927453,92.479942 53.2737166,92.479942" id="path-15"></path>
        <path d="M53.2737166,92.479942 L39.2133087,92.479942 C17.552489,92.479942 0,74.395397 0,52.1015813 L0,40.3783607 C0,18.0845449 17.552489,0 39.2133087,0 L53.2737166,0 C74.927453,0 92.479942,18.0845449 92.479942,40.3783607 L92.479942,52.1015813 C92.479942,74.395397 74.927453,92.479942 53.2737166,92.479942" id="path-17"></path>
    </defs>
    <g id="0215_官網字級調整" stroke="none" stroke-width="1" fill="none" fill-rule="evenodd">
        <g transform="translate(-517.000000, -27.000000)" id="Group-60">
            <g transform="translate(518.000000, 27.839989)">
                <g id="Group-5-Copy" transform="translate(54.843347, 64.476675) rotate(-12.000000) translate(-54.843347, -64.476675) translate(8.603376, 18.236704)">
                    <g id="Group-2" transform="translate(-0.000000, 0.000000)">
                        <mask id="mask-2" fill="white">
                            <use xlink:href="#path-1"></use>
                        </mask>
                        <use id="Mask-Copy-2" stroke="#FF5036" xlink:href="#path-1"></use>
                    </g>
                </g>
                <g id="Group-5-Copy-2" transform="translate(62.550009, 62.550009) rotate(-12.000000) translate(-62.550009, -62.550009) translate(16.310038, 16.310038)">
                    <g id="Group-2" transform="translate(-0.000000, 0.000000)">
                        <mask id="mask-4" fill="white">
                            <use xlink:href="#path-3"></use>
                        </mask>
                        <use id="Mask-Copy-2" stroke="#FF5036" xlink:href="#path-3"></use>
                    </g>
                </g>
                <g id="Group-5-Copy-3" transform="translate(62.550009, 62.550009) rotate(-12.000000) translate(-62.550009, -62.550009) translate(16.310038, 16.310038)">
                    <g id="Group-2" transform="translate(-0.000000, 0.000000)">
                        <mask id="mask-6" fill="white">
                            <use xlink:href="#path-5"></use>
                        </mask>
                        <use id="Mask-Copy-2" stroke="#FF5036" xlink:href="#path-5"></use>
                    </g>
                </g>
                <g id="Group-5-Copy-4" transform="translate(62.550009, 62.550009) rotate(-12.000000) translate(-62.550009, -62.550009) translate(16.310038, 16.310038)">
                    <g id="Group-2" transform="translate(-0.000000, 0.000000)">
                        <mask id="mask-8" fill="white">
                            <use xlink:href="#path-7"></use>
                        </mask>
                        <use id="Mask-Copy-2" stroke="#FF5036" xlink:href="#path-7"></use>
                    </g>
                </g>
                <g id="Group-2" transform="translate(70.256671, 60.623344) rotate(-12.000000) translate(-70.256671, -60.623344) translate(24.016700, 14.383373)">
                    <mask id="mask-10" fill="white">
                        <use xlink:href="#path-9"></use>
                    </mask>
                    <use id="Mask-Copy-2" stroke="#FF5036" xlink:href="#path-9"></use>
                </g>
                <g id="Group-2" transform="translate(79.889998, 58.696678) rotate(-12.000000) translate(-79.889998, -58.696678) translate(33.650027, 12.456707)">
                    <mask id="mask-12" fill="white">
                        <use xlink:href="#path-11"></use>
                    </mask>
                    <use id="Mask-Copy-2" stroke="#FF5036" xlink:href="#path-11"></use>
                </g>
                <g id="Group-5-Copy-8" transform="translate(89.523325, 56.770013) rotate(-12.000000) translate(-89.523325, -56.770013) translate(43.283354, 10.530042)">
                    <g id="Group-2" transform="translate(-0.000000, 0.000000)">
                        <mask id="mask-14" fill="white">
                            <use xlink:href="#path-13"></use>
                        </mask>
                        <use id="Mask-Copy-2" stroke="#EF4B35" xlink:href="#path-13"></use>
                    </g>
                </g>
                <g id="Group-2" transform="translate(99.156653, 54.843347) rotate(-12.000000) translate(-99.156653, -54.843347) translate(52.916682, 8.603376)">
                    <mask id="mask-16" fill="white">
                        <use xlink:href="#path-15"></use>
                    </mask>
                    <use id="Mask-Copy-2" stroke="#EF4B35" xlink:href="#path-15"></use>
                </g>
                <g id="Group-5-Copy-5" transform="translate(62.550009, 62.550009) rotate(-12.000000) translate(-62.550009, -62.550009) translate(16.310038, 16.310038)">
                    <g id="Group-2" transform="translate(-0.000000, 0.000000)">
                        <mask id="mask-18" fill="white">
                            <use xlink:href="#path-17"></use>
                        </mask>
                        <use id="Mask-Copy-2" stroke="#EF4B35" xlink:href="#path-17"></use>
                    </g>
                </g>
            </g>
        </g>
    </g>
</svg>