<?xml version="1.0" encoding="UTF-8"?>
<svg width="63px" height="63px" viewBox="0 0 63 63" version="1.1" xmlns="http://www.w3.org/2000/svg" xmlns:xlink="http://www.w3.org/1999/xlink">
    <title>Group 174</title>
    <g id="0215_官網字級調整" stroke="none" stroke-width="1" fill="none" fill-rule="evenodd">
        <g transform="translate(-1241.000000, -198.000000)" id="Group-174">
            <g transform="translate(1241.000000, 198.000000)">
                <g id="Group-173" transform="translate(2.000000, 2.075826)" stroke="#FF5036">
                    <path d="M16.2435793,50.0035179 L7.84596945,10.0421767 C7.73239122,9.50169687 8.07846332,8.97147806 8.61894314,8.85789983 C8.88298006,8.80241422 9.15823433,8.85597486 9.3822002,9.006419 L43.4436783,31.8864661 C43.9021333,32.1944231 44.024136,32.8157228 43.716179,33.2741777 C43.530758,33.5502134 43.2202531,33.7160222 42.8877229,33.7165709 L25.8394687,33.7447005 C25.4398782,33.7453598 25.0790402,33.9838382 24.9217977,34.3511907 L18.1415256,50.1913748 C17.9241969,50.6991018 17.3364231,50.9345161 16.8286961,50.7171874 C16.5289846,50.588898 16.3106246,50.3225636 16.2435793,50.0035179 Z" id="Path-7-Copy" transform="translate(26.750078, 30.369066) rotate(-23.000000) translate(-26.750078, -30.369066) "></path>
                    <path d="M21.7915574,48.1457021 L13.3939475,8.18436085 C13.2803693,7.64388104 13.6264414,7.11366223 14.1669212,7.00008399 C14.4309582,6.94459839 14.7062124,6.99815903 14.9301783,7.14860316 L48.9916564,30.0286503 C49.4501114,30.3366073 49.5721141,30.9579069 49.2641571,31.4163619 C49.0787361,31.6923976 48.7682312,31.8582063 48.435701,31.858755 L31.3874468,31.8868847 C30.9878563,31.887544 30.6270183,32.1260224 30.4697758,32.4933748 L23.6895037,48.333559 C23.472175,48.8412859 22.8844012,49.0767002 22.3766742,48.8593715 C22.0769626,48.7310822 21.8586027,48.4647477 21.7915574,48.1457021 Z" id="Path-7-Copy-2" transform="translate(32.298056, 28.511250) rotate(-23.000000) translate(-32.298056, -28.511250) "></path>
                </g>
                <rect id="Rectangle" x="0" y="0" width="63" height="63"></rect>
            </g>
        </g>
    </g>
</svg>