<?xml version="1.0" encoding="UTF-8"?>
<svg width="650px" height="595px" viewBox="0 0 650 595" version="1.1" xmlns="http://www.w3.org/2000/svg" xmlns:xlink="http://www.w3.org/1999/xlink">
    <title>Group 164</title>
    <defs>
        <path d="M69.5890424,120.377406 L51.2225686,120.377406 C22.9280211,120.377406 0,96.8374838 0,67.8185242 L0,52.5588815 C0,23.5399218 22.9280211,0 51.2225686,0 L69.5890424,0 C97.8743372,0 120.802358,23.5399218 120.802358,52.5588815 L120.802358,67.8185242 C120.802358,96.8374838 97.8743372,120.377406 69.5890424,120.377406" id="path-1"></path>
        <path d="M69.5890424,120.377406 L51.2225686,120.377406 C22.9280211,120.377406 0,96.8374838 0,67.8185242 L0,52.5588815 C0,23.5399218 22.9280211,0 51.2225686,0 L69.5890424,0 C97.8743372,0 120.802358,23.5399218 120.802358,52.5588815 L120.802358,67.8185242 C120.802358,96.8374838 97.8743372,120.377406 69.5890424,120.377406" id="path-3"></path>
        <path d="M69.5890424,120.377406 L51.2225686,120.377406 C22.9280211,120.377406 0,96.8374838 0,67.8185242 L0,52.5588815 C0,23.5399218 22.9280211,0 51.2225686,0 L69.5890424,0 C97.8743372,0 120.802358,23.5399218 120.802358,52.5588815 L120.802358,67.8185242 C120.802358,96.8374838 97.8743372,120.377406 69.5890424,120.377406" id="path-5"></path>
        <path d="M69.5890424,120.377406 L51.2225686,120.377406 C22.9280211,120.377406 0,96.8374838 0,67.8185242 L0,52.5588815 C0,23.5399218 22.9280211,0 51.2225686,0 L69.5890424,0 C97.8743372,0 120.802358,23.5399218 120.802358,52.5588815 L120.802358,67.8185242 C120.802358,96.8374838 97.8743372,120.377406 69.5890424,120.377406" id="path-7"></path>
        <path d="M69.5890424,120.377406 L51.2225686,120.377406 C22.9280211,120.377406 0,96.8374838 0,67.8185242 L0,52.5588815 C0,23.5399218 22.9280211,0 51.2225686,0 L69.5890424,0 C97.8743372,0 120.802358,23.5399218 120.802358,52.5588815 L120.802358,67.8185242 C120.802358,96.8374838 97.8743372,120.377406 69.5890424,120.377406" id="path-9"></path>
        <path d="M69.5890424,120.377406 L51.2225686,120.377406 C22.9280211,120.377406 0,96.8374838 0,67.8185242 L0,52.5588815 C0,23.5399218 22.9280211,0 51.2225686,0 L69.5890424,0 C97.8743372,0 120.802358,23.5399218 120.802358,52.5588815 L120.802358,67.8185242 C120.802358,96.8374838 97.8743372,120.377406 69.5890424,120.377406" id="path-11"></path>
    </defs>
    <g id="最終版" stroke="none" stroke-width="1" fill="none" fill-rule="evenodd">
        <g id="Desktop_1440" transform="translate(-730.000000, -5352.000000)">
            <g id="Group-164" transform="translate(730.000000, 5352.000000)">
                <line x1="130" y1="0" x2="130" y2="119" id="Path-9-Copy-12" stroke="#FFFFFF"></line>
                <line x1="130" y1="477.874016" x2="130" y2="595" id="Path-9-Copy-20" stroke="#FFFFFF"></line>
                <line x1="260" y1="477.874016" x2="260" y2="595" id="Path-9-Copy-19" stroke="#FFFFFF"></line>
                <line x1="390" y1="476" x2="390" y2="595" id="Path-9-Copy-14" stroke="#FFFFFF"></line>
                <line x1="260" y1="0" x2="260" y2="119" id="Path-9-Copy-13" stroke="#FFFFFF"></line>
                <line x1="650" y1="119" x2="-8.45677695e-15" y2="119" id="Path-9-Copy-16" stroke="#FFFFFF"></line>
                <line x1="649.5" y1="238.5" x2="519.500976" y2="237.996265" id="Path-9-Copy-21" stroke="#FFFFFF"></line>
                <line x1="649.5" y1="358" x2="519.5" y2="358" id="Path-9-Copy-22" stroke="#FFFFFF"></line>
                <line x1="650" y1="476" x2="0.000775086406" y2="474.996201" id="Path-9-Copy-17" stroke="#FFFFFF"></line>
                <line x1="390" y1="0" x2="390" y2="119" id="Path-9-Copy-18" stroke="#FFFFFF"></line>
                <line x1="520" y1="0" x2="520" y2="595" id="Path-9-Copy-15" stroke="#FFFFFF"></line>
                <g id="Group-158" transform="translate(417.799587, 33.774573)">
                    <g id="Group-12-Copy-3">
                        <g id="Group-5-Copy-2" transform="translate(79.660174, 99.271593) rotate(-24.000000) translate(-79.660174, -99.271593) translate(19.258995, 39.082890)">
                            <g id="Group-2" transform="translate(0.000000, -0.000000)">
                                <mask id="mask-2" fill="white">
                                    <use xlink:href="#path-1"></use>
                                </mask>
                                <use id="Mask-Copy-2" stroke="#FF5036" xlink:href="#path-1"></use>
                            </g>
                        </g>
                        <g id="Group-5-Copy-3" transform="translate(79.660174, 99.271593) rotate(-24.000000) translate(-79.660174, -99.271593) translate(19.258995, 39.082890)">
                            <g id="Group-2" transform="translate(0.000000, -0.000000)">
                                <mask id="mask-4" fill="white">
                                    <use xlink:href="#path-3"></use>
                                </mask>
                                <use id="Mask-Copy-2" stroke="#FF5036" xlink:href="#path-3"></use>
                            </g>
                        </g>
                        <g id="Group-5-Copy-6" transform="translate(88.983797, 94.732878) rotate(-24.000000) translate(-88.983797, -94.732878) translate(28.582618, 34.544175)">
                            <g id="Group-2" transform="translate(0.000000, -0.000000)">
                                <mask id="mask-6" fill="white">
                                    <use xlink:href="#path-5"></use>
                                </mask>
                                <use id="Mask-Copy-2" stroke="#FF5036" xlink:href="#path-5"></use>
                            </g>
                        </g>
                        <g id="Group-5-Copy-7" transform="translate(100.769140, 89.672748) rotate(-24.000000) translate(-100.769140, -89.672748) translate(40.367961, 29.484045)">
                            <g id="Group-2" transform="translate(-0.000000, -0.000000)">
                                <mask id="mask-8" fill="white">
                                    <use xlink:href="#path-7"></use>
                                </mask>
                                <use id="Mask-Copy-2" stroke="#FF5036" opacity="0.651739211" xlink:href="#path-7"></use>
                            </g>
                        </g>
                        <g id="Group-2" transform="translate(112.554483, 84.612619) rotate(-24.000000) translate(-112.554483, -84.612619) translate(52.153304, 24.423916)">
                            <mask id="mask-10" fill="white">
                                <use xlink:href="#path-9"></use>
                            </mask>
                            <use id="Mask-Copy-2" stroke="#EF4B35" opacity="0.607942854" xlink:href="#path-9"></use>
                        </g>
                        <g id="Group-5-Copy-9" opacity="0.304773966" transform="translate(124.339826, 79.552489) rotate(-24.000000) translate(-124.339826, -79.552489) translate(63.938647, 19.363786)">
                            <g id="Group-2" transform="translate(-0.000000, 0.000000)">
                                <mask id="mask-12" fill="white">
                                    <use xlink:href="#path-11"></use>
                                </mask>
                                <use id="Mask-Copy-2" stroke="#FF5036" xlink:href="#path-11"></use>
                            </g>
                        </g>
                    </g>
                    <g id="Group-35" transform="translate(137.200413, 186.187527)" stroke="#FF5036">
                        <path d="M8.82010437,34.2492315 L2.54466022,4.61910015 C2.4302287,4.07880035 2.77546314,3.54803575 3.31576294,3.43360422 C3.58139758,3.37734475 3.85848987,3.43152285 4.08337217,3.58368999 L29.2356046,20.6030067 C29.6930143,20.912514 29.8129129,21.5342231 29.5034055,21.9916328 C29.3171616,22.266876 29.0063465,22.4316113 28.6740132,22.4312195 L16.4722912,22.416836 C16.0703011,22.4163621 15.7071046,22.6566457 15.5503134,23.026798 L10.7192028,34.4320722 C10.5037911,34.9406155 9.91690969,35.1782456 9.40836641,34.962834 C9.10745926,34.835374 8.88781397,34.5689291 8.82010437,34.2492315 Z" id="Path-7-Copy" transform="translate(16.987216, 19.777595) rotate(-7.000000) translate(-16.987216, -19.777595) "></path>
                        <path d="M13.8247815,33.7457052 L7.54933731,4.11557382 C7.43490579,3.57527403 7.78014023,3.04450942 8.32044003,2.93007789 C8.58607467,2.87381842 8.86316696,2.92799652 9.08804927,3.08016366 L34.2402817,20.0994803 C34.6976914,20.4089877 34.81759,21.0306968 34.5080826,21.4881065 C34.3218387,21.7633497 34.0110236,21.9280849 33.6786903,21.9276932 L21.4769683,21.9133097 C21.0749782,21.9128358 20.7117817,22.1531193 20.5549905,22.5232717 L15.7238798,33.9285459 C15.5084682,34.4370891 14.9215868,34.6747193 14.4130435,34.4593076 C14.1121364,34.3318477 13.8924911,34.0654028 13.8247815,33.7457052 Z" id="Path-7-Copy-2" transform="translate(21.991893, 19.274069) rotate(-7.000000) translate(-21.991893, -19.274069) "></path>
                    </g>
                </g>
            </g>
        </g>
    </g>
</svg>