<?xml version="1.0" encoding="UTF-8"?>
<svg width="301px" height="142px" viewBox="0 0 301 142" version="1.1" xmlns="http://www.w3.org/2000/svg" xmlns:xlink="http://www.w3.org/1999/xlink">
    <title>culture_img02</title>
    <defs>
        <path d="M44.2503006,79.1648847 L32.6066291,79.1648847 C14.6747884,79.1648847 0.133397083,64.1414597 0.133397083,45.6077186 L0.133397083,35.8709871 C0.133397083,17.337246 14.6747884,2.31382089 32.6066291,2.31382089 L44.2503006,2.31382089 C62.1821413,2.31382089 76.7176667,17.337246 76.7176667,35.8709871 L76.7176667,45.6077186 C76.7176667,64.1414597 62.1821413,79.1648847 44.2503006,79.1648847" id="path-1"></path>
        <path d="M126.111341,68.7267814 L119.032675,68.7385079 C108.127607,68.7565052 99.3059124,59.6762852 99.3244339,48.4645923 L99.3342181,42.5689148 C99.3527689,31.357222 108.20456,22.247791 119.109628,22.229767 L126.188294,22.2180405 C137.089796,22.2000491 145.91149,31.2802691 145.892968,42.4919619 L145.883184,48.3876394 C145.864634,59.5993323 137.012843,68.7087633 126.111341,68.7267814" id="path-3"></path>
        <path d="M114.903894,68.7267814 L107.825228,68.7385079 C96.9201599,68.7565052 88.0984656,59.6762852 88.1169871,48.4645923 L88.1267713,42.5689148 C88.145322,31.357222 96.9971128,22.247791 107.902181,22.229767 L114.980847,22.2180405 C125.882349,22.2000491 134.704043,31.2802691 134.685522,42.4919619 L134.675738,48.3876394 C134.657187,59.5993323 125.805396,68.7087633 114.903894,68.7267814" id="path-5"></path>
        <path d="M199.553492,78.3671319 L187.909821,78.3671319 C169.97798,78.3671319 155.436589,63.3437068 155.436589,44.8099658 L155.436589,35.0732342 C155.436589,16.5394932 169.97798,1.51606809 187.909821,1.51606809 L199.553492,1.51606809 C217.485333,1.51606809 232.020858,16.5394932 232.020858,35.0732342 L232.020858,44.8099658 C232.020858,63.3437068 217.485333,78.3671319 199.553492,78.3671319" id="path-7"></path>
    </defs>
    <g id="0215_官網字級調整" stroke="none" stroke-width="1" fill="none" fill-rule="evenodd">
        <g transform="translate(-867.000000, -3691.000000)" id="Group-180">
            <g transform="translate(120.000000, 3258.000000)">
                <g id="Group-179" transform="translate(115.000000, 82.000000)">
                    <g id="Group-178" transform="translate(99.000000, 72.000000)">
                        <g id="Group-177" transform="translate(0.000000, 177.000000)">
                            <g id="Group-151" transform="translate(533.000000, 102.000000)">
                                <rect id="Rectangle" x="0" y="0" width="301" height="142"></rect>
                                <g id="Group-44" transform="translate(34.422872, 16.698849)">
                                    <g id="Group-34">
                                        <g id="Soga!" transform="translate(101.611257, 0.000000)" fill="#FF5036" fill-rule="nonzero">
                                            <path d="M0,8.1536 C0,8.1536 1.1136,9.3952 3.136,9.3952 C5.0304,9.3952 6.1312,8.1792 6.1312,6.7328 C6.1312,3.8272 1.856,4.224 1.856,2.6112 C1.856,1.9712 2.4576,1.5232 3.2256,1.5232 C4.3648,1.5232 5.2352,2.3168 5.2352,2.3168 L5.952,0.9728 C5.952,0.9728 5.0304,0 3.2384,0 C1.4976,0 0.192,1.1264 0.192,2.6368 C0.192,5.4272 4.48,5.1456 4.48,6.7712 C4.48,7.5136 3.8528,7.872 3.1616,7.872 C1.8816,7.872 0.896,6.912 0.896,6.912 L0,8.1536 Z" id="Path"></path>
                                            <path d="M7.04,5.9776 C7.04,7.9872 8.64,9.3952 10.6368,9.3952 C12.6208,9.3952 14.2208,7.9872 14.2208,5.9776 C14.2208,3.9808 12.6208,2.56 10.624,2.56 C8.64,2.56 7.04,3.9808 7.04,5.9776 Z M8.6912,5.9776 C8.6912,4.7744 9.5744,3.9424 10.6368,3.9424 C11.6864,3.9424 12.5696,4.7744 12.5696,5.9776 C12.5696,7.1936 11.6864,8.0128 10.6368,8.0128 C9.5744,8.0128 8.6912,7.1936 8.6912,5.9776 Z" id="Shape"></path>
                                            <path d="M16.192,10.1248 L15.7056,11.3664 C16.3328,11.6992 17.2032,11.9296 18.0224,11.9296 C19.7248,11.9296 21.4656,11.0848 21.4656,8.8448 L21.4656,2.7136 L19.9424,2.7136 L19.9424,3.2128 C19.9424,3.3152 19.9552,3.392 19.9552,3.392 L19.9168,3.392 C19.9168,3.392 19.4048,2.56 17.984,2.56 C16.1024,2.56 15.0912,4.0192 15.0912,5.8112 C15.0912,7.6032 16.1536,9.1136 18.0224,9.1136 C18.8928,9.1136 19.456,8.8064 19.84,8.2304 L19.8656,8.2304 C19.8656,8.2304 19.84,8.4224 19.84,8.576 L19.84,8.96 C19.84,10.1248 18.9952,10.5472 17.9968,10.5472 C17.0112,10.5472 16.192,10.1248 16.192,10.1248 Z M18.368,7.744 C17.3184,7.744 16.7296,6.8992 16.7296,5.76 C16.7296,4.6592 17.28,3.9424 18.2656,3.9424 C19.1488,3.9424 19.8784,4.3392 19.8784,5.824 C19.8784,7.296 19.1488,7.744 18.368,7.744 Z" id="Shape"></path>
                                            <path d="M22.7072,7.36 C22.7072,8.6656 23.7568,9.3952 24.9216,9.3952 C26.4064,9.3952 26.9184,8.2432 26.9056,8.2432 L26.9312,8.2432 C26.9312,8.2432 26.9056,8.448 26.9056,8.704 L26.9056,9.2416 L28.4032,9.2416 L28.4032,5.1584 C28.4032,3.5072 27.4048,2.56 25.6896,2.56 C24.1408,2.56 23.1296,3.3664 23.1296,3.3664 L23.744,4.5312 C23.744,4.5312 24.6016,3.904 25.536,3.904 C26.2528,3.904 26.7904,4.1984 26.7904,5.056 L26.7904,5.1456 L26.5728,5.1456 C25.5104,5.1456 22.7072,5.2864 22.7072,7.36 Z M24.3456,7.2832 C24.3456,6.3744 25.6896,6.2592 26.5216,6.2592 L26.8032,6.2592 L26.8032,6.4128 C26.8032,7.2064 26.1888,8.128 25.3312,8.128 C24.6656,8.128 24.3456,7.7184 24.3456,7.2832 Z" id="Shape"></path>
                                            <path d="M30.592,6.6176 L32.0128,6.6176 L32.1408,0.1536 L30.4512,0.1536 L30.592,6.6176 Z M30.5152,9.2416 L32.0896,9.2416 L32.0896,7.7312 L30.5152,7.7312 L30.5152,9.2416 Z" id="Shape"></path>
                                        </g>
                                        <mask id="mask-2" fill="white">
                                            <use xlink:href="#path-1"></use>
                                        </mask>
                                        <use id="Mask" fill="#242628" transform="translate(38.425532, 40.739353) rotate(-90.000000) translate(-38.425532, -40.739353) " xlink:href="#path-1"></use>
                                        <path d="M49.6329787,26.2069947 L49.6329787,27.3503626 C49.6329787,28.1362596 48.9551938,28.7730607 48.1187173,28.7730607 L47.1436246,28.7730607 C46.3071481,28.7730607 45.6303191,28.1362596 45.6303191,27.3503626 L45.6303191,26.2069947 C45.6303191,25.4210977 46.3071481,24.7842966 47.1436246,24.7842966 L48.1187173,24.7842966 C48.9551938,24.7842966 49.6329787,25.4210977 49.6329787,26.2069947" id="Fill-58" fill="#FFFFFF" mask="url(#mask-2)"></path>
                                        <path d="M60.8404255,26.2069947 L60.8404255,27.3503626 C60.8404255,28.1362596 60.1626406,28.7730607 59.3261641,28.7730607 L58.3510715,28.7730607 C57.5145949,28.7730607 56.837766,28.1362596 56.837766,27.3503626 L56.837766,26.2069947 C56.837766,25.4210977 57.5145949,24.7842966 58.3510715,24.7842966 L59.3261641,24.7842966 C60.1626406,24.7842966 60.8404255,25.4210977 60.8404255,26.2069947" id="Fill-59" fill="#FFFFFF" mask="url(#mask-2)"></path>
                                        <path d="M57.0015203,52.9717177 C57.0015203,52.9717177 60.5366178,49.7106971 60.5366178,44.3840284 C60.5366178,40.3890268 58.0879699,37.2207313 54.2793298,37.2207313 C45.2590404,37.2207313 47.7518081,53.6587775 37.8248572,53.6587775 C33.6081091,53.6587775 29.6196809,49.8481091 29.6196809,44.0175964 C29.6196809,38.7836528 32.5668823,35.8443773 32.5668823,35.8443773 L34.242331,36.9459074 C34.242331,36.9459074 31.5234494,39.6997326 31.5234494,43.9706753 C31.5234494,48.7476962 34.6967647,51.5931294 37.7785315,51.5931294 C46.1668049,51.5931294 43.5813857,35.1550831 54.1899872,35.1550831 C58.7696205,35.1550831 62.4414894,38.7367317 62.4414894,44.4767535 C62.4414894,50.81111 58.4960779,54.3011506 58.4960779,54.3011506 L57.0015203,52.9717177 Z" id="Stroke-61" fill="#FFFFFF" mask="url(#mask-2)"></path>
                                        <mask id="mask-4" fill="white">
                                            <use xlink:href="#path-3"></use>
                                        </mask>
                                        <use id="Mask-Copy-3" stroke="#FF5036" stroke-width="0.8" transform="translate(122.608701, 45.478274) rotate(36.000000) translate(-122.608701, -45.478274) " xlink:href="#path-3"></use>
                                        <mask id="mask-6" fill="white">
                                            <use xlink:href="#path-5"></use>
                                        </mask>
                                        <use id="Mask-Copy-4" stroke="#FF5036" stroke-width="0.8" transform="translate(111.401254, 45.478274) rotate(36.000000) translate(-111.401254, -45.478274) " xlink:href="#path-5"></use>
                                        <path d="M118.843791,48.3180045 L118.113415,48.3180045 C116.988833,48.3180045 116.077128,47.3820547 116.077128,46.2278732 L116.077128,45.6216189 C116.077128,44.4671903 116.988833,43.5314876 118.113415,43.5314876 L118.843791,43.5314876 C119.968373,43.5314876 120.880319,44.4671903 120.880319,45.6216189 L120.880319,46.2278732 C120.880319,47.3820547 119.968373,48.3180045 118.843791,48.3180045" id="Fill-22-Copy-2" fill="#FF5036"></path>
                                        <path d="M110.03794,48.3180045 L109.307564,48.3180045 C108.182982,48.3180045 107.271277,47.3820547 107.271277,46.2278732 L107.271277,45.6216189 C107.271277,44.4671903 108.182982,43.5314876 109.307564,43.5314876 L110.03794,43.5314876 C111.162522,43.5314876 112.074468,44.4671903 112.074468,45.6216189 L112.074468,46.2278732 C112.074468,47.3820547 111.162522,48.3180045 110.03794,48.3180045" id="Fill-22-Copy-4" fill="#FF5036"></path>
                                        <path d="M127.649642,48.3180045 L126.919266,48.3180045 C125.794684,48.3180045 124.882979,47.3820547 124.882979,46.2278732 L124.882979,45.6216189 C124.882979,44.4671903 125.794684,43.5314876 126.919266,43.5314876 L127.649642,43.5314876 C128.774224,43.5314876 129.68617,44.4671903 129.68617,45.6216189 L129.68617,46.2278732 C129.68617,47.3820547 128.774224,48.3180045 127.649642,48.3180045" id="Fill-22-Copy-3" fill="#FF5036"></path>
                                        <mask id="mask-8" fill="white">
                                            <use xlink:href="#path-7"></use>
                                        </mask>
                                        <use id="Mask" fill="#FF5036" transform="translate(193.728723, 39.941600) scale(-1, 1) rotate(-90.000000) translate(-193.728723, -39.941600) " xlink:href="#path-7"></use>
                                        <path d="M171.31383,26.2069947 L171.31383,27.3503626 C171.31383,28.1362596 170.636045,28.7730607 169.799568,28.7730607 L168.824476,28.7730607 C167.987999,28.7730607 167.31117,28.1362596 167.31117,27.3503626 L167.31117,26.2069947 C167.31117,25.4210977 167.987999,24.7842966 168.824476,24.7842966 L169.799568,24.7842966 C170.636045,24.7842966 171.31383,25.4210977 171.31383,26.2069947" id="Fill-59-Copy" fill="#FFFFFF" mask="url(#mask-8)"></path>
                                        <path d="M183.321809,26.2069947 L183.321809,27.3503626 C183.321809,28.1362596 182.644024,28.7730607 181.807547,28.7730607 L180.832454,28.7730607 C179.995978,28.7730607 179.319149,28.1362596 179.319149,27.3503626 L179.319149,26.2069947 C179.319149,25.4210977 179.995978,24.7842966 180.832454,24.7842966 L181.807547,24.7842966 C182.644024,24.7842966 183.321809,25.4210977 183.321809,26.2069947" id="Fill-59-Copy-2" fill="#FFFFFF" mask="url(#mask-8)"></path>
                                        <path d="M194.560327,52.9163247 C194.560327,52.9163247 198.181647,49.5194282 198.181647,43.9708149 C198.181647,39.8093549 195.673276,36.5090472 191.771742,36.5090472 C182.531446,36.5090472 185.085013,53.632012 174.915941,53.632012 C170.596345,53.632012 166.510638,49.6625657 166.510638,43.589115 C166.510638,38.1370904 169.529723,35.0753451 169.529723,35.0753451 L171.246036,36.2227723 C171.246036,36.2227723 168.46084,39.0913402 168.46084,43.5402388 C168.46084,48.5163023 171.711553,51.4802951 174.868485,51.4802951 C183.461351,51.4802951 180.812873,34.3573303 191.68022,34.3573303 C196.371552,34.3573303 200.132979,38.0882142 200.132979,44.0674036 C200.132979,50.6656917 196.091338,54.3011506 196.091338,54.3011506 L194.560327,52.9163247 Z" id="Stroke-61-Copy" fill="#FFFFFF" mask="url(#mask-8)"></path>
                                    </g>
                                    <g id="Group-32" transform="translate(0.000000, 2.447218)">
                                        <g id="shutterstock_1278823261-copy" transform="translate(38.425532, 38.292135) rotate(-90.000000) translate(-38.425532, -38.292135) "></g>
                                    </g>
                                    <g id="Group-33" transform="translate(117.004976, 45.478277) rotate(36.000000) translate(-117.004976, -45.478277) translate(89.164153, 18.969523)"></g>
                                    <g id="Group-31" transform="translate(155.303191, 1.649465)">
                                        <g id="shutterstock_1278823261-copy" transform="translate(38.425532, 38.292135) scale(-1, 1) rotate(-90.000000) translate(-38.425532, -38.292135) "></g>
                                    </g>
                                </g>
                            </g>
                        </g>
                    </g>
                </g>
            </g>
        </g>
    </g>
</svg>