<?xml version="1.0" encoding="UTF-8"?>
<svg width="376px" height="178px" viewBox="0 0 376 178" version="1.1" xmlns="http://www.w3.org/2000/svg" xmlns:xlink="http://www.w3.org/1999/xlink">
    <title>culture_img01</title>
    <defs>
        <path d="M46.0845588,80 L33.9215686,80 C15.189951,80 0,64.3609972 0,45.0678447 L0,34.9321553 C0,15.6390028 15.189951,0 33.9215686,0 L46.0845588,0 C64.8161765,0 80,15.6390028 80,34.9321553 L80,45.0678447 C80,64.3609972 64.8161765,80 46.0845588,80" id="path-1"></path>
        <path d="M35.7155331,62 L26.2892157,62 C11.772212,62 0,49.8797728 0,34.9275797 L0,27.0724203 C0,12.1202272 11.772212,0 26.2892157,0 L35.7155331,0 C50.2325368,0 62,12.1202272 62,27.0724203 L62,34.9275797 C62,49.8797728 50.2325368,62 35.7155331,62" id="path-3"></path>
        <path d="M55.3014706,96 L40.7058824,96 C18.2279412,96 0,77.2331966 0,54.0814137 L0,41.9185863 C0,18.7668034 18.2279412,0 40.7058824,0 L55.3014706,0 C77.7794118,0 96,18.7668034 96,41.9185863 L96,54.0814137 C96,77.2331966 77.7794118,96 55.3014706,96" id="path-5"></path>
        <path d="M44.8697896,58.229572 L36.0167182,58.229572 C22.3780822,58.229572 11.3262379,46.8427211 11.3262379,32.8055221 L11.3262379,25.4240499 C11.3262379,11.3868509 22.3780822,4.54747351e-13 36.0167182,4.54747351e-13 L44.8697896,4.54747351e-13 C58.5039656,4.54747351e-13 69.5558099,11.3868509 69.5558099,25.4240499 L69.5558099,32.8055221 C69.5558099,46.8427211 58.5039656,58.229572 44.8697896,58.229572" id="path-7"></path>
        <path d="M33.5435517,66.4585655 L24.6904803,66.4585655 C11.0518443,66.4585655 4.54747351e-13,55.0717146 4.54747351e-13,41.0345156 L4.54747351e-13,33.6530435 C4.54747351e-13,19.6158444 11.0518443,8.22899353 24.6904803,8.22899353 L33.5435517,8.22899353 C47.1777277,8.22899353 58.229572,19.6158444 58.229572,33.6530435 L58.229572,41.0345156 C58.229572,55.0717146 47.1777277,66.4585655 33.5435517,66.4585655" id="path-9"></path>
    </defs>
    <g id="最終版" stroke="none" stroke-width="1" fill="none" fill-rule="evenodd">
        <g id="Desktop_1440" transform="translate(-334.000000, -3630.000000)">
            <g id="Group-150" transform="translate(334.000000, 3630.000000)">
                <g id="Group-28" transform="translate(36.000000, 9.000000)">
                    <text id="Aha!" fill-rule="nonzero" font-family="MuseoSans-700, Museo Sans" font-size="16" font-weight="500" line-spacing="27" fill="#FF5036">
                        <tspan x="134.604" y="15">Aha!</tspan>
                    </text>
                    <g id="Group-31-Copy" transform="translate(208.000000, 0.000000)">
                        <g id="Group-38" transform="translate(40.000000, 40.000000) scale(-1, 1) rotate(-90.000000) translate(-40.000000, -40.000000) ">
                            <mask id="mask-2" fill="white">
                                <use xlink:href="#path-1"></use>
                            </mask>
                            <use id="Mask" fill="#FF5036" xlink:href="#path-1"></use>
                            <path d="M56,64.4267057 L56,65.5732943 C56,66.3614051 55.3226654,67 54.4867447,67 L53.5123,67 C52.6763793,67 52,66.3614051 52,65.5732943 L52,64.4267057 C52,63.6385949 52.6763793,63 53.5123,63 L54.4867447,63 C55.3226654,63 56,63.6385949 56,64.4267057" id="Fill-59-Copy" fill="#FFFFFF" mask="url(#mask-2)" transform="translate(54.000000, 65.000000) scale(-1, 1) rotate(-90.000000) translate(-54.000000, -65.000000) "></path>
                            <path d="M56,52.4267057 L56,53.5732943 C56,54.3614051 55.3226654,55 54.4867447,55 L53.5123,55 C52.6763793,55 52,54.3614051 52,53.5732943 L52,52.4267057 C52,51.6385949 52.6763793,51 53.5123,51 L54.4867447,51 C55.3226654,51 56,51.6385949 56,52.4267057" id="Fill-59-Copy-2" fill="#FFFFFF" mask="url(#mask-2)" transform="translate(54.000000, 53.000000) scale(-1, 1) rotate(-90.000000) translate(-54.000000, -53.000000) "></path>
                            <path d="M47.199012,59.5418369 C47.199012,59.5418369 50.9687132,55.9650484 50.9687132,50.1225931 C50.9687132,45.7407515 48.3575629,42.2656669 44.2961656,42.2656669 C34.6772524,42.2656669 37.3354505,60.2954254 26.749706,60.2954254 C22.2531169,60.2954254 18,56.1157661 18,49.7206792 C18,43.9799276 21.1427899,40.7560392 21.1427899,40.7560392 L22.9294284,41.9642315 C22.9294284,41.9642315 20.0301106,44.9847123 20.0301106,49.6692146 C20.0301106,54.9087992 23.4140202,58.0297584 26.7003058,58.0297584 C35.6452599,58.0297584 32.8882616,40 44.2008939,40 C49.0844507,40 53,43.9284631 53,50.2242969 C53,57.1720154 48.7927546,61 48.7927546,61 L47.199012,59.5418369 Z" id="Stroke-61-Copy" fill="#FFFFFF" mask="url(#mask-2)" transform="translate(35.500000, 50.500000) scale(-1, 1) rotate(-90.000000) translate(-35.500000, -50.500000) "></path>
                        </g>
                    </g>
                    <g id="Group-31-Copy-3" transform="translate(163.000000, 99.000000)">
                        <g id="shutterstock_1278823261-copy" transform="translate(31.000000, 31.000000) scale(-1, 1) rotate(-90.000000) translate(-31.000000, -31.000000) ">
                            <mask id="mask-4" fill="white">
                                <use xlink:href="#path-3"></use>
                            </mask>
                            <use id="Mask" fill="#FF5036" xlink:href="#path-3"></use>
                        </g>
                        <path d="M12,20.0700293 L12,20.9299707 C12,21.5210538 11.491999,22 10.8650585,22 L10.134225,22 C9.50728445,22 9,21.5210538 9,20.9299707 L9,20.0700293 C9,19.4789462 9.50728445,19 10.134225,19 L10.8650585,19 C11.491999,19 12,19.4789462 12,20.0700293" id="Fill-59-Copy" fill="#FFFFFF"></path>
                        <path d="M23,20.0700293 L23,20.9299707 C23,21.5210538 22.491999,22 21.8650585,22 L21.134225,22 C20.5072845,22 20,21.5210538 20,20.9299707 L20,20.0700293 C20,19.4789462 20.5072845,19 21.134225,19 L21.8650585,19 C22.491999,19 23,19.4789462 23,20.0700293" id="Fill-59-Copy-2" fill="#FFFFFF"></path>
                        <path d="M31.5249521,41.8890186 C31.5249521,41.8890186 34.4330074,39.1638464 34.4330074,34.7124519 C34.4330074,31.3739059 32.4186914,28.7262224 29.2856135,28.7262224 C21.865309,28.7262224 23.9159189,42.4631812 15.7497732,42.4631812 C12.2809759,42.4631812 9,39.278679 9,34.4062318 C9,30.0323258 11.4244379,27.5760299 11.4244379,27.5760299 L12.8027019,28.4965574 C12.8027019,28.4965574 10.5660853,30.7978761 10.5660853,34.3670207 C10.5660853,38.3590851 13.1765299,40.7369588 15.7116645,40.7369588 C22.6120577,40.7369588 20.4852304,27 29.2121182,27 C32.9794334,27 36,29.9931147 36,34.7899405 C36,40.0834403 32.7544107,43 32.7544107,43 L31.5249521,41.8890186 Z" id="Stroke-61-Copy" fill="#FFFFFF"></path>
                    </g>
                    <g id="Group-31-Copy-2" transform="translate(48.000000, 58.000000) scale(-1, 1) translate(-48.000000, -58.000000) translate(0.000000, 10.000000)">
                        <g id="Group-3-Copy-3" transform="translate(48.000000, 48.000000) scale(-1, 1) rotate(-90.000000) translate(-48.000000, -48.000000) ">
                            <g id="shutterstock_1278823261-copy" transform="translate(0.000000, -0.000000)">
                                <mask id="mask-6" fill="white">
                                    <use xlink:href="#path-5"></use>
                                </mask>
                                <use id="Mask" fill="#FF5036" xlink:href="#path-5"></use>
                            </g>
                        </g>
                        <path d="M20,30.7833821 L20,32.2166179 C20,33.2017564 19.1533317,34 18.1084309,34 L16.890375,34 C15.8454741,34 15,33.2017564 15,32.2166179 L15,30.7833821 C15,29.7982436 15.8454741,29 16.890375,29 L18.1084309,29 C19.1533317,29 20,29.7982436 20,30.7833821" id="Fill-59-Copy" fill="#FFFFFF"></path>
                        <path d="M35,30.7833821 L35,32.2166179 C35,33.2017564 34.1533317,34 33.1084309,34 L31.890375,34 C30.8454741,34 30,33.2017564 30,32.2166179 L30,30.7833821 C30,29.7982436 30.8454741,29 31.890375,29 L33.1084309,29 C34.1533317,29 35,29.7982436 35,30.7833821" id="Fill-59-Copy-2" fill="#FFFFFF"></path>
                        <path d="M49.0388144,64.2640915 C49.0388144,64.2640915 53.5624559,60.00601 53.5624559,53.050706 C53.5624559,47.834228 50.4290755,43.6972225 45.5553987,43.6972225 C34.0127029,43.6972225 37.2025406,65.1612207 24.4996471,65.1612207 C19.1037403,65.1612207 14,60.1854359 14,52.5722371 C14,45.7380091 17.7713479,41.9000467 17.7713479,41.9000467 L19.915314,43.3383709 C19.915314,43.3383709 16.4361327,46.9341814 16.4361327,52.5109698 C16.4361327,58.7485704 20.4968243,62.4639981 24.440367,62.4639981 C35.1743119,62.4639981 31.8659139,41 45.4410727,41 C51.3013409,41 56,45.6767417 56,53.171782 C56,61.4428755 50.9513056,66 50.9513056,66 L49.0388144,64.2640915 Z" id="Stroke-61-Copy" fill="#FFFFFF"></path>
                    </g>
                    <g id="Group-33-Copy" transform="translate(150.159040, 64.940341) rotate(36.000000) translate(-150.159040, -64.940341) translate(115.381135, 31.711058)">
                        <mask id="mask-8" fill="white">
                            <use xlink:href="#path-7"></use>
                        </mask>
                        <use id="Mask-Copy-3" stroke="#FF5036" xlink:href="#path-7"></use>
                        <mask id="mask-10" fill="white">
                            <use xlink:href="#path-9"></use>
                        </mask>
                        <use id="Mask-Copy-4" stroke="#FF5036" xlink:href="#path-9"></use>
                    </g>
                    <path d="M150.456031,68.5 L149.543668,68.5 C148.138875,68.5 147,67.3267672 147,65.8799762 L147,65.1200238 C147,63.672923 148.138875,62.5 149.543668,62.5 L150.456031,62.5 C151.860824,62.5 153,63.672923 153,65.1200238 L153,65.8799762 C153,67.3267672 151.860824,68.5 150.456031,68.5" id="Fill-22-Copy-5" fill="#FF5036"></path>
                    <path d="M139.456031,68.5 L138.543668,68.5 C137.138875,68.5 136,67.3267672 136,65.8799762 L136,65.1200238 C136,63.672923 137.138875,62.5 138.543668,62.5 L139.456031,62.5 C140.860824,62.5 142,63.672923 142,65.1200238 L142,65.8799762 C142,67.3267672 140.860824,68.5 139.456031,68.5" id="Fill-22-Copy-6" fill="#FF5036"></path>
                    <path d="M161.456031,68.5 L160.543668,68.5 C159.138875,68.5 158,67.3267672 158,65.8799762 L158,65.1200238 C158,63.672923 159.138875,62.5 160.543668,62.5 L161.456031,62.5 C162.860824,62.5 164,63.672923 164,65.1200238 L164,65.8799762 C164,67.3267672 162.860824,68.5 161.456031,68.5" id="Fill-22-Copy-7" fill="#FF5036"></path>
                </g>
                <rect id="Rectangle" x="0" y="0" width="376" height="178"></rect>
            </g>
        </g>
    </g>
</svg>