<?xml version="1.0" encoding="UTF-8"?>
<svg width="179px" height="204px" viewBox="0 0 179 204" version="1.1" xmlns="http://www.w3.org/2000/svg" xmlns:xlink="http://www.w3.org/1999/xlink">
    <title>Group 195</title>
    <g id="0215_官網字級調整" stroke="none" stroke-width="1" fill="none" fill-rule="evenodd">
        <g transform="translate(-903.000000, -5007.000000)" id="Group-195">
            <g transform="translate(903.800000, 5007.862700)">
                <text id="Product-Design" font-family="MuseoSans-500, Museo Sans" font-size="14.4" font-weight="normal" letter-spacing="-0.347294068" fill="#FF5036">
                    <tspan x="25.0502585" y="180.250891">Product</tspan>
                    <tspan x="32.1765644" y="198.250891">Design</tspan>
                </text>
                <g id="Group-141" transform="translate(26.320768, -0.000000)">
                    <path d="M87.3369509,187.185427 C74.9452218,187.185427 64.8991648,176.824607 64.8991648,164.041884 L64.8991648,157.32897 C64.8991648,144.546247 74.9452218,134.185427 87.3369509,134.185427 L95.3849411,134.185427 C107.77667,134.185427 117.825381,144.546247 117.825381,157.32897 L117.825381,164.041884 C117.825381,176.824607 107.77667,187.185427 95.3849411,187.185427 L87.3369509,187.185427 Z" id="Fill-25-Copy-11" fill="#E4E9EF"></path>
                    <g id="Group-67">
                        <polygon id="Rectangle-Copy-24" stroke="#FF5036" stroke-width="0.96" fill="#FF5036" transform="translate(83.001233, 89.321997) rotate(-333.000000) translate(-83.001233, -89.321997) " points="38.9214514 26.0270856 126.933341 26.1200832 127.081015 152.616909 39.069125 152.523911"></polygon>
                        <polygon id="Rectangle-Copy" stroke="#FF5036" stroke-width="0.96" fill="#FFFFFF" transform="translate(62.234255, 83.000000) rotate(12.000000) translate(-62.234255, -83.000000) " points="14.4888292 8.29433417 109.927084 8.32799209 109.979681 157.705666 14.5414264 157.672008"></polygon>
                        <g id="Group-107" transform="translate(54.831908, 121.736996) rotate(12.000000) translate(-54.831908, -121.736996) translate(32.741376, 115.991271)" fill="#242628">
                            <rect id="Rectangle-Copy-19" x="4.54747351e-13" y="9.09494702e-13" width="44.1810649" height="11.4914503"></rect>
                        </g>
                        <line x1="25.8471787" y1="89.3844606" x2="99.1932445" y2="89.4103273" id="Path-26" stroke="#FF5036" stroke-width="0.96" transform="translate(62.520212, 89.397394) rotate(12.000000) translate(-62.520212, -89.397394) "></line>
                        <line x1="41.758608" y1="99.9913834" x2="110.841878" y2="101.30906" id="Path-26-Copy" stroke="#242628" stroke-width="0.96" transform="translate(76.300243, 100.650222) rotate(12.000000) translate(-76.300243, -100.650222) "></line>
                        <line x1="33.3562633" y1="102.418261" x2="65.1352029" y2="103.073593" id="Path-26-Copy-2" stroke="#FF5036" stroke-width="0.96" transform="translate(49.245733, 102.745927) rotate(12.000000) translate(-49.245733, -102.745927) "></line>
                        <g id="Group-19" transform="translate(67.977957, 56.709708) rotate(12.000000) translate(-67.977957, -56.709708) translate(53.107735, 38.475751)" fill="#FF5036">
                            <g id="Group-139" transform="translate(0.000000, -0.000000)">
                                <path d="M0.573722514,0 C0.256909802,0 0,0.241456348 0,0.539885542 L0,23.751648 C0,32.6752838 7.15343241,36.2422663 14.6601959,36.2422663 C17.5983215,36.2422663 19.5969003,35.5607022 20.5547062,35.1371739 C20.9548064,34.9605279 21.2069111,34.5792018 21.2069111,34.163511 L21.2069111,30.8099506 C21.2069111,30.4192797 20.781184,30.1570237 20.4019057,30.3161859 C19.4252,30.7261493 17.5416219,31.3007008 14.6601959,31.3007008 C9.5136711,31.3007008 5.47230692,28.6736196 5.47230692,21.7003241 L5.47230692,0.539885542 C5.47230692,0.241456348 5.21539712,0 4.89826407,0 L0.573722514,0 Z" id="Fill-1"></path>
                                <path d="M29.085756,36.4679141 L25.0934049,36.4679141 C24.7318197,36.4679141 24.4387166,36.1725684 24.4387166,35.8082166 L24.4387166,0.885345356 C24.4387166,0.520993592 24.7318197,0.225647843 25.0937093,0.225647843 L29.085756,0.225647843 C29.4473412,0.225647843 29.7404444,0.520993592 29.7404444,0.885345356 L29.7404444,35.8082166 C29.7404444,36.1725684 29.4473412,36.4679141 29.085756,36.4679141" id="Fill-3"></path>
                            </g>
                        </g>
                    </g>
                </g>
            </g>
        </g>
    </g>
</svg>