<?xml version="1.0" encoding="UTF-8"?>
<svg width="135px" height="158px" viewBox="0 0 135 158" version="1.1" xmlns="http://www.w3.org/2000/svg" xmlns:xlink="http://www.w3.org/1999/xlink">
    <title>Group 140</title>
    <g id="0215_官網字級調整" stroke="none" stroke-width="1" fill="none" fill-rule="evenodd">
        <g transform="translate(-668.000000, -4744.000000)" id="Group-196">
            <g transform="translate(235.000000, 4579.000000)">
                <g id="Group-140" transform="translate(433.000000, 165.000000)">
                    <path d="" id="Path-2" stroke="#979797"></path>
                    <g id="Group-138" transform="translate(14.000000, 14.000000)">
                        <g id="Research" transform="translate(32.344000, 111.116000)" fill="#FF5036" fill-rule="nonzero">
                            <path d="M0,9.884 L1.386,9.884 L1.386,5.95 L3.5,5.95 L5.586,9.884 L7.154,9.884 L5.054,6.048 C4.872,5.726 4.76,5.6 4.76,5.6 L4.76,5.572 C5.838,5.222 6.538,4.158 6.538,2.898 C6.538,1.596 5.88,0.602 4.872,0.224 C4.494,0.084 4.06,0 3.024,0 L0,0 L0,9.884 Z M1.386,4.746 L1.386,1.204 L2.982,1.204 C3.752,1.204 4.074,1.288 4.34,1.428 C4.844,1.708 5.124,2.226 5.124,2.954 C5.124,4.06 4.452,4.746 3.374,4.746 L1.386,4.746 Z" id="Shape"></path>
                            <path d="M7.866353,6.342 C7.866353,8.442 9.392353,10.052 11.618353,10.052 C13.312353,10.052 14.362353,9.044 14.362353,9.044 L13.802353,8.05 C13.802353,8.05 12.920353,8.876 11.702353,8.876 C10.442353,8.876 9.336353,8.092 9.266353,6.538 L14.432353,6.538 C14.432353,6.538 14.474353,6.132 14.474353,5.95 C14.474353,4.116 13.410353,2.632 11.408353,2.632 C9.392353,2.632 7.866353,4.088 7.866353,6.342 Z M9.308353,5.516 C9.504353,4.354 10.344353,3.71 11.380353,3.71 C12.290353,3.71 13.046353,4.298 13.088353,5.516 L9.308353,5.516 Z" id="Shape"></path>
                            <path d="M15.214706,9.016 C15.214706,9.016 16.166706,10.052 17.902706,10.052 C19.456706,10.052 20.464706,9.17 20.464706,7.994 C20.464706,5.67 16.824706,5.95 16.824706,4.676 C16.824706,4.06 17.398706,3.808 17.986706,3.808 C19.106706,3.808 19.736706,4.438 19.736706,4.438 L20.282706,3.416 C20.282706,3.416 19.554706,2.632 18.000706,2.632 C16.586706,2.632 15.438706,3.36 15.438706,4.648 C15.438706,6.958 19.078706,6.692 19.078706,7.994 C19.078706,8.568 18.490706,8.876 17.902706,8.876 C16.670706,8.876 15.872706,8.05 15.872706,8.05 L15.214706,9.016 Z" id="Path"></path>
                            <path d="M21.233059,6.342 C21.233059,8.442 22.759059,10.052 24.985059,10.052 C26.679059,10.052 27.729059,9.044 27.729059,9.044 L27.169059,8.05 C27.169059,8.05 26.287059,8.876 25.069059,8.876 C23.809059,8.876 22.703059,8.092 22.633059,6.538 L27.799059,6.538 C27.799059,6.538 27.841059,6.132 27.841059,5.95 C27.841059,4.116 26.777059,2.632 24.775059,2.632 C22.759059,2.632 21.233059,4.088 21.233059,6.342 Z M22.675059,5.516 C22.871059,4.354 23.711059,3.71 24.747059,3.71 C25.657059,3.71 26.413059,4.298 26.455059,5.516 L22.675059,5.516 Z" id="Shape"></path>
                            <path d="M28.581412,7.896 C28.581412,9.31 29.771412,10.052 30.989412,10.052 C32.683412,10.052 33.257412,8.652 33.257412,8.652 L33.285412,8.652 C33.285412,8.652 33.257412,8.89 33.257412,9.212 L33.257412,9.884 L34.517412,9.884 L34.517412,5.404 C34.517412,3.612 33.509412,2.632 31.717412,2.632 C30.093412,2.632 29.071412,3.472 29.071412,3.472 L29.631412,4.466 C29.631412,4.466 30.513412,3.78 31.605412,3.78 C32.501412,3.78 33.159412,4.172 33.159412,5.334 L33.159412,5.46 L32.851412,5.46 C31.661412,5.46 28.581412,5.558 28.581412,7.896 Z M29.953412,7.826 C29.953412,6.552 31.801412,6.482 32.823412,6.482 L33.173412,6.482 L33.173412,6.706 C33.173412,7.756 32.431412,8.96 31.283412,8.96 C30.401412,8.96 29.953412,8.4 29.953412,7.826 Z" id="Shape"></path>
                            <path d="M36.209765,9.884 L37.567765,9.884 L37.567765,6.986 C37.567765,6.552 37.609765,6.118 37.735765,5.712 C38.057765,4.662 38.855765,4.046 39.723765,4.046 C39.933765,4.046 40.115765,4.088 40.115765,4.088 L40.115765,2.744 C40.115765,2.744 39.947765,2.716 39.765765,2.716 C38.673765,2.716 37.847765,3.528 37.525765,4.564 L37.497765,4.564 C37.497765,4.564 37.525765,4.326 37.525765,4.032 L37.525765,2.8 L36.209765,2.8 L36.209765,9.884 Z" id="Path"></path>
                            <path d="M40.576118,6.342 C40.576118,8.47 42.144118,10.052 44.370118,10.052 C46.218118,10.052 47.198118,8.918 47.198118,8.918 L46.652118,7.924 C46.652118,7.924 45.784118,8.876 44.468118,8.876 C42.998118,8.876 41.962118,7.77 41.962118,6.328 C41.962118,4.872 42.998118,3.808 44.426118,3.808 C45.630118,3.808 46.386118,4.62 46.386118,4.62 L47.030118,3.668 C47.030118,3.668 46.148118,2.632 44.370118,2.632 C42.144118,2.632 40.576118,4.242 40.576118,6.342 Z" id="Path"></path>
                            <path d="M48.400471,9.884 L49.758471,9.884 L49.758471,6.566 C49.758471,6.23 49.786471,5.908 49.870471,5.628 C50.164471,4.606 51.046471,3.878 52.110471,3.878 C53.244471,3.878 53.454471,4.662 53.454471,5.656 L53.454471,9.884 L54.812471,9.884 L54.812471,5.348 C54.812471,3.542 54.042471,2.632 52.376471,2.632 C50.962471,2.632 50.066471,3.528 49.758471,4.214 L49.730471,4.214 C49.730471,4.214 49.758471,3.962 49.758471,3.626 L49.758471,0 L48.400471,0 L48.400471,9.884 Z" id="Path"></path>
                        </g>
                        <g id="Group-192">
                            <path d="M51.57526,96 C29.0484075,96 10.7857386,77.2332318 10.7857386,54.07962 L10.7857386,41.92038 C10.7857386,18.7667682 29.0484075,0 51.57526,0 L66.2056548,0 C88.7325074,0 107,18.7667682 107,41.92038 L107,54.07962 C107,77.2332318 88.7325074,96 66.2056548,96 L51.57526,96 Z" id="Fill-25-Copy-10" fill="#E4E9EF"></path>
                            <g id="Group-98" transform="translate(-0.000000, 9.041462)">
                                <g id="Group-91" stroke-width="0.972">
                                    <polygon id="Rectangle-Copy-18" stroke="#FF5036" fill="#FF5036" transform="translate(44.873848, 35.685472) rotate(-15.000000) translate(-44.873848, -35.685472) " points="5.50053095 9.24945687 84.2216681 9.28738405 84.2471657 62.1214872 5.52602853 62.08356"></polygon>
                                    <polygon id="Rectangle" stroke="#FF5036" fill="#FFFFFF" transform="translate(54.197005, 41.634536) rotate(-15.000000) translate(-54.197005, -41.634536) " points="14.8233897 14.5805777 93.5445269 14.6185049 93.5706209 68.6884935 14.8494837 68.6505663"></polygon>
                                    <g id="Group-72" transform="translate(85.099080, 33.601760) rotate(-15.000000) translate(-85.099080, -33.601760) translate(63.827646, 28.522638)">
                                        <g id="Group-96" transform="translate(-0.000000, -0.000000)">
                                            <g id="Group-97" transform="translate(0.000000, -0.000000)">
                                                <line x1="0.142216794" y1="1.14808727" x2="37.404361" y2="0.968180245" id="Path-17" stroke="#FF5036"></line>
                                                <line x1="0.546089508" y1="5.62299923" x2="41.9594894" y2="5.21784508" id="Path-17-Copy" stroke="#242628"></line>
                                                <line x1="0" y1="9.77595964" x2="16.4627373" y2="9.77595964" id="Path-17-Copy-2" stroke="#FF5036"></line>
                                            </g>
                                        </g>
                                    </g>
                                </g>
                                <polygon id="Rectangle" fill="#242628" transform="translate(34.163137, 40.377933) rotate(-15.000000) translate(-34.163137, -40.377933) " points="21.8950874 28.1676533 46.3978331 28.2010069 46.4311866 52.5882124 21.928441 52.5548589"></polygon>
                                <g id="Group-95" transform="translate(31.458404, 30.435173)" stroke="#FF5036">
                                    <ellipse id="Oval-Copy-3" stroke-width="0.972" transform="translate(12.385688, 12.584896) rotate(-90.000000) translate(-12.385688, -12.584896) " cx="12.3856877" cy="12.5848963" rx="12.5848963" ry="12.3856877"></ellipse>
                                    <line x1="25.8924225" y1="31.8782619" x2="35.4809149" y2="15.9538064" id="Path-24" stroke-width="4.86" transform="translate(30.686669, 23.916034) rotate(-90.000000) translate(-30.686669, -23.916034) "></line>
                                </g>
                            </g>
                        </g>
                    </g>
                    <rect id="Rectangle" x="0" y="0" width="135" height="158"></rect>
                </g>
            </g>
        </g>
    </g>
</svg>