<?xml version="1.0" encoding="UTF-8"?>
<svg width="131px" height="119px" viewBox="0 0 131 119" version="1.1" xmlns="http://www.w3.org/2000/svg" xmlns:xlink="http://www.w3.org/1999/xlink">
    <title>Group 100</title>
    <g id="最終版" stroke="none" stroke-width="1" fill="none" fill-rule="evenodd">
        <g id="Desktop_1440" transform="translate(-332.000000, -4697.000000)">
            <g id="Group-122" transform="translate(233.000000, 4515.000000)">
                <g id="Group-100" transform="translate(99.000000, 182.000000)">
                    <path d="M62.4494134,119 C34.5876868,119 12,95.7370269 12,67.0361956 L12,51.9638044 C12,23.2629731 34.5876868,0 62.4494134,0 L80.5446205,0 C108.406347,0 131,23.2629731 131,51.9638044 L131,67.0361956 C131,95.7370269 108.406347,119 80.5446205,119 L62.4494134,119 Z" id="Fill-25-Copy-11" fill="#E4E9EF"></path>
                    <g id="Group-85" transform="translate(44.000000, 11.000000)" stroke-width="1.2">
                        <rect id="Rectangle" stroke="#FF5036" fill="#FF5036" x="8" y="9" width="76" height="89"></rect>
                        <rect id="Rectangle-Copy" stroke="#FF5036" fill="#FFFFFF" x="0" y="0" width="76" height="89"></rect>
                        <rect id="Rectangle" stroke="#242628" fill="#242628" x="14" y="11" width="47" height="22"></rect>
                        <line x1="14" y1="11" x2="61" y2="33" id="Path-20" stroke="#FF5036"></line>
                        <line x1="14" y1="11" x2="61" y2="33" id="Path-20-Copy" stroke="#FF5036" transform="translate(37.500000, 22.000000) scale(1, -1) translate(-37.500000, -22.000000) "></line>
                        <line x1="14" y1="44.5" x2="61" y2="44.5" id="Path-21" stroke="#242628"></line>
                        <line x1="14" y1="50.5" x2="47" y2="50.5" id="Path-21-Copy" stroke="#FF5036"></line>
                    </g>
                    <g id="Group-94" transform="translate(0.000000, 40.000000)">
                        <g id="Group-92" transform="translate(4.000000, 4.000000)">
                            <polyline id="Path-19" stroke="#FF5036" stroke-width="1.2" points="0 0 25 0 25 40 75 40"></polyline>
                            <polygon id="Path-22" fill="#FF5036" points="74 36 74 45 83 40.2"></polygon>
                        </g>
                        <path d="M3.3915572,8 C1.51849995,8 0,6.43610265 0,4.506635 L0,3.493365 C0,1.56389735 1.51849995,0 3.3915572,0 L4.60804171,0 C6.48109897,0 8,1.56389735 8,3.493365 L8,4.506635 C8,6.43610265 6.48109897,8 4.60804171,8 L3.3915572,8 Z" id="Fill-25-Copy-15" fill="#FF5036"></path>
                    </g>
                </g>
            </g>
        </g>
    </g>
</svg>