<?xml version="1.0" encoding="UTF-8"?>
<svg width="153px" height="203px" viewBox="0 0 153 203" version="1.1" xmlns="http://www.w3.org/2000/svg" xmlns:xlink="http://www.w3.org/1999/xlink">
    <title>Group 195</title>
    <g id="0215_官網字級調整" stroke="none" stroke-width="1" fill="none" fill-rule="evenodd">
        <g transform="translate(-929.000000, -5007.000000)" id="Group-195">
            <g transform="translate(930.120768, 5007.862700)">
                <g id="Product-Design" transform="translate(0.111891, 170.084491)" fill="#FF5036" fill-rule="nonzero">
                    <path d="M0,10.1664 L1.4256,10.1664 L1.4256,6.408 L3.7152,6.408 C5.5728,6.408 6.912,5.112 6.912,3.1824 C6.912,1.2528 5.5728,0 3.7152,0 L0,0 L0,10.1664 Z M1.4256,5.1696 L1.4256,1.2384 L3.4992,1.2384 C4.7088,1.2384 5.4576,1.9584 5.4576,3.1824 C5.4576,4.4064 4.7088,5.1696 3.4848,5.1696 L1.4256,5.1696 Z" id="Shape"></path>
                    <path d="M8.10550593,10.1664 L9.50230593,10.1664 L9.50230593,7.1856 C9.50230593,6.7392 9.54550593,6.2928 9.67510593,5.8752 C10.0063059,4.7952 10.8271059,4.1616 11.7199059,4.1616 C11.9359059,4.1616 12.1231059,4.2048 12.1231059,4.2048 L12.1231059,2.8224 C12.1231059,2.8224 11.9503059,2.7936 11.7631059,2.7936 C10.6399059,2.7936 9.79030593,3.6288 9.45910593,4.6944 L9.43030593,4.6944 C9.43030593,4.6944 9.45910593,4.4496 9.45910593,4.1472 L9.45910593,2.88 L8.10550593,2.88 L8.10550593,10.1664 Z" id="Path"></path>
                    <path d="M12.5822119,6.5088 C12.5822119,8.7264 14.3390119,10.3392 16.5134119,10.3392 C18.6878119,10.3392 20.4446119,8.7264 20.4446119,6.5088 C20.4446119,4.3056 18.6878119,2.7072 16.5134119,2.7072 C14.3390119,2.7072 12.5822119,4.3056 12.5822119,6.5088 Z M14.0078119,6.5088 C14.0078119,4.9968 15.1454119,3.9168 16.5134119,3.9168 C17.8958119,3.9168 19.0190119,4.9968 19.0190119,6.5088 C19.0190119,8.0352 17.8958119,9.1296 16.5134119,9.1296 C15.1454119,9.1296 14.0078119,8.0352 14.0078119,6.5088 Z" id="Shape"></path>
                    <path d="M21.2781178,6.5232 C21.2781178,8.784 22.5165178,10.3392 24.4893178,10.3392 C26.2893178,10.3392 26.8797178,8.9856 26.8797178,8.9856 L26.9085178,8.9856 C26.9085178,8.9856 26.8941178,9.1872 26.8941178,9.4752 L26.8941178,10.1664 L28.2189178,10.1664 L28.2189178,0 L26.8221178,0 L26.8221178,3.3696 C26.8221178,3.6432 26.8509178,3.8592 26.8509178,3.8592 L26.8221178,3.8592 C26.8221178,3.8592 26.2605178,2.7072 24.5757178,2.7072 C22.6461178,2.7072 21.2781178,4.2048 21.2781178,6.5232 Z M22.7037178,6.5232 C22.7037178,4.8672 23.6541178,3.9168 24.8061178,3.9168 C26.1885178,3.9168 26.8653178,5.2128 26.8653178,6.5088 C26.8653178,8.3664 25.8429178,9.1296 24.7629178,9.1296 C23.5533178,9.1296 22.7037178,8.1072 22.7037178,6.5232 Z" id="Shape"></path>
                    <path d="M29.9596237,7.5456 C29.9596237,9.4752 30.8092237,10.3392 32.4508237,10.3392 C33.8764237,10.3392 34.8268237,9.3888 35.1292237,8.6688 L35.1580237,8.6688 C35.1580237,8.6688 35.1292237,8.8992 35.1292237,9.2016 L35.1292237,10.1664 L36.4828237,10.1664 L36.4828237,2.88 L35.0860237,2.88 L35.0860237,6.2928 C35.0860237,7.7328 34.2076237,9.0432 32.7244237,9.0432 C31.5580237,9.0432 31.3564237,8.2368 31.3564237,7.2288 L31.3564237,2.88 L29.9596237,2.88 L29.9596237,7.5456 Z" id="Path"></path>
                    <path d="M37.8059297,6.5232 C37.8059297,8.712 39.4187297,10.3392 41.7083297,10.3392 C43.6091297,10.3392 44.6171297,9.1728 44.6171297,9.1728 L44.0555297,8.1504 C44.0555297,8.1504 43.1627297,9.1296 41.8091297,9.1296 C40.2971297,9.1296 39.2315297,7.992 39.2315297,6.5088 C39.2315297,5.0112 40.2971297,3.9168 41.7659297,3.9168 C43.0043297,3.9168 43.7819297,4.752 43.7819297,4.752 L44.4443297,3.7728 C44.4443297,3.7728 43.5371297,2.7072 41.7083297,2.7072 C39.4187297,2.7072 37.8059297,4.3632 37.8059297,6.5232 Z" id="Path"></path>
                    <path d="M46.1562356,7.5024 C46.1562356,9.936 48.0138356,10.224 48.9498356,10.224 C49.2378356,10.224 49.4394356,10.1952 49.4394356,10.1952 L49.4394356,8.9568 C49.4394356,8.9568 49.3098356,8.9856 49.1082356,8.9856 C48.5754356,8.9856 47.5530356,8.7984 47.5530356,7.344 L47.5530356,4.104 L49.3098356,4.104 L49.3098356,2.9808 L47.5530356,2.9808 L47.5530356,0.8784 L46.1994356,0.8784 L46.1994356,2.9808 L45.2058356,2.9808 L45.2058356,4.104 L46.1562356,4.104 L46.1562356,7.5024 Z" id="Path"></path>
                    <path d="M7.12630593,28.1664 L10.4959059,28.1664 C13.6063059,28.1664 15.6511059,26.2944 15.6511059,23.0688 C15.6511059,19.8576 13.6063059,18 10.4959059,18 L7.12630593,18 L7.12630593,28.1664 Z M8.55190593,26.928 L8.55190593,19.2384 L10.3951059,19.2384 C12.6703059,19.2384 14.1823059,20.5776 14.1823059,23.0688 C14.1823059,25.5744 12.6847059,26.928 10.3951059,26.928 L8.55190593,26.928 Z" id="Shape"></path>
                    <path d="M16.6430119,24.5232 C16.6430119,26.6832 18.2126119,28.3392 20.5022119,28.3392 C22.2446119,28.3392 23.3246119,27.3024 23.3246119,27.3024 L22.7486119,26.28 C22.7486119,26.28 21.8414119,27.1296 20.5886119,27.1296 C19.2926119,27.1296 18.1550119,26.3232 18.0830119,24.7248 L23.3966119,24.7248 C23.3966119,24.7248 23.4398119,24.3072 23.4398119,24.12 C23.4398119,22.2336 22.3454119,20.7072 20.2862119,20.7072 C18.2126119,20.7072 16.6430119,22.2048 16.6430119,24.5232 Z M18.1262119,23.6736 C18.3278119,22.4784 19.1918119,21.816 20.2574119,21.816 C21.1934119,21.816 21.9710119,22.4208 22.0142119,23.6736 L18.1262119,23.6736 Z" id="Shape"></path>
                    <path d="M24.2013178,27.2736 C24.2013178,27.2736 25.1805178,28.3392 26.9661178,28.3392 C28.5645178,28.3392 29.6013178,27.432 29.6013178,26.2224 C29.6013178,23.832 25.8573178,24.12 25.8573178,22.8096 C25.8573178,22.176 26.4477178,21.9168 27.0525178,21.9168 C28.2045178,21.9168 28.8525178,22.5648 28.8525178,22.5648 L29.4141178,21.5136 C29.4141178,21.5136 28.6653178,20.7072 27.0669178,20.7072 C25.6125178,20.7072 24.4317178,21.456 24.4317178,22.7808 C24.4317178,25.1568 28.1757178,24.8832 28.1757178,26.2224 C28.1757178,26.8128 27.5709178,27.1296 26.9661178,27.1296 C25.6989178,27.1296 24.8781178,26.28 24.8781178,26.28 L24.2013178,27.2736 Z" id="Path"></path>
                    <path d="M30.8812237,19.4256 L32.2924237,19.4256 L32.2924237,18 L30.8812237,18 L30.8812237,19.4256 Z M30.8956237,28.1664 L32.2924237,28.1664 L32.2924237,20.88 L30.8956237,20.88 L30.8956237,28.1664 Z" id="Shape"></path>
                    <path d="M34.7819297,29.4912 L34.3211297,30.5856 C35.0267297,30.9456 35.9339297,31.1904 36.8123297,31.1904 C38.6555297,31.1904 40.4843297,30.2688 40.4843297,27.864 L40.4843297,20.88 L39.1451297,20.88 L39.1451297,21.5568 C39.1451297,21.6864 39.1595297,21.7872 39.1595297,21.7872 L39.1307297,21.7872 C39.1307297,21.7872 38.5979297,20.7072 36.8411297,20.7072 C34.8251297,20.7072 33.6587297,22.2624 33.6587297,24.3504 C33.6587297,26.4528 34.8827297,28.08 36.9131297,28.08 C37.9643297,28.08 38.6411297,27.6624 39.0731297,26.9424 L39.1019297,26.9424 C39.1019297,26.9424 39.0875297,27.1728 39.0875297,27.4032 L39.0875297,27.936 C39.0875297,29.4192 38.0507297,29.9808 36.7835297,29.9808 C35.6891297,29.9808 34.7819297,29.4912 34.7819297,29.4912 Z M37.1867297,26.8704 C35.8763297,26.8704 35.0699297,25.8336 35.0699297,24.3216 C35.0699297,22.8384 35.7899297,21.9168 37.0571297,21.9168 C38.1947297,21.9168 39.1163297,22.464 39.1163297,24.3648 C39.1163297,26.2656 38.1947297,26.8704 37.1867297,26.8704 Z" id="Shape"></path>
                    <path d="M42.3258356,28.1664 L43.7226356,28.1664 L43.7226356,24.7536 C43.7226356,24.3936 43.7514356,24.0624 43.8378356,23.7744 C44.1402356,22.7232 45.0330356,21.9888 46.1418356,21.9888 C47.3082356,21.9888 47.5242356,22.7952 47.5242356,23.8176 L47.5242356,28.1664 L48.9210356,28.1664 L48.9210356,23.5008 C48.9210356,21.6432 48.1290356,20.7072 46.4154356,20.7072 C44.8314356,20.7072 43.9674356,21.744 43.6794356,22.3776 L43.6506356,22.3776 C43.6506356,22.3776 43.6794356,22.1328 43.6794356,21.8448 L43.6794356,20.88 L42.3258356,20.88 L42.3258356,28.1664 Z" id="Path"></path>
                </g>
                <g id="Group-141">
                    <path d="M87.3369509,187.185427 C74.9452218,187.185427 64.8991648,176.824607 64.8991648,164.041884 L64.8991648,157.32897 C64.8991648,144.546247 74.9452218,134.185427 87.3369509,134.185427 L95.3849411,134.185427 C107.77667,134.185427 117.825381,144.546247 117.825381,157.32897 L117.825381,164.041884 C117.825381,176.824607 107.77667,187.185427 95.3849411,187.185427 L87.3369509,187.185427 Z" id="Fill-25-Copy-11" fill="#E4E9EF"></path>
                    <g id="Group-67">
                        <polygon id="Rectangle-Copy-24" stroke="#FF5036" stroke-width="0.96" fill="#FF5036" transform="translate(83.001233, 89.321997) rotate(-333.000000) translate(-83.001233, -89.321997) " points="38.9214514 26.0270856 126.933341 26.1200832 127.081015 152.616909 39.069125 152.523911"></polygon>
                        <polygon id="Rectangle-Copy" stroke="#FF5036" stroke-width="0.96" fill="#FFFFFF" transform="translate(62.234255, 83.000000) rotate(12.000000) translate(-62.234255, -83.000000) " points="14.4888292 8.29433417 109.927084 8.32799209 109.979681 157.705666 14.5414264 157.672008"></polygon>
                        <g id="Group-107" transform="translate(54.831908, 121.736996) rotate(12.000000) translate(-54.831908, -121.736996) translate(32.741376, 115.991271)" fill="#242628">
                            <rect id="Rectangle-Copy-19" x="4.54747351e-13" y="9.09494702e-13" width="44.1810649" height="11.4914503"></rect>
                        </g>
                        <line x1="25.8471787" y1="89.3844606" x2="99.1932445" y2="89.4103273" id="Path-26" stroke="#FF5036" stroke-width="0.96" transform="translate(62.520212, 89.397394) rotate(12.000000) translate(-62.520212, -89.397394) "></line>
                        <line x1="41.758608" y1="99.9913834" x2="110.841878" y2="101.30906" id="Path-26-Copy" stroke="#242628" stroke-width="0.96" transform="translate(76.300243, 100.650222) rotate(12.000000) translate(-76.300243, -100.650222) "></line>
                        <line x1="33.3562633" y1="102.418261" x2="65.1352029" y2="103.073593" id="Path-26-Copy-2" stroke="#FF5036" stroke-width="0.96" transform="translate(49.245733, 102.745927) rotate(12.000000) translate(-49.245733, -102.745927) "></line>
                        <g id="Group-19" transform="translate(67.977957, 56.709708) rotate(12.000000) translate(-67.977957, -56.709708) translate(53.107735, 38.475751)" fill="#FF5036">
                            <g id="Group-139" transform="translate(0.000000, -0.000000)">
                                <path d="M0.573722514,0 C0.256909802,0 0,0.241456348 0,0.539885542 L0,23.751648 C0,32.6752838 7.15343241,36.2422663 14.6601959,36.2422663 C17.5983215,36.2422663 19.5969003,35.5607022 20.5547062,35.1371739 C20.9548064,34.9605279 21.2069111,34.5792018 21.2069111,34.163511 L21.2069111,30.8099506 C21.2069111,30.4192797 20.781184,30.1570237 20.4019057,30.3161859 C19.4252,30.7261493 17.5416219,31.3007008 14.6601959,31.3007008 C9.5136711,31.3007008 5.47230692,28.6736196 5.47230692,21.7003241 L5.47230692,0.539885542 C5.47230692,0.241456348 5.21539712,0 4.89826407,0 L0.573722514,0 Z" id="Fill-1"></path>
                                <path d="M29.085756,36.4679141 L25.0934049,36.4679141 C24.7318197,36.4679141 24.4387166,36.1725684 24.4387166,35.8082166 L24.4387166,0.885345356 C24.4387166,0.520993592 24.7318197,0.225647843 25.0937093,0.225647843 L29.085756,0.225647843 C29.4473412,0.225647843 29.7404444,0.520993592 29.7404444,0.885345356 L29.7404444,35.8082166 C29.7404444,36.1725684 29.4473412,36.4679141 29.085756,36.4679141" id="Fill-3"></path>
                            </g>
                        </g>
                    </g>
                </g>
            </g>
        </g>
    </g>
</svg>