<?xml version="1.0" encoding="UTF-8"?>
<svg width="135px" height="158px" viewBox="0 0 135 158" version="1.1" xmlns="http://www.w3.org/2000/svg" xmlns:xlink="http://www.w3.org/1999/xlink">
    <title>Group 124</title>
    <g id="0215_官網字級調整" stroke="none" stroke-width="1" fill="none" fill-rule="evenodd">
        <g transform="translate(-334.000000, -4744.000000)" id="Group-196">
            <g transform="translate(235.000000, 4579.000000)">
                <g id="Group-124" transform="translate(99.000000, 165.000000)">
                    <g id="Group-128" transform="translate(18.000000, 14.000000)">
                        <g id="Brand" transform="translate(29.344000, 111.116000)" fill="#FF5036" fill-rule="nonzero">
                            <path d="M0,9.884 L3.542,9.884 C5.278,9.884 6.72,8.932 6.72,7.07 C6.72,5.964 6.132,4.984 5.096,4.676 L5.096,4.648 C5.852,4.256 6.328,3.486 6.328,2.52 C6.328,0.924 5.124,0 3.458,0 L0,0 L0,9.884 Z M1.386,4.158 L1.386,1.204 L3.43,1.204 C4.382,1.204 4.914,1.792 4.914,2.66 C4.914,3.528 4.354,4.158 3.458,4.158 L1.386,4.158 Z M1.386,8.68 L1.386,5.306 L3.598,5.306 C4.634,5.306 5.306,5.992 5.306,7 C5.306,8.008 4.676,8.68 3.612,8.68 L1.386,8.68 Z" id="Shape"></path>
                            <path d="M8.258353,9.884 L9.616353,9.884 L9.616353,6.986 C9.616353,6.552 9.658353,6.118 9.784353,5.712 C10.106353,4.662 10.904353,4.046 11.772353,4.046 C11.982353,4.046 12.164353,4.088 12.164353,4.088 L12.164353,2.744 C12.164353,2.744 11.996353,2.716 11.814353,2.716 C10.722353,2.716 9.896353,3.528 9.574353,4.564 L9.546353,4.564 C9.546353,4.564 9.574353,4.326 9.574353,4.032 L9.574353,2.8 L8.258353,2.8 L8.258353,9.884 Z" id="Path"></path>
                            <path d="M12.596706,7.896 C12.596706,9.31 13.786706,10.052 15.004706,10.052 C16.698706,10.052 17.272706,8.652 17.272706,8.652 L17.300706,8.652 C17.300706,8.652 17.272706,8.89 17.272706,9.212 L17.272706,9.884 L18.532706,9.884 L18.532706,5.404 C18.532706,3.612 17.524706,2.632 15.732706,2.632 C14.108706,2.632 13.086706,3.472 13.086706,3.472 L13.646706,4.466 C13.646706,4.466 14.528706,3.78 15.620706,3.78 C16.516706,3.78 17.174706,4.172 17.174706,5.334 L17.174706,5.46 L16.866706,5.46 C15.676706,5.46 12.596706,5.558 12.596706,7.896 Z M13.968706,7.826 C13.968706,6.552 15.816706,6.482 16.838706,6.482 L17.188706,6.482 L17.188706,6.706 C17.188706,7.756 16.446706,8.96 15.298706,8.96 C14.416706,8.96 13.968706,8.4 13.968706,7.826 Z" id="Shape"></path>
                            <path d="M20.225059,9.884 L21.583059,9.884 L21.583059,6.566 C21.583059,6.216 21.611059,5.894 21.695059,5.614 C21.989059,4.592 22.857059,3.878 23.935059,3.878 C25.069059,3.878 25.279059,4.662 25.279059,5.656 L25.279059,9.884 L26.637059,9.884 L26.637059,5.348 C26.637059,3.542 25.867059,2.632 24.201059,2.632 C22.661059,2.632 21.821059,3.64 21.541059,4.256 L21.513059,4.256 C21.513059,4.256 21.541059,4.018 21.541059,3.738 L21.541059,2.8 L20.225059,2.8 L20.225059,9.884 Z" id="Path"></path>
                            <path d="M27.867412,6.342 C27.867412,8.54 29.071412,10.052 30.989412,10.052 C32.739412,10.052 33.313412,8.736 33.313412,8.736 L33.341412,8.736 C33.341412,8.736 33.327412,8.932 33.327412,9.212 L33.327412,9.884 L34.615412,9.884 L34.615412,0 L33.257412,0 L33.257412,3.276 C33.257412,3.542 33.285412,3.752 33.285412,3.752 L33.257412,3.752 C33.257412,3.752 32.711412,2.632 31.073412,2.632 C29.197412,2.632 27.867412,4.088 27.867412,6.342 Z M29.253412,6.342 C29.253412,4.732 30.177412,3.808 31.297412,3.808 C32.641412,3.808 33.299412,5.068 33.299412,6.328 C33.299412,8.134 32.305412,8.876 31.255412,8.876 C30.079412,8.876 29.253412,7.882 29.253412,6.342 Z" id="Shape"></path>
                        </g>
                        <g id="Group-93">
                            <path d="M43.3728847,96 C20.7637786,96 2.43442623,77.2332318 2.43442623,54.07962 L2.43442623,41.92038 C2.43442623,18.7667682 20.7637786,0 43.3728847,0 L58.0567002,0 C80.6658063,0 99,18.7667682 99,41.92038 L99,54.07962 C99,77.2332318 80.6658063,96 58.0567002,96 L43.3728847,96 Z" id="Fill-25-Copy-9" fill="#E4E9EF"></path>
                            <g id="Group-88" transform="translate(0.000000, 12.907563)" stroke-width="0.972">
                                <g id="Group-63" transform="translate(0.000000, 7.260504)">
                                    <rect id="Rectangle" stroke="#FF5036" fill="#FF5036" x="0" y="0" width="84.3934426" height="51.6302521"></rect>
                                    <line x1="6.71412531" y1="41.5462185" x2="38.7284976" y2="41.5462185" id="Path-23" stroke="#242628"></line>
                                    <line x1="6.49180328" y1="35.8991597" x2="24.1211066" y2="35.8991597" id="Path-23-Copy" stroke="#E4E9EF"></line>
                                </g>
                                <ellipse id="Oval" stroke="#242628" fill="#242628" cx="33.6762295" cy="14.9243697" rx="15.0122951" ry="14.9243697"></ellipse>
                                <line x1="94.942623" y1="7.57653989" x2="95.3483607" y2="68.2553929" id="Path-15" stroke="#FF5036"></line>
                                <line x1="94.942623" y1="68.9747899" x2="10.5491803" y2="68.9747899" id="Path-15-Copy" stroke="#FF5036"></line>
                            </g>
                            <polygon id="Triangle" stroke="#FF5036" stroke-width="0.972" fill="#FFFFFF" transform="translate(62.656785, 41.775011) rotate(-291.000000) translate(-62.656785, -41.775011) " points="68.8736969 15.5682309 89.6827569 67.9817909 35.6308132 61.8890982"></polygon>
                            <path d="M10.055444,85.512605 C8.53550406,85.512605 7.30327869,84.2509736 7.30327869,82.6944282 L7.30327869,81.8770003 C7.30327869,80.320455 8.53550406,79.0588235 10.055444,79.0588235 L11.0425912,79.0588235 C12.5625311,79.0588235 13.795082,80.320455 13.795082,81.8770003 L13.795082,82.6944282 C13.795082,84.2509736 12.5625311,85.512605 11.0425912,85.512605 L10.055444,85.512605 Z" id="Fill-25-Copy-16" fill="#FF5036"></path>
                            <path d="M94.4488866,85.512605 C92.9289467,85.512605 91.6967213,84.2509736 91.6967213,82.6944282 L91.6967213,81.8770003 C91.6967213,80.320455 92.9289467,79.0588235 94.4488866,79.0588235 L95.4360338,79.0588235 C96.9559738,79.0588235 98.1885246,80.320455 98.1885246,81.8770003 L98.1885246,82.6944282 C98.1885246,84.2509736 96.9559738,85.512605 95.4360338,85.512605 L94.4488866,85.512605 Z" id="Fill-25-Copy-17" fill="#FF5036"></path>
                            <path d="M94.4488866,24.2016807 C92.9289467,24.2016807 91.6967213,22.9400492 91.6967213,21.3835039 L91.6967213,20.566076 C91.6967213,19.0095306 92.9289467,17.7478992 94.4488866,17.7478992 L95.4360338,17.7478992 C96.9559738,17.7478992 98.1885246,19.0095306 98.1885246,20.566076 L98.1885246,21.3835039 C98.1885246,22.9400492 96.9559738,24.2016807 95.4360338,24.2016807 L94.4488866,24.2016807 Z" id="Fill-25-Copy-18" fill="#FF5036"></path>
                        </g>
                    </g>
                    <rect id="Rectangle-Copy-32" x="0" y="0" width="135" height="158"></rect>
                </g>
            </g>
        </g>
    </g>
</svg>