<?xml version="1.0" encoding="UTF-8"?>
<svg width="178px" height="121px" viewBox="0 0 178 121" version="1.1" xmlns="http://www.w3.org/2000/svg" xmlns:xlink="http://www.w3.org/1999/xlink">
    <title>Group 141</title>
    <g id="0215_官網字級調整" stroke="none" stroke-width="1" fill="none" fill-rule="evenodd">
        <g id="0215_官網字級調整-copy" transform="translate(-829.000000, -4894.000000)">
            <g id="Group-141" transform="translate(829.000000, 4895.000000)">
                <g id="Group-130" transform="translate(31.000000, 0.000000)" stroke="#FF5036">
                    <g id="Group-3" fill="#FF5036" stroke-width="0.5">
                        <path d="M32.7244932,1.19048785 C43.006869,0.637679292 53.3934907,0.3995249 63.6815321,0.955963005 C71.1444555,1.35940157 78.8841402,2.44547494 85.6711655,5.69811113 C88.857178,7.22531456 91.8007056,9.26791424 94.1048779,11.9395431 C96.9161154,15.19888 98.5256933,19.2405247 99.0656186,23.4653222 C99.6287726,27.8757852 99.2551307,32.4727513 98.2917068,36.8053185 C97.4775697,40.4664188 96.1617497,44.0599536 94.1530349,47.2550754 C92.2066411,50.3516408 89.543274,53.060682 86.1521692,54.5979364 C84.4323967,55.3777315 81.8562788,56.3632943 80.0857997,55.2998358 C78.6682834,54.4482873 78.5402423,52.6309989 78.8031231,51.1735946 C79.4801542,47.4178468 82.6350063,44.400573 85.5181961,42.0963664 C88.8155363,39.4613123 92.6901943,37.5253656 96.7818423,36.4205861 C104.936527,34.2185654 113.60111,35.6299023 120.681327,40.1587445 C124.116906,42.3560189 127.123038,45.2303442 129.402848,48.5873998 C132.046386,52.480233 133.550585,56.9582615 134.466418,61.5261911 C135.481682,66.5874605 135.946256,71.7807898 136.174293,76.9302852 C136.407147,82.185596 136.308,87.4548667 135.878269,92.6978928 C135.663829,95.310332 135.365822,97.915233 134.987931,100.509524 C134.924194,100.948979 135.606324,101.138554 135.670911,100.694911 C137.25556,89.8151917 137.435158,78.7517615 136.145399,67.8318382 C135.550235,62.7945796 134.668678,57.7274471 132.639284,53.0366711 C130.950955,49.1343452 128.418745,45.6332244 125.246613,42.7664374 C118.957305,37.0817228 110.398384,33.9974419 101.862976,34.7978976 C93.3658091,35.5944444 85.0490899,39.9451594 79.9705061,46.7720659 C78.3461978,48.9556596 76.7269885,53.322568 79.1997104,55.5145377 C80.747534,56.8867872 82.9553922,56.458221 84.7539157,55.8811224 C86.5039988,55.3193795 88.1399215,54.4541504 89.6021955,53.355234 C95.7832921,48.7102462 98.6528845,40.6749784 99.6140422,33.3301629 C100.248582,28.4827578 100.279742,23.4064118 98.7268198,18.714519 C97.5022148,15.014052 95.2694282,11.7128357 92.3046548,9.14590549 C86.5331763,4.1488512 78.7345701,2.01216238 71.2824112,0.975227545 C67.2097428,0.40845918 63.1104464,0.188452543 59.0018019,0.0924090367 C53.3543985,-0.039092392 47.7038792,-0.0301581123 42.0570424,0.118653483 C30.7633689,0.416276674 19.4849923,1.27452591 8.27885127,2.68921326 C5.60047053,3.0275991 2.92633894,3.39753412 0.256456508,3.79734313 C-0.192820261,3.86490862 -0.00189179824,4.53749236 0.444552204,4.47048526 C11.143628,2.86789885 21.9189053,1.77121602 32.7244932,1.19048785 Z" id="Fill-1"></path>
                    </g>
                    <path d="M127.190866,113.774603 L123.85449,97.4844344 C123.743677,96.9433808 124.092456,96.4149387 124.63351,96.304126 C124.895836,96.2503992 125.168751,96.3041236 125.391141,96.4532689 L139.188033,105.706119 C139.646717,106.013734 139.769183,106.634943 139.461568,107.093627 C139.277199,107.368538 138.968739,107.534403 138.637737,107.536618 L132.495473,107.577713 C132.098648,107.580368 131.740939,107.817418 131.58385,108.181836 L129.088844,113.969813 C128.870219,114.476984 128.281846,114.710896 127.774676,114.492272 C127.474462,114.36286 127.256461,114.094874 127.190866,113.774603 Z" id="Path-7-Copy-2" stroke-width="1.5" fill="#FFFFFF" transform="translate(132.625042, 105.993100) rotate(-128.000000) translate(-132.625042, -105.993100) "></path>
                </g>
                <rect id="Rectangle" x="0" y="0" width="178" height="120"></rect>
            </g>
        </g>
    </g>
</svg>