<?xml version="1.0" encoding="UTF-8"?>
<svg width="135px" height="158px" viewBox="0 0 135 158" version="1.1" xmlns="http://www.w3.org/2000/svg" xmlns:xlink="http://www.w3.org/1999/xlink">
    <title>Group 134</title>
    <g id="0215_官網字級調整" stroke="none" stroke-width="1" fill="none" fill-rule="evenodd">
        <g transform="translate(-501.000000, -4744.000000)" id="Group-196">
            <g transform="translate(235.000000, 4579.000000)">
                <g id="Group-134" transform="translate(266.000000, 165.000000)">
                    <g id="Group-100" transform="translate(15.000000, 14.000000)">
                        <path d="M50.6211498,96 C28.1129488,96 9.86540076,77.2332318 9.86540076,54.07962 L9.86540076,41.92038 C9.86540076,18.7667682 28.1129488,0 50.6211498,0 L65.2394312,0 C87.7476322,0 106,18.7667682 106,41.92038 L106,54.07962 C106,77.2332318 87.7476322,96 65.2394312,96 L50.6211498,96 Z" id="Fill-25-Copy-11" fill="#E4E9EF"></path>
                        <g id="Group-85" transform="translate(35.545566, 8.873950)" stroke-width="0.972">
                            <rect id="Rectangle" stroke="#FF5036" fill="#FF5036" x="6.4628302" y="7.2605042" width="61.3968869" height="71.7983193"></rect>
                            <rect id="Rectangle-Copy" stroke="#FF5036" fill="#FFFFFF" x="0" y="0" width="61.3968869" height="71.7983193"></rect>
                            <rect id="Rectangle" stroke="#242628" fill="#242628" x="11.3099529" y="8.87394958" width="37.9691274" height="17.7478992"></rect>
                            <line x1="11.3099529" y1="8.87394958" x2="49.2790803" y2="26.6218487" id="Path-20" stroke="#FF5036"></line>
                            <line x1="11.3099529" y1="8.87394958" x2="49.2790803" y2="26.6218487" id="Path-20-Copy" stroke="#FF5036" transform="translate(30.294517, 17.747899) scale(1, -1) translate(-30.294517, -17.747899) "></line>
                            <line x1="11.3099529" y1="35.8991597" x2="49.2790803" y2="35.8991597" id="Path-21" stroke="#242628"></line>
                            <line x1="11.3099529" y1="40.7394958" x2="37.9691274" y2="40.7394958" id="Path-21-Copy" stroke="#FF5036"></line>
                        </g>
                        <g id="Group-94" transform="translate(0.000000, 32.268908)">
                            <g id="Group-92" transform="translate(3.231415, 3.226891)">
                                <polyline id="Path-19" stroke="#FF5036" stroke-width="0.972" points="0 0 20.1963444 0 20.1963444 32.2689076 60.5890331 32.2689076"></polyline>
                                <polygon id="Path-22" fill="#FF5036" points="59.7811794 29.0420168 59.7811794 36.302521 67.0518633 32.4302521"></polygon>
                            </g>
                            <path d="M2.73988229,6.45378151 C1.22672592,6.45378151 0,5.19215004 0,3.6356047 L0,2.81817681 C0,1.26163148 1.22672592,0 2.73988229,0 L3.72262389,0 C5.23578027,0 6.4628302,1.26163148 6.4628302,2.81817681 L6.4628302,3.6356047 C6.4628302,5.19215004 5.23578027,6.45378151 3.72262389,6.45378151 L2.73988229,6.45378151 Z" id="Fill-25-Copy-15" fill="#FF5036"></path>
                        </g>
                    </g>
                    <text id="Architecture" font-family="MuseoSans-500, Museo Sans" font-size="14" font-weight="normal" letter-spacing="-0.337647" fill="#FF5036">
                        <tspan x="33" y="135">Architecture</tspan>
                    </text>
                    <rect id="Rectangle-Copy-34" x="0" y="0" width="135" height="158"></rect>
                </g>
            </g>
        </g>
    </g>
</svg>