<?xml version="1.0" encoding="UTF-8"?>
<svg width="123px" height="119px" viewBox="0 0 123 119" version="1.1" xmlns="http://www.w3.org/2000/svg" xmlns:xlink="http://www.w3.org/1999/xlink">
    <title>Group 93</title>
    <g id="最終版" stroke="none" stroke-width="1" fill="none" fill-rule="evenodd">
        <g id="Desktop_1440" transform="translate(-511.000000, -4697.000000)">
            <g id="Group-122" transform="translate(233.000000, 4515.000000)">
                <g id="Group-93" transform="translate(279.000000, 182.000000)">
                    <path d="M53.4494134,119 C25.5876868,119 3,95.7370269 3,67.0361956 L3,51.9638044 C3,23.2629731 25.5876868,0 53.4494134,0 L71.5446205,0 C99.4063471,0 122,23.2629731 122,51.9638044 L122,67.0361956 C122,95.7370269 99.4063471,119 71.5446205,119 L53.4494134,119 Z" id="Fill-25-Copy-9" fill="#E4E9EF"></path>
                    <g id="Group-88" transform="translate(0.000000, 16.000000)" stroke-width="1.2">
                        <g id="Group-63" transform="translate(0.000000, 9.000000)">
                            <rect id="Rectangle" stroke="#FF5036" fill="#FF5036" x="0" y="0" width="104" height="64"></rect>
                            <line x1="8.2739726" y1="51.5" x2="47.7260274" y2="51.5" id="Path-23" stroke="#242628"></line>
                            <line x1="8" y1="44.5" x2="29.725" y2="44.5" id="Path-23-Copy" stroke="#E4E9EF"></line>
                        </g>
                        <circle id="Oval" stroke="#242628" fill="#242628" cx="41.5" cy="18.5" r="18.5"></circle>
                        <line x1="117" y1="9.39175258" x2="117.5" y2="84.6082474" id="Path-15" stroke="#FF5036"></line>
                        <line x1="117" y1="85.5" x2="13" y2="85.5" id="Path-15-Copy" stroke="#FF5036"></line>
                    </g>
                    <polygon id="Triangle" stroke="#FF5036" stroke-width="1.2" fill="#FFFFFF" transform="translate(77.195881, 51.850595) rotate(-291.000000) translate(-77.195881, -51.850595) " points="84.7765526 19.505664 110.679026 84.1955267 43.712736 76.5503881"></polygon>
                    <path d="M12.3915572,106 C10.5184999,106 9,104.436103 9,102.506635 L9,101.493365 C9,99.5638974 10.5184999,98 12.3915572,98 L13.6080417,98 C15.481099,98 17,99.5638974 17,101.493365 L17,102.506635 C17,104.436103 15.481099,106 13.6080417,106 L12.3915572,106 Z" id="Fill-25-Copy-16" fill="#FF5036"></path>
                    <path d="M116.391557,106 C114.5185,106 113,104.436103 113,102.506635 L113,101.493365 C113,99.5638974 114.5185,98 116.391557,98 L117.608042,98 C119.481099,98 121,99.5638974 121,101.493365 L121,102.506635 C121,104.436103 119.481099,106 117.608042,106 L116.391557,106 Z" id="Fill-25-Copy-17" fill="#FF5036"></path>
                    <path d="M116.391557,30 C114.5185,30 113,28.4361026 113,26.506635 L113,25.493365 C113,23.5638974 114.5185,22 116.391557,22 L117.608042,22 C119.481099,22 121,23.5638974 121,25.493365 L121,26.506635 C121,28.4361026 119.481099,30 117.608042,30 L116.391557,30 Z" id="Fill-25-Copy-18" fill="#FF5036"></path>
                </g>
            </g>
        </g>
    </g>
</svg>