<?xml version="1.0" encoding="UTF-8"?>
<svg width="314px" height="244px" viewBox="0 0 314 244" version="1.1" xmlns="http://www.w3.org/2000/svg" xmlns:xlink="http://www.w3.org/1999/xlink">
    <title>Group 67</title>
    <g id="最終版" stroke="none" stroke-width="1" fill="none" fill-rule="evenodd">
        <g id="Desktop_1440" transform="translate(-673.000000, -4673.000000)">
            <g id="Group-67" transform="translate(673.000000, 4674.117410)">
                <text id="Product-Design" font-family="MuseoSans-500, Museo Sans" font-size="18" font-weight="normal" letter-spacing="-0.434117571" fill="#FF5036">
                    <tspan x="31.312823" y="177.592836">Product</tspan>
                    <tspan x="40.2207054" y="199.592836">Design</tspan>
                </text>
                <g id="Group-140" transform="translate(105.984332, 0.000000)">
                    <path d="M113.594632,242.88259 C92.2886052,242.88259 75.0156683,225.093258 75.0156683,203.145564 L75.0156683,191.619617 C75.0156683,169.671923 92.2886052,151.88259 113.594632,151.88259 L127.432143,151.88259 C148.738169,151.88259 166.015668,169.671923 166.015668,191.619617 L166.015668,203.145564 C166.015668,225.093258 148.738169,242.88259 127.432143,242.88259 L113.594632,242.88259 Z" id="Fill-25-Copy-11" fill="#E4E9EF"></path>
                    <g id="Group-63">
                        <polygon id="Rectangle-Copy-24" stroke="#FF5036" stroke-width="1.2" fill="#FF5036" transform="translate(113.536806, 122.081965) rotate(-333.000000) translate(-113.536806, -122.081965) " points="53.2723154 35.5819645 173.696736 35.6412717 173.801297 208.581965 53.3768763 208.522657"></polygon>
                        <polygon id="Rectangle-Copy" stroke="#FF5036" stroke-width="1.2" fill="#FFFFFF" transform="translate(85.113708, 113.441295) rotate(12.000000) translate(-85.113708, -113.441295) " points="19.798953 11.3487337 150.414363 11.3577569 150.428463 215.533857 19.8130534 215.524834"></polygon>
                        <g id="Group-107" transform="translate(74.982353, 166.385572) rotate(12.000000) translate(-74.982353, -166.385572) translate(44.747748, 158.532530)" fill="#242628">
                            <rect id="Rectangle-Copy-19" x="4.54747351e-13" y="0" width="60.4692092" height="15.7060844"></rect>
                        </g>
                        <line x1="35.3149071" y1="122.181547" x2="135.695268" y2="122.188481" id="Path-26" stroke="#FF5036" stroke-width="1.2" transform="translate(85.505088, 122.185014) rotate(12.000000) translate(-85.505088, -122.185014) "></line>
                        <line x1="57.0924458" y1="136.677813" x2="151.638305" y2="138.452103" id="Path-26-Copy" stroke="#242628" stroke-width="1.2" transform="translate(104.365375, 137.564958) rotate(12.000000) translate(-104.365375, -137.564958) "></line>
                        <line x1="45.6281392" y1="140.044906" x2="89.1200851" y2="140.928328" id="Path-26-Copy-2" stroke="#FF5036" stroke-width="1.2" transform="translate(67.628139, 140.280138) rotate(12.000000) translate(-67.628139, -140.280138) "></line>
                        <g id="Group-19" transform="translate(92.974929, 77.508707) rotate(12.000000) translate(-92.974929, -77.508707) translate(72.622532, 52.587217)" fill="#FF5036">
                            <g id="Group-139" transform="translate(-0.000000, 0.000000)">
                                <path d="M0.785235639,0 C0.351624222,0 -4.54747351e-13,0.330013504 -4.54747351e-13,0.737895364 L-4.54747351e-13,32.462864 C-4.54747351e-13,44.6593556 9.79067395,49.5345738 20.0649408,49.5345738 C24.0862592,49.5345738 26.8216502,48.6030376 28.1325684,48.0241749 C28.6801727,47.7827418 29.0252204,47.2615594 29.0252204,46.6934089 L29.0252204,42.109888 C29.0252204,41.5759335 28.4425414,41.2174919 27.9234353,41.4350289 C26.5866494,41.9953514 24.0086564,42.780627 20.0649408,42.780627 C13.0210571,42.780627 7.48977131,39.1900307 7.48977131,29.6591912 L7.48977131,0.737895364 C7.48977131,0.330013504 7.13814709,0 6.70409724,0 L0.785235639,0 Z" id="Fill-1"></path>
                                <path d="M39.8087432,49.8429808 L34.3445401,49.8429808 C33.84965,49.8429808 33.4484891,49.4393133 33.4484891,48.941331 L33.4484891,1.21005691 C33.4484891,0.712074552 33.84965,0.308407032 34.3449566,0.308407032 L39.8087432,0.308407032 C40.3036333,0.308407032 40.7047942,0.712074552 40.7047942,1.21005691 L40.7047942,48.941331 C40.7047942,49.4393133 40.3036333,49.8429808 39.8087432,49.8429808" id="Fill-3"></path>
                            </g>
                        </g>
                    </g>
                </g>
            </g>
        </g>
    </g>
</svg>