<?xml version="1.0" encoding="UTF-8"?>
<svg width="646px" height="371px" viewBox="0 0 646 371" version="1.1" xmlns="http://www.w3.org/2000/svg" xmlns:xlink="http://www.w3.org/1999/xlink">
    <title>Group 194</title>
    <g id="0215_官網字級調整" stroke="none" stroke-width="1" fill="none" fill-rule="evenodd">
        <g transform="translate(-648.000000, -4964.000000)" id="Group-194">
            <g transform="translate(648.000000, 4965.000000)">
                <g id="Group-193">
                    <g id="Group-191" transform="translate(83.000000, 0.000000)">
                        <g id="Group-126" transform="translate(0.000000, 40.000000)" stroke="#FF5036">
                            <path d="M291.492128,284.927736 C433.701646,247.004974 534.661874,163.06253 516.99311,97.437038 C499.324346,31.8115465 369.71739,9.35404706 227.507872,47.276809 C85.2983543,85.199571 -15.6618744,169.142016 2.00688996,234.767507 C19.6756543,300.392999 149.28261,322.850498 291.492128,284.927736 Z" id="Oval"></path>
                            <path d="M324.350271,275.216934 C457.183803,208.02488 539.425462,103.985297 508.042158,42.8380223 C476.658854,-18.3092522 343.534806,-13.4089894 210.701275,53.7830655 C77.8677434,120.97512 -4.37391557,225.014703 27.0093882,286.161978 C58.392692,347.309252 191.51674,342.408989 324.350271,275.216934 Z" id="Oval-Copy-4" opacity="0.312541417"></path>
                        </g>
                        <g id="Group-181" transform="translate(408.000000, 249.000000)">
                            <g id="Group-118">
                                <path d="M19.5014539,46 C8.73137471,46 0,37.0075902 0,25.9131512 L0,20.0868488 C0,8.99240977 8.73137471,0 19.5014539,0 L26.4962398,0 C37.2663191,0 46,8.99240977 46,20.0868488 L46,25.9131512 C46,37.0075902 37.2663191,46 26.4962398,46 L19.5014539,46 Z" id="Fill-25-Copy-9" fill="#FF5036"></path>
                                <g id="Group-116" transform="translate(2.000000, 9.000000)">
                                    <rect id="Rectangle-Copy-21" stroke="#FF5036" stroke-width="1.2" fill="#242628" x="10.8785047" y="0" width="86.1214953" height="53"></rect>
                                    <g id="Group-111" transform="translate(57.112150, 11.879310)">
                                        <path d="M26.198685,20.1034483 C28.4954069,17.9723506 29.9158879,15.0283223 29.9158879,11.7763565 C29.9158879,5.27242505 24.2338328,0 17.2242991,0 L17.2242991,11.7763565 L26.198685,20.1034483 Z" id="Fill-1" fill="#FF5036"></path>
                                        <g id="Group-5" transform="translate(0.000000, 1.827586)" fill="#E4E9EF">
                                            <path d="M13.2759536,13.25 L13.2759536,0 C5.94381377,0 0,5.93219402 0,13.25 C0,20.567806 5.94381377,26.5 13.2759536,26.5 C16.9420235,26.5 20.2610805,25.016883 22.6635514,22.6191088 L13.2759536,13.25 Z" id="Fill-3"></path>
                                        </g>
                                    </g>
                                    <line x1="0" y1="23.7586207" x2="49.8598131" y2="23.7586207" id="Path-28" stroke="#E4E9EF" stroke-width="1.2"></line>
                                    <line x1="27.1962617" y1="30.1551724" x2="49.8598131" y2="30.1551724" id="Path-28-Copy" stroke="#FF5036" stroke-width="1.2"></line>
                                </g>
                            </g>
                            <text id="Manager" font-family="MuseoSans-500, Museo Sans" font-size="14" font-weight="normal" line-spacing="17" fill="#242628">
                                <tspan x="12" y="84">Manager</tspan>
                            </text>
                        </g>
                        <g id="Group-144" transform="translate(416.000000, 0.000000)">
                            <g id="Group-99">
                                <path d="M15.2620074,88 C6.83324977,88 0,80.9624619 0,72.2798575 L0,67.7201425 C0,59.0375381 6.83324977,52 15.2620074,52 L20.7361877,52 C29.1649454,52 36,59.0375381 36,67.7201425 L36,72.2798575 C36,80.9624619 29.1649454,88 20.7361877,88 L15.2620074,88 Z" id="Fill-25-Copy-14" fill="#FF5036"></path>
                                <g id="Group-113" transform="translate(3.000000, 0.000000)">
                                    <rect id="Rectangle-Copy-22" stroke="#FF5036" stroke-width="1.2" fill="#242628" x="6" y="0" width="53" height="74"></rect>
                                    <rect id="Rectangle" fill="#E4E9EF" x="18" y="21" width="11" height="11"></rect>
                                    <rect id="Rectangle-Copy-25" fill="#FF5036" x="36" y="21" width="11" height="11"></rect>
                                    <line x1="0" y1="46.5" x2="47" y2="46.5" id="Path-29" stroke="#E4E9EF"></line>
                                    <line x1="24" y1="53.5" x2="48" y2="53.5" id="Path-29-Copy" stroke="#FF5036"></line>
                                </g>
                            </g>
                            <text id="Researcher" font-family="MuseoSans-500, Museo Sans" font-size="14" font-weight="normal" line-spacing="17" fill="#242628">
                                <tspan x="71" y="67">Researcher</tspan>
                            </text>
                        </g>
                        <path d="M72.565758,159.879888 C70.3604685,159.879888 68.5726257,158.038596 68.5726257,155.76689 L68.5726257,154.573892 C68.5726257,152.302186 70.3604685,150.460894 72.565758,150.460894 L73.9980156,150.460894 C76.2033051,150.460894 77.9916201,152.302186 77.9916201,154.573892 L77.9916201,155.76689 C77.9916201,158.038596 76.2033051,159.879888 73.9980156,159.879888 L72.565758,159.879888 Z" id="Fill-25-Copy-15" fill="#FF5036"></path>
                        <path d="M97.8632055,341.603352 C96.3930125,341.603352 95.2011173,340.375824 95.2011173,338.861353 L95.2011173,338.066021 C95.2011173,336.551551 96.3930125,335.324022 97.8632055,335.324022 L98.8180439,335.324022 C100.288237,335.324022 101.480447,336.551551 101.480447,338.066021 L101.480447,338.861353 C101.480447,340.375824 100.288237,341.603352 98.8180439,341.603352 L97.8632055,341.603352 Z" id="Fill-25-Copy-17" fill="#FF5036"></path>
                    </g>
                    <g id="Group-143" transform="translate(0.000000, 157.000000)">
                        <text id="Developer-Copy-2" font-family="MuseoSans-500, Museo Sans" font-size="14" font-weight="normal" line-spacing="17" fill="#242628">
                            <tspan x="0" y="85">Developer</tspan>
                        </text>
                        <g id="Group-120" transform="translate(26.000000, 0.000000)">
                            <path d="M69.6535646,72 C59.3517497,72 51,63.3985646 51,52.7864925 L51,47.2135075 C51,36.6014354 59.3517497,28 69.6535646,28 L76.3442294,28 C86.6460443,28 95,36.6014354 95,47.2135075 L95,52.7864925 C95,63.3985646 86.6460443,72 76.3442294,72 L69.6535646,72 Z" id="Fill-25-Copy-13" fill="#FF5036"></path>
                            <g id="Group-112">
                                <rect id="Rectangle-Copy-20" stroke="#FF5036" stroke-width="1.2" fill="#242628" x="0" y="0" width="78.6835443" height="61"></rect>
                                <path d="M23.8562369,36.9471371 L31.9196999,45.3101454 C32.0261882,45.4295912 32.205688,45.4295912 32.312017,45.3099816 L40.3679875,36.9469732 C40.5299518,36.7652649 40.4080003,36.4667323 40.1717492,36.4667323 L37.284608,36.4667323 C37.1344403,36.4667323 36.9911274,36.5329272 36.8891027,36.6494238 L32.1159381,41.7942771 L27.326354,36.6487684 C27.2243292,36.5327634 27.0811757,36.4667323 26.9314863,36.4667323 L24.0523157,36.4667323 C23.8160647,36.4667323 23.6941132,36.7652649 23.8562369,36.9471371" id="Fill-13" fill="#E4E9EF" transform="translate(32.112058, 40.933221) rotate(-270.000000) translate(-32.112058, -40.933221) "></path>
                                <path d="M49.3752242,36.9471371 L57.4386872,45.3101454 C57.5451756,45.4295912 57.7246754,45.4295912 57.8310043,45.3099816 L65.8869748,36.9469732 C66.0489391,36.7652649 65.9269877,36.4667323 65.6907366,36.4667323 L62.8035954,36.4667323 C62.6534277,36.4667323 62.5101148,36.5329272 62.40809,36.6494238 L57.6349255,41.7942771 L52.8453413,36.6487684 C52.7433166,36.5327634 52.6001631,36.4667323 52.4504736,36.4667323 L49.5713031,36.4667323 C49.335052,36.4667323 49.2131005,36.7652649 49.3752242,36.9471371" id="Fill-13-Copy-3" fill="#E4E9EF" transform="translate(57.631045, 40.933221) rotate(-90.000000) translate(-57.631045, -40.933221) "></path>
                                <g id="Group-114" transform="translate(7.443038, 12.620690)" stroke-width="1.2">
                                    <line x1="0.579976985" y1="0.525862069" x2="24.9390104" y2="0.525862069" id="Path-25" stroke="#E4E9EF"></line>
                                    <line x1="45.2307692" y1="0.525862069" x2="58.9717624" y2="0.525862069" id="Path-25-Copy-2" stroke="#E4E9EF"></line>
                                    <line x1="47.8481013" y1="8.93965517" x2="75.9044879" y2="8.93965517" id="Path-25-Copy-5" stroke="#E4E9EF"></line>
                                    <line x1="30.835443" y1="0.525862069" x2="39.721519" y2="0.525862069" id="Path-25-Copy" stroke="#FF5036"></line>
                                    <line x1="0.574751967" y1="8.93965517" x2="41.8905761" y2="8.93965517" id="Path-25-Copy-4" stroke="#FF5036"></line>
                                </g>
                                <polygon id="Path-27" fill="#FF5036" points="39.3417722 48.3793103 42.7818317 48.3793103 51.0379747 31.5517241 47.5979151 31.5517241"></polygon>
                            </g>
                        </g>
                    </g>
                </g>
                <path d="M406.636308,321.614525 C404.06347,321.614525 401.977654,319.46635 401.977654,316.816027 L401.977654,315.424196 C401.977654,312.773873 404.06347,310.625698 406.636308,310.625698 L408.307275,310.625698 C410.880113,310.625698 412.96648,312.773873 412.96648,315.424196 L412.96648,316.816027 C412.96648,319.46635 410.880113,321.614525 408.307275,321.614525 L406.636308,321.614525 Z" id="Fill-25-Copy-16" fill="#FF5036"></path>
            </g>
        </g>
    </g>
</svg>