<?xml version="1.0" encoding="UTF-8"?>
<svg width="96px" height="96px" viewBox="0 0 96 96" version="1.1" xmlns="http://www.w3.org/2000/svg" xmlns:xlink="http://www.w3.org/1999/xlink">
    <title>Group 126</title>
    <defs>
        <polygon id="path-1" points="0 0 68 0 68 35.9131403 0 35.9131403"></polygon>
    </defs>
    <g id="最終版" stroke="none" stroke-width="1" fill="none" fill-rule="evenodd">
        <g id="Desktop_1440" transform="translate(-928.000000, -1290.000000)">
            <g id="Group-126" transform="translate(928.000000, 1290.000000)">
                <g id="Group-112" transform="translate(8.000000, 14.000000)">
                    <g id="Group-111" transform="translate(0.000000, -0.000000)">
                        <path d="M41.3582912,67.0773894 C25.6529236,67.0773894 12.9204779,53.9646204 12.9204779,37.7866638 L12.9204779,29.2907256 C12.9204779,13.1127689 25.6529236,-1.70530257e-13 41.3582912,-1.70530257e-13 L51.5583725,-1.70530257e-13 C67.26374,-1.70530257e-13 79.9995488,13.1127689 79.9995488,29.2907256 L79.9995488,37.7866638 C79.9995488,53.9646204 67.26374,67.0773894 51.5583725,67.0773894 L41.3582912,67.0773894 Z" id="Fill-25-Copy-2" fill="#E4E9EF"></path>
                        <g id="Group-42" transform="translate(0.000000, 9.076687)">
                            <g id="Group-3" transform="translate(34.000000, 21.500000) rotate(-180.000000) translate(-34.000000, -21.500000) ">
                                <mask id="mask-2" fill="white">
                                    <use xlink:href="#path-1"></use>
                                </mask>
                                <g id="Clip-2"></g>
                                <path d="M0.30171672,33.9821697 L33.2143975,0.360342972 C33.6490794,-0.120218156 34.3823741,-0.120218156 34.8164402,0.360966268 L67.6989519,33.9821697 C68.3595944,34.7132957 67.8614958,35.9131403 66.8979306,35.9131403 L55.1128807,35.9131403 C54.5002626,35.9131403 53.9153507,35.646993 53.4985241,35.1788978 L34.0160346,14.4948238 L14.4658184,35.1813909 C14.0489918,35.6482396 13.4653114,35.9131403 12.8539246,35.9131403 L1.10212238,35.9131403 C0.137325711,35.9131403 -0.359541496,34.7126724 0.30171672,33.9821697" id="Fill-1" stroke="#FF5036"></path>
                                <path d="M0.30171672,41.0690293 L33.2143975,7.44720266 C33.6490794,6.96664153 34.3823741,6.96664153 34.8164402,7.44782596 L67.6989519,41.0690293 C68.3595944,41.8001554 67.8614958,43 66.8979306,43 L55.1128807,43 C54.5002626,43 53.9153507,42.7338527 53.4985241,42.2657574 L34.0160346,21.5816835 L14.4658184,42.2682506 C14.0489918,42.7350992 13.4653114,43 12.8539246,43 L1.10212238,43 C0.137325711,43 -0.359541496,41.7995321 0.30171672,41.0690293" id="Fill-1-Copy-2" stroke="#FF5036"></path>
                            </g>
                            <rect id="Rectangle" fill="#FF5036" x="0" y="50" width="68" height="9" rx="1.5"></rect>
                        </g>
                    </g>
                </g>
                <rect id="Rectangle" x="0" y="0" width="96" height="96"></rect>
            </g>
        </g>
    </g>
</svg>