<?xml version="1.0" encoding="UTF-8"?>
<svg width="96px" height="96px" viewBox="0 0 96 96" version="1.1" xmlns="http://www.w3.org/2000/svg" xmlns:xlink="http://www.w3.org/1999/xlink">
    <title>Group 123</title>
    <g id="最終版" stroke="none" stroke-width="1" fill="none" fill-rule="evenodd">
        <g id="Desktop_1440" transform="translate(-928.000000, -941.000000)">
            <g id="Group-123" transform="translate(928.000000, 941.000000)">
                <g id="Group-109" transform="translate(8.000000, 7.000000)">
                    <path d="M41.3582912,81.0007019 C25.6529236,81.0007019 12.9204779,67.887933 12.9204779,51.7099763 L12.9204779,43.2140381 C12.9204779,27.0360815 25.6529236,13.9233125 41.3582912,13.9233125 L51.5583725,13.9233125 C67.26374,13.9233125 79.9995488,27.0360815 79.9995488,43.2140381 L79.9995488,51.7099763 C79.9995488,67.887933 67.26374,81.0007019 51.5583725,81.0007019 L41.3582912,81.0007019 Z" id="Fill-25" fill="#E4E9EF"></path>
                    <g id="Group-42">
                        <path d="M50.528305,62 C50.2366837,62 50,61.7602994 50,61.4644906 L50,0.535891059 C50,0.240082248 50.2366837,0 50.528305,0 L58.4720712,0 C58.7636926,0 59,0.240082248 59,0.535891059 L59,61.4644906 C59,61.7602994 58.7636926,62 58.4720712,62 L50.528305,62 Z" id="Fill-4" fill="#FF5036"></path>
                        <g id="Group-3" transform="translate(7.000000, 0.000000)" stroke="#FF5036">
                            <path d="M0.946466291,0 C0.423946048,0 0,0.413711395 0,0.923714403 L0,40.6323964 C0,55.8974715 11.805415,62 24.1953441,62 C29.0443474,62 32.3431174,60.8342245 33.9245401,60.1099441 C34.5841401,59.8077483 35,59.1550205 35,58.4440611 L35,52.7065273 C35,52.0389562 34.2972738,51.5902296 33.6719438,51.8623581 C32.0597166,52.5630414 28.951164,53.5461292 24.1953441,53.5461292 C15.7010209,53.5461292 9.03070542,49.0523938 9.03070542,37.1228906 L9.03070542,0.923714403 C9.03070542,0.413711395 8.60714443,0 8.08423913,0 L0.946466291,0 Z" id="Fill-1"></path>
                        </g>
                        <path d="M0.946466291,0 C0.423946048,0 0,0.413711395 0,0.923714403 L0,40.6323964 C0,55.8974715 11.805415,62 24.1953441,62 C29.0443474,62 32.3431174,60.8342245 33.9245401,60.1099441 C34.5841401,59.8077483 35,59.1550205 35,58.4440611 L35,52.7065273 C35,52.0389562 34.2972738,51.5902296 33.6719438,51.8623581 C32.0597166,52.5630414 28.951164,53.5461292 24.1953441,53.5461292 C15.7010209,53.5461292 9.03070542,49.0523938 9.03070542,37.1228906 L9.03070542,0.923714403 C9.03070542,0.413711395 8.60714443,0 8.08423913,0 L0.946466291,0 Z" id="Fill-1" stroke="#FF5036"></path>
                    </g>
                </g>
                <rect id="Rectangle" x="0" y="0" width="96" height="96"></rect>
            </g>
        </g>
    </g>
</svg>