<?xml version="1.0" encoding="UTF-8"?>
<svg width="11px" height="21px" viewBox="0 0 11 21" version="1.1" xmlns="http://www.w3.org/2000/svg" xmlns:xlink="http://www.w3.org/1999/xlink">
    <title>Fill 13</title>
    <g id="0215_官網字級調整" stroke="none" stroke-width="1" fill="none" fill-rule="evenodd">
        <g transform="translate(-1042.000000, -5871.000000)" fill="#E4E9EF" id="Group-183">
            <g transform="translate(730.000000, 5496.000000)">
                <g id="Group-182" transform="translate(99.000000, 71.000000)">
                    <g id="Group-167" transform="translate(0.000000, 91.000000)">
                        <g id="Group-185" transform="translate(0.000000, 191.000000)">
                            <g id="Group-105" transform="translate(199.535354, 0.000000)">
                                <path d="M18.7303118,37.631298 C18.8581524,37.7740596 19.0736443,37.7740596 19.2012935,37.6311022 L28.8725907,27.635639 C29.0670309,27.4184612 28.9206266,27.0616553 28.6370041,27.0616553 L25.1709536,27.0616553 C24.9906754,27.0616553 24.8186264,27.1407714 24.6961443,27.280008 L18.9658984,33.4291341 L13.2159405,27.2792247 C13.0934584,27.1405756 12.9216008,27.0616553 12.7418967,27.0616553 L9.28541506,27.0616553 C9.00179258,27.0616553 8.85538826,27.4184612 9.05001988,27.6358348 L18.7303118,37.631298 Z" id="Fill-13" transform="translate(18.961240, 32.400000) rotate(-90.000000) translate(-18.961240, -32.400000) "></path>
                            </g>
                        </g>
                    </g>
                </g>
            </g>
        </g>
    </g>
</svg>