<?xml version="1.0" encoding="UTF-8"?>
<svg width="22px" height="22px" viewBox="0 0 22 22" version="1.1" xmlns="http://www.w3.org/2000/svg" xmlns:xlink="http://www.w3.org/1999/xlink">
    <title>Group 87</title>
    <g id="最終版" stroke="none" stroke-width="1" fill="none" fill-rule="evenodd">
        <g id="Desktop_1440" transform="translate(-889.000000, -2180.000000)">
            <g id="Group-145" transform="translate(730.000000, 1874.000000)">
                <g id="Group-57-Copy-2" transform="translate(0.000000, 304.000000)">
                    <g id="Group-87" transform="translate(160.000000, 3.000000)">
                        <g id="Group-59" transform="translate(10.079145, 10.256706) rotate(-360.000000) translate(-10.079145, -10.256706) translate(6.663443, 5.256706)" fill="#FF5036" fill-rule="nonzero">
                            <g id="Group-76">
                                <path d="M0.334482366,1.04596202 L0.941365818,0.371647073 C1.12609533,0.166392062 1.44224025,0.149752856 1.64749526,0.334482366 L6.41846255,4.62835293 C6.62371756,4.81308244 6.64035676,5.12922736 6.45562725,5.33448237 C6.44389915,5.3475136 6.43149378,5.35991897 6.41846255,5.37164707 L1.64749526,9.66551763 C1.44224025,9.85024714 1.12609533,9.83360794 0.941365818,9.62835293 L0.334482366,8.95403798 C0.149762004,8.74877952 0.16639807,8.43263941 0.371640981,8.24790177 L3.56736925,5.37164098 C3.7726209,5.18690773 3.78925435,4.87076251 3.6045211,4.66551087 C3.59279682,4.65248436 3.58039575,4.6400833 3.56736925,4.62835902 L0.371640981,1.75209823 C0.16639807,1.56736059 0.149762004,1.25122048 0.334482366,1.04596202 Z" id="Path"></path>
                            </g>
                        </g>
                        <circle id="Oval" stroke="#FF5036" stroke-width="2" cx="10" cy="10" r="10"></circle>
                    </g>
                </g>
            </g>
        </g>
    </g>
</svg>