<?xml version="1.0" encoding="UTF-8"?>
<svg width="17px" height="18px" viewBox="0 0 17 18" version="1.1" xmlns="http://www.w3.org/2000/svg" xmlns:xlink="http://www.w3.org/1999/xlink">
    <title>Group 64</title>
    <g id="最終版" stroke="none" stroke-width="1" fill="none" fill-rule="evenodd">
        <g id="Group-164" transform="translate(-20.000000, -21.000000)" fill="#FF5036">
            <g id="Group-161" transform="translate(20.000000, 21.000000)">
                <g id="Group-37-Copy">
                    <path d="M3.45603128,6 L2.5436679,6 C1.13887496,6 0,4.82707699 0,3.37997625 L0,2.62002375 C0,1.17292301 1.13887496,0 2.5436679,0 L3.45603128,0 C4.86082423,0 6,1.17292301 6,2.62002375 L6,3.37997625 C6,4.82707699 4.86082423,6 3.45603128,6" id="Fill-25"></path>
                    <path d="M3.45603128,18 L2.5436679,18 C1.13887496,18 0,16.827077 0,15.3799762 L0,14.6200238 C0,13.172923 1.13887496,12 2.5436679,12 L3.45603128,12 C4.86082423,12 6,13.172923 6,14.6200238 L6,15.3799762 C6,16.827077 4.86082423,18 3.45603128,18" id="Fill-25-Copy-7"></path>
                </g>
                <g id="Group-37-Copy-13" transform="translate(11.000000, 0.000000)">
                    <path d="M3.45603128,6 L2.5436679,6 C1.13887496,6 0,4.82707699 0,3.37997625 L0,2.62002375 C0,1.17292301 1.13887496,0 2.5436679,0 L3.45603128,0 C4.86082423,0 6,1.17292301 6,2.62002375 L6,3.37997625 C6,4.82707699 4.86082423,6 3.45603128,6" id="Fill-25"></path>
                    <path d="M3.45603128,18 L2.5436679,18 C1.13887496,18 0,16.827077 0,15.3799762 L0,14.6200238 C0,13.172923 1.13887496,12 2.5436679,12 L3.45603128,12 C4.86082423,12 6,13.172923 6,14.6200238 L6,15.3799762 C6,16.827077 4.86082423,18 3.45603128,18" id="Fill-25-Copy-7"></path>
                </g>
            </g>
        </g>
    </g>
</svg>