<?xml version="1.0" encoding="UTF-8"?>
<svg width="5px" height="13px" viewBox="0 0 5 13" version="1.1" xmlns="http://www.w3.org/2000/svg" xmlns:xlink="http://www.w3.org/1999/xlink">
    <title>Group 75</title>
    <g id="0215_官網字級調整" stroke="none" stroke-width="1" fill="none" fill-rule="evenodd">
        <g transform="translate(-337.000000, -4486.000000)" fill="#E4E9EF" id="Group-181">
            <g transform="translate(120.000000, 4433.000000)">
                <g id="Group-121" transform="translate(115.000000, 32.000000)">
                    <g id="Group-75" transform="translate(102.000000, 21.000000)">
                        <path d="M2.88002607,13 L2.11972325,13 C0.949062469,13 0,12.022306 0,10.8166469 L0,10.1833531 C0,8.97743584 0.949062469,8 2.11972325,8 L2.88002607,8 C4.05068685,8 5,8.97743584 5,10.1833531 L5,10.8166469 C5,12.022306 4.05068685,13 2.88002607,13" id="Fill-22"></path>
                        <path d="M2.88002607,5 L2.11972325,5 C0.949062469,5 0,4.02230598 0,2.81664687 L0,2.18335313 C0,0.977435844 0.949062469,0 2.11972325,0 L2.88002607,0 C4.05068685,0 5,0.977435844 5,2.18335313 L5,2.81664687 C5,4.02230598 4.05068685,5 2.88002607,5" id="Fill-22-Copy"></path>
                    </g>
                </g>
            </g>
        </g>
    </g>
</svg>