<?xml version="1.0" encoding="UTF-8"?>
<svg width="5px" height="16px" viewBox="0 0 5 16" version="1.1" xmlns="http://www.w3.org/2000/svg" xmlns:xlink="http://www.w3.org/1999/xlink">
    <title>Group 160</title>
    <g id="最終版" stroke="none" stroke-width="1" fill="none" fill-rule="evenodd">
        <g id="Desktop_1440" transform="translate(-730.000000, -2029.000000)" fill="#FF5036">
            <g id="Group-145" transform="translate(730.000000, 1874.000000)">
                <g id="Group-113" transform="translate(0.000000, 143.000000)">
                    <g id="Group-160" transform="translate(0.000000, 12.500000)">
                        <path d="M2.88002607,5 L2.11972325,5 C0.949062469,5 0,4.02256416 0,2.81664687 L0,2.18335313 C0,0.977435844 0.949062469,0 2.11972325,0 L2.88002607,0 C4.05068685,0 5,0.977435844 5,2.18335313 L5,2.81664687 C5,4.02256416 4.05068685,5 2.88002607,5" id="Fill-25"></path>
                        <path d="M2.88002607,15 L2.11972325,15 C0.949062469,15 0,14.0225642 0,12.8166469 L0,12.1833531 C0,10.9774358 0.949062469,10 2.11972325,10 L2.88002607,10 C4.05068685,10 5,10.9774358 5,12.1833531 L5,12.8166469 C5,14.0225642 4.05068685,15 2.88002607,15" id="Fill-25-Copy-7"></path>
                    </g>
                </g>
            </g>
        </g>
    </g>
</svg>