<?xml version="1.0" encoding="UTF-8"?>
<svg width="5px" height="11px" viewBox="0 0 5 11" version="1.1" xmlns="http://www.w3.org/2000/svg" xmlns:xlink="http://www.w3.org/1999/xlink">
    <title>Group 32</title>
    <g id="0215_官網字級調整" stroke="none" stroke-width="1" fill="none" fill-rule="evenodd">
        <g id="Mobile_375" transform="translate(-169.000000, -114.000000)" fill="#FF5036">
            <g id="Group-88" transform="translate(32.000000, 108.000000)">
                <g id="Group-34" transform="translate(137.000000, 6.000000)">
                    <path d="M2.34670752,4.07410812 L1.72719634,4.07410812 C0.773316621,4.07410812 0,3.27767226 0,2.29506478 L0,1.77904334 C0,0.796435862 0.773316621,0 1.72719634,0 L2.34670752,0 C3.30058724,0 4.07410812,0.796435862 4.07410812,1.77904334 L4.07410812,2.29506478 C4.07410812,3.27767226 3.30058724,4.07410812 2.34670752,4.07410812" id="Fill-25"></path>
                    <path d="M2.34670752,11 L1.72719634,11 C0.773316621,11 0,10.2035841 0,9.22100126 L0,8.70499275 C0,7.72240991 0.773316621,6.92599401 1.72719634,6.92599401 L2.34670752,6.92599401 C3.30058724,6.92599401 4.07410812,7.72240991 4.07410812,8.70499275 L4.07410812,9.22100126 C4.07410812,10.2035841 3.30058724,11 2.34670752,11" id="Fill-25"></path>
                </g>
            </g>
        </g>
    </g>
</svg>