<?xml version="1.0" encoding="UTF-8"?>
<svg width="4px" height="13px" viewBox="0 0 4 13" version="1.1" xmlns="http://www.w3.org/2000/svg" xmlns:xlink="http://www.w3.org/1999/xlink">
    <title>Group 37</title>
    <g id="最終版" stroke="none" stroke-width="1" fill="none" fill-rule="evenodd">
        <g id="Mobile_375_Service_調整產品體質" transform="translate(-32.000000, -159.000000)" fill="#FF5036">
            <g id="Group" transform="translate(32.000000, 153.000000)">
                <g id="Group-36" transform="translate(0.000000, 6.000000)">
                    <path d="M2.30402086,4 L1.6957786,4 C0.759249975,4 0,3.21805132 0,2.2533175 L0,1.7466825 C0,0.781948676 0.759249975,0 1.6957786,0 L2.30402086,0 C3.24054948,0 4,0.781948676 4,1.7466825 L4,2.2533175 C4,3.21805132 3.24054948,4 2.30402086,4" id="Fill-25"></path>
                    <path d="M2.30402086,13 L1.6957786,13 C0.759249975,13 0,12.2180513 0,11.2533175 L0,10.7466825 C0,9.78194868 0.759249975,9 1.6957786,9 L2.30402086,9 C3.24054948,9 4,9.78194868 4,10.7466825 L4,11.2533175 C4,12.2180513 3.24054948,13 2.30402086,13" id="Fill-25-Copy-7"></path>
                </g>
            </g>
        </g>
    </g>
</svg>