<svg id="Layer_1" data-name="Layer 1" xmlns="http://www.w3.org/2000/svg" viewBox="0 0 800 800"><defs><style>.cls-1{fill:#fff;}.cls-2{fill:#ef5234;}</style></defs><path class="cls-1" d="M9.88,13.09a5.46,5.46,0,0,0-5.47,5.46v234.9c0,90.3,68.12,126.4,139.61,126.4,28,0,47-6.89,56.14-11.18a10.88,10.88,0,0,0,6.2-9.85V324.88a5.45,5.45,0,0,0-7.66-5c-9.3,4.15-27.24,10-54.68,10-49,0-87.5-26.59-87.5-97.16V18.55a5.45,5.45,0,0,0-5.46-5.46Z"/><rect class="cls-1" x="255.94" y="13.09" width="53.14" height="360.49" rx="6.56"/><rect class="cls-1" x="368.47" y="13.09" width="53.14" height="360.49" rx="6.56"/><rect class="cls-1" x="730.07" y="13.09" width="53.14" height="360.49" rx="6.56"/><path class="cls-1" d="M669.07,373.58a5.46,5.46,0,0,0,5.46-5.47V133.21c0-90.3-68.12-126.4-139.61-126.4-29.61,0-47.68,6.64-56.28,10.94a10.93,10.93,0,0,0-6.06,9.78V61.79a5.45,5.45,0,0,0,7.66,5c9.31-4.15,27.24-10,54.68-10,49,0,87.5,26.58,87.5,97.15V368.11a5.47,5.47,0,0,0,5.46,5.47Z"/><rect class="cls-1" x="368.47" y="426.73" width="53.14" height="360.49" rx="6.56"/><path class="cls-1" d="M3.93,435.67l154.3,155.71a5.06,5.06,0,0,0,7.51,0L319.9,435.67a5.32,5.32,0,0,0-3.75-8.94H260.9a10.17,10.17,0,0,0-7.57,3.4L162,525.92l-91.66-95.8a10.18,10.18,0,0,0-7.55-3.39H7.68A5.32,5.32,0,0,0,3.93,435.67Z"/><path class="cls-1" d="M3.93,778.28l154.3-155.71a5.07,5.07,0,0,1,7.51,0L319.9,778.28a5.32,5.32,0,0,1-3.75,8.94H260.9a10.17,10.17,0,0,1-7.57-3.4L162,688l-91.66,95.8a10.18,10.18,0,0,1-7.55,3.39H7.68A5.32,5.32,0,0,1,3.93,778.28Z"/><path class="cls-1" d="M529.86,508.29C529.86,463,607.47,452.41,669,485a5.07,5.07,0,0,0,7.5-4.44V441.74a5.07,5.07,0,0,0-3-4.64c-19.46-8.63-47.65-18.05-78.07-18.05-56.16,0-115.26,20.25-115.26,89.24,0,102.32,171.41,106.14,171.41,184.52,0,64-103.25,62.31-167.59,26.42a5.06,5.06,0,0,0-7.5,4.45v42.37a5.06,5.06,0,0,0,2.42,4.33c34.74,21.25,221.29,63.4,221.29-77.57C700.18,579.16,529.86,574.27,529.86,508.29Z"/><rect class="cls-2" x="736.64" y="728.14" width="60.85" height="59.08" rx="25.8"/><rect class="cls-2" x="736.64" y="639.52" width="60.85" height="59.08" rx="25.8"/></svg>