<?xml version="1.0" encoding="UTF-8"?>
<svg width="37px" height="37px" viewBox="0 0 37 37" version="1.1" xmlns="http://www.w3.org/2000/svg" xmlns:xlink="http://www.w3.org/1999/xlink">
    <title>Group 8</title>
    <defs>
        <polygon id="path-1" points="0 19.7333333 14.6052524 19.7333333 14.6052524 27.6266667 0 27.6266667"></polygon>
        <polygon id="path-3" points="0 0 14.6052524 0 14.6052524 7.89333333 0 7.89333333"></polygon>
        <polygon id="path-5" points="0 0 14.6052524 0 14.6052524 7.89333333 0 7.89333333"></polygon>
        <polygon id="path-7" points="0 0 14.6052524 0 14.6052524 7.89333333 0 7.89333333"></polygon>
        <polygon id="path-9" points="0 0 10.2236767 0 10.2236767 17.76 0 17.76"></polygon>
        <polygon id="path-11" points="0 0 2.92105047 0 2.92105047 2.96 0 2.96"></polygon>
        <polygon id="path-13" points="0 0 2.92105047 0 2.92105047 2.96 0 2.96"></polygon>
    </defs>
    <g id="最終版" stroke="none" stroke-width="1" fill="none" fill-rule="evenodd">
        <g id="Mobile_375" transform="translate(-16.000000, -16.000000)">
            <g id="Group-54" transform="translate(16.000000, 16.000000)">
                <g id="Group-93" transform="translate(0.000027, 0.000000)">
                    <g id="Group-4">
                        <g id="Group-3" fill="#FFFFFF">
                            <g id="Group-19" transform="translate(0.000000, 0.493333)">
                                <path d="M0.250245276,0 C0.112058465,0 0,0.115035474 0,0.25721415 L0,11.3158428 C0,15.5672725 3.12017156,17.2666667 6.39445843,17.2666667 C7.67600487,17.2666667 8.54774149,16.9419535 8.96551556,16.7401747 C9.14003056,16.6560164 9.24999316,16.4743437 9.24999316,16.2762988 L9.24999316,14.6785839 C9.24999316,14.4924591 9.06430027,14.3675142 8.89886732,14.4433428 C8.47284954,14.638659 7.65127376,14.9123889 6.39445843,14.9123889 C4.14965631,14.9123889 2.3869012,13.6607857 2.3869012,10.3385439 L2.3869012,0.25721415 C2.3869012,0.115035474 2.27484273,0 2.1365162,0 L0.250245276,0 Z" id="Fill-1"></path>
                                <path d="M13.8178203,16.7733333 L11.9847922,16.7733333 C11.8187758,16.7733333 11.6842019,16.636644 11.6842019,16.4680178 L11.6842019,0.305315517 C11.6842019,0.136689374 11.8187758,0 11.984932,0 L13.8178203,0 C13.9838367,0 14.1184106,0.136689374 14.1184106,0.305315517 L14.1184106,16.4680178 C14.1184106,16.636644 13.9838367,16.7733333 13.8178203,16.7733333" id="Fill-3"></path>
                            </g>
                            <path d="M19.1730967,17.2666667 L17.3401739,17.2666667 C17.174167,17.2666667 17.0394611,17.1299773 17.0394611,16.9613511 L17.0394611,0.798648851 C17.0394611,0.630022707 17.174167,0.493333333 17.3401739,0.493333333 L19.1730967,0.493333333 C19.3389639,0.493333333 19.4736698,0.630022707 19.4736698,0.798648851 L19.4736698,16.9613511 C19.4736698,17.1299773 19.3389639,17.2666667 19.1730967,17.2666667" id="Fill-5"></path>
                            <path d="M35.7256988,17.2666667 L33.8928105,17.2666667 C33.7266544,17.2666667 33.5920804,17.1299773 33.5920804,16.9613511 L33.5920804,0.798648851 C33.5920804,0.630022707 33.7266544,0.493333333 33.8928105,0.493333333 L35.7256988,0.493333333 C35.8917153,0.493333333 36.0262892,0.630022707 36.0262892,0.798648851 L36.0262892,16.9613511 C36.0262892,17.1299773 35.8917153,17.2666667 35.7256988,17.2666667" id="Fill-7"></path>
                            <path d="M30.9076227,17.2666667 C31.0458116,17.2666667 31.1578717,17.1514876 31.1578717,17.0094525 L31.1578717,5.95068023 C31.1578717,1.69939421 28.0377927,0 24.7633167,0 C23.4068578,0 22.5791217,0.312505857 22.1852344,0.514715529 C22.015188,0.602033342 21.9078785,0.779972109 21.9078785,0.975288269 L21.9078785,2.58808274 C21.9078785,2.77406394 22.0935742,2.89915245 22.25887,2.82332382 C22.6850339,2.62800766 23.5064824,2.35427781 24.7633167,2.35427781 C27.0082924,2.35427781 28.7710742,3.605881 28.7710742,6.92812272 L28.7710742,17.0094525 C28.7710742,17.1514876 28.8831343,17.2666667 29.0213232,17.2666667 L30.9076227,17.2666667 Z" id="Fill-9"></path>
                        </g>
                        <mask id="mask-2" fill="white">
                            <use xlink:href="#path-1"></use>
                        </mask>
                        <g id="Clip-14"></g>
                        <g id="Group-18" mask="url(#mask-2)">
                            <g transform="translate(0.000000, 28.613333)">
                                <mask id="mask-4" fill="white">
                                    <use xlink:href="#path-3"></use>
                                </mask>
                                <g id="Clip-17" stroke="none" fill="none"></g>
                                <path d="M0.0648051374,7.46884615 L7.1339737,0.0792655973 C7.22733111,-0.0264218658 7.38469705,-0.0264218658 7.4779147,0.0792655973 L14.5405147,7.46884615 C14.6825074,7.62954901 14.5755936,7.89333333 14.3684743,7.89333333 L11.8373425,7.89333333 C11.7056917,7.89333333 11.5800506,7.83469851 11.4906063,7.73176181 L7.30601408,3.1858979 L3.1070269,7.73234092 C3.01758267,7.83484329 2.89208124,7.89333333 2.76084979,7.89333333 L0.236705761,7.89333333 C0.0295864731,7.89333333 -0.0773273292,7.62940423 0.0648051374,7.46884615" id="Fill-16" stroke="none" fill="#FFFFFF" fill-rule="evenodd" mask="url(#mask-4)"></path>
                            </g>
                        </g>
                    </g>
                    <path d="M19.1730967,36.5066667 L17.3401739,36.5066667 C17.174167,36.5066667 17.0394611,36.3698365 17.0394611,36.2012118 L17.0394611,20.0386463 C17.0394611,19.8701635 17.174167,19.7333333 17.3401739,19.7333333 L19.1730967,19.7333333 C19.3389639,19.7333333 19.4736698,19.8701635 19.4736698,20.0386463 L19.4736698,36.2012118 C19.4736698,36.3698365 19.3389639,36.5066667 19.1730967,36.5066667" id="Fill-11" fill="#FFFFFF"></path>
                    <g id="Group-52" transform="translate(0.000000, 19.733333)">
                        <g id="Group-18" transform="translate(0.000000, 8.880000)">
                            <mask id="mask-6" fill="white">
                                <use xlink:href="#path-5"></use>
                            </mask>
                            <g id="Clip-17"></g>
                            <path d="M0.0648051374,7.46884615 L7.1339737,0.0792655973 C7.22733111,-0.0264218658 7.38469705,-0.0264218658 7.4779147,0.0792655973 L14.5405147,7.46884615 C14.6825074,7.62954901 14.5755936,7.89333333 14.3684743,7.89333333 L11.8373425,7.89333333 C11.7056917,7.89333333 11.5800506,7.83469851 11.4906063,7.73176181 L7.30601408,3.1858979 L3.1070269,7.73234092 C3.01758267,7.83484329 2.89208124,7.89333333 2.76084979,7.89333333 L0.236705761,7.89333333 C0.0295864731,7.89333333 -0.0773273292,7.62940423 0.0648051374,7.46884615" id="Fill-16" fill="#FFFFFF" mask="url(#mask-6)"></path>
                        </g>
                        <mask id="mask-8" fill="white">
                            <use xlink:href="#path-7"></use>
                        </mask>
                        <g id="Clip-14"></g>
                    </g>
                    <g id="Group-21" transform="translate(21.907879, 19.240000)">
                        <mask id="mask-10" fill="white">
                            <use xlink:href="#path-9"></use>
                        </mask>
                        <g id="Clip-20"></g>
                        <path d="M2.44003094,4.2360566 C2.44003094,2.08392611 5.98687285,1.58347106 8.79914025,3.13160907 C8.95472673,3.21719036 9.14182086,3.10322678 9.14182086,2.92047959 L9.14182086,1.0770789 C9.14182086,0.981361077 9.08772807,0.895345365 9.00366119,0.85653693 C8.11405786,0.446876241 6.82572933,0 5.43548887,0 C2.86900907,0 0.167854945,0.960943206 0.167854945,4.2360566 C0.167854945,9.09290337 8.00210809,9.2746369 8.00210809,12.9948888 C8.00210809,16.0333866 3.28320927,15.952584 0.342959439,14.2490674 C0.189045935,14.1600108 0,14.2773049 0,14.4601969 L0,16.4717192 C0,16.5557076 0.0416849075,16.6334693 0.110555624,16.677346 C1.69820688,17.6860757 10.2236767,19.6867375 10.2236767,12.9948888 C10.2236767,7.60022667 2.44003094,7.36810009 2.44003094,4.2360566" id="Fill-19" fill="#FFFFFF" mask="url(#mask-10)"></path>
                    </g>
                    <g id="Group-9" transform="translate(34.078922, 29.600000)">
                        <g id="Group-24" transform="translate(0.000000, 4.440000)">
                            <mask id="mask-12" fill="white">
                                <use xlink:href="#path-11"></use>
                            </mask>
                            <g id="Clip-23"></g>
                            <path d="M1.68258248,2.96 L1.23839477,2.96 C0.554465774,2.96 0,2.38120514 0,1.66745495 L0,1.29254505 C0,0.57864202 0.554465774,0 1.23839477,0 L1.68258248,0 C2.36651147,0 2.9211237,0.57864202 2.9211237,1.29254505 L2.9211237,1.66745495 C2.9211237,2.38120514 2.36651147,2.96 1.68258248,2.96" id="Fill-22" fill="#FF5036" mask="url(#mask-12)"></path>
                        </g>
                        <g id="Group-27">
                            <mask id="mask-14" fill="white">
                                <use xlink:href="#path-13"></use>
                            </mask>
                            <g id="Clip-26"></g>
                            <path d="M1.68258248,2.96 L1.23839477,2.96 C0.554465774,2.96 0,2.38135798 0,1.66745495 L0,1.29254505 C0,0.57864202 0.554465774,0 1.23839477,0 L1.68258248,0 C2.36651147,0 2.9211237,0.57864202 2.9211237,1.29254505 L2.9211237,1.66745495 C2.9211237,2.38135798 2.36651147,2.96 1.68258248,2.96" id="Fill-25" fill="#EF5234" mask="url(#mask-14)"></path>
                        </g>
                    </g>
                </g>
                <g id="Group-15" transform="translate(0.000000, 19.733333)" fill="#FFFFFF">
                    <path d="M0.0648324818,0.424493993 L7.13400104,7.81419314 C7.22735846,7.91973752 7.38472439,7.91973752 7.47794205,7.81404836 L14.540542,0.424349213 C14.6825348,0.263788559 14.575621,0 14.3685017,0 L11.8373698,0 C11.7057191,0 11.5800779,0.0584909867 11.4906337,0.161429332 L7.30604142,4.70751097 L3.10705425,0.160850214 C3.01761002,0.0583462071 2.89210859,0 2.76087714,0 L0.236733105,0 C0.0296138175,0 -0.0772999848,0.263788559 0.0648324818,0.424493993" id="Fill-13"></path>
                </g>
            </g>
        </g>
    </g>
</svg>