<?xml version="1.0" encoding="UTF-8"?>
<svg width="311px" height="238px" viewBox="0 0 311 238" version="1.1" xmlns="http://www.w3.org/2000/svg" xmlns:xlink="http://www.w3.org/1999/xlink">
    <title>Group 103</title>
    <g id="0215_官網字級調整" stroke="none" stroke-width="1" fill="none" fill-rule="evenodd">
        <g id="Mobile_375" transform="translate(-32.000000, -6721.000000)">
            <g id="Group-103" transform="translate(32.000000, 6721.000241)">
                <g id="Group-121" transform="translate(5.457338, 45.193536)" stroke="#FF5036" stroke-width="0.96">
                    <path d="M157.115957,153.987613 C233.767717,133.492467 288.185869,88.1262385 278.662302,52.6593061 C269.138735,17.1923737 199.27983,5.05534279 122.62807,25.5504889 C45.9763105,46.045635 -8.44184163,91.4118632 1.0817254,126.878796 C10.6052924,162.345728 80.4641975,174.482759 157.115957,153.987613 Z" id="Oval"></path>
                    <path d="M174.826688,148.739464 C246.424737,112.425891 290.75347,56.1982762 273.837687,23.1515712 C256.921903,-9.89513366 185.167264,-7.24681386 113.569216,29.0667591 C41.9711679,65.380332 -2.35756601,121.607947 14.5582178,154.654652 C31.4740016,187.701357 103.22864,185.053037 174.826688,148.739464 Z" id="Oval-Copy-4" opacity="0.312541417"></path>
                </g>
                <path d="M218.310279,203.021578 C208.722048,203.021578 200.948805,195.008989 200.948805,185.12341 L200.948805,179.931947 C200.948805,170.046368 208.722048,162.033779 218.310279,162.033779 L224.537497,162.033779 C234.125728,162.033779 241.901024,170.046368 241.901024,179.931947 L241.901024,185.12341 C241.901024,195.008989 234.125728,203.021578 224.537497,203.021578 L218.310279,203.021578 Z" id="Fill-25-Copy-9" fill="#FF5036"></path>
                <path d="M268.851554,95.9953145 C261.018915,95.9953145 254.668942,89.4498195 254.668942,81.3742763 L254.668942,77.1333626 C254.668942,69.0578194 261.018915,62.5123244 268.851554,62.5123244 L273.938577,62.5123244 C281.771217,62.5123244 288.122867,69.0578194 288.122867,77.1333626 L288.122867,81.3742763 C288.122867,89.4498195 281.771217,95.9953145 273.938577,95.9953145 L268.851554,95.9953145 Z" id="Fill-25-Copy-14" fill="#FF5036"></path>
                <g id="Group-127" transform="translate(206.000000, 168.999759)">
                    <text id="Manager" font-family="MuseoSans-500, Museo Sans" font-size="14" font-weight="normal" line-spacing="17" fill="#242628">
                        <tspan x="8" y="65">Manager</tspan>
                    </text>
                    <g id="Group-99">
                        <g id="Group-8-Copy-2" transform="translate(46.500000, 19.000000) rotate(-180.000000) translate(-46.500000, -19.000000) translate(17.000000, 0.000000)" fill="#E4E9EF">
                            <rect id="Rectangle-Copy-5" x="0" y="0" width="59" height="38"></rect>
                        </g>
                        <g id="Group-116" transform="translate(0.000000, 6.000000)">
                            <rect id="Rectangle-Copy-21" stroke="#FF5036" stroke-width="1.2" fill="#242628" x="7.7" y="0" width="62.3" height="38"></rect>
                            <g id="Group-111" transform="translate(41.300000, 8.734205)">
                                <path d="M19.0829675,14.7570806 C20.6999349,13.192733 21.7,11.0316479 21.7,8.64451911 C21.7,3.87026148 17.6996472,0 12.7647059,0 L12.7647059,8.64451911 L19.0829675,14.7570806 Z" id="Fill-1" fill="#FF5036"></path>
                                <g id="Group-5" transform="translate(0.000000, 1.283224)" fill="#E4E9EF">
                                    <path d="M9.72057431,9.62418301 L9.72057431,0 C4.35202511,0 0,4.3088695 0,9.62418301 C0,14.9394965 4.35202511,19.248366 9.72057431,19.248366 C12.4048489,19.248366 14.8350427,18.1710989 16.5941176,16.4294673 L9.72057431,9.62418301 Z" id="Fill-3"></path>
                                </g>
                            </g>
                            <line x1="0" y1="16.8888889" x2="35.7" y2="16.8888889" id="Path-28" stroke="#E4E9EF" stroke-width="1.2"></line>
                            <line x1="19.6" y1="21.8148148" x2="35.7" y2="21.8148148" id="Path-28-Copy" stroke="#FF5036" stroke-width="1.2"></line>
                        </g>
                    </g>
                </g>
                <g id="Group-126" transform="translate(237.320819, 0.000000)">
                    <text id="Researcher" font-family="MuseoSans-500, Museo Sans" font-size="14" font-weight="normal" line-spacing="17" fill="#242628">
                        <tspan x="0" y="13">Researcher</tspan>
                    </text>
                    <g id="Group-118" transform="translate(26.997363, 24.999759)">
                        <g id="Group-134">
                            <rect id="Rectangle-Copy-5" fill="#E4E9EF" x="0" y="5.50458716" width="39" height="54.4954128"></rect>
                            <rect id="Rectangle-Copy-22" stroke="#FF5036" stroke-width="1.2" fill="#242628" x="6.8486631" y="0" width="38.8331551" height="53.9449541"></rect>
                            <rect id="Rectangle" fill="#E4E9EF" x="15.5350267" y="15.1247535" width="8.17540107" height="8.0665352"></rect>
                            <rect id="Rectangle-Copy-25" fill="#FF5036" x="28.3090909" y="15.1247535" width="8.17540107" height="8.0665352"></rect>
                            <line x1="2.25" y1="33.5265369" x2="37.5064171" y2="33.5265369" id="Path-29" stroke="#E4E9EF"></line>
                            <line x1="19.6227273" y1="39.0722799" x2="37.5064171" y2="39.0722799" id="Path-29-Copy" stroke="#FF5036"></line>
                        </g>
                        <g id="Group-113" transform="translate(1.681818, 0.000000)"></g>
                    </g>
                </g>
                <g id="Group-140" transform="translate(115.000000, 18.926066)">
                    <path d="M58.9253986,126.073693 C47.9211872,126.073693 39,116.885796 39,105.550174 L39,99.5972125 C39,88.2615901 47.9211872,79.0736931 58.9253986,79.0736931 L66.0722451,79.0736931 C77.0764564,79.0736931 86,88.2615901 86,99.5972125 L86,105.550174 C86,116.885796 77.0764564,126.073693 66.0722451,126.073693 L58.9253986,126.073693 Z" id="Fill-25-Copy-11" fill="#E4E9EF"></path>
                    <g id="Group-63">
                        <polygon id="Rectangle-Copy-24" stroke="#FF5036" stroke-width="1.2" fill="#FF5036" transform="translate(58.859920, 63.027648) rotate(-333.000000) translate(-58.859920, -63.027648) " points="27.7568067 18.4598413 90.1207788 18.3429005 89.9630341 107.595454 27.599062 107.712395"></polygon>
                        <polygon id="Rectangle-Copy" stroke="#FF5036" stroke-width="1.2" fill="#FFFFFF" transform="translate(44.122742, 58.573693) rotate(12.000000) translate(-44.122742, -58.573693) " points="10.3289357 5.9755099 78.0350098 5.89970394 77.9165478 111.171876 10.2104737 111.247682"></polygon>
                        <g id="Group-107" transform="translate(38.869705, 85.864567) rotate(12.000000) translate(-38.869705, -85.864567) translate(23.193272, 81.816606)" fill="#242628">
                            <rect id="Rectangle-Copy-19" x="0" y="0" width="31.3528644" height="8.0959225"></rect>
                        </g>
                        <line x1="18.3089835" y1="63.1098953" x2="70.3423553" y2="63.051637" id="Path-26" stroke="#FF5036" stroke-width="1.2" transform="translate(44.325669, 63.080766) rotate(12.000000) translate(-44.325669, -63.080766) "></line>
                        <line x1="29.6006483" y1="70.5802873" x2="78.6085466" y2="71.4368627" id="Path-26-Copy" stroke="#242628" stroke-width="1.2" transform="translate(54.104597, 71.008575) rotate(12.000000) translate(-54.104597, -71.008575) "></line>
                        <line x1="23.6532455" y1="71.9061099" x2="46.4599464" y2="72.9101962" id="Path-26-Copy-2" stroke="#FF5036" stroke-width="1.2" transform="translate(35.056596, 72.408153) rotate(12.000000) translate(-35.056596, -72.408153) "></line>
                        <g id="Group-19" transform="translate(48.198730, 40.051734) rotate(12.000000) translate(-48.198730, -40.051734) translate(37.646154, 27.205601)" fill="#FF5036">
                            <g id="Group-139" transform="translate(0.000000, 0.000000)">
                                <path d="M0.407139217,0 C0.182314714,0 4.54747351e-13,0.170110111 4.54747351e-13,0.380358563 L4.54747351e-13,16.7334407 C4.54747351e-13,23.0202941 5.07639635,25.5332941 10.4035323,25.5332941 C12.4885579,25.5332941 13.9068391,25.0531206 14.5865411,24.7547377 C14.8704701,24.6302876 15.0493749,24.3616368 15.0493749,24.0687755 L15.0493749,21.7061351 C15.0493749,21.4309008 14.7472599,21.246137 14.478107,21.3582695 C13.7849928,21.6470956 12.4483214,22.051877 10.4035323,22.051877 C6.75132754,22.051877 3.88339433,20.2010535 3.88339433,15.288248 L3.88339433,0.380358563 C3.88339433,0.170110111 3.70107962,0 3.47602779,0 L0.407139217,0 Z" id="Fill-1"></path>
                                <path d="M20.6405565,25.6922668 L17.8074052,25.6922668 C17.5508081,25.6922668 17.342809,25.4841907 17.342809,25.2274987 L17.342809,0.623740887 C17.342809,0.367048862 17.5508081,0.15897275 17.8076212,0.15897275 L20.6405565,0.15897275 C20.8971535,0.15897275 21.1051527,0.367048862 21.1051527,0.623740887 L21.1051527,25.2274987 C21.1051527,25.4841907 20.8971535,25.6922668 20.6405565,25.6922668" id="Fill-3"></path>
                            </g>
                        </g>
                    </g>
                </g>
                <path d="M19.6399504,138.714991 C11.8073108,138.714991 5.45733788,132.169496 5.45733788,124.093953 L5.45733788,119.85304 C5.45733788,111.777496 11.8073108,105.232001 19.6399504,105.232001 L24.7269731,105.232001 C32.5596127,105.232001 38.9112628,111.777496 38.9112628,119.85304 L38.9112628,124.093953 C38.9112628,132.169496 32.5596127,138.714991 24.7269731,138.714991 L19.6399504,138.714991 Z" id="Fill-25-Copy-13" fill="#FF5036"></path>
                <g id="Group-124" transform="translate(0.000000, 50.999759)">
                    <text id="Developer" font-family="MuseoSans-500, Museo Sans" font-size="14" font-weight="normal" line-spacing="17" fill="#242628">
                        <tspan x="0" y="13">Developer</tspan>
                    </text>
                    <g id="Group-120" transform="translate(0.000000, 25.000000)">
                        <g id="Group-8-Copy" transform="translate(26.000000, 20.500000) rotate(-180.000000) translate(-26.000000, -20.500000) " fill="#E4E9EF">
                            <rect id="Rectangle-Copy-5" x="0" y="0" width="52" height="41"></rect>
                        </g>
                        <g id="Group-112" transform="translate(8.000000, 7.000000)">
                            <rect id="Rectangle-Copy-20" stroke="#FF5036" stroke-width="1.2" fill="#242628" x="0" y="0" width="55.3846154" height="44"></rect>
                            <path d="M15.9662537,26.4437966 L21.9095027,32.6850966 C21.9879909,32.7742388 22.1202928,32.7742388 22.1986635,32.6849743 L28.1363902,26.4436744 C28.2557674,26.3080657 28.165882,26.0852713 27.991751,26.0852713 L25.8637572,26.0852713 C25.7530747,26.0852713 25.6474446,26.1346725 25.5722463,26.2216137 L22.0541418,30.0612096 L18.5239351,26.2211245 C18.4487369,26.1345502 18.3432243,26.0852713 18.2328943,26.0852713 L16.1107754,26.0852713 C15.9366443,26.0852713 15.8467589,26.3080657 15.9662537,26.4437966" id="Fill-13" fill="#E4E9EF" transform="translate(22.051282, 29.418605) rotate(-270.000000) translate(-22.051282, -29.418605) "></path>
                            <path d="M34.9406126,26.4437966 L40.8838616,32.6850966 C40.9623498,32.7742388 41.0946518,32.7742388 41.1730225,32.6849743 L47.1107491,26.4436744 C47.2301264,26.3080657 47.140241,26.0852713 46.9661099,26.0852713 L44.8381161,26.0852713 C44.7274337,26.0852713 44.6218036,26.1346725 44.5466053,26.2216137 L41.0285008,30.0612096 L37.4982941,26.2211245 C37.4230958,26.1345502 37.3175832,26.0852713 37.2072533,26.0852713 L35.0851343,26.0852713 C34.9110033,26.0852713 34.8211179,26.3080657 34.9406126,26.4437966" id="Fill-13-Copy-3" fill="#E4E9EF" transform="translate(41.025641, 29.418605) rotate(-90.000000) translate(-41.025641, -29.418605) "></path>
                            <g id="Group-114" transform="translate(5.641026, 8.697674)" stroke-width="1.2">
                                <line x1="0.405663988" y1="0.415697674" x2="17.4435515" y2="0.415697674" id="Path-25" stroke="#E4E9EF"></line>
                                <line x1="32.047455" y1="0.415697674" x2="41.7833907" y2="0.415697674" id="Path-25-Copy-2" stroke="#E4E9EF"></line>
                                <line x1="34.075775" y1="6.23546512" x2="53.8979926" y2="6.23546512" id="Path-25-Copy-5" stroke="#E4E9EF"></line>
                                <line x1="21.9058553" y1="0.415697674" x2="27.9328632" y2="0.415697674" id="Path-25-Copy" stroke="#FF5036"></line>
                                <line x1="0.405663988" y1="6.23546512" x2="29.5666637" y2="6.23546512" id="Path-25-Copy-4" stroke="#FF5036"></line>
                            </g>
                            <polygon id="Path-27" fill="#FF5036" points="28.2051282 34.7906977 30.6184012 34.7906977 36.4102564 22.5116279 33.9969834 22.5116279"></polygon>
                        </g>
                    </g>
                </g>
            </g>
        </g>
    </g>
</svg>