<?xml version="1.0" encoding="UTF-8"?>
<svg width="271px" height="265px" viewBox="0 0 271 265" version="1.1" xmlns="http://www.w3.org/2000/svg" xmlns:xlink="http://www.w3.org/1999/xlink">
    <title>Group 122</title>
    <g id="0215_官網字級調整" stroke="none" stroke-width="1" fill="none" fill-rule="evenodd">
        <g id="Mobile_375" transform="translate(-32.000000, -6365.000000)">
            <g id="Group-122" transform="translate(32.000000, 6365.000000)">
                <g id="Group-100" transform="translate(170.000000, 144.000000)">
                    <g id="Group-93-Copy">
                        <path d="M45.1226311,97 C22.4118119,97 4,78.0377446 4,54.6429493 L4,42.3570507 C4,18.9622554 22.4118119,0 45.1226311,0 L59.8725058,0 C82.583325,0 101,18.9622554 101,42.3570507 L101,54.6429493 C101,78.0377446 82.583325,97 59.8725058,97 L45.1226311,97 Z" id="Fill-25-Copy-9" fill="#E4E9EF"></path>
                        <g id="Group-88" transform="translate(0.000000, 13.000000)" stroke-width="0.927014633">
                            <g id="Group-63" transform="translate(0.000000, 7.466667)">
                                <rect id="Rectangle" stroke="#FF5036" fill="#FF5036" x="0" y="0" width="84.815534" height="52.2666667"></rect>
                                <line x1="6.74770581" y1="41.5333333" x2="38.9221971" y2="41.5333333" id="Path-23" stroke="#242628"></line>
                                <line x1="6.52427184" y1="36.8666667" x2="24.0116505" y2="36.8666667" id="Path-23-Copy" stroke="#E4E9EF"></line>
                            </g>
                            <ellipse id="Oval" stroke="#242628" fill="#242628" cx="34.0194175" cy="15.4" rx="15.3786408" ry="15.4"></ellipse>
                            <line x1="95.5339806" y1="7.78419244" x2="95.7669903" y2="68.7491409" id="Path-15" stroke="#FF5036"></line>
                            <line x1="95.0679612" y1="69.5333333" x2="10.2524272" y2="69.5333333" id="Path-15-Copy" stroke="#FF5036"></line>
                        </g>
                        <polygon id="Triangle" stroke="#FF5036" stroke-width="0.927014633" fill="#FFFFFF" transform="translate(64.490082, 41.517402) rotate(-291.000000) translate(-64.490082, -41.517402) " points="70.7067581 15.0012515 91.9364479 68.0335517 37.0437152 61.768964"></polygon>
                        <path d="M9.5436679,86 C8.13887496,86 7,84.827077 7,83.3799762 L7,82.6200238 C7,81.172923 8.13887496,80 9.5436679,80 L10.4560313,80 C11.8608242,80 13,81.172923 13,82.6200238 L13,83.3799762 C13,84.827077 11.8608242,86 10.4560313,86 L9.5436679,86 Z" id="Fill-25-Copy-16" fill="#FF5036"></path>
                        <path d="M95.5436679,86 C94.138875,86 93,84.827077 93,83.3799762 L93,82.6200238 C93,81.172923 94.138875,80 95.5436679,80 L96.4560313,80 C97.8608242,80 99,81.172923 99,82.6200238 L99,83.3799762 C99,84.827077 97.8608242,86 96.4560313,86 L95.5436679,86 Z" id="Fill-25-Copy-17" fill="#FF5036"></path>
                        <path d="M95.5436679,24 C94.138875,24 93,22.827077 93,21.3799762 L93,20.6200238 C93,19.172923 94.138875,18 95.5436679,18 L96.4560313,18 C97.8608242,18 99,19.172923 99,20.6200238 L99,21.3799762 C99,22.827077 97.8608242,24 96.4560313,24 L95.5436679,24 Z" id="Fill-25-Copy-18" fill="#FF5036"></path>
                    </g>
                    <text id="Brand" font-family="MuseoSans-500, Museo Sans" font-size="14" font-weight="normal" line-spacing="17" fill="#FF5036">
                        <tspan x="32" y="114">Brand</tspan>
                    </text>
                </g>
                <g id="Group-93" transform="translate(82.000000, 0.000000)">
                    <g id="Group-100-Copy">
                        <path d="M52.1226311,97 C29.4118119,97 11,78.0377446 11,54.6429493 L11,42.3570507 C11,18.9622554 29.4118119,0 52.1226311,0 L66.8725058,0 C89.583325,0 108,18.9622554 108,42.3570507 L108,54.6429493 C108,78.0377446 89.583325,97 66.8725058,97 L52.1226311,97 Z" id="Fill-25-Copy-11" fill="#E4E9EF"></path>
                        <g id="Group-85" transform="translate(36.000000, 10.000000)" stroke-width="0.927014633">
                            <rect id="Rectangle" stroke="#FF5036" fill="#FF5036" x="6.52054795" y="7.44186047" width="61.4794521" height="72.5581395"></rect>
                            <rect id="Rectangle-Copy" stroke="#FF5036" fill="#FFFFFF" x="0" y="0" width="61.4794521" height="72.5581395"></rect>
                            <rect id="Rectangle" stroke="#242628" fill="#242628" x="11.1780822" y="9.30232558" width="38.1917808" height="17.6744186"></rect>
                            <line x1="11.1780822" y1="9.30232558" x2="49.369863" y2="26.9767442" id="Path-20" stroke="#FF5036"></line>
                            <line x1="11.1780822" y1="9.30232558" x2="49.369863" y2="26.9767442" id="Path-20-Copy" stroke="#FF5036" transform="translate(30.273973, 18.139535) scale(1, -1) translate(-30.273973, -18.139535) "></line>
                            <line x1="11.1780822" y1="36.744186" x2="49.369863" y2="36.744186" id="Path-21" stroke="#242628"></line>
                            <line x1="11.1780822" y1="41.3953488" x2="38.1917808" y2="41.3953488" id="Path-21-Copy" stroke="#FF5036"></line>
                        </g>
                        <g id="Group-94" transform="translate(0.000000, 32.000000)">
                            <g id="Group-92" transform="translate(2.802632, 2.790698)">
                                <polyline id="Path-19" stroke="#FF5036" stroke-width="0.927014633" points="-2.78794531e-13 2.97436494e-13 20.5526316 2.97436494e-13 20.5526316 33.4883721 61.6578947 33.4883721"></polyline>
                                <polygon id="Path-22" fill="#FF5036" points="60.7236842 29.7674419 60.7236842 37.2093023 68.1973684 33.2403101"></polygon>
                            </g>
                            <path d="M2.77237489,6.51162791 C1.24127381,6.51162791 1.9457535e-13,5.2386882 1.9457535e-13,3.66819128 L1.9457535e-13,2.84343663 C1.9457535e-13,1.2729397 1.24127381,-2.99502025e-13 2.77237489,-2.99502025e-13 L3.76677094,-2.99502025e-13 C5.29787202,-2.99502025e-13 6.53947368,1.2729397 6.53947368,2.84343663 L6.53947368,3.66819128 C6.53947368,5.2386882 5.29787202,6.51162791 3.76677094,6.51162791 L2.77237489,6.51162791 Z" id="Fill-25-Copy-15" fill="#FF5036"></path>
                        </g>
                    </g>
                    <text id="Architecture" font-family="MuseoSans-500, Museo Sans" font-size="14" font-weight="normal" line-spacing="17" fill="#FF5036">
                        <tspan x="23" y="118">Architecture</tspan>
                    </text>
                </g>
                <g id="Group-99" transform="translate(0.000000, 143.000000)">
                    <g id="Group-89">
                        <path d="M41.1226311,97 C18.4118119,97 0,78.0377446 0,54.6429493 L0,42.3570507 C0,18.9622554 18.4118119,0 41.1226311,0 L55.8725058,0 C78.583325,0 97,18.9622554 97,42.3570507 L97,54.6429493 C97,78.0377446 78.583325,97 55.8725058,97 L41.1226311,97 Z" id="Fill-25-Copy-10" fill="#E4E9EF"></path>
                        <g id="Group-98" transform="translate(9.000000, 6.000000)">
                            <g id="Group-91" stroke-width="0.927014633">
                                <polygon id="Rectangle-Copy-18" stroke="#FF5036" fill="#FF5036" transform="translate(48.199168, 38.398685) rotate(-15.000000) translate(-48.199168, -38.398685) " points="5.91575468 9.97524743 90.480513 9.9783232 90.4825808 66.8221231 5.91782245 66.8190474"></polygon>
                                <polygon id="Rectangle" stroke="#FF5036" fill="#FFFFFF" transform="translate(57.371322, 45.041091) rotate(-15.000000) translate(-57.371322, -45.041091) " points="15.0878844 15.9525923 99.6526427 15.9556679 99.654759 74.1295905 15.0900006 74.1265149"></polygon>
                                <g id="Group-72" transform="translate(91.094342, 36.092496) rotate(-15.000000) translate(-91.094342, -36.092496) translate(68.651037, 30.622365)">
                                    <g id="Group-96" transform="translate(0.002288, -0.008538)">
                                        <g id="Group-97" transform="translate(-0.009883, 0.036885)">
                                            <line x1="0.0551839148" y1="0.544855938" x2="39.8914352" y2="0.42720363" id="Path-17" stroke="#FF5036"></line>
                                            <line x1="-0.328169399" y1="5.888952" x2="44.0467339" y2="5.62399669" id="Path-17-Copy" stroke="#242628"></line>
                                            <line x1="0.319070879" y1="10.9003212" x2="17.9590709" y2="10.9003212" id="Path-17-Copy-2" stroke="#FF5036"></line>
                                        </g>
                                    </g>
                                </g>
                            </g>
                            <polygon id="Rectangle" fill="#242628" transform="translate(37.065801, 43.064632) rotate(-15.000000) translate(-37.065801, -43.064632) " points="23.9477801 29.9482641 50.1828668 29.9492184 50.183821 56.1809996 23.9487343 56.1800454"></polygon>
                            <g id="Group-95" transform="translate(34.000000, 33.000000)" stroke="#FF5036">
                                <ellipse id="Oval-Copy-3" stroke-width="0.927014633" transform="translate(13.465649, 13.422680) rotate(-90.000000) translate(-13.465649, -13.422680) " cx="13.4656489" cy="13.4226804" rx="13.4226804" ry="13.4656489"></ellipse>
                                <line x1="27.5430865" y1="34.7698906" x2="37.7698906" y2="17.4569135" id="Path-24" stroke-width="4.63507316" transform="translate(32.656489, 26.113402) rotate(-90.000000) translate(-32.656489, -26.113402) "></line>
                            </g>
                        </g>
                    </g>
                    <text id="Research" font-family="MuseoSans-500, Museo Sans" font-size="14" font-weight="normal" line-spacing="17" fill="#FF5036">
                        <tspan x="19" y="118">Research</tspan>
                    </text>
                </g>
            </g>
        </g>
    </g>
</svg>