<?xml version="1.0" encoding="UTF-8"?>
<svg width="344px" height="542px" viewBox="0 0 344 542" version="1.1" xmlns="http://www.w3.org/2000/svg" xmlns:xlink="http://www.w3.org/1999/xlink">
    <title>Group 43</title>
    <defs>
        <path d="M32.8636563,57.0493149 L24.1900281,57.0493149 C10.8278341,57.0493149 0,45.8932644 0,32.1405858 L0,24.908729 C0,11.1560504 10.8278341,0 24.1900281,0 L32.8636563,0 C46.2214807,0 57.0493149,11.1560504 57.0493149,24.908729 L57.0493149,32.1405858 C57.0493149,45.8932644 46.2214807,57.0493149 32.8636563,57.0493149" id="path-1"></path>
        <path d="M32.8636563,57.0493149 L24.1900281,57.0493149 C10.8278341,57.0493149 0,45.8932644 0,32.1405858 L0,24.908729 C0,11.1560504 10.8278341,0 24.1900281,0 L32.8636563,0 C46.2214807,0 57.0493149,11.1560504 57.0493149,24.908729 L57.0493149,32.1405858 C57.0493149,45.8932644 46.2214807,57.0493149 32.8636563,57.0493149" id="path-3"></path>
        <path d="M32.8636563,57.0493149 L24.1900281,57.0493149 C10.8278341,57.0493149 0,45.8932644 0,32.1405858 L0,24.908729 C0,11.1560504 10.8278341,0 24.1900281,0 L32.8636563,0 C46.2214807,0 57.0493149,11.1560504 57.0493149,24.908729 L57.0493149,32.1405858 C57.0493149,45.8932644 46.2214807,57.0493149 32.8636563,57.0493149" id="path-5"></path>
        <path d="M32.8636563,57.0493149 L24.1900281,57.0493149 C10.8278341,57.0493149 0,45.8932644 0,32.1405858 L0,24.908729 C0,11.1560504 10.8278341,0 24.1900281,0 L32.8636563,0 C46.2214807,0 57.0493149,11.1560504 57.0493149,24.908729 L57.0493149,32.1405858 C57.0493149,45.8932644 46.2214807,57.0493149 32.8636563,57.0493149" id="path-7"></path>
        <path d="M32.8636563,57.0493149 L24.1900281,57.0493149 C10.8278341,57.0493149 0,45.8932644 0,32.1405858 L0,24.908729 C0,11.1560504 10.8278341,0 24.1900281,0 L32.8636563,0 C46.2214807,0 57.0493149,11.1560504 57.0493149,24.908729 L57.0493149,32.1405858 C57.0493149,45.8932644 46.2214807,57.0493149 32.8636563,57.0493149" id="path-9"></path>
        <path d="M32.8636563,57.0493149 L24.1900281,57.0493149 C10.8278341,57.0493149 0,45.8932644 0,32.1405858 L0,24.908729 C0,11.1560504 10.8278341,0 24.1900281,0 L32.8636563,0 C46.2214807,0 57.0493149,11.1560504 57.0493149,24.908729 L57.0493149,32.1405858 C57.0493149,45.8932644 46.2214807,57.0493149 32.8636563,57.0493149" id="path-11"></path>
        <path d="M32.8636563,57.0493149 L24.1900281,57.0493149 C10.8278341,57.0493149 0,45.8932644 0,32.1405858 L0,24.908729 C0,11.1560504 10.8278341,0 24.1900281,0 L32.8636563,0 C46.2214807,0 57.0493149,11.1560504 57.0493149,24.908729 L57.0493149,32.1405858 C57.0493149,45.8932644 46.2214807,57.0493149 32.8636563,57.0493149" id="path-13"></path>
        <path d="M32.8636563,57.0493149 L24.1900281,57.0493149 C10.8278341,57.0493149 0,45.8932644 0,32.1405858 L0,24.908729 C0,11.1560504 10.8278341,0 24.1900281,0 L32.8636563,0 C46.2214807,0 57.0493149,11.1560504 57.0493149,24.908729 L57.0493149,32.1405858 C57.0493149,45.8932644 46.2214807,57.0493149 32.8636563,57.0493149" id="path-15"></path>
        <path d="M32.8636563,57.0493149 L24.1900281,57.0493149 C10.8278341,57.0493149 0,45.8932644 0,32.1405858 L0,24.908729 C0,11.1560504 10.8278341,0 24.1900281,0 L32.8636563,0 C46.2214807,0 57.0493149,11.1560504 57.0493149,24.908729 L57.0493149,32.1405858 C57.0493149,45.8932644 46.2214807,57.0493149 32.8636563,57.0493149" id="path-17"></path>
        <path d="M10.2389484,17.4166667 L7.53660658,17.4166667 C3.37350273,17.4166667 0,14.0108201 0,9.81224527 L0,7.60442139 C0,3.40584655 3.37350273,5.68434189e-14 7.53660658,5.68434189e-14 L10.2389484,5.68434189e-14 C14.4006908,5.68434189e-14 17.7741935,3.40584655 17.7741935,7.60442139 L17.7741935,9.81224527 C17.7741935,14.0108201 14.4006908,17.4166667 10.2389484,17.4166667" id="path-19"></path>
        <path d="M10.2389484,17.4166667 L7.53660658,17.4166667 C3.37350273,17.4166667 0,14.0108201 0,9.81224527 L0,7.60442139 C0,3.40584655 3.37350273,0 7.53660658,0 L10.2389484,0 C14.4006908,0 17.7741935,3.40584655 17.7741935,7.60442139 L17.7741935,9.81224527 C17.7741935,14.0108201 14.4006908,17.4166667 10.2389484,17.4166667" id="path-21"></path>
        <path d="M10.2389484,17.4166667 L7.53660658,17.4166667 C3.37350273,17.4166667 0,14.0108201 0,9.81224527 L0,7.60442139 C0,3.40584655 3.37350273,0 7.53660658,0 L10.2389484,0 C14.4006908,0 17.7741935,3.40584655 17.7741935,7.60442139 L17.7741935,9.81224527 C17.7741935,14.0108201 14.4006908,17.4166667 10.2389484,17.4166667" id="path-23"></path>
        <path d="M10.2389484,17.4166667 L7.53660658,17.4166667 C3.37350273,17.4166667 0,14.0108201 0,9.81224527 L0,7.60442139 C0,3.40584655 3.37350273,0 7.53660658,0 L10.2389484,0 C14.4006908,0 17.7741935,3.40584655 17.7741935,7.60442139 L17.7741935,9.81224527 C17.7741935,14.0108201 14.4006908,17.4166667 10.2389484,17.4166667" id="path-25"></path>
        <path d="M10.2389484,17.4166667 L7.53660658,17.4166667 C3.37350273,17.4166667 0,14.0108201 0,9.81224527 L0,7.60442139 C0,3.40584655 3.37350273,0 7.53660658,0 L10.2389484,0 C14.4006908,0 17.7741935,3.40584655 17.7741935,7.60442139 L17.7741935,9.81224527 C17.7741935,14.0108201 14.4006908,17.4166667 10.2389484,17.4166667" id="path-27"></path>
        <path d="M10.2389484,17.4166667 L7.53660658,17.4166667 C3.37350273,17.4166667 0,14.0108201 0,9.81224527 L0,7.60442139 C0,3.40584655 3.37350273,0 7.53660658,0 L10.2389484,0 C14.4006908,0 17.7741935,3.40584655 17.7741935,7.60442139 L17.7741935,9.81224527 C17.7741935,14.0108201 14.4006908,17.4166667 10.2389484,17.4166667" id="path-29"></path>
        <path d="M10.2389484,17.4166667 L7.53660658,17.4166667 C3.37350273,17.4166667 0,14.0108201 0,9.81224527 L0,7.60442139 C0,3.40584655 3.37350273,-5.68434189e-14 7.53660658,-5.68434189e-14 L10.2389484,-5.68434189e-14 C14.4006908,-5.68434189e-14 17.7741935,3.40584655 17.7741935,7.60442139 L17.7741935,9.81224527 C17.7741935,14.0108201 14.4006908,17.4166667 10.2389484,17.4166667" id="path-31"></path>
        <path d="M10.2389484,17.4166667 L7.53660658,17.4166667 C3.37350273,17.4166667 0,14.0108201 0,9.81224527 L0,7.60442139 C0,3.40584655 3.37350273,0 7.53660658,0 L10.2389484,0 C14.4006908,0 17.7741935,3.40584655 17.7741935,7.60442139 L17.7741935,9.81224527 C17.7741935,14.0108201 14.4006908,17.4166667 10.2389484,17.4166667" id="path-33"></path>
        <path d="M10.2389484,17.4166667 L7.53660658,17.4166667 C3.37350273,17.4166667 0,14.0108201 0,9.81224527 L0,7.60442139 C0,3.40584655 3.37350273,0 7.53660658,0 L10.2389484,0 C14.4006908,0 17.7741935,3.40584655 17.7741935,7.60442139 L17.7741935,9.81224527 C17.7741935,14.0108201 14.4006908,17.4166667 10.2389484,17.4166667" id="path-35"></path>
        <path d="M10.2389484,17.4166667 L7.53660658,17.4166667 C3.37350273,17.4166667 0,14.0108201 0,9.81224527 L0,7.60442139 C0,3.40584655 3.37350273,0 7.53660658,0 L10.2389484,0 C14.4006908,0 17.7741935,3.40584655 17.7741935,7.60442139 L17.7741935,9.81224527 C17.7741935,14.0108201 14.4006908,17.4166667 10.2389484,17.4166667" id="path-37"></path>
        <path d="M10.2389484,17.4166667 L7.53660658,17.4166667 C3.37350273,17.4166667 0,14.0108201 0,9.81224527 L0,7.60442139 C0,3.40584655 3.37350273,0 7.53660658,0 L10.2389484,0 C14.4006908,0 17.7741935,3.40584655 17.7741935,7.60442139 L17.7741935,9.81224527 C17.7741935,14.0108201 14.4006908,17.4166667 10.2389484,17.4166667" id="path-39"></path>
        <path d="M10.2389484,17.4166667 L7.53660658,17.4166667 C3.37350273,17.4166667 0,14.0108201 0,9.81224527 L0,7.60442139 C0,3.40584655 3.37350273,0 7.53660658,0 L10.2389484,0 C14.4006908,0 17.7741935,3.40584655 17.7741935,7.60442139 L17.7741935,9.81224527 C17.7741935,14.0108201 14.4006908,17.4166667 10.2389484,17.4166667" id="path-41"></path>
        <path d="M10.2389484,17.4166667 L7.53660658,17.4166667 C3.37350273,17.4166667 0,14.0108201 0,9.81224527 L0,7.60442139 C0,3.40584655 3.37350273,0 7.53660658,0 L10.2389484,0 C14.4006908,0 17.7741935,3.40584655 17.7741935,7.60442139 L17.7741935,9.81224527 C17.7741935,14.0108201 14.4006908,17.4166667 10.2389484,17.4166667" id="path-43"></path>
        <path d="M10.2389484,17.4166667 L7.53660658,17.4166667 C3.37350273,17.4166667 0,14.0108201 0,9.81224527 L0,7.60442139 C0,3.40584655 3.37350273,0 7.53660658,0 L10.2389484,0 C14.4006908,0 17.7741935,3.40584655 17.7741935,7.60442139 L17.7741935,9.81224527 C17.7741935,14.0108201 14.4006908,17.4166667 10.2389484,17.4166667" id="path-45"></path>
        <path d="M10.2389484,17.4166667 L7.53660658,17.4166667 C3.37350273,17.4166667 0,14.0108201 0,9.81224527 L0,7.60442139 C0,3.40584655 3.37350273,0 7.53660658,0 L10.2389484,0 C14.4006908,0 17.7741935,3.40584655 17.7741935,7.60442139 L17.7741935,9.81224527 C17.7741935,14.0108201 14.4006908,17.4166667 10.2389484,17.4166667" id="path-47"></path>
        <path d="M10.2389484,17.4166667 L7.53660658,17.4166667 C3.37350273,17.4166667 0,14.0108201 0,9.81224527 L0,7.60442139 C0,3.40584655 3.37350273,0 7.53660658,0 L10.2389484,0 C14.4006908,0 17.7741935,3.40584655 17.7741935,7.60442139 L17.7741935,9.81224527 C17.7741935,14.0108201 14.4006908,17.4166667 10.2389484,17.4166667" id="path-49"></path>
        <path d="M10.2389484,17.4166667 L7.53660658,17.4166667 C3.37350273,17.4166667 0,14.0108201 0,9.81224527 L0,7.60442139 C0,3.40584655 3.37350273,0 7.53660658,0 L10.2389484,0 C14.4006908,0 17.7741935,3.40584655 17.7741935,7.60442139 L17.7741935,9.81224527 C17.7741935,14.0108201 14.4006908,17.4166667 10.2389484,17.4166667" id="path-51"></path>
        <path d="M10.2389484,17.4166667 L7.53660658,17.4166667 C3.37350273,17.4166667 0,14.0108201 0,9.81224527 L0,7.60442139 C0,3.40584655 3.37350273,0 7.53660658,0 L10.2389484,0 C14.4006908,0 17.7741935,3.40584655 17.7741935,7.60442139 L17.7741935,9.81224527 C17.7741935,14.0108201 14.4006908,17.4166667 10.2389484,17.4166667" id="path-53"></path>
        <rect id="path-55" x="21" y="0" width="376" height="564"></rect>
    </defs>
    <g id="0215_官網字級調整" stroke="none" stroke-width="1" fill="none" fill-rule="evenodd">
        <g id="Mobile_375" transform="translate(0.000000, -364.000000)">
            <g id="Group-43" transform="translate(-21.000000, 355.000000)">
                <g id="Group-60" transform="translate(248.500000, 96.660011) rotate(-13.000000) translate(-248.500000, -96.660011) translate(201.000000, 59.856757)">
                    <g id="Group-2" transform="translate(33.831935, 39.774572) rotate(-12.000000) translate(-33.831935, -39.774572) translate(5.307278, 11.249915)">
                        <mask id="mask-2" fill="white">
                            <use xlink:href="#path-1"></use>
                        </mask>
                        <use id="Mask-Copy-2" stroke="#FF5036" xlink:href="#path-1"></use>
                    </g>
                    <g id="Group-5-Copy-2" transform="translate(38.586045, 38.586045) rotate(-12.000000) translate(-38.586045, -38.586045) translate(10.061387, 10.061387)">
                        <g id="Group-2" transform="translate(-0.000000, 0.000000)">
                            <mask id="mask-4" fill="white">
                                <use xlink:href="#path-3"></use>
                            </mask>
                            <use id="Mask-Copy-2" stroke="#FF5036" xlink:href="#path-3"></use>
                        </g>
                    </g>
                    <g id="Group-5-Copy-3" transform="translate(38.586045, 38.586045) rotate(-12.000000) translate(-38.586045, -38.586045) translate(10.061387, 10.061387)">
                        <g id="Group-2" transform="translate(-0.000000, 0.000000)">
                            <mask id="mask-6" fill="white">
                                <use xlink:href="#path-5"></use>
                            </mask>
                            <use id="Mask-Copy-2" stroke="#FF5036" xlink:href="#path-5"></use>
                        </g>
                    </g>
                    <g id="Group-5-Copy-4" transform="translate(38.586045, 38.586045) rotate(-12.000000) translate(-38.586045, -38.586045) translate(10.061387, 10.061387)">
                        <g id="Group-2" transform="translate(-0.000000, 0.000000)">
                            <mask id="mask-8" fill="white">
                                <use xlink:href="#path-7"></use>
                            </mask>
                            <use id="Mask-Copy-2" stroke="#FF5036" xlink:href="#path-7"></use>
                        </g>
                    </g>
                    <g id="Group-2" transform="translate(43.340154, 37.397517) rotate(-12.000000) translate(-43.340154, -37.397517) translate(14.815497, 8.872860)">
                        <mask id="mask-10" fill="white">
                            <use xlink:href="#path-9"></use>
                        </mask>
                        <use id="Mask-Copy-2" stroke="#FF5036" xlink:href="#path-9"></use>
                    </g>
                    <g id="Group-2" transform="translate(49.282791, 36.208990) rotate(-12.000000) translate(-49.282791, -36.208990) translate(20.758134, 7.684332)">
                        <mask id="mask-12" fill="white">
                            <use xlink:href="#path-11"></use>
                        </mask>
                        <use id="Mask-Copy-2" stroke="#FF5036" xlink:href="#path-11"></use>
                    </g>
                    <g id="Group-5-Copy-8" transform="translate(55.225428, 35.020462) rotate(-12.000000) translate(-55.225428, -35.020462) translate(26.700771, 6.495805)">
                        <g id="Group-2" transform="translate(0.000000, -0.000000)">
                            <mask id="mask-14" fill="white">
                                <use xlink:href="#path-13"></use>
                            </mask>
                            <use id="Mask-Copy-2" stroke="#EF4B35" xlink:href="#path-13"></use>
                        </g>
                    </g>
                    <g id="Group-2" transform="translate(61.168065, 33.831935) rotate(-12.000000) translate(-61.168065, -33.831935) translate(32.643408, 5.307278)">
                        <mask id="mask-16" fill="white">
                            <use xlink:href="#path-15"></use>
                        </mask>
                        <use id="Mask-Copy-2" stroke="#EF4B35" xlink:href="#path-15"></use>
                    </g>
                    <g id="Group-5-Copy-5" transform="translate(38.586045, 38.586045) rotate(-12.000000) translate(-38.586045, -38.586045) translate(10.061387, 10.061387)">
                        <g id="Group-2" transform="translate(-0.000000, 0.000000)">
                            <mask id="mask-18" fill="white">
                                <use xlink:href="#path-17"></use>
                            </mask>
                            <use id="Mask-Copy-2" stroke="#EF4B35" xlink:href="#path-17"></use>
                        </g>
                    </g>
                </g>
                <g id="Group-6-Copy" transform="translate(0.000000, 225.845913)" stroke="#FF5036">
                    <path d="M39.9477369,120.701751 L30.809087,124.056143 C29.9823788,124.359591 29.0681039,123.934443 28.768913,123.105455 L0.0952356979,43.6573641 C-0.203955135,42.8283759 0.225437671,41.9100277 1.05214583,41.6065799 L10.1907957,38.2521876 C11.018572,37.9483477 11.9317789,38.3738873 12.2309697,39.2028755 L40.9046471,118.650966 C41.2038379,119.479955 40.7755132,120.397911 39.9477369,120.701751" id="Fill-5"></path>
                    <path d="M40.9477369,116.701751 L31.809087,120.056143 C30.9823788,120.359591 30.0681039,119.934443 29.768913,119.105455 L1.0952357,39.6573641 C0.796044865,38.8283759 1.22543767,37.9100277 2.05214583,37.6065799 L11.1907957,34.2521876 C12.018572,33.9483477 12.9317789,34.3738873 13.2309697,35.2028755 L41.9046471,114.650966 C42.2038379,115.479955 41.7755132,116.397911 40.9477369,116.701751" id="Fill-5-Copy"></path>
                    <path d="M82.7823641,109.375906 C83.507465,109.375906 84.0933823,108.785201 84.0933823,108.054176 L84.0933823,51.2152292 C84.0933823,29.3659344 67.7460626,20.6309693 50.5872136,20.6309693 C43.4798785,20.6309693 39.1416204,22.2378679 37.0785626,23.2766939 C36.1873396,23.7259466 35.6249936,24.6402945 35.6249936,25.645172 L35.6249936,33.9331477 C35.6249936,34.8904972 36.5981553,35.532125 37.4646844,35.1417165 C39.6972317,34.1391023 44.0018164,32.7325002 50.5872136,32.7325002 C62.3504594,32.7325002 71.5870766,39.1646212 71.5870766,56.2396165 L71.5870766,108.054176 C71.5870766,108.785201 72.1741165,109.375906 72.8980949,109.375906 L82.7823641,109.375906 Z" id="Fill-9" transform="translate(59.859188, 65.003438) rotate(-20.000000) translate(-59.859188, -65.003438) "></path>
                    <path d="M84.8303242,105.96264 C85.555425,105.96264 86.1413424,105.371935 86.1413424,104.640909 L86.1413424,47.8019624 C86.1413424,25.9526676 69.7940227,17.2177025 52.6351737,17.2177025 C45.5278386,17.2177025 41.1895805,18.8246011 39.1265227,19.8634271 C38.2352997,20.3126798 37.6729537,21.2270277 37.6729537,22.2319052 L37.6729537,30.5198809 C37.6729537,31.4772303 38.6461154,32.1188582 39.5126445,31.7284497 C41.7451918,30.7258355 46.0497765,29.3192334 52.6351737,29.3192334 C64.3984194,29.3192334 73.6350367,35.7513544 73.6350367,52.8263497 L73.6350367,104.640909 C73.6350367,105.371935 74.2220766,105.96264 74.9460549,105.96264 L84.8303242,105.96264 Z" id="Fill-9-Copy" transform="translate(61.907148, 61.590171) rotate(-20.000000) translate(-61.907148, -61.590171) "></path>
                    <path d="M43.9477369,112.701751 L34.809087,116.056143 C33.9823788,116.359591 33.0681039,115.934443 32.768913,115.105455 L4.0952357,35.6573641 C3.79604486,34.8283759 4.22543767,33.9100277 5.05214583,33.6065799 L14.1907957,30.2521876 C15.018572,29.9483477 15.9317789,30.3738873 16.2309697,31.2028755 L44.9046471,110.650966 C45.2038379,111.479955 44.7755132,112.397911 43.9477369,112.701751" id="Fill-5-Copy-2"></path>
                    <path d="M86.8782843,101.184066 C87.6033851,101.184066 88.1893025,100.593361 88.1893025,99.8623354 L88.1893025,43.0233889 C88.1893025,21.1740941 71.8419828,12.439129 54.6831338,12.439129 C47.5757987,12.439129 43.2375406,14.0460276 41.1744828,15.0848536 C40.2832598,15.5341062 39.7209138,16.4484542 39.7209138,17.4533316 L39.7209138,25.7413073 C39.7209138,26.6986568 40.6940754,27.3402846 41.5606046,26.9498762 C43.7931519,25.947262 48.0977366,24.5406599 54.6831338,24.5406599 C66.4463795,24.5406599 75.6829968,30.9727808 75.6829968,48.0477761 L75.6829968,99.8623354 C75.6829968,100.593361 76.2700366,101.184066 76.994015,101.184066 L86.8782843,101.184066 Z" id="Fill-9-Copy-2" transform="translate(63.955108, 56.811598) rotate(-20.000000) translate(-63.955108, -56.811598) "></path>
                    <path d="M44.9477369,109.701751 L35.809087,113.056143 C34.9823788,113.359591 34.0681039,112.934443 33.768913,112.105455 L5.0952357,32.6573641 C4.79604486,31.8283759 5.22543767,30.9100277 6.05214583,30.6065799 L15.1907957,27.2521876 C16.018572,26.9483477 16.9317789,27.3738873 17.2309697,28.2028755 L45.9046471,107.650966 C46.2038379,108.479955 45.7755132,109.397911 44.9477369,109.701751" id="Fill-5-Copy-3"></path>
                    <path d="M88.243591,97.7707992 C88.9686919,97.7707992 89.5546092,97.1800943 89.5546092,96.4490686 L89.5546092,39.6101221 C89.5546092,17.7608273 73.2072895,9.02586215 56.0484405,9.02586215 C48.9411054,9.02586215 44.6028473,10.6327608 42.5397895,11.6715868 C41.6485665,12.1208394 41.0862205,13.0351874 41.0862205,14.0400648 L41.0862205,22.3280405 C41.0862205,23.28539 42.0593822,23.9270178 42.9259113,23.5366094 C45.1584586,22.5339952 49.4630433,21.127393 56.0484405,21.127393 C67.8116863,21.127393 77.0483035,27.559514 77.0483035,44.6345093 L77.0483035,96.4490686 C77.0483035,97.1800943 77.6353434,97.7707992 78.3593218,97.7707992 L88.243591,97.7707992 Z" id="Fill-9-Copy-3" transform="translate(65.320415, 53.398331) rotate(-20.000000) translate(-65.320415, -53.398331) "></path>
                    <path d="M46.9477369,104.701751 L37.809087,108.056143 C36.9823788,108.359591 36.0681039,107.934443 35.768913,107.105455 L7.0952357,27.6573641 C6.79604486,26.8283759 7.22543767,25.9100277 8.05214583,25.6065799 L17.1907957,22.2521876 C18.018572,21.9483477 18.9317789,22.3738873 19.2309697,23.2028755 L47.9046471,102.650966 C48.2038379,103.479955 47.7755132,104.397911 46.9477369,104.701751" id="Fill-5-Copy-4"></path>
                    <path d="M90.9742045,94.3575324 C91.6993053,94.3575324 92.2852227,93.7668275 92.2852227,93.0358017 L92.2852227,36.1968553 C92.2852227,14.3475605 75.937903,5.61259534 58.779054,5.61259534 C51.6717189,5.61259534 47.3334608,7.21949396 45.270403,8.25831997 C44.37918,8.70757262 43.816834,9.62192057 43.816834,10.626798 L43.816834,18.9147737 C43.816834,19.8721232 44.7899956,20.513751 45.6565248,20.1233426 C47.8890721,19.1207283 52.1936568,17.7141262 58.779054,17.7141262 C70.5422997,17.7141262 79.778917,24.1462472 79.778917,41.2212425 L79.778917,93.0358017 C79.778917,93.7668275 80.3659568,94.3575324 81.0899352,94.3575324 L90.9742045,94.3575324 Z" id="Fill-9-Copy-4" transform="translate(68.051028, 49.985064) rotate(-20.000000) translate(-68.051028, -49.985064) "></path>
                </g>
                <g id="Group-108" transform="translate(220.941224, 455.968731)">
                    <g id="Group-41" transform="translate(115.090251, 19.000000)">
                        <g id="Group-5-Copy" transform="translate(10.264268, 11.952596) rotate(-10.000000) translate(-10.264268, -11.952596) translate(1.377171, 3.244262)">
                            <g id="Group-2" transform="translate(0.000000, -0.000000)">
                                <mask id="mask-20" fill="white">
                                    <use xlink:href="#path-19"></use>
                                </mask>
                                <use id="Mask-Copy-2" stroke="#FF5036" xlink:href="#path-19"></use>
                            </g>
                        </g>
                        <g id="Group-5-Copy-2" transform="translate(11.199752, 11.035929) rotate(-10.000000) translate(-11.199752, -11.035929) translate(2.312655, 2.327596)">
                            <g id="Group-2" transform="translate(0.000000, -0.000000)">
                                <mask id="mask-22" fill="white">
                                    <use xlink:href="#path-21"></use>
                                </mask>
                                <use id="Mask-Copy-2" stroke="#FF5036" xlink:href="#path-21"></use>
                            </g>
                        </g>
                        <g id="Group-5-Copy-3" transform="translate(11.199752, 11.035929) rotate(-10.000000) translate(-11.199752, -11.035929) translate(2.312655, 2.327596)">
                            <g id="Group-2" transform="translate(0.000000, -0.000000)">
                                <mask id="mask-24" fill="white">
                                    <use xlink:href="#path-23"></use>
                                </mask>
                                <use id="Mask-Copy-2" stroke="#FF5036" xlink:href="#path-23"></use>
                            </g>
                        </g>
                        <g id="Group-5-Copy-4" transform="translate(11.199752, 11.035929) rotate(-10.000000) translate(-11.199752, -11.035929) translate(2.312655, 2.327596)">
                            <g id="Group-2" transform="translate(0.000000, -0.000000)">
                                <mask id="mask-26" fill="white">
                                    <use xlink:href="#path-25"></use>
                                </mask>
                                <use id="Mask-Copy-2" stroke="#FF5036" xlink:href="#path-25"></use>
                            </g>
                        </g>
                        <g id="Group-5-Copy-6" transform="translate(13.070720, 11.035929) rotate(-10.000000) translate(-13.070720, -11.035929) translate(4.183623, 2.327596)">
                            <g id="Group-2" transform="translate(0.000000, -0.000000)">
                                <mask id="mask-28" fill="white">
                                    <use xlink:href="#path-27"></use>
                                </mask>
                                <use id="Mask-Copy-2" stroke="#FF5036" xlink:href="#path-27"></use>
                            </g>
                        </g>
                        <g id="Group-5-Copy-7" transform="translate(14.941687, 11.035929) rotate(-10.000000) translate(-14.941687, -11.035929) translate(6.054591, 2.327596)">
                            <g id="Group-2" transform="translate(0.000000, 0.000000)">
                                <mask id="mask-30" fill="white">
                                    <use xlink:href="#path-29"></use>
                                </mask>
                                <use id="Mask-Copy-2" stroke="#FF5036" xlink:href="#path-29"></use>
                            </g>
                        </g>
                        <g id="Group-5-Copy-8" transform="translate(16.812655, 10.119262) rotate(-10.000000) translate(-16.812655, -10.119262) translate(7.925558, 1.410929)">
                            <g id="Group-2" transform="translate(0.000000, -0.000000)">
                                <mask id="mask-32" fill="white">
                                    <use xlink:href="#path-31"></use>
                                </mask>
                                <use id="Mask-Copy-2" stroke="#FF5036" xlink:href="#path-31"></use>
                            </g>
                        </g>
                        <g id="Group-2" transform="translate(18.683623, 10.119262) rotate(-10.000000) translate(-18.683623, -10.119262) translate(9.796526, 1.410929)">
                            <mask id="mask-34" fill="white">
                                <use xlink:href="#path-33"></use>
                            </mask>
                            <use id="Mask-Copy-2" stroke="#FF5036" xlink:href="#path-33"></use>
                        </g>
                        <g id="Group-5-Copy-5" transform="translate(11.199752, 11.035929) rotate(-10.000000) translate(-11.199752, -11.035929) translate(2.312655, 2.327596)">
                            <g id="Group-2" transform="translate(0.000000, -0.000000)">
                                <mask id="mask-36" fill="white">
                                    <use xlink:href="#path-35"></use>
                                </mask>
                                <use id="Mask-Copy-2" stroke="#FF5036" xlink:href="#path-35"></use>
                            </g>
                        </g>
                    </g>
                    <g id="Group-23" transform="translate(0.000000, 9.976321)" stroke="#FF5036">
                        <g id="Group-7" transform="translate(38.660732, 42.208116) rotate(-345.000000) translate(-38.660732, -42.208116) translate(8.154542, 6.685168)">
                            <path d="M1.03674786,0.0568863021 C0.463831592,0.0568863021 0,0.529404106 0,1.11416752 L0,46.5799754 C0,64.0577029 12.9172221,71.0458973 26.4747623,71.0458973 C31.7800025,71.0458973 35.3886655,69.7098125 37.1198304,68.8806433 C37.8417404,68.5348544 38.2967033,67.788059 38.2967033,66.9733732 L38.2967033,60.4042894 C38.2967033,59.6393899 37.5277894,59.1261378 36.8431278,59.4375289 C35.0791488,60.2404471 31.6780127,61.3656188 26.4747623,61.3656188 C17.1803931,61.3656188 9.88236221,56.2204249 9.88236221,42.5617637 L9.88236221,1.11416752 C9.88236221,0.529404106 9.41764375,0.0568863021 8.84650121,0.0568863021 L1.03674786,0.0568863021 Z" id="Fill-1"></path>
                            <path d="M59.7436374,69.1208791 L52.0063949,69.1208791 C51.306462,69.1208791 50.7376535,68.5577251 50.7376535,67.86275 L50.7376535,1.25812913 C50.7376535,0.563154023 51.306462,0 52.0063949,0 L59.7436374,0 C60.4444746,0 61.0123788,0.563154023 61.0123788,1.25812913 L61.0123788,67.86275 C61.0123788,68.5577251 60.4444746,69.1208791 59.7436374,69.1208791" id="Fill-3"></path>
                        </g>
                        <g id="Group-7-Copy" transform="translate(41.462930, 43.142182) rotate(-345.000000) translate(-41.462930, -43.142182) translate(10.956740, 7.619234)">
                            <path d="M1.03674786,0.0568863021 C0.463831592,0.0568863021 0,0.529404106 0,1.11416752 L0,46.5799754 C0,64.0577029 12.9172221,71.0458973 26.4747623,71.0458973 C31.7800025,71.0458973 35.3886655,69.7098125 37.1198304,68.8806433 C37.8417404,68.5348544 38.2967033,67.788059 38.2967033,66.9733732 L38.2967033,60.4042894 C38.2967033,59.6393899 37.5277894,59.1261378 36.8431278,59.4375289 C35.0791488,60.2404471 31.6780127,61.3656188 26.4747623,61.3656188 C17.1803931,61.3656188 9.88236221,56.2204249 9.88236221,42.5617637 L9.88236221,1.11416752 C9.88236221,0.529404106 9.41764375,0.0568863021 8.84650121,0.0568863021 L1.03674786,0.0568863021 Z" id="Fill-1"></path>
                            <path d="M59.7436374,69.1208791 L52.0063949,69.1208791 C51.306462,69.1208791 50.7376535,68.5577251 50.7376535,67.86275 L50.7376535,1.25812913 C50.7376535,0.563154023 51.306462,0 52.0063949,0 L59.7436374,0 C60.4444746,0 61.0123788,0.563154023 61.0123788,1.25812913 L61.0123788,67.86275 C61.0123788,68.5577251 60.4444746,69.1208791 59.7436374,69.1208791" id="Fill-3"></path>
                        </g>
                        <path d="M15.3468904,4.78132629 C14.7711469,4.78301345 14.3036307,5.25583323 14.3019035,5.83927996 L14.1674538,51.202715 C14.1159822,68.6410888 27.0763055,75.5755089 40.7007485,75.5357552 C46.0321685,75.5199608 49.6625857,74.1762573 51.4047427,73.3438571 C52.1312365,72.9967209 52.5906504,72.2502673 52.5930568,71.4374158 L52.6124653,64.8831233 C52.6147197,64.1199461 51.8435274,63.610114 51.1545675,63.9228201 C49.3795121,64.7291251 45.9582689,65.8617791 40.7293419,65.8771019 C31.3891076,65.9044725 24.0702607,60.7923554 24.1106053,47.1644487 L24.2330324,5.81017785 C24.2347596,5.22673111 23.7691436,4.75664578 23.1951827,4.75832321 L15.3468904,4.78132629 Z" id="Fill-1" transform="translate(33.389960, 40.147039) rotate(-345.000000) translate(-33.389960, -40.147039) "></path>
                        <path d="M71.9184724,83.4574107 L64.2706757,83.4798272 C63.5788343,83.4818491 63.0182713,82.9194412 63.0203264,82.2233537 L63.217827,15.5121212 C63.2198877,14.8160337 63.7837904,14.2503307 64.4756318,14.2483033 L72.1234285,14.2258868 C72.8161637,14.2238623 73.3758329,14.7862728 73.3737778,15.4823603 L73.1762772,82.1935928 C73.1742165,82.8896803 72.6112076,83.4553807 71.9184724,83.4574107" id="Fill-3" transform="translate(68.197052, 48.852857) rotate(-345.000000) translate(-68.197052, -48.852857) "></path>
                        <path d="M17.2150221,5.71539224 C16.6392787,5.71707939 16.1717625,6.18989917 16.1700352,6.77334589 L16.0355856,52.1367805 C15.9841139,69.5751541 28.9444373,76.5095741 42.5688803,76.4698205 C47.9003003,76.454026 51.5307175,75.1103226 53.2728745,74.2779224 C53.9993682,73.9307862 54.4587821,73.1843325 54.4611885,72.3714811 L54.4805971,65.8171887 C54.4828515,65.0540114 53.7116592,64.5441793 53.0226993,64.8568855 C51.2476439,65.6631904 47.8264006,66.7958445 42.5974737,66.8111673 C33.2572393,66.8385378 25.9383924,61.7264208 25.9787371,48.0985142 L26.1011641,6.74424378 C26.1028914,6.16079706 25.6372754,5.69071173 25.0633144,5.69238916 L17.2150221,5.71539224 Z" id="Fill-1" transform="translate(35.258091, 41.081105) rotate(-345.000000) translate(-35.258091, -41.081105) "></path>
                        <path d="M74.7206702,84.3914766 L67.0728735,84.4138931 C66.3810321,84.415915 65.8204691,83.8535071 65.8225242,83.1574196 L66.0200248,16.4461871 C66.0220855,15.7500996 66.5859882,15.1843966 67.2778296,15.1823692 L74.9256263,15.1599527 C75.6183615,15.1579282 76.1780307,15.7203387 76.1759756,16.4164262 L75.978475,83.1276587 C75.9764143,83.8237462 75.4134054,84.3894466 74.7206702,84.3914766" id="Fill-3" transform="translate(70.999250, 49.786923) rotate(-345.000000) translate(-70.999250, -49.786923) "></path>
                    </g>
                    <g id="Group-41-Copy" transform="translate(98.090251, 0.000000)">
                        <g id="Group-5-Copy" transform="translate(10.264268, 11.952596) rotate(-10.000000) translate(-10.264268, -11.952596) translate(1.377171, 3.244262)">
                            <g id="Group-2" transform="translate(-0.000000, 0.000000)">
                                <mask id="mask-38" fill="white">
                                    <use xlink:href="#path-37"></use>
                                </mask>
                                <use id="Mask-Copy-2" stroke="#FF5036" xlink:href="#path-37"></use>
                            </g>
                        </g>
                        <g id="Group-5-Copy-2" transform="translate(11.199752, 11.035929) rotate(-10.000000) translate(-11.199752, -11.035929) translate(2.312655, 2.327596)">
                            <g id="Group-2" transform="translate(-0.000000, -0.000000)">
                                <mask id="mask-40" fill="white">
                                    <use xlink:href="#path-39"></use>
                                </mask>
                                <use id="Mask-Copy-2" stroke="#FF5036" xlink:href="#path-39"></use>
                            </g>
                        </g>
                        <g id="Group-5-Copy-3" transform="translate(11.199752, 11.035929) rotate(-10.000000) translate(-11.199752, -11.035929) translate(2.312655, 2.327596)">
                            <g id="Group-2" transform="translate(-0.000000, -0.000000)">
                                <mask id="mask-42" fill="white">
                                    <use xlink:href="#path-41"></use>
                                </mask>
                                <use id="Mask-Copy-2" stroke="#FF5036" xlink:href="#path-41"></use>
                            </g>
                        </g>
                        <g id="Group-5-Copy-4" transform="translate(11.199752, 11.035929) rotate(-10.000000) translate(-11.199752, -11.035929) translate(2.312655, 2.327596)">
                            <g id="Group-2" transform="translate(-0.000000, -0.000000)">
                                <mask id="mask-44" fill="white">
                                    <use xlink:href="#path-43"></use>
                                </mask>
                                <use id="Mask-Copy-2" stroke="#FF5036" xlink:href="#path-43"></use>
                            </g>
                        </g>
                        <g id="Group-5-Copy-6" transform="translate(13.070720, 11.035929) rotate(-10.000000) translate(-13.070720, -11.035929) translate(4.183623, 2.327596)">
                            <g id="Group-2" transform="translate(-0.000000, -0.000000)">
                                <mask id="mask-46" fill="white">
                                    <use xlink:href="#path-45"></use>
                                </mask>
                                <use id="Mask-Copy-2" stroke="#FF5036" xlink:href="#path-45"></use>
                            </g>
                        </g>
                        <g id="Group-5-Copy-7" transform="translate(14.941687, 11.035929) rotate(-10.000000) translate(-14.941687, -11.035929) translate(6.054591, 2.327596)">
                            <g id="Group-2" transform="translate(-0.000000, -0.000000)">
                                <mask id="mask-48" fill="white">
                                    <use xlink:href="#path-47"></use>
                                </mask>
                                <use id="Mask-Copy-2" stroke="#FF5036" xlink:href="#path-47"></use>
                            </g>
                        </g>
                        <g id="Group-5-Copy-8" transform="translate(16.812655, 10.119262) rotate(-10.000000) translate(-16.812655, -10.119262) translate(7.925558, 1.410929)">
                            <g id="Group-2" transform="translate(0.000000, -0.000000)">
                                <mask id="mask-50" fill="white">
                                    <use xlink:href="#path-49"></use>
                                </mask>
                                <use id="Mask-Copy-2" stroke="#FF5036" xlink:href="#path-49"></use>
                            </g>
                        </g>
                        <g id="Group-5-Copy-9" transform="translate(18.683623, 10.119262) rotate(-10.000000) translate(-18.683623, -10.119262) translate(9.796526, 1.410929)">
                            <g id="Group-2" transform="translate(0.000000, 0.000000)">
                                <mask id="mask-52" fill="white">
                                    <use xlink:href="#path-51"></use>
                                </mask>
                                <use id="Mask-Copy-2" stroke="#FF5036" xlink:href="#path-51"></use>
                            </g>
                        </g>
                        <g id="Group-2" transform="translate(11.199752, 11.035929) rotate(-10.000000) translate(-11.199752, -11.035929) translate(2.312655, 2.327596)">
                            <mask id="mask-54" fill="white">
                                <use xlink:href="#path-53"></use>
                            </mask>
                            <use id="Mask-Copy-2" stroke="#FF5036" xlink:href="#path-53"></use>
                        </g>
                    </g>
                </g>
                <g id="Group-35" transform="translate(335.000000, 6.000000)" stroke="#FF5036">
                    <path d="M6.62300735,25.5896617 L2.07383544,4.11029568 C1.95940391,3.56999589 2.30463836,3.03923128 2.84493815,2.92479975 C3.11057279,2.86854029 3.38766508,2.92271839 3.61254739,3.07488552 L21.8316014,15.4028509 C22.2890111,15.7123582 22.4089097,16.3340673 22.0994023,16.7914771 C21.9131584,17.0667202 21.6023433,17.2314555 21.27001,17.2310637 L12.8079687,17.2210886 C12.4059786,17.2206147 12.0427821,17.4608983 11.8859908,17.8310506 L8.52210574,25.7725023 C8.3066941,26.2810456 7.71981267,26.5186757 7.21126939,26.3032641 C6.91036225,26.1758042 6.69071696,25.9093593 6.62300735,25.5896617 Z" id="Path-7-Copy" transform="translate(13.049802, 15.193408) rotate(-7.000000) translate(-13.049802, -15.193408) "></path>
                    <path d="M10.4676659,25.2028461 L5.91849401,3.72348016 C5.80406248,3.18318036 6.14929692,2.65241575 6.68959672,2.53798422 C6.95523136,2.48172476 7.23232365,2.53590286 7.45720596,2.68807 L25.67626,15.0160354 C26.1336697,15.3255427 26.2535683,15.9472518 25.9440609,16.4046615 C25.757817,16.6799047 25.4470019,16.84464 25.1146686,16.8442482 L16.6526273,16.8342731 C16.2506372,16.8337992 15.8874406,17.0740827 15.7306494,17.4442351 L12.3667643,25.3856868 C12.1513527,25.8942301 11.5644712,26.1318602 11.055928,25.9164486 C10.7550208,25.7889886 10.5353755,25.5225437 10.4676659,25.2028461 Z" id="Path-7-Copy-2" transform="translate(16.894461, 14.806592) rotate(-7.000000) translate(-16.894461, -14.806592) "></path>
                </g>
                <mask id="mask-56" fill="white">
                    <use xlink:href="#path-55"></use>
                </mask>
                <g id="Rectangle"></g>
            </g>
        </g>
    </g>
</svg>