<?xml version="1.0" encoding="UTF-8"?>
<svg width="311px" height="234px" viewBox="0 0 311 234" version="1.1" xmlns="http://www.w3.org/2000/svg" xmlns:xlink="http://www.w3.org/1999/xlink">
    <title>Group 103</title>
    <g id="0215_官網字級調整" stroke="none" stroke-width="1" fill="none" fill-rule="evenodd">
        <g id="Mobile_375" transform="translate(-32.000000, -6724.000000)">
            <g id="Group-103" transform="translate(32.000000, 6724.116241)">
                <g id="Group-121" transform="translate(5.457338, 42.077536)" stroke="#FF5036" stroke-width="0.96">
                    <path d="M157.115957,153.987613 C233.767717,133.492467 288.185869,88.1262385 278.662302,52.6593061 C269.138735,17.1923737 199.27983,5.05534279 122.62807,25.5504889 C45.9763105,46.045635 -8.44184163,91.4118632 1.0817254,126.878796 C10.6052924,162.345728 80.4641975,174.482759 157.115957,153.987613 Z" id="Oval"></path>
                    <path d="M174.826688,148.739464 C246.424737,112.425891 290.75347,56.1982762 273.837687,23.1515712 C256.921903,-9.89513366 185.167264,-7.24681386 113.569216,29.0667591 C41.9711679,65.380332 -2.35756601,121.607947 14.5582178,154.654652 C31.4740016,187.701357 103.22864,185.053037 174.826688,148.739464 Z" id="Oval-Copy-4" opacity="0.312541417"></path>
                </g>
                <path d="M218.310279,199.905578 C208.722048,199.905578 200.948805,191.892989 200.948805,182.00741 L200.948805,176.815947 C200.948805,166.930368 208.722048,158.917779 218.310279,158.917779 L224.537497,158.917779 C234.125728,158.917779 241.901024,166.930368 241.901024,176.815947 L241.901024,182.00741 C241.901024,191.892989 234.125728,199.905578 224.537497,199.905578 L218.310279,199.905578 Z" id="Fill-25-Copy-9" fill="#FF5036"></path>
                <path d="M268.851554,92.8793145 C261.018915,92.8793145 254.668942,86.3338195 254.668942,78.2582763 L254.668942,74.0173626 C254.668942,65.9418194 261.018915,59.3963244 268.851554,59.3963244 L273.938577,59.3963244 C281.771217,59.3963244 288.122867,65.9418194 288.122867,74.0173626 L288.122867,78.2582763 C288.122867,86.3338195 281.771217,92.8793145 273.938577,92.8793145 L268.851554,92.8793145 Z" id="Fill-25-Copy-14" fill="#FF5036"></path>
                <g id="Group-127" transform="translate(206.000000, 165.883759)">
                    <g id="Manager" transform="translate(9.036000, 55.116000)" fill="#242628" fill-rule="nonzero">
                        <path d="M0,9.884 L1.386,9.884 L1.862,3.654 C1.904,3.052 1.89,2.17 1.89,2.17 L1.918,2.17 C1.918,2.17 2.226,3.122 2.45,3.654 L4.41,8.106 L5.642,8.106 L7.616,3.654 C7.854,3.108 8.148,2.198 8.148,2.198 L8.176,2.198 C8.176,2.198 8.148,3.052 8.19,3.654 L8.68,9.884 L10.052,9.884 L9.254,0 L7.798,0 L5.53,5.348 C5.306,5.894 5.04,6.678 5.04,6.678 L5.012,6.678 C5.012,6.678 4.746,5.894 4.522,5.348 L2.254,0 L0.798,0 L0,9.884 Z" id="Path"></path>
                        <path d="M11.578,7.896 C11.578,9.31 12.768,10.052 13.986,10.052 C15.68,10.052 16.254,8.652 16.254,8.652 L16.282,8.652 C16.282,8.652 16.254,8.89 16.254,9.212 L16.254,9.884 L17.514,9.884 L17.514,5.404 C17.514,3.612 16.506,2.632 14.714,2.632 C13.09,2.632 12.068,3.472 12.068,3.472 L12.628,4.466 C12.628,4.466 13.51,3.78 14.602,3.78 C15.498,3.78 16.156,4.172 16.156,5.334 L16.156,5.46 L15.848,5.46 C14.658,5.46 11.578,5.558 11.578,7.896 Z M12.95,7.826 C12.95,6.552 14.798,6.482 15.82,6.482 L16.17,6.482 L16.17,6.706 C16.17,7.756 15.428,8.96 14.28,8.96 C13.398,8.96 12.95,8.4 12.95,7.826 Z" id="Shape"></path>
                        <path d="M19.544,9.884 L20.902,9.884 L20.902,6.566 C20.902,6.216 20.93,5.894 21.014,5.614 C21.308,4.592 22.176,3.878 23.254,3.878 C24.388,3.878 24.598,4.662 24.598,5.656 L24.598,9.884 L25.956,9.884 L25.956,5.348 C25.956,3.542 25.186,2.632 23.52,2.632 C21.98,2.632 21.14,3.64 20.86,4.256 L20.832,4.256 C20.832,4.256 20.86,4.018 20.86,3.738 L20.86,2.8 L19.544,2.8 L19.544,9.884 Z" id="Path"></path>
                        <path d="M27.412,7.896 C27.412,9.31 28.602,10.052 29.82,10.052 C31.514,10.052 32.088,8.652 32.088,8.652 L32.116,8.652 C32.116,8.652 32.088,8.89 32.088,9.212 L32.088,9.884 L33.348,9.884 L33.348,5.404 C33.348,3.612 32.34,2.632 30.548,2.632 C28.924,2.632 27.902,3.472 27.902,3.472 L28.462,4.466 C28.462,4.466 29.344,3.78 30.436,3.78 C31.332,3.78 31.99,4.172 31.99,5.334 L31.99,5.46 L31.682,5.46 C30.492,5.46 27.412,5.558 27.412,7.896 Z M28.784,7.826 C28.784,6.552 30.632,6.482 31.654,6.482 L32.004,6.482 L32.004,6.706 C32.004,7.756 31.262,8.96 30.114,8.96 C29.232,8.96 28.784,8.4 28.784,7.826 Z" id="Shape"></path>
                        <path d="M36.008,11.172 L35.56,12.236 C36.246,12.586 37.128,12.824 37.982,12.824 C39.774,12.824 41.552,11.928 41.552,9.59 L41.552,2.8 L40.25,2.8 L40.25,3.458 C40.25,3.584 40.264,3.682 40.264,3.682 L40.236,3.682 C40.236,3.682 39.718,2.632 38.01,2.632 C36.05,2.632 34.916,4.144 34.916,6.174 C34.916,8.218 36.106,9.8 38.08,9.8 C39.102,9.8 39.76,9.394 40.18,8.694 L40.208,8.694 C40.208,8.694 40.194,8.918 40.194,9.142 L40.194,9.66 C40.194,11.102 39.186,11.648 37.954,11.648 C36.89,11.648 36.008,11.172 36.008,11.172 Z M38.346,8.624 C37.072,8.624 36.288,7.616 36.288,6.146 C36.288,4.704 36.988,3.808 38.22,3.808 C39.326,3.808 40.222,4.34 40.222,6.188 C40.222,8.036 39.326,8.624 38.346,8.624 Z" id="Shape"></path>
                        <path d="M43.19,6.342 C43.19,8.442 44.716,10.052 46.942,10.052 C48.636,10.052 49.686,9.044 49.686,9.044 L49.126,8.05 C49.126,8.05 48.244,8.876 47.026,8.876 C45.766,8.876 44.66,8.092 44.59,6.538 L49.756,6.538 C49.756,6.538 49.798,6.132 49.798,5.95 C49.798,4.116 48.734,2.632 46.732,2.632 C44.716,2.632 43.19,4.088 43.19,6.342 Z M44.632,5.516 C44.828,4.354 45.668,3.71 46.704,3.71 C47.614,3.71 48.37,4.298 48.412,5.516 L44.632,5.516 Z" id="Shape"></path>
                        <path d="M51.45,9.884 L52.808,9.884 L52.808,6.986 C52.808,6.552 52.85,6.118 52.976,5.712 C53.298,4.662 54.096,4.046 54.964,4.046 C55.174,4.046 55.356,4.088 55.356,4.088 L55.356,2.744 C55.356,2.744 55.188,2.716 55.006,2.716 C53.914,2.716 53.088,3.528 52.766,4.564 L52.738,4.564 C52.738,4.564 52.766,4.326 52.766,4.032 L52.766,2.8 L51.45,2.8 L51.45,9.884 Z" id="Path"></path>
                    </g>
                    <g id="Group-99">
                        <g id="Group-8-Copy-2" transform="translate(46.500000, 19.000000) rotate(-180.000000) translate(-46.500000, -19.000000) translate(17.000000, 0.000000)" fill="#E4E9EF">
                            <rect id="Rectangle-Copy-5" x="0" y="0" width="59" height="38"></rect>
                        </g>
                        <g id="Group-116" transform="translate(0.000000, 6.000000)">
                            <rect id="Rectangle-Copy-21" stroke="#FF5036" stroke-width="1.2" fill="#242628" x="7.7" y="0" width="62.3" height="38"></rect>
                            <g id="Group-111" transform="translate(41.300000, 8.734205)">
                                <path d="M19.0829675,14.7570806 C20.6999349,13.192733 21.7,11.0316479 21.7,8.64451911 C21.7,3.87026148 17.6996472,0 12.7647059,0 L12.7647059,8.64451911 L19.0829675,14.7570806 Z" id="Fill-1" fill="#FF5036"></path>
                                <g id="Group-5" transform="translate(0.000000, 1.283224)" fill="#E4E9EF">
                                    <path d="M9.72057431,9.62418301 L9.72057431,0 C4.35202511,0 0,4.3088695 0,9.62418301 C0,14.9394965 4.35202511,19.248366 9.72057431,19.248366 C12.4048489,19.248366 14.8350427,18.1710989 16.5941176,16.4294673 L9.72057431,9.62418301 Z" id="Fill-3"></path>
                                </g>
                            </g>
                            <line x1="0" y1="16.8888889" x2="35.7" y2="16.8888889" id="Path-28" stroke="#E4E9EF" stroke-width="1.2"></line>
                            <line x1="19.6" y1="21.8148148" x2="35.7" y2="21.8148148" id="Path-28-Copy" stroke="#FF5036" stroke-width="1.2"></line>
                        </g>
                    </g>
                </g>
                <g id="Group-126" transform="translate(238.664819, 0.000000)">
                    <g id="Researcher" fill="#242628" fill-rule="nonzero">
                        <path d="M0,9.884 L1.386,9.884 L1.386,5.95 L3.5,5.95 L5.586,9.884 L7.154,9.884 L5.054,6.048 C4.872,5.726 4.76,5.6 4.76,5.6 L4.76,5.572 C5.838,5.222 6.538,4.158 6.538,2.898 C6.538,1.596 5.88,0.602 4.872,0.224 C4.494,0.084 4.06,0 3.024,0 L0,0 L0,9.884 Z M1.386,4.746 L1.386,1.204 L2.982,1.204 C3.752,1.204 4.074,1.288 4.34,1.428 C4.844,1.708 5.124,2.226 5.124,2.954 C5.124,4.06 4.452,4.746 3.374,4.746 L1.386,4.746 Z" id="Shape"></path>
                        <path d="M8.204,6.342 C8.204,8.442 9.73,10.052 11.956,10.052 C13.65,10.052 14.7,9.044 14.7,9.044 L14.14,8.05 C14.14,8.05 13.258,8.876 12.04,8.876 C10.78,8.876 9.674,8.092 9.604,6.538 L14.77,6.538 C14.77,6.538 14.812,6.132 14.812,5.95 C14.812,4.116 13.748,2.632 11.746,2.632 C9.73,2.632 8.204,4.088 8.204,6.342 Z M9.646,5.516 C9.842,4.354 10.682,3.71 11.718,3.71 C12.628,3.71 13.384,4.298 13.426,5.516 L9.646,5.516 Z" id="Shape"></path>
                        <path d="M15.89,9.016 C15.89,9.016 16.842,10.052 18.578,10.052 C20.132,10.052 21.14,9.17 21.14,7.994 C21.14,5.67 17.5,5.95 17.5,4.676 C17.5,4.06 18.074,3.808 18.662,3.808 C19.782,3.808 20.412,4.438 20.412,4.438 L20.958,3.416 C20.958,3.416 20.23,2.632 18.676,2.632 C17.262,2.632 16.114,3.36 16.114,4.648 C16.114,6.958 19.754,6.692 19.754,7.994 C19.754,8.568 19.166,8.876 18.578,8.876 C17.346,8.876 16.548,8.05 16.548,8.05 L15.89,9.016 Z" id="Path"></path>
                        <path d="M22.246,6.342 C22.246,8.442 23.772,10.052 25.998,10.052 C27.692,10.052 28.742,9.044 28.742,9.044 L28.182,8.05 C28.182,8.05 27.3,8.876 26.082,8.876 C24.822,8.876 23.716,8.092 23.646,6.538 L28.812,6.538 C28.812,6.538 28.854,6.132 28.854,5.95 C28.854,4.116 27.79,2.632 25.788,2.632 C23.772,2.632 22.246,4.088 22.246,6.342 Z M23.688,5.516 C23.884,4.354 24.724,3.71 25.76,3.71 C26.67,3.71 27.426,4.298 27.468,5.516 L23.688,5.516 Z" id="Shape"></path>
                        <path d="M29.932,7.896 C29.932,9.31 31.122,10.052 32.34,10.052 C34.034,10.052 34.608,8.652 34.608,8.652 L34.636,8.652 C34.636,8.652 34.608,8.89 34.608,9.212 L34.608,9.884 L35.868,9.884 L35.868,5.404 C35.868,3.612 34.86,2.632 33.068,2.632 C31.444,2.632 30.422,3.472 30.422,3.472 L30.982,4.466 C30.982,4.466 31.864,3.78 32.956,3.78 C33.852,3.78 34.51,4.172 34.51,5.334 L34.51,5.46 L34.202,5.46 C33.012,5.46 29.932,5.558 29.932,7.896 Z M31.304,7.826 C31.304,6.552 33.152,6.482 34.174,6.482 L34.524,6.482 L34.524,6.706 C34.524,7.756 33.782,8.96 32.634,8.96 C31.752,8.96 31.304,8.4 31.304,7.826 Z" id="Shape"></path>
                        <path d="M37.898,9.884 L39.256,9.884 L39.256,6.986 C39.256,6.552 39.298,6.118 39.424,5.712 C39.746,4.662 40.544,4.046 41.412,4.046 C41.622,4.046 41.804,4.088 41.804,4.088 L41.804,2.744 C41.804,2.744 41.636,2.716 41.454,2.716 C40.362,2.716 39.536,3.528 39.214,4.564 L39.186,4.564 C39.186,4.564 39.214,4.326 39.214,4.032 L39.214,2.8 L37.898,2.8 L37.898,9.884 Z" id="Path"></path>
                        <path d="M42.644,6.342 C42.644,8.47 44.212,10.052 46.438,10.052 C48.286,10.052 49.266,8.918 49.266,8.918 L48.72,7.924 C48.72,7.924 47.852,8.876 46.536,8.876 C45.066,8.876 44.03,7.77 44.03,6.328 C44.03,4.872 45.066,3.808 46.494,3.808 C47.698,3.808 48.454,4.62 48.454,4.62 L49.098,3.668 C49.098,3.668 48.216,2.632 46.438,2.632 C44.212,2.632 42.644,4.242 42.644,6.342 Z" id="Path"></path>
                        <path d="M50.806,9.884 L52.164,9.884 L52.164,6.566 C52.164,6.23 52.192,5.908 52.276,5.628 C52.57,4.606 53.452,3.878 54.516,3.878 C55.65,3.878 55.86,4.662 55.86,5.656 L55.86,9.884 L57.218,9.884 L57.218,5.348 C57.218,3.542 56.448,2.632 54.782,2.632 C53.368,2.632 52.472,3.528 52.164,4.214 L52.136,4.214 C52.136,4.214 52.164,3.962 52.164,3.626 L52.164,0 L50.806,0 L50.806,9.884 Z" id="Path"></path>
                        <path d="M58.758,6.342 C58.758,8.442 60.284,10.052 62.51,10.052 C64.204,10.052 65.254,9.044 65.254,9.044 L64.694,8.05 C64.694,8.05 63.812,8.876 62.594,8.876 C61.334,8.876 60.228,8.092 60.158,6.538 L65.324,6.538 C65.324,6.538 65.366,6.132 65.366,5.95 C65.366,4.116 64.302,2.632 62.3,2.632 C60.284,2.632 58.758,4.088 58.758,6.342 Z M60.2,5.516 C60.396,4.354 61.236,3.71 62.272,3.71 C63.182,3.71 63.938,4.298 63.98,5.516 L60.2,5.516 Z" id="Shape"></path>
                        <path d="M67.018,9.884 L68.376,9.884 L68.376,6.986 C68.376,6.552 68.418,6.118 68.544,5.712 C68.866,4.662 69.664,4.046 70.532,4.046 C70.742,4.046 70.924,4.088 70.924,4.088 L70.924,2.744 C70.924,2.744 70.756,2.716 70.574,2.716 C69.482,2.716 68.656,3.528 68.334,4.564 L68.306,4.564 C68.306,4.564 68.334,4.326 68.334,4.032 L68.334,2.8 L67.018,2.8 L67.018,9.884 Z" id="Path"></path>
                    </g>
                    <g id="Group-118" transform="translate(25.653363, 21.883759)">
                        <g id="Group-134">
                            <rect id="Rectangle-Copy-5" fill="#E4E9EF" x="0" y="5.50458716" width="39" height="54.4954128"></rect>
                            <rect id="Rectangle-Copy-22" stroke="#FF5036" stroke-width="1.2" fill="#242628" x="6.8486631" y="0" width="38.8331551" height="53.9449541"></rect>
                            <rect id="Rectangle" fill="#E4E9EF" x="15.5350267" y="15.1247535" width="8.17540107" height="8.0665352"></rect>
                            <rect id="Rectangle-Copy-25" fill="#FF5036" x="28.3090909" y="15.1247535" width="8.17540107" height="8.0665352"></rect>
                            <line x1="2.25" y1="33.5265369" x2="37.5064171" y2="33.5265369" id="Path-29" stroke="#E4E9EF"></line>
                            <line x1="19.6227273" y1="39.0722799" x2="37.5064171" y2="39.0722799" id="Path-29-Copy" stroke="#FF5036"></line>
                        </g>
                        <g id="Group-113" transform="translate(1.681818, 0.000000)"></g>
                    </g>
                </g>
                <g id="Group-140" transform="translate(115.000000, 15.810066)">
                    <path d="M58.9253986,126.073693 C47.9211872,126.073693 39,116.885796 39,105.550174 L39,99.5972125 C39,88.2615901 47.9211872,79.0736931 58.9253986,79.0736931 L66.0722451,79.0736931 C77.0764564,79.0736931 86,88.2615901 86,99.5972125 L86,105.550174 C86,116.885796 77.0764564,126.073693 66.0722451,126.073693 L58.9253986,126.073693 Z" id="Fill-25-Copy-11" fill="#E4E9EF"></path>
                    <g id="Group-63">
                        <polygon id="Rectangle-Copy-24" stroke="#FF5036" stroke-width="1.2" fill="#FF5036" transform="translate(58.859920, 63.027648) rotate(-333.000000) translate(-58.859920, -63.027648) " points="27.7568067 18.4598413 90.1207788 18.3429005 89.9630341 107.595454 27.599062 107.712395"></polygon>
                        <polygon id="Rectangle-Copy" stroke="#FF5036" stroke-width="1.2" fill="#FFFFFF" transform="translate(44.122742, 58.573693) rotate(12.000000) translate(-44.122742, -58.573693) " points="10.3289357 5.9755099 78.0350098 5.89970394 77.9165478 111.171876 10.2104737 111.247682"></polygon>
                        <g id="Group-107" transform="translate(38.869705, 85.864567) rotate(12.000000) translate(-38.869705, -85.864567) translate(23.193272, 81.816606)" fill="#242628">
                            <rect id="Rectangle-Copy-19" x="0" y="0" width="31.3528644" height="8.0959225"></rect>
                        </g>
                        <line x1="18.3089835" y1="63.1098953" x2="70.3423553" y2="63.051637" id="Path-26" stroke="#FF5036" stroke-width="1.2" transform="translate(44.325669, 63.080766) rotate(12.000000) translate(-44.325669, -63.080766) "></line>
                        <line x1="29.6006483" y1="70.5802873" x2="78.6085466" y2="71.4368627" id="Path-26-Copy" stroke="#242628" stroke-width="1.2" transform="translate(54.104597, 71.008575) rotate(12.000000) translate(-54.104597, -71.008575) "></line>
                        <line x1="23.6532455" y1="71.9061099" x2="46.4599464" y2="72.9101962" id="Path-26-Copy-2" stroke="#FF5036" stroke-width="1.2" transform="translate(35.056596, 72.408153) rotate(12.000000) translate(-35.056596, -72.408153) "></line>
                        <g id="Group-19" transform="translate(48.198730, 40.051734) rotate(12.000000) translate(-48.198730, -40.051734) translate(37.646154, 27.205601)" fill="#FF5036">
                            <g id="Group-139" transform="translate(0.000000, 0.000000)">
                                <path d="M0.407139217,0 C0.182314714,0 4.54747351e-13,0.170110111 4.54747351e-13,0.380358563 L4.54747351e-13,16.7334407 C4.54747351e-13,23.0202941 5.07639635,25.5332941 10.4035323,25.5332941 C12.4885579,25.5332941 13.9068391,25.0531206 14.5865411,24.7547377 C14.8704701,24.6302876 15.0493749,24.3616368 15.0493749,24.0687755 L15.0493749,21.7061351 C15.0493749,21.4309008 14.7472599,21.246137 14.478107,21.3582695 C13.7849928,21.6470956 12.4483214,22.051877 10.4035323,22.051877 C6.75132754,22.051877 3.88339433,20.2010535 3.88339433,15.288248 L3.88339433,0.380358563 C3.88339433,0.170110111 3.70107962,0 3.47602779,0 L0.407139217,0 Z" id="Fill-1"></path>
                                <path d="M20.6405565,25.6922668 L17.8074052,25.6922668 C17.5508081,25.6922668 17.342809,25.4841907 17.342809,25.2274987 L17.342809,0.623740887 C17.342809,0.367048862 17.5508081,0.15897275 17.8076212,0.15897275 L20.6405565,0.15897275 C20.8971535,0.15897275 21.1051527,0.367048862 21.1051527,0.623740887 L21.1051527,25.2274987 C21.1051527,25.4841907 20.8971535,25.6922668 20.6405565,25.6922668" id="Fill-3"></path>
                            </g>
                        </g>
                    </g>
                </g>
                <path d="M19.6399504,135.598991 C11.8073108,135.598991 5.45733788,129.053496 5.45733788,120.977953 L5.45733788,116.73704 C5.45733788,108.661496 11.8073108,102.116001 19.6399504,102.116001 L24.7269731,102.116001 C32.5596127,102.116001 38.9112628,108.661496 38.9112628,116.73704 L38.9112628,120.977953 C38.9112628,129.053496 32.5596127,135.598991 24.7269731,135.598991 L19.6399504,135.598991 Z" id="Fill-25-Copy-13" fill="#FF5036"></path>
                <g id="Group-124" transform="translate(0.000000, 50.999759)">
                    <g id="Developer" transform="translate(1.344000, 0.000000)" fill="#242628" fill-rule="nonzero">
                        <path d="M0,9.884 L3.276,9.884 C6.3,9.884 8.288,8.064 8.288,4.928 C8.288,1.806 6.3,0 3.276,0 L0,0 L0,9.884 Z M1.386,8.68 L1.386,1.204 L3.178,1.204 C5.39,1.204 6.86,2.506 6.86,4.928 C6.86,7.364 5.404,8.68 3.178,8.68 L1.386,8.68 Z" id="Shape"></path>
                        <path d="M9.59,6.342 C9.59,8.442 11.116,10.052 13.342,10.052 C15.036,10.052 16.086,9.044 16.086,9.044 L15.526,8.05 C15.526,8.05 14.644,8.876 13.426,8.876 C12.166,8.876 11.06,8.092 10.99,6.538 L16.156,6.538 C16.156,6.538 16.198,6.132 16.198,5.95 C16.198,4.116 15.134,2.632 13.132,2.632 C11.116,2.632 9.59,4.088 9.59,6.342 Z M11.032,5.516 C11.228,4.354 12.068,3.71 13.104,3.71 C14.014,3.71 14.77,4.298 14.812,5.516 L11.032,5.516 Z" id="Shape"></path>
                        <path d="M19.53,9.884 L21.098,9.884 L23.716,2.8 L22.288,2.8 L20.566,7.588 C20.426,7.98 20.328,8.554 20.314,8.554 L20.286,8.554 C20.272,8.554 20.188,7.98 20.048,7.588 L18.326,2.8 L16.884,2.8 L19.53,9.884 Z" id="Path"></path>
                        <path d="M24.388,6.342 C24.388,8.442 25.914,10.052 28.14,10.052 C29.834,10.052 30.884,9.044 30.884,9.044 L30.324,8.05 C30.324,8.05 29.442,8.876 28.224,8.876 C26.964,8.876 25.858,8.092 25.788,6.538 L30.954,6.538 C30.954,6.538 30.996,6.132 30.996,5.95 C30.996,4.116 29.932,2.632 27.93,2.632 C25.914,2.632 24.388,4.088 24.388,6.342 Z M25.83,5.516 C26.026,4.354 26.866,3.71 27.902,3.71 C28.812,3.71 29.568,4.298 29.61,5.516 L25.83,5.516 Z" id="Shape"></path>
                        <path d="M32.564,7.952 C32.564,9.73 33.698,9.94 34.468,9.94 C34.706,9.94 34.916,9.912 34.916,9.912 L34.916,8.708 C34.916,8.708 34.804,8.722 34.678,8.722 C34.258,8.722 33.922,8.568 33.922,7.714 L33.922,0 L32.564,0 L32.564,7.952 Z" id="Path"></path>
                        <path d="M35.84,6.328 C35.84,8.484 37.548,10.052 39.662,10.052 C41.776,10.052 43.484,8.484 43.484,6.328 C43.484,4.186 41.776,2.632 39.662,2.632 C37.548,2.632 35.84,4.186 35.84,6.328 Z M37.226,6.328 C37.226,4.858 38.332,3.808 39.662,3.808 C41.006,3.808 42.098,4.858 42.098,6.328 C42.098,7.812 41.006,8.876 39.662,8.876 C38.332,8.876 37.226,7.812 37.226,6.328 Z" id="Shape"></path>
                        <path d="M45.094,12.684 L46.452,12.684 L46.452,9.506 C46.452,9.142 46.424,8.89 46.424,8.89 L46.452,8.89 C46.452,8.89 47.068,10.052 48.622,10.052 C50.47,10.052 51.828,8.596 51.828,6.342 C51.828,4.144 50.624,2.632 48.72,2.632 C46.942,2.632 46.34,3.92 46.34,3.92 L46.312,3.92 C46.312,3.92 46.34,3.682 46.34,3.402 L46.34,2.8 L45.094,2.8 L45.094,12.684 Z M46.41,6.37 C46.41,4.564 47.39,3.822 48.454,3.822 C49.63,3.822 50.456,4.816 50.456,6.356 C50.456,7.966 49.532,8.89 48.412,8.89 C47.11,8.89 46.41,7.63 46.41,6.37 Z" id="Shape"></path>
                        <path d="M53.004,6.342 C53.004,8.442 54.53,10.052 56.756,10.052 C58.45,10.052 59.5,9.044 59.5,9.044 L58.94,8.05 C58.94,8.05 58.058,8.876 56.84,8.876 C55.58,8.876 54.474,8.092 54.404,6.538 L59.57,6.538 C59.57,6.538 59.612,6.132 59.612,5.95 C59.612,4.116 58.548,2.632 56.546,2.632 C54.53,2.632 53.004,4.088 53.004,6.342 Z M54.446,5.516 C54.642,4.354 55.482,3.71 56.518,3.71 C57.428,3.71 58.184,4.298 58.226,5.516 L54.446,5.516 Z" id="Shape"></path>
                        <path d="M61.264,9.884 L62.622,9.884 L62.622,6.986 C62.622,6.552 62.664,6.118 62.79,5.712 C63.112,4.662 63.91,4.046 64.778,4.046 C64.988,4.046 65.17,4.088 65.17,4.088 L65.17,2.744 C65.17,2.744 65.002,2.716 64.82,2.716 C63.728,2.716 62.902,3.528 62.58,4.564 L62.552,4.564 C62.552,4.564 62.58,4.326 62.58,4.032 L62.58,2.8 L61.264,2.8 L61.264,9.884 Z" id="Path"></path>
                    </g>
                    <g id="Group-120" transform="translate(0.000000, 21.884000)">
                        <g id="Group-8-Copy" transform="translate(26.000000, 20.500000) rotate(-180.000000) translate(-26.000000, -20.500000) " fill="#E4E9EF">
                            <rect id="Rectangle-Copy-5" x="0" y="0" width="52" height="41"></rect>
                        </g>
                        <g id="Group-112" transform="translate(8.000000, 7.000000)">
                            <rect id="Rectangle-Copy-20" stroke="#FF5036" stroke-width="1.2" fill="#242628" x="0" y="0" width="55.3846154" height="44"></rect>
                            <path d="M15.9662537,26.4437966 L21.9095027,32.6850966 C21.9879909,32.7742388 22.1202928,32.7742388 22.1986635,32.6849743 L28.1363902,26.4436744 C28.2557674,26.3080657 28.165882,26.0852713 27.991751,26.0852713 L25.8637572,26.0852713 C25.7530747,26.0852713 25.6474446,26.1346725 25.5722463,26.2216137 L22.0541418,30.0612096 L18.5239351,26.2211245 C18.4487369,26.1345502 18.3432243,26.0852713 18.2328943,26.0852713 L16.1107754,26.0852713 C15.9366443,26.0852713 15.8467589,26.3080657 15.9662537,26.4437966" id="Fill-13" fill="#E4E9EF" transform="translate(22.051282, 29.418605) rotate(-270.000000) translate(-22.051282, -29.418605) "></path>
                            <path d="M34.9406126,26.4437966 L40.8838616,32.6850966 C40.9623498,32.7742388 41.0946518,32.7742388 41.1730225,32.6849743 L47.1107491,26.4436744 C47.2301264,26.3080657 47.140241,26.0852713 46.9661099,26.0852713 L44.8381161,26.0852713 C44.7274337,26.0852713 44.6218036,26.1346725 44.5466053,26.2216137 L41.0285008,30.0612096 L37.4982941,26.2211245 C37.4230958,26.1345502 37.3175832,26.0852713 37.2072533,26.0852713 L35.0851343,26.0852713 C34.9110033,26.0852713 34.8211179,26.3080657 34.9406126,26.4437966" id="Fill-13-Copy-3" fill="#E4E9EF" transform="translate(41.025641, 29.418605) rotate(-90.000000) translate(-41.025641, -29.418605) "></path>
                            <g id="Group-114" transform="translate(5.641026, 8.697674)" stroke-width="1.2">
                                <line x1="0.405663988" y1="0.415697674" x2="17.4435515" y2="0.415697674" id="Path-25" stroke="#E4E9EF"></line>
                                <line x1="32.047455" y1="0.415697674" x2="41.7833907" y2="0.415697674" id="Path-25-Copy-2" stroke="#E4E9EF"></line>
                                <line x1="34.075775" y1="6.23546512" x2="53.8979926" y2="6.23546512" id="Path-25-Copy-5" stroke="#E4E9EF"></line>
                                <line x1="21.9058553" y1="0.415697674" x2="27.9328632" y2="0.415697674" id="Path-25-Copy" stroke="#FF5036"></line>
                                <line x1="0.405663988" y1="6.23546512" x2="29.5666637" y2="6.23546512" id="Path-25-Copy-4" stroke="#FF5036"></line>
                            </g>
                            <polygon id="Path-27" fill="#FF5036" points="28.2051282 34.7906977 30.6184012 34.7906977 36.4102564 22.5116279 33.9969834 22.5116279"></polygon>
                        </g>
                    </g>
                </g>
            </g>
        </g>
    </g>
</svg>