<?xml version="1.0" encoding="UTF-8"?>
<svg width="271px" height="262px" viewBox="0 0 271 262" version="1.1" xmlns="http://www.w3.org/2000/svg" xmlns:xlink="http://www.w3.org/1999/xlink">
    <title>Group 122</title>
    <g id="0215_官網字級調整" stroke="none" stroke-width="1" fill="none" fill-rule="evenodd">
        <g id="Mobile_375" transform="translate(-32.000000, -6365.000000)">
            <g id="Group-122" transform="translate(32.000000, 6365.000000)">
                <g id="Group-100" transform="translate(170.000000, 144.000000)">
                    <g id="Group-93-Copy">
                        <path d="M45.1226311,97 C22.4118119,97 4,78.0377446 4,54.6429493 L4,42.3570507 C4,18.9622554 22.4118119,0 45.1226311,0 L59.8725058,0 C82.583325,0 101,18.9622554 101,42.3570507 L101,54.6429493 C101,78.0377446 82.583325,97 59.8725058,97 L45.1226311,97 Z" id="Fill-25-Copy-9" fill="#E4E9EF"></path>
                        <g id="Group-88" transform="translate(0.000000, 13.000000)" stroke-width="0.927014633">
                            <g id="Group-63" transform="translate(0.000000, 7.466667)">
                                <rect id="Rectangle" stroke="#FF5036" fill="#FF5036" x="0" y="0" width="84.815534" height="52.2666667"></rect>
                                <line x1="6.74770581" y1="41.5333333" x2="38.9221971" y2="41.5333333" id="Path-23" stroke="#242628"></line>
                                <line x1="6.52427184" y1="36.8666667" x2="24.0116505" y2="36.8666667" id="Path-23-Copy" stroke="#E4E9EF"></line>
                            </g>
                            <ellipse id="Oval" stroke="#242628" fill="#242628" cx="34.0194175" cy="15.4" rx="15.3786408" ry="15.4"></ellipse>
                            <line x1="95.5339806" y1="7.78419244" x2="95.7669903" y2="68.7491409" id="Path-15" stroke="#FF5036"></line>
                            <line x1="95.0679612" y1="69.5333333" x2="10.2524272" y2="69.5333333" id="Path-15-Copy" stroke="#FF5036"></line>
                        </g>
                        <polygon id="Triangle" stroke="#FF5036" stroke-width="0.927014633" fill="#FFFFFF" transform="translate(64.490082, 41.517402) rotate(-291.000000) translate(-64.490082, -41.517402) " points="70.7067581 15.0012515 91.9364479 68.0335517 37.0437152 61.768964"></polygon>
                        <path d="M9.5436679,86 C8.13887496,86 7,84.827077 7,83.3799762 L7,82.6200238 C7,81.172923 8.13887496,80 9.5436679,80 L10.4560313,80 C11.8608242,80 13,81.172923 13,82.6200238 L13,83.3799762 C13,84.827077 11.8608242,86 10.4560313,86 L9.5436679,86 Z" id="Fill-25-Copy-16" fill="#FF5036"></path>
                        <path d="M95.5436679,86 C94.138875,86 93,84.827077 93,83.3799762 L93,82.6200238 C93,81.172923 94.138875,80 95.5436679,80 L96.4560313,80 C97.8608242,80 99,81.172923 99,82.6200238 L99,83.3799762 C99,84.827077 97.8608242,86 96.4560313,86 L95.5436679,86 Z" id="Fill-25-Copy-17" fill="#FF5036"></path>
                        <path d="M95.5436679,24 C94.138875,24 93,22.827077 93,21.3799762 L93,20.6200238 C93,19.172923 94.138875,18 95.5436679,18 L96.4560313,18 C97.8608242,18 99,19.172923 99,20.6200238 L99,21.3799762 C99,22.827077 97.8608242,24 96.4560313,24 L95.5436679,24 Z" id="Fill-25-Copy-18" fill="#FF5036"></path>
                    </g>
                    <g id="Brand" transform="translate(33.344000, 104.116000)" fill="#FF5036" fill-rule="nonzero">
                        <path d="M0,9.884 L3.542,9.884 C5.278,9.884 6.72,8.932 6.72,7.07 C6.72,5.964 6.132,4.984 5.096,4.676 L5.096,4.648 C5.852,4.256 6.328,3.486 6.328,2.52 C6.328,0.924 5.124,0 3.458,0 L0,0 L0,9.884 Z M1.386,4.158 L1.386,1.204 L3.43,1.204 C4.382,1.204 4.914,1.792 4.914,2.66 C4.914,3.528 4.354,4.158 3.458,4.158 L1.386,4.158 Z M1.386,8.68 L1.386,5.306 L3.598,5.306 C4.634,5.306 5.306,5.992 5.306,7 C5.306,8.008 4.676,8.68 3.612,8.68 L1.386,8.68 Z" id="Shape"></path>
                        <path d="M8.596,9.884 L9.954,9.884 L9.954,6.986 C9.954,6.552 9.996,6.118 10.122,5.712 C10.444,4.662 11.242,4.046 12.11,4.046 C12.32,4.046 12.502,4.088 12.502,4.088 L12.502,2.744 C12.502,2.744 12.334,2.716 12.152,2.716 C11.06,2.716 10.234,3.528 9.912,4.564 L9.884,4.564 C9.884,4.564 9.912,4.326 9.912,4.032 L9.912,2.8 L8.596,2.8 L8.596,9.884 Z" id="Path"></path>
                        <path d="M13.272,7.896 C13.272,9.31 14.462,10.052 15.68,10.052 C17.374,10.052 17.948,8.652 17.948,8.652 L17.976,8.652 C17.976,8.652 17.948,8.89 17.948,9.212 L17.948,9.884 L19.208,9.884 L19.208,5.404 C19.208,3.612 18.2,2.632 16.408,2.632 C14.784,2.632 13.762,3.472 13.762,3.472 L14.322,4.466 C14.322,4.466 15.204,3.78 16.296,3.78 C17.192,3.78 17.85,4.172 17.85,5.334 L17.85,5.46 L17.542,5.46 C16.352,5.46 13.272,5.558 13.272,7.896 Z M14.644,7.826 C14.644,6.552 16.492,6.482 17.514,6.482 L17.864,6.482 L17.864,6.706 C17.864,7.756 17.122,8.96 15.974,8.96 C15.092,8.96 14.644,8.4 14.644,7.826 Z" id="Shape"></path>
                        <path d="M21.238,9.884 L22.596,9.884 L22.596,6.566 C22.596,6.216 22.624,5.894 22.708,5.614 C23.002,4.592 23.87,3.878 24.948,3.878 C26.082,3.878 26.292,4.662 26.292,5.656 L26.292,9.884 L27.65,9.884 L27.65,5.348 C27.65,3.542 26.88,2.632 25.214,2.632 C23.674,2.632 22.834,3.64 22.554,4.256 L22.526,4.256 C22.526,4.256 22.554,4.018 22.554,3.738 L22.554,2.8 L21.238,2.8 L21.238,9.884 Z" id="Path"></path>
                        <path d="M29.218,6.342 C29.218,8.54 30.422,10.052 32.34,10.052 C34.09,10.052 34.664,8.736 34.664,8.736 L34.692,8.736 C34.692,8.736 34.678,8.932 34.678,9.212 L34.678,9.884 L35.966,9.884 L35.966,0 L34.608,0 L34.608,3.276 C34.608,3.542 34.636,3.752 34.636,3.752 L34.608,3.752 C34.608,3.752 34.062,2.632 32.424,2.632 C30.548,2.632 29.218,4.088 29.218,6.342 Z M30.604,6.342 C30.604,4.732 31.528,3.808 32.648,3.808 C33.992,3.808 34.65,5.068 34.65,6.328 C34.65,8.134 33.656,8.876 32.606,8.876 C31.43,8.876 30.604,7.882 30.604,6.342 Z" id="Shape"></path>
                    </g>
                </g>
                <g id="Group-93" transform="translate(82.000000, 0.000000)">
                    <g id="Group-100-Copy">
                        <path d="M52.1226311,97 C29.4118119,97 11,78.0377446 11,54.6429493 L11,42.3570507 C11,18.9622554 29.4118119,0 52.1226311,0 L66.8725058,0 C89.583325,0 108,18.9622554 108,42.3570507 L108,54.6429493 C108,78.0377446 89.583325,97 66.8725058,97 L52.1226311,97 Z" id="Fill-25-Copy-11" fill="#E4E9EF"></path>
                        <g id="Group-85" transform="translate(36.000000, 10.000000)" stroke-width="0.927014633">
                            <rect id="Rectangle" stroke="#FF5036" fill="#FF5036" x="6.52054795" y="7.44186047" width="61.4794521" height="72.5581395"></rect>
                            <rect id="Rectangle-Copy" stroke="#FF5036" fill="#FFFFFF" x="0" y="0" width="61.4794521" height="72.5581395"></rect>
                            <rect id="Rectangle" stroke="#242628" fill="#242628" x="11.1780822" y="9.30232558" width="38.1917808" height="17.6744186"></rect>
                            <line x1="11.1780822" y1="9.30232558" x2="49.369863" y2="26.9767442" id="Path-20" stroke="#FF5036"></line>
                            <line x1="11.1780822" y1="9.30232558" x2="49.369863" y2="26.9767442" id="Path-20-Copy" stroke="#FF5036" transform="translate(30.273973, 18.139535) scale(1, -1) translate(-30.273973, -18.139535) "></line>
                            <line x1="11.1780822" y1="36.744186" x2="49.369863" y2="36.744186" id="Path-21" stroke="#242628"></line>
                            <line x1="11.1780822" y1="41.3953488" x2="38.1917808" y2="41.3953488" id="Path-21-Copy" stroke="#FF5036"></line>
                        </g>
                        <g id="Group-94" transform="translate(0.000000, 32.000000)">
                            <g id="Group-92" transform="translate(2.802632, 2.790698)">
                                <polyline id="Path-19" stroke="#FF5036" stroke-width="0.927014633" points="-2.78794531e-13 2.97436494e-13 20.5526316 2.97436494e-13 20.5526316 33.4883721 61.6578947 33.4883721"></polyline>
                                <polygon id="Path-22" fill="#FF5036" points="60.7236842 29.7674419 60.7236842 37.2093023 68.1973684 33.2403101"></polygon>
                            </g>
                            <path d="M2.77237489,6.51162791 C1.24127381,6.51162791 1.9457535e-13,5.2386882 1.9457535e-13,3.66819128 L1.9457535e-13,2.84343663 C1.9457535e-13,1.2729397 1.24127381,-2.99502025e-13 2.77237489,-2.99502025e-13 L3.76677094,-2.99502025e-13 C5.29787202,-2.99502025e-13 6.53947368,1.2729397 6.53947368,2.84343663 L6.53947368,3.66819128 C6.53947368,5.2386882 5.29787202,6.51162791 3.76677094,6.51162791 L2.77237489,6.51162791 Z" id="Fill-25-Copy-15" fill="#FF5036"></path>
                        </g>
                    </g>
                    <g id="Architecture" transform="translate(23.112000, 108.116000)" fill="#FF5036" fill-rule="nonzero">
                        <path d="M7.126,9.884 L8.568,9.884 L5.012,0 L3.556,0 L0,9.884 L1.428,9.884 L2.408,7.042 L6.132,7.042 L7.126,9.884 Z M4.298,1.358 C4.298,1.358 4.508,2.254 4.676,2.758 L5.768,5.894 L2.772,5.894 L3.878,2.758 C4.046,2.254 4.27,1.358 4.27,1.358 L4.298,1.358 Z" id="Shape"></path>
                        <path d="M9.744,9.884 L11.102,9.884 L11.102,6.986 C11.102,6.552 11.144,6.118 11.27,5.712 C11.592,4.662 12.39,4.046 13.258,4.046 C13.468,4.046 13.65,4.088 13.65,4.088 L13.65,2.744 C13.65,2.744 13.482,2.716 13.3,2.716 C12.208,2.716 11.382,3.528 11.06,4.564 L11.032,4.564 C11.032,4.564 11.06,4.326 11.06,4.032 L11.06,2.8 L9.744,2.8 L9.744,9.884 Z" id="Path"></path>
                        <path d="M14.49,6.342 C14.49,8.47 16.058,10.052 18.284,10.052 C20.132,10.052 21.112,8.918 21.112,8.918 L20.566,7.924 C20.566,7.924 19.698,8.876 18.382,8.876 C16.912,8.876 15.876,7.77 15.876,6.328 C15.876,4.872 16.912,3.808 18.34,3.808 C19.544,3.808 20.3,4.62 20.3,4.62 L20.944,3.668 C20.944,3.668 20.062,2.632 18.284,2.632 C16.058,2.632 14.49,4.242 14.49,6.342 Z" id="Path"></path>
                        <path d="M22.652,9.884 L24.01,9.884 L24.01,6.566 C24.01,6.23 24.038,5.908 24.122,5.628 C24.416,4.606 25.298,3.878 26.362,3.878 C27.496,3.878 27.706,4.662 27.706,5.656 L27.706,9.884 L29.064,9.884 L29.064,5.348 C29.064,3.542 28.294,2.632 26.628,2.632 C25.214,2.632 24.318,3.528 24.01,4.214 L23.982,4.214 C23.982,4.214 24.01,3.962 24.01,3.626 L24.01,0 L22.652,0 L22.652,9.884 Z" id="Path"></path>
                        <path d="M31.08,1.386 L32.452,1.386 L32.452,0 L31.08,0 L31.08,1.386 Z M31.094,9.884 L32.452,9.884 L32.452,2.8 L31.094,2.8 L31.094,9.884 Z" id="Shape"></path>
                        <path d="M34.874,7.294 C34.874,9.66 36.68,9.94 37.59,9.94 C37.87,9.94 38.066,9.912 38.066,9.912 L38.066,8.708 C38.066,8.708 37.94,8.736 37.744,8.736 C37.226,8.736 36.232,8.554 36.232,7.14 L36.232,3.99 L37.94,3.99 L37.94,2.898 L36.232,2.898 L36.232,0.854 L34.916,0.854 L34.916,2.898 L33.95,2.898 L33.95,3.99 L34.874,3.99 L34.874,7.294 Z" id="Path"></path>
                        <path d="M39.102,6.342 C39.102,8.442 40.628,10.052 42.854,10.052 C44.548,10.052 45.598,9.044 45.598,9.044 L45.038,8.05 C45.038,8.05 44.156,8.876 42.938,8.876 C41.678,8.876 40.572,8.092 40.502,6.538 L45.668,6.538 C45.668,6.538 45.71,6.132 45.71,5.95 C45.71,4.116 44.646,2.632 42.644,2.632 C40.628,2.632 39.102,4.088 39.102,6.342 Z M40.544,5.516 C40.74,4.354 41.58,3.71 42.616,3.71 C43.526,3.71 44.282,4.298 44.324,5.516 L40.544,5.516 Z" id="Shape"></path>
                        <path d="M46.858,6.342 C46.858,8.47 48.426,10.052 50.652,10.052 C52.5,10.052 53.48,8.918 53.48,8.918 L52.934,7.924 C52.934,7.924 52.066,8.876 50.75,8.876 C49.28,8.876 48.244,7.77 48.244,6.328 C48.244,4.872 49.28,3.808 50.708,3.808 C51.912,3.808 52.668,4.62 52.668,4.62 L53.312,3.668 C53.312,3.668 52.43,2.632 50.652,2.632 C48.426,2.632 46.858,4.242 46.858,6.342 Z" id="Path"></path>
                        <path d="M55.314,7.294 C55.314,9.66 57.12,9.94 58.03,9.94 C58.31,9.94 58.506,9.912 58.506,9.912 L58.506,8.708 C58.506,8.708 58.38,8.736 58.184,8.736 C57.666,8.736 56.672,8.554 56.672,7.14 L56.672,3.99 L58.38,3.99 L58.38,2.898 L56.672,2.898 L56.672,0.854 L55.356,0.854 L55.356,2.898 L54.39,2.898 L54.39,3.99 L55.314,3.99 L55.314,7.294 Z" id="Path"></path>
                        <path d="M59.934,7.336 C59.934,9.212 60.76,10.052 62.356,10.052 C63.742,10.052 64.666,9.128 64.96,8.428 L64.988,8.428 C64.988,8.428 64.96,8.652 64.96,8.946 L64.96,9.884 L66.276,9.884 L66.276,2.8 L64.918,2.8 L64.918,6.118 C64.918,7.518 64.064,8.792 62.622,8.792 C61.488,8.792 61.292,8.008 61.292,7.028 L61.292,2.8 L59.934,2.8 L59.934,7.336 Z" id="Path"></path>
                        <path d="M68.404,9.884 L69.762,9.884 L69.762,6.986 C69.762,6.552 69.804,6.118 69.93,5.712 C70.252,4.662 71.05,4.046 71.918,4.046 C72.128,4.046 72.31,4.088 72.31,4.088 L72.31,2.744 C72.31,2.744 72.142,2.716 71.96,2.716 C70.868,2.716 70.042,3.528 69.72,4.564 L69.692,4.564 C69.692,4.564 69.72,4.326 69.72,4.032 L69.72,2.8 L68.404,2.8 L68.404,9.884 Z" id="Path"></path>
                        <path d="M73.164,6.342 C73.164,8.442 74.69,10.052 76.916,10.052 C78.61,10.052 79.66,9.044 79.66,9.044 L79.1,8.05 C79.1,8.05 78.218,8.876 77,8.876 C75.74,8.876 74.634,8.092 74.564,6.538 L79.73,6.538 C79.73,6.538 79.772,6.132 79.772,5.95 C79.772,4.116 78.708,2.632 76.706,2.632 C74.69,2.632 73.164,4.088 73.164,6.342 Z M74.606,5.516 C74.802,4.354 75.642,3.71 76.678,3.71 C77.588,3.71 78.344,4.298 78.386,5.516 L74.606,5.516 Z" id="Shape"></path>
                    </g>
                </g>
                <g id="Group-99" transform="translate(0.000000, 143.000000)">
                    <g id="Group-89">
                        <path d="M41.1226311,97 C18.4118119,97 0,78.0377446 0,54.6429493 L0,42.3570507 C0,18.9622554 18.4118119,0 41.1226311,0 L55.8725058,0 C78.583325,0 97,18.9622554 97,42.3570507 L97,54.6429493 C97,78.0377446 78.583325,97 55.8725058,97 L41.1226311,97 Z" id="Fill-25-Copy-10" fill="#E4E9EF"></path>
                        <g id="Group-98" transform="translate(9.000000, 6.000000)">
                            <g id="Group-91" stroke-width="0.927014633">
                                <polygon id="Rectangle-Copy-18" stroke="#FF5036" fill="#FF5036" transform="translate(48.199168, 38.398685) rotate(-15.000000) translate(-48.199168, -38.398685) " points="5.91575468 9.97524743 90.480513 9.9783232 90.4825808 66.8221231 5.91782245 66.8190474"></polygon>
                                <polygon id="Rectangle" stroke="#FF5036" fill="#FFFFFF" transform="translate(57.371322, 45.041091) rotate(-15.000000) translate(-57.371322, -45.041091) " points="15.0878844 15.9525923 99.6526427 15.9556679 99.654759 74.1295905 15.0900006 74.1265149"></polygon>
                                <g id="Group-72" transform="translate(91.094342, 36.092496) rotate(-15.000000) translate(-91.094342, -36.092496) translate(68.651037, 30.622365)">
                                    <g id="Group-96" transform="translate(0.002288, -0.008538)">
                                        <g id="Group-97" transform="translate(-0.009883, 0.036885)">
                                            <line x1="0.0551839148" y1="0.544855938" x2="39.8914352" y2="0.42720363" id="Path-17" stroke="#FF5036"></line>
                                            <line x1="-0.328169399" y1="5.888952" x2="44.0467339" y2="5.62399669" id="Path-17-Copy" stroke="#242628"></line>
                                            <line x1="0.319070879" y1="10.9003212" x2="17.9590709" y2="10.9003212" id="Path-17-Copy-2" stroke="#FF5036"></line>
                                        </g>
                                    </g>
                                </g>
                            </g>
                            <polygon id="Rectangle" fill="#242628" transform="translate(37.065801, 43.064632) rotate(-15.000000) translate(-37.065801, -43.064632) " points="23.9477801 29.9482641 50.1828668 29.9492184 50.183821 56.1809996 23.9487343 56.1800454"></polygon>
                            <g id="Group-95" transform="translate(34.000000, 33.000000)" stroke="#FF5036">
                                <ellipse id="Oval-Copy-3" stroke-width="0.927014633" transform="translate(13.465649, 13.422680) rotate(-90.000000) translate(-13.465649, -13.422680) " cx="13.4656489" cy="13.4226804" rx="13.4226804" ry="13.4656489"></ellipse>
                                <line x1="27.5430865" y1="34.7698906" x2="37.7698906" y2="17.4569135" id="Path-24" stroke-width="4.63507316" transform="translate(32.656489, 26.113402) rotate(-90.000000) translate(-32.656489, -26.113402) "></line>
                            </g>
                        </g>
                    </g>
                    <g id="Research" transform="translate(20.344000, 108.116000)" fill="#FF5036" fill-rule="nonzero">
                        <path d="M0,9.884 L1.386,9.884 L1.386,5.95 L3.5,5.95 L5.586,9.884 L7.154,9.884 L5.054,6.048 C4.872,5.726 4.76,5.6 4.76,5.6 L4.76,5.572 C5.838,5.222 6.538,4.158 6.538,2.898 C6.538,1.596 5.88,0.602 4.872,0.224 C4.494,0.084 4.06,0 3.024,0 L0,0 L0,9.884 Z M1.386,4.746 L1.386,1.204 L2.982,1.204 C3.752,1.204 4.074,1.288 4.34,1.428 C4.844,1.708 5.124,2.226 5.124,2.954 C5.124,4.06 4.452,4.746 3.374,4.746 L1.386,4.746 Z" id="Shape"></path>
                        <path d="M8.204,6.342 C8.204,8.442 9.73,10.052 11.956,10.052 C13.65,10.052 14.7,9.044 14.7,9.044 L14.14,8.05 C14.14,8.05 13.258,8.876 12.04,8.876 C10.78,8.876 9.674,8.092 9.604,6.538 L14.77,6.538 C14.77,6.538 14.812,6.132 14.812,5.95 C14.812,4.116 13.748,2.632 11.746,2.632 C9.73,2.632 8.204,4.088 8.204,6.342 Z M9.646,5.516 C9.842,4.354 10.682,3.71 11.718,3.71 C12.628,3.71 13.384,4.298 13.426,5.516 L9.646,5.516 Z" id="Shape"></path>
                        <path d="M15.89,9.016 C15.89,9.016 16.842,10.052 18.578,10.052 C20.132,10.052 21.14,9.17 21.14,7.994 C21.14,5.67 17.5,5.95 17.5,4.676 C17.5,4.06 18.074,3.808 18.662,3.808 C19.782,3.808 20.412,4.438 20.412,4.438 L20.958,3.416 C20.958,3.416 20.23,2.632 18.676,2.632 C17.262,2.632 16.114,3.36 16.114,4.648 C16.114,6.958 19.754,6.692 19.754,7.994 C19.754,8.568 19.166,8.876 18.578,8.876 C17.346,8.876 16.548,8.05 16.548,8.05 L15.89,9.016 Z" id="Path"></path>
                        <path d="M22.246,6.342 C22.246,8.442 23.772,10.052 25.998,10.052 C27.692,10.052 28.742,9.044 28.742,9.044 L28.182,8.05 C28.182,8.05 27.3,8.876 26.082,8.876 C24.822,8.876 23.716,8.092 23.646,6.538 L28.812,6.538 C28.812,6.538 28.854,6.132 28.854,5.95 C28.854,4.116 27.79,2.632 25.788,2.632 C23.772,2.632 22.246,4.088 22.246,6.342 Z M23.688,5.516 C23.884,4.354 24.724,3.71 25.76,3.71 C26.67,3.71 27.426,4.298 27.468,5.516 L23.688,5.516 Z" id="Shape"></path>
                        <path d="M29.932,7.896 C29.932,9.31 31.122,10.052 32.34,10.052 C34.034,10.052 34.608,8.652 34.608,8.652 L34.636,8.652 C34.636,8.652 34.608,8.89 34.608,9.212 L34.608,9.884 L35.868,9.884 L35.868,5.404 C35.868,3.612 34.86,2.632 33.068,2.632 C31.444,2.632 30.422,3.472 30.422,3.472 L30.982,4.466 C30.982,4.466 31.864,3.78 32.956,3.78 C33.852,3.78 34.51,4.172 34.51,5.334 L34.51,5.46 L34.202,5.46 C33.012,5.46 29.932,5.558 29.932,7.896 Z M31.304,7.826 C31.304,6.552 33.152,6.482 34.174,6.482 L34.524,6.482 L34.524,6.706 C34.524,7.756 33.782,8.96 32.634,8.96 C31.752,8.96 31.304,8.4 31.304,7.826 Z" id="Shape"></path>
                        <path d="M37.898,9.884 L39.256,9.884 L39.256,6.986 C39.256,6.552 39.298,6.118 39.424,5.712 C39.746,4.662 40.544,4.046 41.412,4.046 C41.622,4.046 41.804,4.088 41.804,4.088 L41.804,2.744 C41.804,2.744 41.636,2.716 41.454,2.716 C40.362,2.716 39.536,3.528 39.214,4.564 L39.186,4.564 C39.186,4.564 39.214,4.326 39.214,4.032 L39.214,2.8 L37.898,2.8 L37.898,9.884 Z" id="Path"></path>
                        <path d="M42.644,6.342 C42.644,8.47 44.212,10.052 46.438,10.052 C48.286,10.052 49.266,8.918 49.266,8.918 L48.72,7.924 C48.72,7.924 47.852,8.876 46.536,8.876 C45.066,8.876 44.03,7.77 44.03,6.328 C44.03,4.872 45.066,3.808 46.494,3.808 C47.698,3.808 48.454,4.62 48.454,4.62 L49.098,3.668 C49.098,3.668 48.216,2.632 46.438,2.632 C44.212,2.632 42.644,4.242 42.644,6.342 Z" id="Path"></path>
                        <path d="M50.806,9.884 L52.164,9.884 L52.164,6.566 C52.164,6.23 52.192,5.908 52.276,5.628 C52.57,4.606 53.452,3.878 54.516,3.878 C55.65,3.878 55.86,4.662 55.86,5.656 L55.86,9.884 L57.218,9.884 L57.218,5.348 C57.218,3.542 56.448,2.632 54.782,2.632 C53.368,2.632 52.472,3.528 52.164,4.214 L52.136,4.214 C52.136,4.214 52.164,3.962 52.164,3.626 L52.164,0 L50.806,0 L50.806,9.884 Z" id="Path"></path>
                    </g>
                </g>
            </g>
        </g>
    </g>
</svg>