<?xml version="1.0" encoding="UTF-8"?>
<svg width="206px" height="157px" viewBox="0 0 206 157" version="1.1" xmlns="http://www.w3.org/2000/svg" xmlns:xlink="http://www.w3.org/1999/xlink">
    <title>Group 169</title>
    <defs>
        <path d="M13.5829545,23.5102041 L9.998037,23.5102041 C4.4752774,23.5102041 0,18.9127602 0,13.2452376 L0,10.2649664 C0,4.59744387 4.4752774,0 9.998037,0 L13.5829545,0 C19.1039081,0 23.5791855,4.59744387 23.5791855,10.2649664 L23.5791855,13.2452376 C23.5791855,18.9127602 19.1039081,23.5102041 13.5829545,23.5102041" id="path-1"></path>
        <path d="M13.5829545,23.5102041 L9.998037,23.5102041 C4.4752774,23.5102041 0,18.9127602 0,13.2452376 L0,10.2649664 C0,4.59744387 4.4752774,0 9.998037,0 L13.5829545,0 C19.1039081,0 23.5791855,4.59744387 23.5791855,10.2649664 L23.5791855,13.2452376 C23.5791855,18.9127602 19.1039081,23.5102041 13.5829545,23.5102041" id="path-3"></path>
        <path d="M13.5829545,23.5102041 L9.998037,23.5102041 C4.4752774,23.5102041 0,18.9127602 0,13.2452376 L0,10.2649664 C0,4.59744387 4.4752774,0 9.998037,0 L13.5829545,0 C19.1039081,0 23.5791855,4.59744387 23.5791855,10.2649664 L23.5791855,13.2452376 C23.5791855,18.9127602 19.1039081,23.5102041 13.5829545,23.5102041" id="path-5"></path>
        <path d="M13.5829545,23.5102041 L9.998037,23.5102041 C4.4752774,23.5102041 0,18.9127602 0,13.2452376 L0,10.2649664 C0,4.59744387 4.4752774,-2.27373675e-13 9.998037,-2.27373675e-13 L13.5829545,-2.27373675e-13 C19.1039081,-2.27373675e-13 23.5791855,4.59744387 23.5791855,10.2649664 L23.5791855,13.2452376 C23.5791855,18.9127602 19.1039081,23.5102041 13.5829545,23.5102041" id="path-7"></path>
        <path d="M13.5829545,23.5102041 L9.998037,23.5102041 C4.4752774,23.5102041 0,18.9127602 0,13.2452376 L0,10.2649664 C0,4.59744387 4.4752774,2.27373675e-13 9.998037,2.27373675e-13 L13.5829545,2.27373675e-13 C19.1039081,2.27373675e-13 23.5791855,4.59744387 23.5791855,10.2649664 L23.5791855,13.2452376 C23.5791855,18.9127602 19.1039081,23.5102041 13.5829545,23.5102041" id="path-9"></path>
        <path d="M13.5829545,23.5102041 L9.998037,23.5102041 C4.4752774,23.5102041 1.8189894e-12,18.9127602 1.8189894e-12,13.2452376 L1.8189894e-12,10.2649664 C1.8189894e-12,4.59744387 4.4752774,-2.27373675e-13 9.998037,-2.27373675e-13 L13.5829545,-2.27373675e-13 C19.1039081,-2.27373675e-13 23.5791855,4.59744387 23.5791855,10.2649664 L23.5791855,13.2452376 C23.5791855,18.9127602 19.1039081,23.5102041 13.5829545,23.5102041" id="path-11"></path>
        <path d="M13.5829545,23.5102041 L9.998037,23.5102041 C4.4752774,23.5102041 0,18.9127602 0,13.2452376 L0,10.2649664 C0,4.59744387 4.4752774,0 9.998037,0 L13.5829545,0 C19.1039081,0 23.5791855,4.59744387 23.5791855,10.2649664 L23.5791855,13.2452376 C23.5791855,18.9127602 19.1039081,23.5102041 13.5829545,23.5102041" id="path-13"></path>
        <path d="M13.5829545,23.5102041 L9.998037,23.5102041 C4.4752774,23.5102041 0,18.9127602 0,13.2452376 L0,10.2649664 C0,4.59744387 4.4752774,0 9.998037,0 L13.5829545,0 C19.1039081,0 23.5791855,4.59744387 23.5791855,10.2649664 L23.5791855,13.2452376 C23.5791855,18.9127602 19.1039081,23.5102041 13.5829545,23.5102041" id="path-15"></path>
        <path d="M13.5829545,23.5102041 L9.998037,23.5102041 C4.4752774,23.5102041 -1.8189894e-12,18.9127602 -1.8189894e-12,13.2452376 L-1.8189894e-12,10.2649664 C-1.8189894e-12,4.59744387 4.4752774,0 9.998037,0 L13.5829545,0 C19.1039081,0 23.5791855,4.59744387 23.5791855,10.2649664 L23.5791855,13.2452376 C23.5791855,18.9127602 19.1039081,23.5102041 13.5829545,23.5102041" id="path-17"></path>
        <path d="M148.482683,25.672626 L144.848599,25.6690668 C139.250096,25.663591 134.70887,21.0101042 134.703234,15.2789644 L134.700265,12.26524 C134.694635,6.5341002 139.226718,1.88948783 144.82522,1.89495879 L148.459304,1.89851807 C154.055976,1.90399207 158.597202,6.55747889 158.602838,12.2886187 L158.605807,15.3023431 C158.611438,21.0334829 154.079355,25.6780952 148.482683,25.672626" id="path-19"></path>
        <path d="M13.5829545,23.5102041 L9.998037,23.5102041 C4.4752774,23.5102041 0,18.9127602 0,13.2452376 L0,10.2649664 C0,4.59744387 4.4752774,-2.27373675e-13 9.998037,-2.27373675e-13 L13.5829545,-2.27373675e-13 C19.1039081,-2.27373675e-13 23.5791855,4.59744387 23.5791855,10.2649664 L23.5791855,13.2452376 C23.5791855,18.9127602 19.1039081,23.5102041 13.5829545,23.5102041" id="path-21"></path>
        <path d="M13.5829545,23.5102041 L9.998037,23.5102041 C4.4752774,23.5102041 0,18.9127602 0,13.2452376 L0,10.2649664 C0,4.59744387 4.4752774,-2.27373675e-13 9.998037,-2.27373675e-13 L13.5829545,-2.27373675e-13 C19.1039081,-2.27373675e-13 23.5791855,4.59744387 23.5791855,10.2649664 L23.5791855,13.2452376 C23.5791855,18.9127602 19.1039081,23.5102041 13.5829545,23.5102041" id="path-23"></path>
        <path d="M13.5829545,23.5102041 L9.998037,23.5102041 C4.4752774,23.5102041 0,18.9127602 0,13.2452376 L0,10.2649664 C0,4.59744387 4.4752774,0 9.998037,0 L13.5829545,0 C19.1039081,0 23.5791855,4.59744387 23.5791855,10.2649664 L23.5791855,13.2452376 C23.5791855,18.9127602 19.1039081,23.5102041 13.5829545,23.5102041" id="path-25"></path>
        <path d="M13.5829545,23.5102041 L9.998037,23.5102041 C4.4752774,23.5102041 0,18.9127602 0,13.2452376 L0,10.2649664 C0,4.59744387 4.4752774,-2.27373675e-13 9.998037,-2.27373675e-13 L13.5829545,-2.27373675e-13 C19.1039081,-2.27373675e-13 23.5791855,4.59744387 23.5791855,10.2649664 L23.5791855,13.2452376 C23.5791855,18.9127602 19.1039081,23.5102041 13.5829545,23.5102041" id="path-27"></path>
        <path d="M13.5829545,23.5102041 L9.998037,23.5102041 C4.4752774,23.5102041 -1.8189894e-12,18.9127602 -1.8189894e-12,13.2452376 L-1.8189894e-12,10.2649664 C-1.8189894e-12,4.59744387 4.4752774,0 9.998037,0 L13.5829545,0 C19.1039081,0 23.5791855,4.59744387 23.5791855,10.2649664 L23.5791855,13.2452376 C23.5791855,18.9127602 19.1039081,23.5102041 13.5829545,23.5102041" id="path-29"></path>
        <path d="M13.5829545,23.5102041 L9.998037,23.5102041 C4.4752774,23.5102041 -1.8189894e-12,18.9127602 -1.8189894e-12,13.2452376 L-1.8189894e-12,10.2649664 C-1.8189894e-12,4.59744387 4.4752774,0 9.998037,0 L13.5829545,0 C19.1039081,0 23.5791855,4.59744387 23.5791855,10.2649664 L23.5791855,13.2452376 C23.5791855,18.9127602 19.1039081,23.5102041 13.5829545,23.5102041" id="path-31"></path>
        <path d="M13.5829545,23.5102041 L9.998037,23.5102041 C4.4752774,23.5102041 0,18.9127602 0,13.2452376 L0,10.2649664 C0,4.59744387 4.4752774,0 9.998037,0 L13.5829545,0 C19.1039081,0 23.5791855,4.59744387 23.5791855,10.2649664 L23.5791855,13.2452376 C23.5791855,18.9127602 19.1039081,23.5102041 13.5829545,23.5102041" id="path-33"></path>
        <path d="M13.5829545,23.5102041 L9.998037,23.5102041 C4.4752774,23.5102041 1.8189894e-12,18.9127602 1.8189894e-12,13.2452376 L1.8189894e-12,10.2649664 C1.8189894e-12,4.59744387 4.4752774,4.54747351e-13 9.998037,4.54747351e-13 L13.5829545,4.54747351e-13 C19.1039081,4.54747351e-13 23.5791855,4.59744387 23.5791855,10.2649664 L23.5791855,13.2452376 C23.5791855,18.9127602 19.1039081,23.5102041 13.5829545,23.5102041" id="path-35"></path>
    </defs>
    <g id="0215_官網字級調整" stroke="none" stroke-width="1" fill="none" fill-rule="evenodd">
        <g transform="translate(-1096.000000, -636.000000)" id="Group-169">
            <g transform="translate(1199.453702, 714.497574) rotate(3.000000) translate(-1199.453702, -714.497574) translate(1100.907341, 641.997574)">
                <g id="Group-168" transform="translate(0.000000, 8.099456)">
                    <g id="Group-148" transform="translate(-0.000000, 1.739440)">
                        <g id="Group-41" transform="translate(153.776739, 23.512260)">
                            <g id="Group-5-Copy" transform="translate(13.651734, 15.365254) rotate(-10.000000) translate(-13.651734, -15.365254) translate(1.862142, 3.610151)">
                                <g id="Group-2" transform="translate(0.000000, 0.000000)">
                                    <mask id="mask-2" fill="white">
                                        <use xlink:href="#path-1"></use>
                                    </mask>
                                    <use id="Mask-Copy-2" stroke="#FF5036" xlink:href="#path-1"></use>
                                </g>
                            </g>
                            <g id="Group-5-Copy-2" transform="translate(15.398341, 15.365254) rotate(-10.000000) translate(-15.398341, -15.365254) translate(3.608748, 3.610151)">
                                <g id="Group-2" transform="translate(0.000000, 0.000000)">
                                    <mask id="mask-4" fill="white">
                                        <use xlink:href="#path-3"></use>
                                    </mask>
                                    <use id="Mask-Copy-2" stroke="#FF5036" xlink:href="#path-3"></use>
                                </g>
                            </g>
                            <g id="Group-2" transform="translate(15.398341, 15.365254) rotate(-10.000000) translate(-15.398341, -15.365254) translate(3.608748, 3.610151)">
                                <mask id="mask-6" fill="white">
                                    <use xlink:href="#path-5"></use>
                                </mask>
                                <use id="Mask-Copy-2" stroke="#FF5036" xlink:href="#path-5"></use>
                            </g>
                            <g id="Group-2" transform="translate(15.398341, 15.365254) rotate(-10.000000) translate(-15.398341, -15.365254) translate(3.608748, 3.610151)">
                                <mask id="mask-8" fill="white">
                                    <use xlink:href="#path-7"></use>
                                </mask>
                                <use id="Mask-Copy-2" stroke="#FF5036" xlink:href="#path-7"></use>
                            </g>
                            <g id="Group-5-Copy-6" transform="translate(18.018250, 14.494505) rotate(-10.000000) translate(-18.018250, -14.494505) translate(6.228657, 2.739403)">
                                <g id="Group-2" transform="translate(0.000000, 0.000000)">
                                    <mask id="mask-10" fill="white">
                                        <use xlink:href="#path-9"></use>
                                    </mask>
                                    <use id="Mask-Copy-2" stroke="#FF5036" xlink:href="#path-9"></use>
                                </g>
                            </g>
                            <g id="Group-5-Copy-7" transform="translate(19.764857, 14.494505) rotate(-10.000000) translate(-19.764857, -14.494505) translate(7.975264, 2.739403)">
                                <g id="Group-2" transform="translate(0.000000, 0.000000)">
                                    <mask id="mask-12" fill="white">
                                        <use xlink:href="#path-11"></use>
                                    </mask>
                                    <use id="Mask-Copy-2" stroke="#FF5036" xlink:href="#path-11"></use>
                                </g>
                            </g>
                            <g id="Group-5-Copy-8" transform="translate(22.384766, 13.623757) rotate(-10.000000) translate(-22.384766, -13.623757) translate(10.595173, 1.868655)">
                                <g id="Group-2" transform="translate(0.000000, 0.000000)">
                                    <mask id="mask-14" fill="white">
                                        <use xlink:href="#path-13"></use>
                                    </mask>
                                    <use id="Mask-Copy-2" stroke="#FF5036" xlink:href="#path-13"></use>
                                </g>
                            </g>
                            <g id="Group-5-Copy-9" transform="translate(25.004676, 13.623757) rotate(-10.000000) translate(-25.004676, -13.623757) translate(13.215083, 1.868655)">
                                <g id="Group-2" transform="translate(0.000000, 0.000000)">
                                    <mask id="mask-16" fill="white">
                                        <use xlink:href="#path-15"></use>
                                    </mask>
                                    <use id="Mask-Copy-2" stroke="#FF5036" xlink:href="#path-15"></use>
                                </g>
                            </g>
                            <g id="Group-2" transform="translate(15.398341, 15.365254) rotate(-10.000000) translate(-15.398341, -15.365254) translate(3.608748, 3.610151)">
                                <mask id="mask-18" fill="white">
                                    <use xlink:href="#path-17"></use>
                                </mask>
                                <use id="Mask-Copy-2" stroke="#FF5036" xlink:href="#path-17"></use>
                            </g>
                        </g>
                        <g id="Group-23" transform="translate(0.000000, 12.010796)" stroke="#FF5036">
                            <g id="Group-7" transform="translate(52.049754, 56.957420) rotate(-345.000000) translate(-52.049754, -56.957420) translate(11.018005, 8.985184)">
                                <path d="M1.39485417,0.162158773 C0.624045108,0.162158773 0,0.799706015 0,1.58870126 L0,62.9336923 C0,86.5156121 17.379,95.9444717 35.6194925,95.9444717 C42.7572321,95.9444717 47.6123746,94.1417519 49.9415067,93.0229909 C50.9127738,92.5564333 51.5248869,91.5488155 51.5248869,90.4495961 L51.5248869,81.5862239 C51.5248869,80.554179 50.49038,79.8616708 49.5692274,80.2818169 C47.1959468,81.3651586 42.6200138,82.8833027 35.6194925,82.8833027 C23.1147262,82.8833027 13.2958597,75.9411216 13.2958597,57.512098 L13.2958597,1.58870126 C13.2958597,0.799706015 12.6706214,0.162158773 11.9021988,0.162158773 L1.39485417,0.162158773 Z" id="Fill-1"></path>
                                <path d="M80.3381053,93.170068 L69.8160396,93.170068 C68.8641838,93.170068 68.0906471,92.4109761 68.0906471,91.4741987 L68.0906471,1.6958693 C68.0906471,0.759091888 68.8641838,0 69.8160396,0 L80.3381053,0 C81.291191,0 82.0634978,0.759091888 82.0634978,1.6958693 L82.0634978,91.4741987 C82.0634978,92.4109761 81.291191,93.170068 80.3381053,93.170068" id="Fill-3"></path>
                            </g>
                            <g id="Group-7-Copy" transform="translate(55.542967, 57.828168) rotate(-345.000000) translate(-55.542967, -57.828168) translate(14.511218, 9.855932)">
                                <path d="M1.39485417,0.162158773 C0.624045108,0.162158773 -1.8189894e-12,0.799706015 -1.8189894e-12,1.58870126 L-1.8189894e-12,62.9336923 C-1.8189894e-12,86.5156121 17.379,95.9444717 35.6194925,95.9444717 C42.7572321,95.9444717 47.6123746,94.1417519 49.9415067,93.0229909 C50.9127738,92.5564333 51.5248869,91.5488155 51.5248869,90.4495961 L51.5248869,81.5862239 C51.5248869,80.554179 50.49038,79.8616708 49.5692274,80.2818169 C47.1959468,81.3651586 42.6200138,82.8833027 35.6194925,82.8833027 C23.1147262,82.8833027 13.2958597,75.9411216 13.2958597,57.512098 L13.2958597,1.58870126 C13.2958597,0.799706015 12.6706214,0.162158773 11.9021988,0.162158773 L1.39485417,0.162158773 Z" id="Fill-1"></path>
                                <path d="M80.3381053,93.170068 L69.8160396,93.170068 C68.8641838,93.170068 68.0906471,92.4109761 68.0906471,91.4741987 L68.0906471,1.6958693 C68.0906471,0.759091888 68.8641838,4.54747351e-13 69.8160396,4.54747351e-13 L80.3381053,4.54747351e-13 C81.291191,4.54747351e-13 82.0634978,0.759091888 82.0634978,1.6958693 L82.0634978,91.4741987 C82.0634978,92.4109761 81.291191,93.170068 80.3381053,93.170068" id="Fill-3"></path>
                            </g>
                            <path d="M20.0780536,6.99029995 C19.304709,6.99189462 18.6772919,7.62837228 18.6756593,8.41444615 L18.5486232,69.532298 C18.4999303,93.0269022 35.916588,102.384896 54.217082,102.347273 C61.3783011,102.332393 66.2531446,100.526304 68.5922532,99.4068664 C69.5676807,98.940027 70.1838922,97.9348737 70.1861667,96.8397244 L70.2045099,88.0091701 C70.2066421,86.9809465 69.1701651,86.2931426 68.245113,86.7136387 C65.861784,87.7978791 61.2676573,89.3198689 54.244108,89.3343517 C41.6982077,89.3602218 31.8614069,82.4640587 31.8995399,64.1032713 L32.0152554,8.38693942 C32.016888,7.60086555 31.3909122,6.96697243 30.6199618,6.96855917 L20.0780536,6.99029995 Z" id="Fill-1" transform="translate(44.376567, 54.657916) rotate(-345.000000) translate(-44.376567, -54.657916) "></path>
                            <path d="M97.2197153,112.793442 L86.947102,112.814629 C86.0178123,112.816541 85.2641926,112.05815 85.2661366,111.120315 L85.4528088,21.2406332 C85.4547566,20.3027982 86.2115329,19.5412922 87.1408226,19.5393759 L97.4134358,19.5181898 C98.3439262,19.5162747 99.0963452,20.2746688 99.0944012,21.2125037 L98.907729,111.092185 C98.9057812,112.03002 98.1502056,112.791524 97.2197153,112.793442" id="Fill-3" transform="translate(92.180269, 66.166409) rotate(-345.000000) translate(-92.180269, -66.166409) "></path>
                            <path d="M23.5712663,7.86104825 C22.7979217,7.86264292 22.1705046,8.49912058 22.168872,9.28519445 L22.0418359,70.4030463 C21.993143,93.8976505 39.4098007,103.255644 57.7102947,103.218022 C64.8715137,103.203141 69.7463573,101.397052 72.0854658,100.277615 C73.0608933,99.8107753 73.6771049,98.805622 73.6793794,97.7104727 L73.6977226,88.8799184 C73.6998548,87.8516948 72.6633778,87.1638909 71.7383257,87.584387 C69.3549967,88.6686274 64.7608699,90.1906172 57.7373206,90.2051 C45.1914203,90.2309701 35.3546196,83.334807 35.3927525,64.9740196 L35.5084681,9.25768772 C35.5101007,8.47161385 34.8841248,7.83772073 34.1131745,7.83930747 L23.5712663,7.86104825 Z" id="Fill-1" transform="translate(47.869779, 55.528665) rotate(-345.000000) translate(-47.869779, -55.528665) "></path>
                            <path d="M100.712928,113.664191 L90.4403146,113.685377 C89.5110249,113.687289 88.7574053,112.928898 88.7593493,111.991063 L88.9460215,22.1113815 C88.9479693,21.1735465 89.7047455,20.4120405 90.6340352,20.4101242 L100.906649,20.3889381 C101.837139,20.387023 102.589558,21.1454171 102.587614,22.083252 L102.400942,111.962933 C102.398994,112.900768 101.643418,113.662272 100.712928,113.664191" id="Fill-3" transform="translate(95.673482, 67.037157) rotate(-345.000000) translate(-95.673482, -67.037157) "></path>
                        </g>
                        <mask id="mask-20" fill="white">
                            <use xlink:href="#path-19"></use>
                        </mask>
                        <use id="Mask-Copy-2" stroke="#FF5036" transform="translate(146.653036, 13.783792) rotate(-10.000000) translate(-146.653036, -13.783792) " xlink:href="#path-19"></use>
                    </g>
                    <g id="Group-41-Copy" transform="translate(131.070857, 0.000000)">
                        <g id="Group-5-Copy" transform="translate(13.651734, 15.365254) rotate(-10.000000) translate(-13.651734, -15.365254) translate(1.862142, 3.610151)">
                            <g id="Group-2" transform="translate(0.000000, 0.000000)">
                                <mask id="mask-22" fill="white">
                                    <use xlink:href="#path-21"></use>
                                </mask>
                                <use id="Mask-Copy-2" stroke="#FF5036" xlink:href="#path-21"></use>
                            </g>
                        </g>
                        <g id="Group-5-Copy-2" transform="translate(15.398341, 15.365254) rotate(-10.000000) translate(-15.398341, -15.365254) translate(3.608748, 3.610151)">
                            <g id="Group-2" transform="translate(0.000000, 0.000000)">
                                <mask id="mask-24" fill="white">
                                    <use xlink:href="#path-23"></use>
                                </mask>
                                <use id="Mask-Copy-2" stroke="#FF5036" xlink:href="#path-23"></use>
                            </g>
                        </g>
                        <g id="Group-2" transform="translate(15.398341, 15.365254) rotate(-10.000000) translate(-15.398341, -15.365254) translate(3.608748, 3.610151)">
                            <mask id="mask-26" fill="white">
                                <use xlink:href="#path-25"></use>
                            </mask>
                            <use id="Mask-Copy-2" stroke="#FF5036" xlink:href="#path-25"></use>
                        </g>
                        <g id="Group-2" transform="translate(15.398341, 15.365254) rotate(-10.000000) translate(-15.398341, -15.365254) translate(3.608748, 3.610151)">
                            <mask id="mask-28" fill="white">
                                <use xlink:href="#path-27"></use>
                            </mask>
                            <use id="Mask-Copy-2" stroke="#FF5036" xlink:href="#path-27"></use>
                        </g>
                        <g id="Group-5-Copy-6" transform="translate(18.018250, 14.494505) rotate(-10.000000) translate(-18.018250, -14.494505) translate(6.228657, 2.739403)">
                            <g id="Group-2" transform="translate(0.000000, 0.000000)">
                                <mask id="mask-30" fill="white">
                                    <use xlink:href="#path-29"></use>
                                </mask>
                                <use id="Mask-Copy-2" stroke="#FF5036" xlink:href="#path-29"></use>
                            </g>
                        </g>
                        <g id="Group-5-Copy-7" transform="translate(19.764857, 14.494505) rotate(-10.000000) translate(-19.764857, -14.494505) translate(7.975264, 2.739403)">
                            <g id="Group-2" transform="translate(0.000000, 0.000000)">
                                <mask id="mask-32" fill="white">
                                    <use xlink:href="#path-31"></use>
                                </mask>
                                <use id="Mask-Copy-2" stroke="#FF5036" xlink:href="#path-31"></use>
                            </g>
                        </g>
                        <g id="Group-5-Copy-8" transform="translate(22.384766, 13.623757) rotate(-10.000000) translate(-22.384766, -13.623757) translate(10.595173, 1.868655)">
                            <g id="Group-2" transform="translate(0.000000, 0.000000)">
                                <mask id="mask-34" fill="white">
                                    <use xlink:href="#path-33"></use>
                                </mask>
                                <use id="Mask-Copy-2" stroke="#FF5036" xlink:href="#path-33"></use>
                            </g>
                        </g>
                        <g id="Group-5-Copy-9" transform="translate(25.004676, 13.623757) rotate(-10.000000) translate(-25.004676, -13.623757) translate(13.215083, 1.868655)">
                            <g id="Group-2" transform="translate(0.000000, 0.000000)">
                                <mask id="mask-36" fill="white">
                                    <use xlink:href="#path-35"></use>
                                </mask>
                                <use id="Mask-Copy-2" stroke="#FF5036" xlink:href="#path-35"></use>
                            </g>
                        </g>
                        <g id="Group-5-Copy-5" transform="translate(15.398309, 15.429199) rotate(-10.000000) translate(-15.398309, -15.429199) translate(3.608716, 3.674097)">
                            <g id="Group-2" transform="translate(0.000000, 0.000000)"></g>
                        </g>
                    </g>
                </g>
                <rect id="Rectangle" x="0.0927226012" y="1.13686838e-13" width="197" height="145"></rect>
            </g>
        </g>
    </g>
</svg>