<?xml version="1.0" encoding="UTF-8"?>
<svg width="140px" height="143px" viewBox="0 0 140 143" version="1.1" xmlns="http://www.w3.org/2000/svg" xmlns:xlink="http://www.w3.org/1999/xlink">
    <title>Group 182</title>
    <defs>
        <path d="M47.0869137,81.4524861 L34.6593743,81.4524861 C15.5140769,81.4524861 0,65.5243712 0,45.8889056 L0,35.5635806 C0,15.9281149 15.5140769,0 34.6593743,0 L47.0869137,0 C66.2259504,0 81.7400273,15.9281149 81.7400273,35.5635806 L81.7400273,45.8889056 C81.7400273,65.5243712 66.2259504,81.4524861 47.0869137,81.4524861" id="path-1"></path>
        <path d="M47.0869137,81.4524861 L34.6593743,81.4524861 C15.5140769,81.4524861 0,65.5243712 0,45.8889056 L0,35.5635806 C0,15.9281149 15.5140769,0 34.6593743,0 L47.0869137,0 C66.2259504,0 81.7400273,15.9281149 81.7400273,35.5635806 L81.7400273,45.8889056 C81.7400273,65.5243712 66.2259504,81.4524861 47.0869137,81.4524861" id="path-3"></path>
        <path d="M47.0869137,81.4524861 L34.6593743,81.4524861 C15.5140769,81.4524861 0,65.5243712 0,45.8889056 L0,35.5635806 C0,15.9281149 15.5140769,0 34.6593743,0 L47.0869137,0 C66.2259504,0 81.7400273,15.9281149 81.7400273,35.5635806 L81.7400273,45.8889056 C81.7400273,65.5243712 66.2259504,81.4524861 47.0869137,81.4524861" id="path-5"></path>
        <path d="M47.0869137,81.4524861 L34.6593743,81.4524861 C15.5140769,81.4524861 0,65.5243712 0,45.8889056 L0,35.5635806 C0,15.9281149 15.5140769,0 34.6593743,0 L47.0869137,0 C66.2259504,0 81.7400273,15.9281149 81.7400273,35.5635806 L81.7400273,45.8889056 C81.7400273,65.5243712 66.2259504,81.4524861 47.0869137,81.4524861" id="path-7"></path>
        <path d="M47.0869137,81.4524861 L34.6593743,81.4524861 C15.5140769,81.4524861 0,65.5243712 0,45.8889056 L0,35.5635806 C0,15.9281149 15.5140769,0 34.6593743,0 L47.0869137,0 C66.2259504,0 81.7400273,15.9281149 81.7400273,35.5635806 L81.7400273,45.8889056 C81.7400273,65.5243712 66.2259504,81.4524861 47.0869137,81.4524861" id="path-9"></path>
        <path d="M47.0869137,81.4524861 L34.6593743,81.4524861 C15.5140769,81.4524861 0,65.5243712 0,45.8889056 L0,35.5635806 C0,15.9281149 15.5140769,0 34.6593743,0 L47.0869137,0 C66.2259504,0 81.7400273,15.9281149 81.7400273,35.5635806 L81.7400273,45.8889056 C81.7400273,65.5243712 66.2259504,81.4524861 47.0869137,81.4524861" id="path-11"></path>
    </defs>
    <g id="0215_官網字級調整" stroke="none" stroke-width="1" fill="none" fill-rule="evenodd">
        <g transform="translate(-1125.000000, -5566.000000)" id="Group-183">
            <g transform="translate(730.000000, 5542.000000)">
                <g id="Group-182" transform="translate(395.741594, 25.598655)">
                    <g id="Group-35" transform="translate(100.258406, 110.861357)" stroke="#FF5036">
                        <path d="M6.63656146,25.6430834 L2.07674,4.11343455 C1.96230848,3.57313475 2.30754292,3.04237014 2.84784272,2.92793862 C3.11347736,2.87167915 3.39056965,2.92585725 3.61545195,3.07802439 L21.8772774,15.4349311 C22.3346871,15.7444385 22.4545857,16.3661476 22.1450784,16.8235573 C21.9588344,17.0988005 21.6480193,17.2635358 21.315686,17.263144 L12.8305743,17.2531417 C12.4285841,17.2526678 12.0653876,17.4929513 11.9085964,17.8631037 L8.53565984,25.825924 C8.3202482,26.3344673 7.73336678,26.5720975 7.2248235,26.3566858 C6.92391635,26.2292259 6.70427106,25.962781 6.63656146,25.6430834 Z" id="Path-7-Copy" transform="translate(13.074093, 15.221688) rotate(-7.000000) translate(-13.074093, -15.221688) "></path>
                        <path d="M10.4883763,25.2555478 L5.92855484,3.72589902 C5.81412331,3.18559922 6.15935775,2.65483462 6.69965755,2.54040309 C6.96529219,2.48414362 7.24238448,2.53832172 7.46726679,2.69048886 L25.7290923,15.0473956 C26.186502,15.356903 26.3064005,15.9786121 25.9968932,16.4360218 C25.8106493,16.7112649 25.4998341,16.8760002 25.1675008,16.8756085 L16.6823891,16.8656061 C16.280399,16.8651323 15.9172025,17.1054158 15.7604112,17.4755682 L12.3874747,25.4383885 C12.172063,25.9469318 11.5851816,26.1845619 11.0766383,25.9691503 C10.7757312,25.8416903 10.5560859,25.5752455 10.4883763,25.2555478 Z" id="Path-7-Copy-2" transform="translate(16.925907, 14.834153) rotate(-7.000000) translate(-16.925907, -14.834153) "></path>
                    </g>
                    <g id="Group-12-Copy-3">
                        <g id="Group-2" transform="translate(53.901471, 67.171393) rotate(-24.000000) translate(-53.901471, -67.171393) translate(13.031457, 26.445150)">
                            <mask id="mask-2" fill="white">
                                <use xlink:href="#path-1"></use>
                            </mask>
                            <use id="Mask-Copy-2" stroke="#FF5036" xlink:href="#path-1"></use>
                        </g>
                        <g id="Group-5-Copy-3" transform="translate(53.901471, 67.171393) rotate(-24.000000) translate(-53.901471, -67.171393) translate(13.031457, 26.445150)">
                            <g id="Group-2" transform="translate(0.000000, -0.000000)">
                                <mask id="mask-4" fill="white">
                                    <use xlink:href="#path-3"></use>
                                </mask>
                                <use id="Mask-Copy-2" stroke="#FF5036" xlink:href="#path-3"></use>
                            </g>
                        </g>
                        <g id="Group-5-Copy-6" transform="translate(60.210232, 64.100305) rotate(-24.000000) translate(-60.210232, -64.100305) translate(19.340218, 23.374062)">
                            <g id="Group-2" transform="translate(0.000000, -0.000000)">
                                <mask id="mask-6" fill="white">
                                    <use xlink:href="#path-5"></use>
                                </mask>
                                <use id="Mask-Copy-2" stroke="#FF5036" xlink:href="#path-5"></use>
                            </g>
                        </g>
                        <g id="Group-5-Copy-7" transform="translate(68.184698, 60.676405) rotate(-24.000000) translate(-68.184698, -60.676405) translate(27.314684, 19.950162)">
                            <g id="Group-2" transform="translate(0.000000, -0.000000)">
                                <mask id="mask-8" fill="white">
                                    <use xlink:href="#path-7"></use>
                                </mask>
                                <use id="Mask-Copy-2" stroke="#FF5036" opacity="0.651739211" xlink:href="#path-7"></use>
                            </g>
                        </g>
                        <g id="Group-5-Copy-8" transform="translate(76.159163, 57.252506) rotate(-24.000000) translate(-76.159163, -57.252506) translate(35.289150, 16.526263)">
                            <g id="Group-2" transform="translate(-0.000000, -0.000000)">
                                <mask id="mask-10" fill="white">
                                    <use xlink:href="#path-9"></use>
                                </mask>
                                <use id="Mask-Copy-2" stroke="#EF4B35" opacity="0.607942854" xlink:href="#path-9"></use>
                            </g>
                        </g>
                        <g id="Group-5-Copy-9" opacity="0.304773966" transform="translate(84.133629, 53.828607) rotate(-24.000000) translate(-84.133629, -53.828607) translate(43.263615, 13.102363)">
                            <g id="Group-2">
                                <mask id="mask-12" fill="white">
                                    <use xlink:href="#path-11"></use>
                                </mask>
                                <use id="Mask-Copy-2" stroke="#FF5036" xlink:href="#path-11"></use>
                            </g>
                        </g>
                    </g>
                </g>
            </g>
        </g>
    </g>
</svg>