<?xml version="1.0" encoding="UTF-8"?>
<svg width="376px" height="178px" viewBox="0 0 376 178" version="1.1" xmlns="http://www.w3.org/2000/svg" xmlns:xlink="http://www.w3.org/1999/xlink">
    <title>culture_img02</title>
    <defs>
        <path d="M55.3014706,107 L40.7058824,107 C18.2279412,107 0,88.2331966 0,65.0814137 L0,52.9185863 C0,29.7668034 18.2279412,11 40.7058824,11 L55.3014706,11 C77.7794118,11 96,29.7668034 96,52.9185863 L96,65.0814137 C96,88.2331966 77.7794118,107 55.3014706,107" id="path-1"></path>
        <path d="M157.587806,94.0551271 L148.734734,94.0551271 C135.096098,94.0551271 124.044254,82.6682761 124.044254,68.6310771 L124.044254,61.249605 C124.044254,47.212406 135.096098,35.8255551 148.734734,35.8255551 L157.587806,35.8255551 C171.221982,35.8255551 182.273826,47.212406 182.273826,61.249605 L182.273826,68.6310771 C182.273826,82.6682761 171.221982,94.0551271 157.587806,94.0551271" id="path-3"></path>
        <path d="M143.587806,94.0551271 L134.734734,94.0551271 C121.096098,94.0551271 110.044254,82.6682761 110.044254,68.6310771 L110.044254,61.249605 C110.044254,47.212406 121.096098,35.8255551 134.734734,35.8255551 L143.587806,35.8255551 C157.221982,35.8255551 168.273826,47.212406 168.273826,61.249605 L168.273826,68.6310771 C168.273826,82.6682761 157.221982,94.0551271 143.587806,94.0551271" id="path-5"></path>
        <path d="M249.301471,106 L234.705882,106 C212.227941,106 194,87.2331966 194,64.0814137 L194,51.9185863 C194,28.7668034 212.227941,10 234.705882,10 L249.301471,10 C271.779412,10 290,28.7668034 290,51.9185863 L290,64.0814137 C290,87.2331966 271.779412,106 249.301471,106" id="path-7"></path>
    </defs>
    <g id="最終版" stroke="none" stroke-width="1" fill="none" fill-rule="evenodd">
        <g id="Desktop_1440" transform="translate(-829.000000, -3630.000000)">
            <g id="Group-151" transform="translate(829.000000, 3630.000000)">
                <rect id="Rectangle" x="0" y="0" width="376" height="178"></rect>
                <g id="Group-44" transform="translate(43.000000, 13.000000)">
                    <g id="Group-34">
                        <text id="Soga!" fill-rule="nonzero" font-family="MuseoSans-700, Museo Sans" font-size="16" font-weight="500" line-spacing="27" fill="#FF5036">
                            <tspan x="126.34" y="15">Soga!</tspan>
                        </text>
                        <mask id="mask-2" fill="white">
                            <use xlink:href="#path-1"></use>
                        </mask>
                        <use id="Mask" fill="#242628" transform="translate(48.000000, 59.000000) rotate(-90.000000) translate(-48.000000, -59.000000) " xlink:href="#path-1"></use>
                        <path d="M62,40.7833821 L62,42.2166179 C62,43.2017564 61.1533317,44 60.1084309,44 L58.890375,44 C57.8454741,44 57,43.2017564 57,42.2166179 L57,40.7833821 C57,39.7982436 57.8454741,39 58.890375,39 L60.1084309,39 C61.1533317,39 62,39.7982436 62,40.7833821" id="Fill-58" fill="#FFFFFF" mask="url(#mask-2)"></path>
                        <path d="M76,40.7833821 L76,42.2166179 C76,43.2017564 75.1533317,44 74.1084309,44 L72.890375,44 C71.8454741,44 71,43.2017564 71,42.2166179 L71,40.7833821 C71,39.7982436 71.8454741,39 72.890375,39 L74.1084309,39 C75.1533317,39 76,39.7982436 76,40.7833821" id="Fill-59" fill="#FFFFFF" mask="url(#mask-2)"></path>
                        <path d="M71.2045569,74.3335278 C71.2045569,74.3335278 75.6204927,70.2457696 75.6204927,63.5686778 C75.6204927,58.5608589 72.5617166,54.5893336 67.8040797,54.5893336 C56.53621,54.5893336 59.6500991,75.1947719 47.2496555,75.1947719 C41.9822227,75.1947719 37,70.4180184 37,63.1093476 C37,56.5484887 40.6815539,52.8640448 40.6815539,52.8640448 L42.7744732,54.244836 C42.7744732,54.244836 39.3781295,57.6968141 39.3781295,63.050531 C39.3781295,69.0386276 43.342138,72.6054382 47.1917868,72.6054382 C57.6701616,72.6054382 54.440535,52 67.6924757,52 C73.4132137,52 78,56.4896721 78,63.6849107 C78,71.6251605 73.0715126,76 73.0715126,76 L71.2045569,74.3335278 Z" id="Stroke-61" fill="#FFFFFF" mask="url(#mask-2)"></path>
                        <mask id="mask-4" fill="white">
                            <use xlink:href="#path-3"></use>
                        </mask>
                        <use id="Mask-Copy-3" stroke="#FF5036" transform="translate(153.159040, 64.940341) rotate(36.000000) translate(-153.159040, -64.940341) " xlink:href="#path-3"></use>
                        <mask id="mask-6" fill="white">
                            <use xlink:href="#path-5"></use>
                        </mask>
                        <use id="Mask-Copy-4" stroke="#FF5036" transform="translate(139.159040, 64.940341) rotate(36.000000) translate(-139.159040, -64.940341) " xlink:href="#path-5"></use>
                        <path d="M148.456031,68.5 L147.543668,68.5 C146.138875,68.5 145,67.3267672 145,65.8799762 L145,65.1200238 C145,63.672923 146.138875,62.5 147.543668,62.5 L148.456031,62.5 C149.860824,62.5 151,63.672923 151,65.1200238 L151,65.8799762 C151,67.3267672 149.860824,68.5 148.456031,68.5" id="Fill-22-Copy-2" fill="#FF5036"></path>
                        <path d="M137.456031,68.5 L136.543668,68.5 C135.138875,68.5 134,67.3267672 134,65.8799762 L134,65.1200238 C134,63.672923 135.138875,62.5 136.543668,62.5 L137.456031,62.5 C138.860824,62.5 140,63.672923 140,65.1200238 L140,65.8799762 C140,67.3267672 138.860824,68.5 137.456031,68.5" id="Fill-22-Copy-4" fill="#FF5036"></path>
                        <path d="M159.456031,68.5 L158.543668,68.5 C157.138875,68.5 156,67.3267672 156,65.8799762 L156,65.1200238 C156,63.672923 157.138875,62.5 158.543668,62.5 L159.456031,62.5 C160.860824,62.5 162,63.672923 162,65.1200238 L162,65.8799762 C162,67.3267672 160.860824,68.5 159.456031,68.5" id="Fill-22-Copy-3" fill="#FF5036"></path>
                        <mask id="mask-8" fill="white">
                            <use xlink:href="#path-7"></use>
                        </mask>
                        <use id="Mask" fill="#FF5036" transform="translate(242.000000, 58.000000) scale(-1, 1) rotate(-90.000000) translate(-242.000000, -58.000000) " xlink:href="#path-7"></use>
                        <path d="M214,40.7833821 L214,42.2166179 C214,43.2017564 213.153332,44 212.108431,44 L210.890375,44 C209.845474,44 209,43.2017564 209,42.2166179 L209,40.7833821 C209,39.7982436 209.845474,39 210.890375,39 L212.108431,39 C213.153332,39 214,39.7982436 214,40.7833821" id="Fill-59-Copy" fill="#FFFFFF" mask="url(#mask-8)"></path>
                        <path d="M229,40.7833821 L229,42.2166179 C229,43.2017564 228.153332,44 227.108431,44 L225.890375,44 C224.845474,44 224,43.2017564 224,42.2166179 L224,40.7833821 C224,39.7982436 224.845474,39 225.890375,39 L227.108431,39 C228.153332,39 229,39.7982436 229,40.7833821" id="Fill-59-Copy-2" fill="#FFFFFF" mask="url(#mask-8)"></path>
                        <path d="M243.038814,74.2640915 C243.038814,74.2640915 247.562456,70.00601 247.562456,63.050706 C247.562456,57.834228 244.429076,53.6972225 239.555399,53.6972225 C228.012703,53.6972225 231.202541,75.1612207 218.499647,75.1612207 C213.10374,75.1612207 208,70.1854359 208,62.5722371 C208,55.7380091 211.771348,51.9000467 211.771348,51.9000467 L213.915314,53.3383709 C213.915314,53.3383709 210.436133,56.9341814 210.436133,62.5109698 C210.436133,68.7485704 214.496824,72.4639981 218.440367,72.4639981 C229.174312,72.4639981 225.865914,51 239.441073,51 C245.301341,51 250,55.6767417 250,63.171782 C250,71.4428755 244.951306,76 244.951306,76 L243.038814,74.2640915 Z" id="Stroke-61-Copy" fill="#FFFFFF" mask="url(#mask-8)"></path>
                    </g>
                    <g id="Group-32" transform="translate(0.000000, 11.000000)">
                        <g id="shutterstock_1278823261-copy" transform="translate(48.000000, 48.000000) rotate(-90.000000) translate(-48.000000, -48.000000) "></g>
                    </g>
                    <g id="Group-33" transform="translate(146.159040, 64.940341) rotate(36.000000) translate(-146.159040, -64.940341) translate(111.381135, 31.711058)"></g>
                    <g id="Group-31" transform="translate(194.000000, 10.000000)">
                        <g id="Group-3-Copy-3" transform="translate(48.000000, 48.000000) scale(-1, 1) rotate(-90.000000) translate(-48.000000, -48.000000) ">
                            <g id="shutterstock_1278823261-copy" transform="translate(0.000000, -0.000000)"></g>
                        </g>
                    </g>
                </g>
            </g>
        </g>
    </g>
</svg>