<?xml version="1.0" encoding="UTF-8"?>
<svg width="301px" height="142px" viewBox="0 0 301 142" version="1.1" xmlns="http://www.w3.org/2000/svg" xmlns:xlink="http://www.w3.org/1999/xlink">
    <title>culture_img01</title>
    <defs>
        <path d="M36.8921601,63.8202247 L27.1552983,63.8202247 C12.1600405,63.8202247 0,51.3441663 0,35.9529997 L0,27.867225 C0,12.4760584 12.1600405,0 27.1552983,0 L36.8921601,0 C51.8874179,0 64.0425532,12.4760584 64.0425532,27.867225 L64.0425532,35.9529997 C64.0425532,51.3441663 51.8874179,63.8202247 36.8921601,63.8202247" id="path-1"></path>
        <path d="M28.5914241,49.4606742 L21.0453562,49.4606742 C9.42403142,49.4606742 0,39.7917289 0,27.8635748 L0,21.5970994 C0,9.6689453 9.42403142,0 21.0453562,0 L28.5914241,0 C40.2127488,0 49.6329787,9.6689453 49.6329787,21.5970994 L49.6329787,27.8635748 C49.6329787,39.7917289 40.2127488,49.4606742 28.5914241,49.4606742" id="path-3"></path>
        <path d="M44.2705921,76.5842697 L32.5863579,76.5842697 C14.5920487,76.5842697 0,61.6129995 0,43.1435997 L0,33.44067 C0,14.9712701 14.5920487,0 32.5863579,0 L44.2705921,0 C62.2649014,0 76.8510638,14.9712701 76.8510638,33.44067 L76.8510638,43.1435997 C76.8510638,61.6129995 62.2649014,76.5842697 44.2705921,76.5842697" id="path-5"></path>
        <path d="M35.9196986,46.4528046 L28.8325324,46.4528046 C17.914369,46.4528046 9.06701493,37.3689123 9.06701493,26.1706974 L9.06701493,20.2821072 C9.06701493,9.0838923 17.914369,0 28.8325324,0 L35.9196986,0 C46.8342916,0 55.6816457,9.0838923 55.6816457,20.2821072 L55.6816457,26.1706974 C55.6816457,37.3689123 46.8342916,46.4528046 35.9196986,46.4528046" id="path-7"></path>
        <path d="M26.8526837,53.0175073 L19.7655175,53.0175073 C8.84735409,53.0175073 -4.55049709e-13,43.933615 -4.55049709e-13,32.7354001 L-4.55049709e-13,26.84681 C-4.55049709e-13,15.648595 8.84735409,6.56470271 19.7655175,6.56470271 L26.8526837,6.56470271 C37.7672767,6.56470271 46.6146308,15.648595 46.6146308,26.84681 L46.6146308,32.7354001 C46.6146308,43.933615 37.7672767,53.0175073 26.8526837,53.0175073" id="path-9"></path>
    </defs>
    <g id="0215_官網字級調整" stroke="none" stroke-width="1" fill="none" fill-rule="evenodd">
        <g transform="translate(-371.000000, -3691.000000)" id="Group-180">
            <g transform="translate(120.000000, 3258.000000)">
                <g id="Group-179" transform="translate(115.000000, 82.000000)">
                    <g id="Group-178" transform="translate(99.000000, 72.000000)">
                        <g id="Group-177" transform="translate(0.000000, 177.000000)">
                            <g id="Group-150" transform="translate(37.000000, 102.000000)">
                                <g id="Group-28" transform="translate(28.819149, 7.179775)">
                                    <g id="Aha!" transform="translate(107.776585, 6.481663)" fill="#FF5036" fill-rule="nonzero">
                                        <path d="M6.4256,9.088 L8.128,9.088 L4.928,0 L3.2,0 L0,9.088 L1.7024,9.088 L2.4704,6.7584 L5.6576,6.7584 L6.4256,9.088 Z M4.0832,1.5744 C4.0832,1.5744 4.2752,2.4704 4.4416,2.9824 L5.248,5.4144 L2.8672,5.4144 L3.6736,2.9824 C3.8528,2.4704 4.0576,1.5744 4.0576,1.5744 L4.0832,1.5744 Z" id="Shape"></path>
                                        <path d="M9.0368,9.088 L10.6624,9.088 L10.6624,6.0928 C10.6624,5.7856 10.688,5.504 10.7648,5.248 C11.008,4.4544 11.6736,3.8912 12.5312,3.8912 C13.3632,3.8912 13.568,4.4288 13.568,5.2224 L13.568,9.088 L15.1808,9.088 L15.1808,4.8896 C15.1808,3.1616 14.3616,2.4064 12.9152,2.4064 C11.776,2.4064 10.9824,3.072 10.6624,3.6992 L10.6368,3.6992 C10.6368,3.6992 10.6624,3.4688 10.6624,3.1488 L10.6624,0 L9.0368,0 L9.0368,9.088 Z" id="Path"></path>
                                        <path d="M16.3328,7.2064 C16.3328,8.512 17.3824,9.2416 18.5472,9.2416 C20.032,9.2416 20.544,8.0896 20.5312,8.0896 L20.5568,8.0896 C20.5568,8.0896 20.5312,8.2944 20.5312,8.5504 L20.5312,9.088 L22.0288,9.088 L22.0288,5.0048 C22.0288,3.3536 21.0304,2.4064 19.3152,2.4064 C17.7664,2.4064 16.7552,3.2128 16.7552,3.2128 L17.3696,4.3776 C17.3696,4.3776 18.2272,3.7504 19.1616,3.7504 C19.8784,3.7504 20.416,4.0448 20.416,4.9024 L20.416,4.992 L20.1984,4.992 C19.136,4.992 16.3328,5.1328 16.3328,7.2064 Z M17.9712,7.1296 C17.9712,6.2208 19.3152,6.1056 20.1472,6.1056 L20.4288,6.1056 L20.4288,6.2592 C20.4288,7.0528 19.8144,7.9744 18.9568,7.9744 C18.2912,7.9744 17.9712,7.5648 17.9712,7.1296 Z" id="Shape"></path>
                                        <path d="M24.2176,6.464 L25.6384,6.464 L25.7664,0 L24.0768,0 L24.2176,6.464 Z M24.1408,9.088 L25.7152,9.088 L25.7152,7.5776 L24.1408,7.5776 L24.1408,9.088 Z" id="Shape"></path>
                                    </g>
                                    <g id="Group-31-Copy" transform="translate(166.510638, 0.000000)">
                                        <g id="Group-38" transform="translate(32.021277, 31.910112) scale(-1, 1) rotate(-90.000000) translate(-32.021277, -31.910112) ">
                                            <mask id="mask-2" fill="white">
                                                <use xlink:href="#path-1"></use>
                                            </mask>
                                            <use id="Mask" fill="#FF5036" xlink:href="#path-1"></use>
                                            <path d="M44.824229,51.3949922 L44.824229,52.312873 C44.824229,52.9437808 44.2838834,53.4549964 43.6170253,53.4549964 L42.8396593,53.4549964 C42.1728012,53.4549964 41.6332178,52.9437808 41.6332178,52.312873 L41.6332178,51.3949922 C41.6332178,50.7640844 42.1728012,50.2528688 42.8396593,50.2528688 L43.6170253,50.2528688 C44.2838834,50.2528688 44.824229,50.7640844 44.824229,51.3949922" id="Fill-59-Copy" fill="#FFFFFF" mask="url(#mask-2)" transform="translate(43.228723, 51.853933) scale(-1, 1) rotate(-90.000000) translate(-43.228723, -51.853933) "></path>
                                            <path d="M44.824229,41.8219585 L44.824229,42.7398393 C44.824229,43.3707471 44.2838834,43.8819627 43.6170253,43.8819627 L42.8396593,43.8819627 C42.1728012,43.8819627 41.6332178,43.3707471 41.6332178,42.7398393 L41.6332178,41.8219585 C41.6332178,41.1910507 42.1728012,40.679835 42.8396593,40.679835 L43.6170253,40.679835 C44.2838834,40.679835 44.824229,41.1910507 44.824229,41.8219585" id="Fill-59-Copy-2" fill="#FFFFFF" mask="url(#mask-2)" transform="translate(43.228723, 42.280899) scale(-1, 1) rotate(-90.000000) translate(-43.228723, -42.280899) "></path>
                                            <path d="M37.7518027,47.5247958 C37.7518027,47.5247958 40.7590924,44.6614625 40.7590924,39.9843906 C40.7590924,36.4765866 38.6760399,33.6946704 35.4360488,33.6946704 C27.7625338,33.6946704 29.8831188,48.1280675 21.4383113,48.1280675 C17.8511448,48.1280675 14.4582088,44.7821169 14.4582088,39.6626457 C14.4582088,35.0669908 16.9653783,32.4861653 16.9653783,32.4861653 L18.3906742,33.4533618 C18.3906742,33.4533618 16.0777352,35.8713531 16.0777352,39.6214466 C16.0777352,43.8159013 18.7772587,46.3143288 21.3989022,46.3143288 C28.5347645,46.3143288 26.3353613,31.8809317 35.3600455,31.8809317 C39.2559167,31.8809317 42.3795571,35.0257918 42.3795571,40.0658077 C42.3795571,45.6276781 39.0232153,48.692102 39.0232153,48.692102 L37.7518027,47.5247958 Z" id="Stroke-61-Copy" fill="#FFFFFF" mask="url(#mask-2)" transform="translate(28.418883, 40.286517) scale(-1, 1) rotate(-90.000000) translate(-28.418883, -40.286517) "></path>
                                        </g>
                                    </g>
                                    <g id="Group-31-Copy-3" transform="translate(130.486702, 78.977528)">
                                        <g id="shutterstock_1278823261-copy" transform="translate(24.816489, 24.730337) scale(-1, 1) rotate(-90.000000) translate(-24.816489, -24.730337) ">
                                            <mask id="mask-4" fill="white">
                                                <use xlink:href="#path-3"></use>
                                            </mask>
                                            <use id="Mask" fill="#FF5036" xlink:href="#path-3"></use>
                                        </g>
                                        <path d="M9.60638298,16.0109222 L9.60638298,16.6969429 C9.60638298,17.1684811 9.199712,17.5505618 8.6978261,17.5505618 L8.11277053,17.5505618 C7.61088463,17.5505618 7.20478723,17.1684811 7.20478723,16.6969429 L7.20478723,16.0109222 C7.20478723,15.539384 7.61088463,15.1573034 8.11277053,15.1573034 L8.6978261,15.1573034 C9.199712,15.1573034 9.60638298,15.539384 9.60638298,16.0109222" id="Fill-59-Copy" fill="#FFFFFF"></path>
                                        <path d="M18.412234,16.0109222 L18.412234,16.6969429 C18.412234,17.1684811 18.0055631,17.5505618 17.5036772,17.5505618 L16.9186216,17.5505618 C16.4167357,17.5505618 16.0106383,17.1684811 16.0106383,16.6969429 L16.0106383,16.0109222 C16.0106383,15.539384 16.4167357,15.1573034 16.9186216,15.1573034 L17.5036772,15.1573034 C18.0055631,15.1573034 18.412234,15.539384 18.412234,16.0109222" id="Fill-59-Copy-2" fill="#FFFFFF"></path>
                                        <path d="M25.2367303,33.4170822 C25.2367303,33.4170822 27.5647213,31.2430685 27.5647213,27.691956 C27.5647213,25.0286216 25.9521971,22.9164246 23.4440682,22.9164246 C17.5038777,22.9164246 19.1454564,33.8751221 12.6081961,33.8751221 C9.83131316,33.8751221 7.20478723,31.3346765 7.20478723,27.447668 C7.20478723,23.9583723 9.14562719,21.9988553 9.14562719,21.9988553 L10.2489715,22.7332087 C10.2489715,22.7332087 8.45848849,24.5690921 8.45848849,27.4163873 C8.45848849,30.6010679 10.5482327,32.4980233 12.5776889,32.4980233 C18.1016738,32.4980233 16.3990807,21.5393258 23.3852329,21.5393258 C26.401089,21.5393258 28.8191489,23.9270915 28.8191489,27.7537727 C28.8191489,31.9766771 26.2209511,34.3033708 26.2209511,34.3033708 L25.2367303,33.4170822 Z" id="Stroke-61-Copy" fill="#FFFFFF"></path>
                                    </g>
                                    <g id="Group-31-Copy-2" transform="translate(38.425532, 46.269663) scale(-1, 1) translate(-38.425532, -46.269663) translate(0.000000, 7.977528)">
                                        <g id="shutterstock_1278823261-copy" transform="translate(38.425532, 38.292135) scale(-1, 1) rotate(-90.000000) translate(-38.425532, -38.292135) ">
                                            <mask id="mask-6" fill="white">
                                                <use xlink:href="#path-5"></use>
                                            </mask>
                                            <use id="Mask" fill="#FF5036" xlink:href="#path-5"></use>
                                        </g>
                                        <path d="M16.0106383,24.5575296 L16.0106383,25.7008974 C16.0106383,26.4867944 15.3328533,27.1235955 14.4963768,27.1235955 L13.5212842,27.1235955 C12.6848077,27.1235955 12.0079787,26.4867944 12.0079787,25.7008974 L12.0079787,24.5575296 C12.0079787,23.7716326 12.6848077,23.1348315 13.5212842,23.1348315 L14.4963768,23.1348315 C15.3328533,23.1348315 16.0106383,23.7716326 16.0106383,24.5575296" id="Fill-59-Copy" fill="#FFFFFF"></path>
                                        <path d="M28.018617,24.5575296 L28.018617,25.7008974 C28.018617,26.4867944 27.3408321,27.1235955 26.5043556,27.1235955 L25.5292629,27.1235955 C24.6927864,27.1235955 24.0159574,26.4867944 24.0159574,25.7008974 L24.0159574,24.5575296 C24.0159574,23.7716326 24.6927864,23.1348315 25.5292629,23.1348315 L26.5043556,23.1348315 C27.3408321,23.1348315 28.018617,23.7716326 28.018617,24.5575296" id="Fill-59-Copy-2" fill="#FFFFFF"></path>
                                        <path d="M39.257136,51.2668595 C39.257136,51.2668595 42.8784554,47.8699631 42.8784554,42.3213498 C42.8784554,38.1598898 40.3700844,34.859582 36.4685506,34.859582 C27.2282542,34.859582 29.781821,51.9825468 19.6127494,51.9825468 C15.2931538,51.9825468 11.2074468,48.0131005 11.2074468,41.9396498 C11.2074468,36.4876252 14.2265312,33.4258799 14.2265312,33.4258799 L15.9428445,34.5733071 C15.9428445,34.5733071 13.1576488,37.441875 13.1576488,41.8907736 C13.1576488,46.8668371 16.408362,49.83083 19.5652938,49.83083 C28.1581593,49.83083 25.5096811,32.7078652 36.3770289,32.7078652 C41.0683606,32.7078652 44.8297872,36.438749 44.8297872,42.4179385 C44.8297872,49.0162265 40.7881462,52.6516854 40.7881462,52.6516854 L39.257136,51.2668595 Z" id="Stroke-61-Copy" fill="#FFFFFF"></path>
                                    </g>
                                    <g id="Group-33-Copy" transform="translate(120.207104, 51.806339) rotate(36.000000) translate(-120.207104, -51.806339) translate(92.366281, 25.297586)">
                                        <mask id="mask-8" fill="white">
                                            <use xlink:href="#path-7"></use>
                                        </mask>
                                        <use id="Mask-Copy-3" stroke="#FF5036" stroke-width="0.8" xlink:href="#path-7"></use>
                                        <mask id="mask-10" fill="white">
                                            <use xlink:href="#path-9"></use>
                                        </mask>
                                        <use id="Mask-Copy-4" stroke="#FF5036" stroke-width="0.8" xlink:href="#path-9"></use>
                                    </g>
                                    <path d="M120.444855,54.6460674 L119.714479,54.6460674 C118.589897,54.6460674 117.678191,53.7101176 117.678191,52.5559361 L117.678191,51.9496819 C117.678191,50.7952532 118.589897,49.8595506 119.714479,49.8595506 L120.444855,49.8595506 C121.569436,49.8595506 122.481383,50.7952532 122.481383,51.9496819 L122.481383,52.5559361 C122.481383,53.7101176 121.569436,54.6460674 120.444855,54.6460674" id="Fill-22-Copy-5" fill="#FF5036"></path>
                                    <path d="M111.639004,54.6460674 L110.908628,54.6460674 C109.784046,54.6460674 108.87234,53.7101176 108.87234,52.5559361 L108.87234,51.9496819 C108.87234,50.7952532 109.784046,49.8595506 110.908628,49.8595506 L111.639004,49.8595506 C112.763585,49.8595506 113.675532,50.7952532 113.675532,51.9496819 L113.675532,52.5559361 C113.675532,53.7101176 112.763585,54.6460674 111.639004,54.6460674" id="Fill-22-Copy-6" fill="#FF5036"></path>
                                    <path d="M129.250706,54.6460674 L128.52033,54.6460674 C127.395748,54.6460674 126.484043,53.7101176 126.484043,52.5559361 L126.484043,51.9496819 C126.484043,50.7952532 127.395748,49.8595506 128.52033,49.8595506 L129.250706,49.8595506 C130.375287,49.8595506 131.287234,50.7952532 131.287234,51.9496819 L131.287234,52.5559361 C131.287234,53.7101176 130.375287,54.6460674 129.250706,54.6460674" id="Fill-22-Copy-7" fill="#FF5036"></path>
                                </g>
                                <rect id="Rectangle" x="0" y="0" width="301" height="142"></rect>
                            </g>
                        </g>
                    </g>
                </g>
            </g>
        </g>
    </g>
</svg>