<?xml version="1.0" encoding="UTF-8"?>
<svg width="745px" height="437px" viewBox="0 0 745 437" version="1.1" xmlns="http://www.w3.org/2000/svg" xmlns:xlink="http://www.w3.org/1999/xlink">
    <title>Group 124</title>
    <g id="最終版" stroke="none" stroke-width="1" fill="none" fill-rule="evenodd">
        <g id="Desktop_1440" transform="translate(-538.000000, -4647.000000)">
            <g id="Group-124" transform="translate(538.000000, 4647.609067)">
                <g id="Group-72" transform="translate(349.059265, 211.783488) rotate(4.000000) translate(-349.059265, -211.783488) translate(73.047225, 18.783488)">
                    <path d="M316.880943,318.705189 C466.418779,273.237774 570.470194,180.517407 549.286284,111.608452 C528.102374,42.6994976 389.705055,23.6963754 240.167219,69.1637906 C90.6293838,114.631206 -13.4220317,207.351573 7.76187806,276.260528 C28.9457879,345.169482 167.343107,364.172604 316.880943,318.705189 Z" id="Oval" stroke="#FF5036"></path>
                    <path d="M329.896048,308.268109 C467.941594,238.314031 553.410184,129.997755 520.795488,66.3369362 C488.180791,2.67611735 349.83333,7.77781228 211.787784,77.7318908 C73.7422387,147.685969 -11.7263517,256.002245 20.8883447,319.663064 C53.5030411,383.323883 191.850502,378.222188 329.896048,308.268109 Z" id="Oval-Copy-4" stroke="#FF5036" opacity="0.312541417" transform="translate(270.841916, 193.000000) rotate(-5.000000) translate(-270.841916, -193.000000) "></path>
                    <path d="M219.169469,346.00827 C216.259868,346.00827 213.901035,343.578916 213.901035,340.581687 L213.901035,339.007677 C213.901035,336.010448 216.259868,333.581095 219.169469,333.581095 L221.059153,333.581095 C223.968754,333.581095 226.32821,336.010448 226.32821,339.007677 L226.32821,340.581687 C226.32821,343.578916 223.968754,346.00827 221.059153,346.00827 L219.169469,346.00827 Z" id="Fill-25-Copy-17" fill="#FF5036" transform="translate(220.114622, 339.794682) rotate(10.000000) translate(-220.114622, -339.794682) "></path>
                    <path d="M465.978414,251.799939 C464.159913,251.799939 462.685643,250.281593 462.685643,248.408325 L462.685643,247.424568 C462.685643,245.5513 464.159913,244.032954 465.978414,244.032954 L467.159466,244.032954 C468.977967,244.032954 470.452627,245.5513 470.452627,247.424568 L470.452627,248.408325 C470.452627,250.281593 468.977967,251.799939 467.159466,251.799939 L465.978414,251.799939 Z" id="Fill-25-Copy-17" fill="#FF5036" transform="translate(466.569135, 247.916447) rotate(10.000000) translate(-466.569135, -247.916447) "></path>
                </g>
                <g id="Group-142" transform="translate(0.000000, 298.101179)">
                    <path d="M102.773288,49 C91.3008122,49 82,39.4211287 82,27.6031394 L82,21.3968606 C82,9.57887128 91.3008122,0 102.773288,0 L110.224255,0 C121.696731,0 131,9.57887128 131,21.3968606 L131,27.6031394 C131,39.4211287 121.696731,49 110.224255,49 L102.773288,49 Z" id="Fill-25-Copy-14" fill="#FF5036"></path>
                    <g id="Group-141" transform="translate(0.000000, 20.289754)">
                        <text id="Developer" font-family="MuseoSans-500, Museo Sans" font-size="16" font-weight="normal" letter-spacing="-0.385882286" fill="#242628">
                            <tspan x="0" y="111">Developer</tspan>
                        </text>
                        <g id="Group-120">
                            <g id="Group-8-Copy" transform="translate(45.500000, 35.500000) rotate(-180.000000) translate(-45.500000, -35.500000) " fill="#E4E9EF">
                                <rect id="Rectangle-Copy-5" x="0" y="0" width="91" height="71"></rect>
                            </g>
                            <g id="Group-112" transform="translate(14.000000, 12.000000)">
                                <rect id="Rectangle-Copy-20" stroke="#FF5036" stroke-width="1.2" fill="#242628" x="0" y="0" width="96" height="76"></rect>
                                <path d="M27.7117186,45.6576196 L37.9773305,56.4758729 C38.1129011,56.630386 38.3414227,56.630386 38.4767902,56.4756609 L48.7328635,45.6574077 C48.9390606,45.4223527 48.7838039,45.0361757 48.4830322,45.0361757 L44.8074065,45.0361757 C44.6162277,45.0361757 44.4337757,45.1218044 44.3038878,45.2725024 L38.2271619,51.9278021 L32.1295321,45.2716546 C31.9996441,45.1215925 31.8173951,45.0361757 31.6268252,45.0361757 L27.961347,45.0361757 C27.6605753,45.0361757 27.5053186,45.4223527 27.7117186,45.6576196" id="Fill-13" fill="#E4E9EF" transform="translate(38.222222, 50.813953) rotate(-270.000000) translate(-38.222222, -50.813953) "></path>
                                <path d="M60.6006075,45.6576196 L70.8662194,56.4758729 C71.00179,56.630386 71.2303116,56.630386 71.3656791,56.4756609 L81.6217524,45.6574077 C81.8279495,45.4223527 81.6726928,45.0361757 81.3719211,45.0361757 L77.6962954,45.0361757 C77.5051166,45.0361757 77.3226646,45.1218044 77.1927767,45.2725024 L71.1160508,51.9278021 L65.018421,45.2716546 C64.888533,45.1215925 64.706284,45.0361757 64.5157141,45.0361757 L60.8502359,45.0361757 C60.5494642,45.0361757 60.3942075,45.4223527 60.6006075,45.6576196" id="Fill-13-Copy-3" fill="#E4E9EF" transform="translate(71.111111, 50.813953) rotate(-90.000000) translate(-71.111111, -50.813953) "></path>
                                <g id="Group-114" transform="translate(9.777778, 15.023256)" stroke-width="1.2">
                                    <line x1="0.703150912" y1="0.718023256" x2="30.2354892" y2="0.718023256" id="Path-25" stroke="#E4E9EF"></line>
                                    <line x1="55.5489221" y1="0.718023256" x2="72.4245439" y2="0.718023256" id="Path-25-Copy-2" stroke="#E4E9EF"></line>
                                    <line x1="59.0646766" y1="10.7703488" x2="93.4231871" y2="10.7703488" id="Path-25-Copy-5" stroke="#E4E9EF"></line>
                                    <line x1="37.9701493" y1="0.718023256" x2="48.4169628" y2="0.718023256" id="Path-25-Copy" stroke="#FF5036"></line>
                                    <line x1="0.703150912" y1="10.7703488" x2="51.2488838" y2="10.7703488" id="Path-25-Copy-4" stroke="#FF5036"></line>
                                </g>
                                <polygon id="Path-27" fill="#FF5036" points="48.8888889 60.0930233 53.0718954 60.0930233 63.1111111 38.8837209 58.9281046 38.8837209"></polygon>
                            </g>
                        </g>
                    </g>
                </g>
                <text id="Researcher" font-family="MuseoSans-500, Museo Sans" font-size="16" font-weight="normal" letter-spacing="-0.385882286" fill="#242628">
                    <tspan x="665" y="199.101179">Researcher</tspan>
                </text>
                <g id="Group-144" transform="translate(602.777778, 82.390933)">
                    <path d="M20.7732879,114.41395 C9.30081219,114.41395 0,104.835078 0,93.017089 L0,86.8108103 C0,74.9928209 9.30081219,65.4139496 20.7732879,65.4139496 L28.2242555,65.4139496 C39.6967312,65.4139496 49,74.9928209 49,86.8108103 L49,93.017089 C49,104.835078 39.6967312,114.41395 28.2242555,114.41395 L20.7732879,114.41395 Z" id="Fill-25-Copy-13" fill="#FF5036"></path>
                    <g id="Group-118" transform="translate(29.222222, 0.000000)">
                        <g id="Group-134">
                            <rect id="Rectangle-Copy-5" fill="#E4E9EF" x="-3.33955086e-13" y="8" width="63" height="82"></rect>
                            <rect id="Rectangle-Copy-22" stroke="#FF5036" stroke-width="1.2" fill="#242628" x="15.1465241" y="0" width="57.8534759" height="80.9174312"></rect>
                            <rect id="Rectangle" fill="#E4E9EF" x="28.0874332" y="22.6871302" width="12.1796791" height="12.0998028"></rect>
                            <rect id="Rectangle-Copy-25" fill="#FF5036" x="47.1181818" y="22.6871302" width="12.1796791" height="12.0998028"></rect>
                            <line x1="8.29545455" y1="50.2898054" x2="60.8203209" y2="50.2898054" id="Path-29" stroke="#E4E9EF"></line>
                            <line x1="34.1772727" y1="58.6084198" x2="60.8203209" y2="58.6084198" id="Path-29-Copy" stroke="#FF5036"></line>
                        </g>
                        <g id="Group-113" transform="translate(8.000000, 0.000000)"></g>
                    </g>
                </g>
                <g id="Group-143" transform="translate(370.000000, 309.101179)">
                    <path d="M27.1324576,64 C12.1479996,64 0,51.4888212 0,36.05308 L0,27.94692 C0,12.5111788 12.1479996,0 27.1324576,0 L36.8643337,0 C51.8487917,0 64,12.5111788 64,27.94692 L64,36.05308 C64,51.4888212 51.8487917,64 36.8643337,64 L27.1324576,64 Z" id="Fill-25-Copy-9" fill="#FF5036"></path>
                    <g id="Group-99" transform="translate(8.000000, 25.289754)">
                        <g id="Group-8-Copy-2" transform="translate(79.500000, 32.500000) rotate(-180.000000) translate(-79.500000, -32.500000) translate(29.000000, 0.000000)" fill="#E4E9EF">
                            <rect id="Rectangle-Copy-5" x="0" y="0" width="101" height="65"></rect>
                        </g>
                        <g id="Group-116" transform="translate(0.000000, 11.000000)">
                            <rect id="Rectangle-Copy-21" stroke="#FF5036" stroke-width="1.2" fill="#242628" x="13.09" y="0" width="105.91" height="64"></rect>
                            <g id="Group-111" transform="translate(70.210000, 14.710240)">
                                <path d="M32.4410447,24.8540305 C35.1898893,22.2193399 36.89,18.5796176 36.89,14.5591901 C36.89,6.51833512 30.0894002,0 21.7,0 L21.7,14.5591901 L32.4410447,24.8540305 Z" id="Fill-1" fill="#FF5036"></path>
                                <g id="Group-5" transform="translate(0.000000, 2.161220)" fill="#E4E9EF">
                                    <path d="M16.5249763,16.2091503 L16.5249763,0 C7.3984427,0 0,7.25704337 0,16.2091503 C0,25.1612573 7.3984427,32.4183007 16.5249763,32.4183007 C21.0882431,32.4183007 25.2195726,30.603956 28.21,27.6706818 L16.5249763,16.2091503 Z" id="Fill-3"></path>
                                </g>
                            </g>
                            <line x1="0" y1="28.4444444" x2="60.69" y2="28.4444444" id="Path-28" stroke="#E4E9EF" stroke-width="1.2"></line>
                            <line x1="33.32" y1="36.7407407" x2="60.69" y2="36.7407407" id="Path-28-Copy" stroke="#FF5036" stroke-width="1.2"></line>
                        </g>
                    </g>
                </g>
                <text id="Manager" font-family="MuseoSans-500, Museo Sans" font-size="16" font-weight="normal" letter-spacing="-0.385882286" fill="#242628">
                    <tspan x="434" y="432.390933">Manager</tspan>
                </text>
            </g>
        </g>
    </g>
</svg>