<?xml version="1.0" encoding="UTF-8"?>
<svg width="135px" height="158px" viewBox="0 0 135 158" version="1.1" xmlns="http://www.w3.org/2000/svg" xmlns:xlink="http://www.w3.org/1999/xlink">
    <title>Group 124</title>
    <g id="0215_官網字級調整" stroke="none" stroke-width="1" fill="none" fill-rule="evenodd">
        <g transform="translate(-334.000000, -4744.000000)" id="Group-196">
            <g transform="translate(235.000000, 4579.000000)">
                <g id="Group-124" transform="translate(99.000000, 165.000000)">
                    <g id="Group-128" transform="translate(18.000000, 14.000000)">
                        <text id="Brand" font-family="MuseoSans-500, Museo Sans" font-size="14" font-weight="normal" letter-spacing="-0.337647" fill="#FF5036">
                            <tspan x="28" y="121">Brand</tspan>
                        </text>
                        <g id="Group-93">
                            <path d="M43.3728847,96 C20.7637786,96 2.43442623,77.2332318 2.43442623,54.07962 L2.43442623,41.92038 C2.43442623,18.7667682 20.7637786,0 43.3728847,0 L58.0567002,0 C80.6658063,0 99,18.7667682 99,41.92038 L99,54.07962 C99,77.2332318 80.6658063,96 58.0567002,96 L43.3728847,96 Z" id="Fill-25-Copy-9" fill="#E4E9EF"></path>
                            <g id="Group-88" transform="translate(0.000000, 12.907563)" stroke-width="0.972">
                                <g id="Group-63" transform="translate(0.000000, 7.260504)">
                                    <rect id="Rectangle" stroke="#FF5036" fill="#FF5036" x="0" y="0" width="84.3934426" height="51.6302521"></rect>
                                    <line x1="6.71412531" y1="41.5462185" x2="38.7284976" y2="41.5462185" id="Path-23" stroke="#242628"></line>
                                    <line x1="6.49180328" y1="35.8991597" x2="24.1211066" y2="35.8991597" id="Path-23-Copy" stroke="#E4E9EF"></line>
                                </g>
                                <ellipse id="Oval" stroke="#242628" fill="#242628" cx="33.6762295" cy="14.9243697" rx="15.0122951" ry="14.9243697"></ellipse>
                                <line x1="94.942623" y1="7.57653989" x2="95.3483607" y2="68.2553929" id="Path-15" stroke="#FF5036"></line>
                                <line x1="94.942623" y1="68.9747899" x2="10.5491803" y2="68.9747899" id="Path-15-Copy" stroke="#FF5036"></line>
                            </g>
                            <polygon id="Triangle" stroke="#FF5036" stroke-width="0.972" fill="#FFFFFF" transform="translate(62.656785, 41.775011) rotate(-291.000000) translate(-62.656785, -41.775011) " points="68.8736969 15.5682309 89.6827569 67.9817909 35.6308132 61.8890982"></polygon>
                            <path d="M10.055444,85.512605 C8.53550406,85.512605 7.30327869,84.2509736 7.30327869,82.6944282 L7.30327869,81.8770003 C7.30327869,80.320455 8.53550406,79.0588235 10.055444,79.0588235 L11.0425912,79.0588235 C12.5625311,79.0588235 13.795082,80.320455 13.795082,81.8770003 L13.795082,82.6944282 C13.795082,84.2509736 12.5625311,85.512605 11.0425912,85.512605 L10.055444,85.512605 Z" id="Fill-25-Copy-16" fill="#FF5036"></path>
                            <path d="M94.4488866,85.512605 C92.9289467,85.512605 91.6967213,84.2509736 91.6967213,82.6944282 L91.6967213,81.8770003 C91.6967213,80.320455 92.9289467,79.0588235 94.4488866,79.0588235 L95.4360338,79.0588235 C96.9559738,79.0588235 98.1885246,80.320455 98.1885246,81.8770003 L98.1885246,82.6944282 C98.1885246,84.2509736 96.9559738,85.512605 95.4360338,85.512605 L94.4488866,85.512605 Z" id="Fill-25-Copy-17" fill="#FF5036"></path>
                            <path d="M94.4488866,24.2016807 C92.9289467,24.2016807 91.6967213,22.9400492 91.6967213,21.3835039 L91.6967213,20.566076 C91.6967213,19.0095306 92.9289467,17.7478992 94.4488866,17.7478992 L95.4360338,17.7478992 C96.9559738,17.7478992 98.1885246,19.0095306 98.1885246,20.566076 L98.1885246,21.3835039 C98.1885246,22.9400492 96.9559738,24.2016807 95.4360338,24.2016807 L94.4488866,24.2016807 Z" id="Fill-25-Copy-18" fill="#FF5036"></path>
                        </g>
                    </g>
                    <rect id="Rectangle-Copy-32" x="0" y="0" width="135" height="158"></rect>
                </g>
            </g>
        </g>
    </g>
</svg>