<?xml version="1.0" encoding="UTF-8"?>
<svg width="135px" height="158px" viewBox="0 0 135 158" version="1.1" xmlns="http://www.w3.org/2000/svg" xmlns:xlink="http://www.w3.org/1999/xlink">
    <title>Group 140</title>
    <g id="0215_官網字級調整" stroke="none" stroke-width="1" fill="none" fill-rule="evenodd">
        <g transform="translate(-668.000000, -4744.000000)" id="Group-196">
            <g transform="translate(235.000000, 4579.000000)">
                <g id="Group-140" transform="translate(433.000000, 165.000000)">
                    <path d="" id="Path-2" stroke="#979797"></path>
                    <g id="Group-138" transform="translate(14.000000, 14.000000)">
                        <text id="Research" font-family="MuseoSans-500, Museo Sans" font-size="14" font-weight="normal" letter-spacing="-0.337647" fill="#FF5036">
                            <tspan x="31" y="121">Research</tspan>
                        </text>
                        <g id="Group-192">
                            <path d="M51.57526,96 C29.0484075,96 10.7857386,77.2332318 10.7857386,54.07962 L10.7857386,41.92038 C10.7857386,18.7667682 29.0484075,0 51.57526,0 L66.2056548,0 C88.7325074,0 107,18.7667682 107,41.92038 L107,54.07962 C107,77.2332318 88.7325074,96 66.2056548,96 L51.57526,96 Z" id="Fill-25-Copy-10" fill="#E4E9EF"></path>
                            <g id="Group-98" transform="translate(-0.000000, 9.041462)">
                                <g id="Group-91" stroke-width="0.972">
                                    <polygon id="Rectangle-Copy-18" stroke="#FF5036" fill="#FF5036" transform="translate(44.873848, 35.685472) rotate(-15.000000) translate(-44.873848, -35.685472) " points="5.50053095 9.24945687 84.2216681 9.28738405 84.2471657 62.1214872 5.52602853 62.08356"></polygon>
                                    <polygon id="Rectangle" stroke="#FF5036" fill="#FFFFFF" transform="translate(54.197005, 41.634536) rotate(-15.000000) translate(-54.197005, -41.634536) " points="14.8233897 14.5805777 93.5445269 14.6185049 93.5706209 68.6884935 14.8494837 68.6505663"></polygon>
                                    <g id="Group-72" transform="translate(85.099080, 33.601760) rotate(-15.000000) translate(-85.099080, -33.601760) translate(63.827646, 28.522638)">
                                        <g id="Group-96" transform="translate(-0.000000, -0.000000)">
                                            <g id="Group-97" transform="translate(0.000000, -0.000000)">
                                                <line x1="0.142216794" y1="1.14808727" x2="37.404361" y2="0.968180245" id="Path-17" stroke="#FF5036"></line>
                                                <line x1="0.546089508" y1="5.62299923" x2="41.9594894" y2="5.21784508" id="Path-17-Copy" stroke="#242628"></line>
                                                <line x1="0" y1="9.77595964" x2="16.4627373" y2="9.77595964" id="Path-17-Copy-2" stroke="#FF5036"></line>
                                            </g>
                                        </g>
                                    </g>
                                </g>
                                <polygon id="Rectangle" fill="#242628" transform="translate(34.163137, 40.377933) rotate(-15.000000) translate(-34.163137, -40.377933) " points="21.8950874 28.1676533 46.3978331 28.2010069 46.4311866 52.5882124 21.928441 52.5548589"></polygon>
                                <g id="Group-95" transform="translate(31.458404, 30.435173)" stroke="#FF5036">
                                    <ellipse id="Oval-Copy-3" stroke-width="0.972" transform="translate(12.385688, 12.584896) rotate(-90.000000) translate(-12.385688, -12.584896) " cx="12.3856877" cy="12.5848963" rx="12.5848963" ry="12.3856877"></ellipse>
                                    <line x1="25.8924225" y1="31.8782619" x2="35.4809149" y2="15.9538064" id="Path-24" stroke-width="4.86" transform="translate(30.686669, 23.916034) rotate(-90.000000) translate(-30.686669, -23.916034) "></line>
                                </g>
                            </g>
                        </g>
                    </g>
                    <rect id="Rectangle" x="0" y="0" width="135" height="158"></rect>
                </g>
            </g>
        </g>
    </g>
</svg>