<?xml version="1.0" encoding="UTF-8"?>
<svg width="135px" height="158px" viewBox="0 0 135 158" version="1.1" xmlns="http://www.w3.org/2000/svg" xmlns:xlink="http://www.w3.org/1999/xlink">
    <title>Group 134</title>
    <g id="0215_官網字級調整" stroke="none" stroke-width="1" fill="none" fill-rule="evenodd">
        <g transform="translate(-501.000000, -4744.000000)" id="Group-196">
            <g transform="translate(235.000000, 4579.000000)">
                <g id="Group-134" transform="translate(266.000000, 165.000000)">
                    <g id="Group-100" transform="translate(15.000000, 14.000000)">
                        <path d="M50.6211498,96 C28.1129488,96 9.86540076,77.2332318 9.86540076,54.07962 L9.86540076,41.92038 C9.86540076,18.7667682 28.1129488,0 50.6211498,0 L65.2394312,0 C87.7476322,0 106,18.7667682 106,41.92038 L106,54.07962 C106,77.2332318 87.7476322,96 65.2394312,96 L50.6211498,96 Z" id="Fill-25-Copy-11" fill="#E4E9EF"></path>
                        <g id="Group-85" transform="translate(35.545566, 8.873950)" stroke-width="0.972">
                            <rect id="Rectangle" stroke="#FF5036" fill="#FF5036" x="6.4628302" y="7.2605042" width="61.3968869" height="71.7983193"></rect>
                            <rect id="Rectangle-Copy" stroke="#FF5036" fill="#FFFFFF" x="0" y="0" width="61.3968869" height="71.7983193"></rect>
                            <rect id="Rectangle" stroke="#242628" fill="#242628" x="11.3099529" y="8.87394958" width="37.9691274" height="17.7478992"></rect>
                            <line x1="11.3099529" y1="8.87394958" x2="49.2790803" y2="26.6218487" id="Path-20" stroke="#FF5036"></line>
                            <line x1="11.3099529" y1="8.87394958" x2="49.2790803" y2="26.6218487" id="Path-20-Copy" stroke="#FF5036" transform="translate(30.294517, 17.747899) scale(1, -1) translate(-30.294517, -17.747899) "></line>
                            <line x1="11.3099529" y1="35.8991597" x2="49.2790803" y2="35.8991597" id="Path-21" stroke="#242628"></line>
                            <line x1="11.3099529" y1="40.7394958" x2="37.9691274" y2="40.7394958" id="Path-21-Copy" stroke="#FF5036"></line>
                        </g>
                        <g id="Group-94" transform="translate(0.000000, 32.268908)">
                            <g id="Group-92" transform="translate(3.231415, 3.226891)">
                                <polyline id="Path-19" stroke="#FF5036" stroke-width="0.972" points="0 0 20.1963444 0 20.1963444 32.2689076 60.5890331 32.2689076"></polyline>
                                <polygon id="Path-22" fill="#FF5036" points="59.7811794 29.0420168 59.7811794 36.302521 67.0518633 32.4302521"></polygon>
                            </g>
                            <path d="M2.73988229,6.45378151 C1.22672592,6.45378151 0,5.19215004 0,3.6356047 L0,2.81817681 C0,1.26163148 1.22672592,0 2.73988229,0 L3.72262389,0 C5.23578027,0 6.4628302,1.26163148 6.4628302,2.81817681 L6.4628302,3.6356047 C6.4628302,5.19215004 5.23578027,6.45378151 3.72262389,6.45378151 L2.73988229,6.45378151 Z" id="Fill-25-Copy-15" fill="#FF5036"></path>
                        </g>
                    </g>
                    <g id="Architecture" transform="translate(33.112000, 125.116000)" fill="#FF5036" fill-rule="nonzero">
                        <path d="M7.126,9.884 L8.568,9.884 L5.012,0 L3.556,0 L0,9.884 L1.428,9.884 L2.408,7.042 L6.132,7.042 L7.126,9.884 Z M4.298,1.358 C4.298,1.358 4.508,2.254 4.676,2.758 L5.768,5.894 L2.772,5.894 L3.878,2.758 C4.046,2.254 4.27,1.358 4.27,1.358 L4.298,1.358 Z" id="Shape"></path>
                        <path d="M9.406353,9.884 L10.764353,9.884 L10.764353,6.986 C10.764353,6.552 10.806353,6.118 10.932353,5.712 C11.254353,4.662 12.052353,4.046 12.920353,4.046 C13.130353,4.046 13.312353,4.088 13.312353,4.088 L13.312353,2.744 C13.312353,2.744 13.144353,2.716 12.962353,2.716 C11.870353,2.716 11.044353,3.528 10.722353,4.564 L10.694353,4.564 C10.694353,4.564 10.722353,4.326 10.722353,4.032 L10.722353,2.8 L9.406353,2.8 L9.406353,9.884 Z" id="Path"></path>
                        <path d="M13.772706,6.342 C13.772706,8.47 15.340706,10.052 17.566706,10.052 C19.414706,10.052 20.394706,8.918 20.394706,8.918 L19.848706,7.924 C19.848706,7.924 18.980706,8.876 17.664706,8.876 C16.194706,8.876 15.158706,7.77 15.158706,6.328 C15.158706,4.872 16.194706,3.808 17.622706,3.808 C18.826706,3.808 19.582706,4.62 19.582706,4.62 L20.226706,3.668 C20.226706,3.668 19.344706,2.632 17.566706,2.632 C15.340706,2.632 13.772706,4.242 13.772706,6.342 Z" id="Path"></path>
                        <path d="M21.597059,9.884 L22.955059,9.884 L22.955059,6.566 C22.955059,6.23 22.983059,5.908 23.067059,5.628 C23.361059,4.606 24.243059,3.878 25.307059,3.878 C26.441059,3.878 26.651059,4.662 26.651059,5.656 L26.651059,9.884 L28.009059,9.884 L28.009059,5.348 C28.009059,3.542 27.239059,2.632 25.573059,2.632 C24.159059,2.632 23.263059,3.528 22.955059,4.214 L22.927059,4.214 C22.927059,4.214 22.955059,3.962 22.955059,3.626 L22.955059,0 L21.597059,0 L21.597059,9.884 Z" id="Path"></path>
                        <path d="M29.687412,1.386 L31.059412,1.386 L31.059412,0 L29.687412,0 L29.687412,1.386 Z M29.701412,9.884 L31.059412,9.884 L31.059412,2.8 L29.701412,2.8 L29.701412,9.884 Z" id="Shape"></path>
                        <path d="M33.143765,7.294 C33.143765,9.66 34.949765,9.94 35.859765,9.94 C36.139765,9.94 36.335765,9.912 36.335765,9.912 L36.335765,8.708 C36.335765,8.708 36.209765,8.736 36.013765,8.736 C35.495765,8.736 34.501765,8.554 34.501765,7.14 L34.501765,3.99 L36.209765,3.99 L36.209765,2.898 L34.501765,2.898 L34.501765,0.854 L33.185765,0.854 L33.185765,2.898 L32.219765,2.898 L32.219765,3.99 L33.143765,3.99 L33.143765,7.294 Z" id="Path"></path>
                        <path d="M37.034118,6.342 C37.034118,8.442 38.560118,10.052 40.786118,10.052 C42.480118,10.052 43.530118,9.044 43.530118,9.044 L42.970118,8.05 C42.970118,8.05 42.088118,8.876 40.870118,8.876 C39.610118,8.876 38.504118,8.092 38.434118,6.538 L43.600118,6.538 C43.600118,6.538 43.642118,6.132 43.642118,5.95 C43.642118,4.116 42.578118,2.632 40.576118,2.632 C38.560118,2.632 37.034118,4.088 37.034118,6.342 Z M38.476118,5.516 C38.672118,4.354 39.512118,3.71 40.548118,3.71 C41.458118,3.71 42.214118,4.298 42.256118,5.516 L38.476118,5.516 Z" id="Shape"></path>
                        <path d="M44.452471,6.342 C44.452471,8.47 46.020471,10.052 48.246471,10.052 C50.094471,10.052 51.074471,8.918 51.074471,8.918 L50.528471,7.924 C50.528471,7.924 49.660471,8.876 48.344471,8.876 C46.874471,8.876 45.838471,7.77 45.838471,6.328 C45.838471,4.872 46.874471,3.808 48.302471,3.808 C49.506471,3.808 50.262471,4.62 50.262471,4.62 L50.906471,3.668 C50.906471,3.668 50.024471,2.632 48.246471,2.632 C46.020471,2.632 44.452471,4.242 44.452471,6.342 Z" id="Path"></path>
                        <path d="M52.570824,7.294 C52.570824,9.66 54.376824,9.94 55.286824,9.94 C55.566824,9.94 55.762824,9.912 55.762824,9.912 L55.762824,8.708 C55.762824,8.708 55.636824,8.736 55.440824,8.736 C54.922824,8.736 53.928824,8.554 53.928824,7.14 L53.928824,3.99 L55.636824,3.99 L55.636824,2.898 L53.928824,2.898 L53.928824,0.854 L52.612824,0.854 L52.612824,2.898 L51.646824,2.898 L51.646824,3.99 L52.570824,3.99 L52.570824,7.294 Z" id="Path"></path>
                        <path d="M56.853177,7.336 C56.853177,9.212 57.679177,10.052 59.275177,10.052 C60.661177,10.052 61.585177,9.128 61.879177,8.428 L61.907177,8.428 C61.907177,8.428 61.879177,8.652 61.879177,8.946 L61.879177,9.884 L63.195177,9.884 L63.195177,2.8 L61.837177,2.8 L61.837177,6.118 C61.837177,7.518 60.983177,8.792 59.541177,8.792 C58.407177,8.792 58.211177,8.008 58.211177,7.028 L58.211177,2.8 L56.853177,2.8 L56.853177,7.336 Z" id="Path"></path>
                        <path d="M64.98553,9.884 L66.34353,9.884 L66.34353,6.986 C66.34353,6.552 66.38553,6.118 66.51153,5.712 C66.83353,4.662 67.63153,4.046 68.49953,4.046 C68.70953,4.046 68.89153,4.088 68.89153,4.088 L68.89153,2.744 C68.89153,2.744 68.72353,2.716 68.54153,2.716 C67.44953,2.716 66.62353,3.528 66.30153,4.564 L66.27353,4.564 C66.27353,4.564 66.30153,4.326 66.30153,4.032 L66.30153,2.8 L64.98553,2.8 L64.98553,9.884 Z" id="Path"></path>
                        <path d="M69.365883,6.342 C69.365883,8.442 70.891883,10.052 73.117883,10.052 C74.811883,10.052 75.861883,9.044 75.861883,9.044 L75.301883,8.05 C75.301883,8.05 74.419883,8.876 73.201883,8.876 C71.941883,8.876 70.835883,8.092 70.765883,6.538 L75.931883,6.538 C75.931883,6.538 75.973883,6.132 75.973883,5.95 C75.973883,4.116 74.909883,2.632 72.907883,2.632 C70.891883,2.632 69.365883,4.088 69.365883,6.342 Z M70.807883,5.516 C71.003883,4.354 71.843883,3.71 72.879883,3.71 C73.789883,3.71 74.545883,4.298 74.587883,5.516 L70.807883,5.516 Z" id="Shape"></path>
                    </g>
                    <rect id="Rectangle-Copy-34" x="0" y="0" width="135" height="158"></rect>
                </g>
            </g>
        </g>
    </g>
</svg>