<?xml version="1.0" encoding="UTF-8"?>
<svg width="96px" height="96px" viewBox="0 0 96 96" version="1.1" xmlns="http://www.w3.org/2000/svg" xmlns:xlink="http://www.w3.org/1999/xlink">
    <title>Group 125</title>
    <g id="最終版" stroke="none" stroke-width="1" fill="none" fill-rule="evenodd">
        <g id="Desktop_1440" transform="translate(-928.000000, -1102.000000)">
            <g id="Group-125" transform="translate(928.000000, 1102.000000)">
                <g id="Group-110" transform="translate(10.000000, 2.000000)">
                    <path d="M28.4378133,67.0773894 C12.7324457,67.0773894 0,53.9646204 0,37.7866638 L0,29.2907256 C0,13.1127689 12.7324457,-1.70530257e-13 28.4378133,-1.70530257e-13 L38.6378946,-1.70530257e-13 C54.3432621,-1.70530257e-13 67.0790709,13.1127689 67.0790709,29.2907256 L67.0790709,37.7866638 C67.0790709,53.9646204 54.3432621,67.0773894 38.6378946,67.0773894 L28.4378133,67.0773894 Z" id="Fill-25-Copy" fill="#E4E9EF"></path>
                    <g id="Group-5" transform="translate(19.079522, 12.076687)">
                        <path d="M12.1721578,26.072476 C12.1721578,18.9228578 29.8654808,17.2603534 43.8932199,22.4030824 C44.6689353,22.6874422 45.6032998,22.3091042 45.6032998,21.7015807 L45.6032998,15.5772343 C45.6032998,15.2601337 45.3333333,14.973955 44.9134829,14.8448107 C40.4765661,13.4842491 34.0499613,12 27.1149781,12 C14.3117298,12 0.837947925,15.1922269 0.837947925,26.072476 C0.837947925,42.2070153 39.9173498,42.810901 39.9173498,55.1699423 C39.9173498,65.2644125 16.3785512,64.9958168 1.71007992,59.3365108 C0.943129673,59.0406311 0,59.430489 0,60.0380125 L0,66.7207713 C0,66.9996743 0.207733952,67.2579627 0.551327662,67.4034773 C8.47151328,70.7539514 51,77.4009377 51,55.1699423 C51,37.2492111 12.1721578,36.4773773 12.1721578,26.072476" id="Fill-1" stroke="#FF5036"></path>
                        <path d="M18.1721578,24.072476 C18.1721578,16.9228578 35.8654808,15.2603534 49.8932199,20.4030824 C50.6689353,20.6874422 51.6032998,20.3091042 51.6032998,19.7015807 L51.6032998,13.5772343 C51.6032998,13.2601337 51.3333333,12.973955 50.9134829,12.8448107 C46.4765661,11.4842491 40.0499613,10 33.1149781,10 C20.3117298,10 6.83794792,13.1922269 6.83794792,24.072476 C6.83794792,40.2070153 45.9173498,40.810901 45.9173498,53.1699423 C45.9173498,63.2644125 22.3785512,62.9958168 7.71007992,57.3365108 C6.94312967,57.0406311 6,57.430489 6,58.0380125 L6,64.7207713 C6,64.9996743 6.20773395,65.2579627 6.55132766,65.4034773 C14.4715133,68.7539514 57,75.4009377 57,53.1699423 C57,35.2492111 18.1721578,34.4773773 18.1721578,24.072476" id="Fill-1-Copy" stroke="#FF5036"></path>
                        <path d="M34,1 L34,34 L34,34 L25.6566357,30.9497378 C25.262289,30.805568 25,30.4304096 25,30.0105355 L25,1 C25,0.44771525 25.4477153,1.01453063e-16 26,0 L33,0 C33.5522847,-1.01453063e-16 34,0.44771525 34,1 Z" id="Path-6-Copy-3" fill="#FF5036"></path>
                        <path d="M34,44 L34,80 L34,80 L25.5907853,76.2285946 C25.2313144,76.0673774 25,75.7101239 25,75.3161565 L25,44 C25,43.4477153 25.4477153,43 26,43 L33,43 C33.5522847,43 34,43.4477153 34,44 Z" id="Path-6-Copy-4" fill="#FF5036" transform="translate(29.500000, 61.500000) rotate(-180.000000) translate(-29.500000, -61.500000) "></path>
                    </g>
                </g>
                <rect id="Rectangle-Copy-7" x="0" y="0" width="96" height="96"></rect>
            </g>
        </g>
    </g>
</svg>